<?xml version="1.0" encoding="UTF-8"?>
<svg width="24px" height="29px" viewBox="0 0 24 29" version="1.1" xmlns="http://www.w3.org/2000/svg" xmlns:xlink="http://www.w3.org/1999/xlink">
    <!-- Generator: Sketch 54.1 (76490) - https://sketchapp.com -->
    <title>16</title>
    <desc>Created with Sketch.</desc>
    <g id="待定" stroke="none" stroke-width="1" fill="none" fill-rule="evenodd">
        <g id="工具栏汇总复制" transform="translate(-1460.000000, -763.000000)" fill="#FFFFFF">
            <g id="编组-25" transform="translate(1382.000000, 615.000000)">
                <g id="16" transform="translate(78.000000, 147.000000) scale(0.9)">
                    <g id="编组复制-27">
                        <polygon id="Fill-1" points="11.0061 7.3645 10.9781 29.2045 13.3411 29.2125 13.3601 7.2255"></polygon>
                        <g id="编组" transform="translate(0.000000, 0.212000)">
                            <path d="M11.1419,6.9521 C11.2879,6.5281 12.6949,5.3741 13.7769,4.8721 C14.8589,4.3701 16.7669,4.4241 16.7669,4.4241 L19.8759,4.4361 L16.9199,0.8521 L19.5879,0.7881 L23.3159,5.4501 L19.5939,10.2231 L16.7529,10.1521 L19.9899,6.3461 L16.5529,6.3281 C16.5529,6.3281 14.8769,6.3221 13.7109,7.1411 C12.5449,7.9611 12.2499,9.6071 12.2439,10.0061 C12.2339,10.8041 10.8439,7.7981 11.1419,6.9521" id="Fill-4"></path>
                            <path d="M13.033,17.6533 C12.758,12.1303 3.798,12.1213 3.902,17.7733 L3.926,25.9723 L0.309,22.7813 L0.24,24.9083 L5.022,28.9303 L9.587,24.9343 L9.593,22.6003 L5.988,25.8763 L6.006,18.1883 C6.091,14.4813 10.917,14.6183 11.11,18.0903 L13.033,17.6533 Z" id="Fill-6"></path>
                        </g>
                    </g>
                </g>
            </g>
        </g>
    </g>
</svg>