<?xml version="1.0" encoding="UTF-8"?>
<svg width="21px" height="35px" viewBox="0 0 21 35" version="1.1" xmlns="http://www.w3.org/2000/svg" xmlns:xlink="http://www.w3.org/1999/xlink">
    <!-- Generator: Sketch 54.1 (76490) - https://sketchapp.com -->
    <title>7</title>
    <desc>Created with Sketch.</desc>
    <g id="页面" stroke="none" stroke-width="1" fill="none" fill-rule="evenodd">
        <g id="C9_6_icon-汇总说明-" transform="translate(-1646.000000, -573.000000)" fill="#FFFFFF" fill-rule="nonzero">
            <g id="编组-45" transform="translate(1197.000000, 573.000000)">
                <g id="7" transform="translate(449.800000, 0.000000)">
                    <g id="编组复制-43复制复制复制复制复制" transform="translate(9.843211, 7.500000)">
                        <polygon id="Fill-2" points="0.161052941 0.633375 5.8397 2.478375 6.92305294 4.504625 6.18064118 10.064625 9.77164118 1.288375"></polygon>
                    </g>
                    <path d="M3.90228218,34.4425 L6.47169394,34.4225 C5.94836646,24.2849469 6.29666039,24.9435235 7.51657573,21.39823 C8.73649105,17.8529364 11.8197207,14.7217348 16.7662645,12.004625 L15.6829116,9.978375 C10.0325938,13.1814353 6.53395264,16.6103103 5.18698805,20.265 C3.84002347,23.9196896 3.41178818,23.645523 3.90228218,34.4425 Z" id="路径-10复制-5"></path>
                    <polygon id="Fill-1复制-12" points="5.48594118 0 3.05355741e-12 6.41224396 4.263 4.28331984 4.263 33.75 6.17647059 33.75 6.53594118 4.28331984 11.0941765 6.54765257 11.1806471 3.03331984 11.0941765 6.54765257"></polygon>
                </g>
            </g>
        </g>
    </g>
</svg>