<?xml version="1.0" encoding="UTF-8"?>
<svg width="23px" height="35px" viewBox="0 0 23 35" version="1.1" xmlns="http://www.w3.org/2000/svg" xmlns:xlink="http://www.w3.org/1999/xlink">
    <!-- Generator: Sketch 54.1 (76490) - https://sketchapp.com -->
    <title>4</title>
    <desc>Created with Sketch.</desc>
    <g id="页面" stroke="none" stroke-width="1" fill="none" fill-rule="evenodd">
        <g id="C9_6_icon-汇总说明-" transform="translate(-1435.000000, -573.000000)" fill="#FFFFFF" fill-rule="nonzero">
            <g id="编组-45" transform="translate(1197.000000, 573.000000)">
                <g id="4" transform="translate(238.400000, 0.000000)">
                    <g id="编组复制-43复制复制复制" transform="translate(6.034325, 0.000000)">
                        <polygon id="Fill-2" points="0.137773684 0.633375 5.70256316 2.478375 6.76419474 4.504625 6.03666842 10.064625 9.55566842 1.288375"></polygon>
                    </g>
                    <path d="M0.192461982,34.4425 L2.71035672,34.4225 C2.19752202,24.2849469 2.53883262,17.4435235 3.7342885,13.89823 C4.92974437,10.3529364 7.95115484,7.22173479 12.7985198,4.504625 L11.7368883,2.478375 C6.19986011,5.68143535 2.77136712,9.11031035 1.45140935,12.765 C0.131451575,16.4196896 -0.288197548,23.645523 0.192461982,34.4425 Z" id="路径-10复制-3"></path>
                    <polygon id="Fill-1复制-8" transform="translate(11.692219, 15.613125) rotate(-270.000000) translate(-11.692219, -15.613125) " points="11.6303445 5.32365132 6.14284447 11.5334034 6.07909447 11.5334034 10.3928445 9.47170843 10.3928445 25.9025987 12.6928445 25.8710297 12.6928445 9.47170843 17.3053445 11.6645359 17.3053445 11.5334034"></polygon>
                </g>
            </g>
        </g>
    </g>
</svg>