<?xml version="1.0" encoding="UTF-8"?>
<svg width="27px" height="35px" viewBox="0 0 27 35" version="1.1" xmlns="http://www.w3.org/2000/svg" xmlns:xlink="http://www.w3.org/1999/xlink">
    <!-- Generator: Sketch 54.1 (76490) - https://sketchapp.com -->
    <title>5</title>
    <desc>Created with Sketch.</desc>
    <g id="页面" stroke="none" stroke-width="1" fill="none" fill-rule="evenodd">
        <g id="C9_6_icon-汇总说明-" transform="translate(-1503.000000, -573.000000)" fill="#FFFFFF" fill-rule="nonzero">
            <g id="编组-45" transform="translate(1197.000000, 573.000000)">
                <g id="5" transform="translate(306.200000, 0.000000)">
                    <g id="编组复制-43复制复制复制复制" transform="translate(9.785788, 7.500000)">
                        <polygon id="Fill-2" points="0.153513636 0.633375 5.79528636 2.478375 6.87160455 4.504625 6.13401364 10.064625 9.70169545 1.288375"></polygon>
                    </g>
                    <path d="M3.87694268,34.4425 L6.42966995,34.4225 C5.90974071,24.2849469 6.25577299,24.9435235 7.4677668,21.39823 C8.67976059,17.8529364 11.7429692,14.7217348 16.6573926,12.004625 L15.5810745,9.978375 C9.96744711,13.1814353 6.49152437,16.6103103 5.15330631,20.265 C3.81508826,23.9196896 3.38963371,23.645523 3.87694268,34.4425 Z" id="路径-10复制-4"></path>
                    <polygon id="Fill-1复制-9" transform="translate(15.535788, 21.863125) rotate(-270.000000) translate(-15.535788, -21.863125) " points="15.4739127 11.4313068 9.98641273 17.7269645 9.92266273 17.7269645 14.2364127 15.6367481 14.2364127 32.2949432 16.5364127 32.2629375 16.5364127 15.6367481 21.1489127 17.8599112 21.1489127 17.7269645"></polygon>
                    <polygon id="Fill-1复制-10" points="5.45031818 0 3.05355741e-12 6.41224396 4.23531818 4.28331984 4.23531818 33.75 6.13636364 33.75 6.4935 4.28331984 11.0221364 6.54765257 11.1080455 3.03331984 11.0221364 6.54765257"></polygon>
                </g>
            </g>
        </g>
    </g>
</svg>