<?xml version="1.0" encoding="UTF-8"?>
<svg width="35px" height="35px" viewBox="0 0 35 35" version="1.1" xmlns="http://www.w3.org/2000/svg" xmlns:xlink="http://www.w3.org/1999/xlink">
    <!-- Generator: Sketch 54.1 (76490) - https://sketchapp.com -->
    <title>2</title>
    <desc>Created with Sketch.</desc>
    <g id="页面" stroke="none" stroke-width="1" fill="none" fill-rule="evenodd">
        <g id="C9_6_icon-汇总说明-" transform="translate(-1269.000000, -573.000000)" fill="#FFFFFF" fill-rule="nonzero">
            <g id="编组-45" transform="translate(1197.000000, 573.000000)">
                <g id="2" transform="translate(71.800000, 0.000000)">
                    <g id="编组复制-43" transform="translate(24.815793, 0.000000)">
                        <polygon id="Fill-2" points="0.166772414 0.633375 5.8733931 2.478375 6.96208276 4.504625 6.21601379 10.064625 9.82470345 1.288375"></polygon>
                    </g>
                    <path d="M18.8505246,34.4425 L21.4325935,34.4225 C20.9066881,24.2849469 21.2566977,17.4435235 22.4826225,13.89823 C23.7085473,10.3529364 26.8069652,7.22173479 31.7778762,4.504625 L30.6891866,2.478375 C25.0110348,5.68143535 21.4951589,9.11031035 20.141559,12.765 C18.7879592,16.4196896 18.3576143,23.645523 18.8505246,34.4425 Z" id="路径-10"></path>
                    <polygon id="Fill-1复制" transform="translate(10.781310, 15.613125) rotate(-90.000000) translate(-10.781310, -15.613125) " points="10.7194353 5.06140086 5.23193534 11.4294225 5.16818534 11.4294225 9.48193534 9.31518057 9.48193534 26.1648491 11.7819353 26.1324756 11.7819353 9.31518057 16.3944353 11.5638972 16.3944353 11.4294225"></polygon>
                </g>
            </g>
        </g>
    </g>
</svg>