<?xml version="1.0" encoding="UTF-8"?>
<svg width="35px" height="35px" viewBox="0 0 35 35" version="1.1" xmlns="http://www.w3.org/2000/svg" xmlns:xlink="http://www.w3.org/1999/xlink">
    <!-- Generator: Sketch 54.1 (76490) - https://sketchapp.com -->
    <title>15</title>
    <desc>Created with Sketch.</desc>
    <g id="页面" stroke="none" stroke-width="1" fill="none" fill-rule="evenodd">
        <g id="C9_6_icon-汇总说明-" transform="translate(-1419.000000, -674.000000)" fill="#FFFFFF" fill-rule="nonzero">
            <g id="编组-45" transform="translate(1197.000000, 573.000000)">
                <g id="15" transform="translate(222.088437, 101.000000)">
                    <g id="编组复制-43复制复制复制复制复制复制复制" transform="translate(24.850791, 7.500000)">
                        <polygon id="Fill-2" points="0.15921 0.633375 5.82884333 2.478375 6.91047667 4.504625 6.16924333 10.064625 9.75454333 1.288375"></polygon>
                    </g>
                    <path d="M18.9177047,34.4425 L21.4830381,34.4225 C20.9605413,24.2849469 21.3082824,24.9435235 22.5262613,21.39823 C23.7442403,17.8529364 26.8225759,14.7217348 31.761268,12.004625 L30.6796347,9.978375 C25.0382857,13.1814353 21.545198,16.6103103 20.2003714,20.265 C18.8555449,23.9196896 18.4279893,23.645523 18.9177047,34.4425 Z" id="路径-10复制-7"></path>
                    <polygon id="Fill-1复制-16" transform="translate(10.704950, 20.613125) rotate(-90.000000) translate(-10.704950, -20.613125) " points="10.643075 10.1297917 5.155575 16.456539 5.091825 16.456539 9.405575 14.3560006 9.405575 31.0964583 11.705575 31.0642946 11.705575 14.3560006 16.318075 16.5901422 16.318075 16.456539"></polygon>
                    <polygon id="Fill-1复制-17" transform="translate(20.123116, 17.500000) rotate(-360.000000) translate(-20.123116, -17.500000) " points="20.0620662 -3.83693077e-12 14.6477329 6.41224396 14.5848329 6.41224396 18.8410662 4.28331984 18.8410662 35 21.1103995 34.9674016 21.1103995 4.28331984 25.6613995 6.54765257 25.6613995 6.41224396"></polygon>
                </g>
            </g>
        </g>
    </g>
</svg>