<?xml version="1.0" encoding="UTF-8"?>
<svg width="30px" height="35px" viewBox="0 0 30 35" version="1.1" xmlns="http://www.w3.org/2000/svg" xmlns:xlink="http://www.w3.org/1999/xlink">
    <!-- Generator: Sketch 54.1 (76490) - https://sketchapp.com -->
    <title>13</title>
    <desc>Created with Sketch.</desc>
    <g id="页面" stroke="none" stroke-width="1" fill="none" fill-rule="evenodd">
        <g id="C9_6_icon-汇总说明-" transform="translate(-1270.000000, -674.000000)" fill="#FFFFFF" fill-rule="nonzero">
            <g id="编组-45" transform="translate(1197.000000, 573.000000)">
                <g id="13" transform="translate(73.088437, 101.000000) scale(0.9)">
                    <g id="编组复制-43" transform="translate(19.651875, 0.000000)">
                        <polygon id="Fill-2" points="0.174875 0.633375 5.921125 2.478375 7.017375 4.504625 6.266125 10.064625 9.899875 1.288375"></polygon>
                    </g>
                    <path d="M13.6521254,34.4425 L16.2521254,34.4225 C15.7225678,24.2849469 16.0750081,17.4435235 17.3094463,13.89823 C18.5438844,10.3529364 21.6638191,7.22173479 26.6692504,4.504625 L25.5730004,2.478375 C19.855417,5.68143535 16.3151253,9.11031035 14.9521254,12.765 C13.5891255,16.4196896 13.1557922,23.645523 13.6521254,34.4425 Z" id="路径-10"></path>
                    <path d="M15.905,18.9134105 C15.56125,12.0096605 4.36125,11.9984105 4.49125,19.0634105 L4.52125,29.3121605 L9.91207116e-13,25.3234105 L5.89125,33.0096605 L11.605,25.0971605 L7.09875,29.1921605 L7.12125,19.5821605 C7.2275,14.9484105 13.26,15.1196605 13.50125,19.4596605 L15.905,18.9134105 Z" id="Fill-6复制"></path>
                </g>
            </g>
        </g>
    </g>
</svg>