<?xml version="1.0" encoding="UTF-8"?>
<svg width="14px" height="29px" viewBox="0 0 14 29" version="1.1" xmlns="http://www.w3.org/2000/svg" xmlns:xlink="http://www.w3.org/1999/xlink">
    <!-- Generator: Sketch 54.1 (76490) - https://sketchapp.com -->
    <title>8</title>
    <desc>Created with Sketch.</desc>
    <g id="待定" stroke="none" stroke-width="1" fill="none" fill-rule="evenodd">
        <g id="工具栏汇总复制" transform="translate(-1385.000000, -695.000000)" fill="#FFFFFF">
            <g id="编组-25" transform="translate(1382.000000, 615.000000)">
                <g id="8" transform="translate(3.000000, 79.000000)">
                    <polygon id="Fill-1" points="11.0061 7.3645 10.9781 29.2045 13.3411 29.2125 13.3601 7.2255"></polygon>
                    <g id="编组" transform="translate(0.000000, 0.212000)">
                        <path d="M13.3601,7.0135 C13.2759008,6.77063983 12.7380706,6.13316763 12.0731,5.65380201 C11.5771246,5.29626209 11.0013483,5.08656272 10.5391,4.8721 C9.4571,4.3701 7.5501,4.4241 7.5501,4.4241 L4.4411,4.4361 L7.3961,0.8521 L4.7281,0.7881 L1.0001,5.4501 L4.7211,10.2231 L7.5631,10.1511 L4.3261,6.3451 L7.7621,6.3281 C7.7621,6.3281 9.4401,6.3221 10.6061,7.1411 C11.7721,7.9611 12.0661,9.6071 12.0731,10.0061 C12.0811,10.8041 13.5765637,8.02668382 13.2805637,7.18068382 L13.3601,7.0135 Z" id="Fill-2"></path>
                        <path d="M13.033,17.6533 C12.758,12.1303 3.798,12.1213 3.902,17.7733 L3.926,25.9723 L0.309,22.7813 L0.24,24.9083 L5.022,28.9303 L9.587,24.9343 L9.593,22.6003 L5.988,25.8763 L6.006,18.1883 C6.091,14.4813 10.917,14.6183 11.11,18.0903 L13.033,17.6533 Z" id="Fill-6"></path>
                    </g>
                </g>
            </g>
        </g>
    </g>
</svg>