<?xml version="1.0" encoding="UTF-8"?>
<svg width="18px" height="29px" viewBox="0 0 18 29" version="1.1" xmlns="http://www.w3.org/2000/svg" xmlns:xlink="http://www.w3.org/1999/xlink">
    <!-- Generator: Sketch 54.1 (76490) - https://sketchapp.com -->
    <title>14</title>
    <desc>Created with Sketch.</desc>
    <defs>
        <polygon id="path-1" points="0 0.241 12.0287908 0.241 12.0287908 9.36 0 9.36"></polygon>
        <polygon id="path-3" points="0.383 0.5643 10.603 0.5643 10.603 29 0.383 29"></polygon>
    </defs>
    <g id="待定" stroke="none" stroke-width="1" fill="none" fill-rule="evenodd">
        <g id="工具栏汇总复制" transform="translate(-1815.000000, -700.000000)">
            <g id="编组-25" transform="translate(1382.000000, 615.000000)">
                <g id="14" transform="translate(433.000000, 84.436000)">
                    <g id="编组复制-30" transform="translate(0.000000, 4.564000)">
                        <mask id="mask-2" fill="white">
                            <use xlink:href="#path-1"></use>
                        </mask>
                        <g id="Clip-2"></g>
                        <path d="M11.8918,5.957 C11.7488,5.547 10.6338,4.675 9.5868,4.189 C8.5408,3.703 6.3328,3.756 6.3328,3.756 L3.3228,3.768 L6.1808,0.303 L3.6008,0.241 L-0.0002,4.747 L3.5958,9.36 L6.3418,9.291 L3.2128,5.612 L6.5328,5.596 C6.5328,5.596 8.3968,5.346 9.5238,6.138 C10.6508,6.93 11.9078,8.279 11.9148,8.665 C11.9278,9.437 12.1788,6.775 11.8918,5.957" id="Fill-1" fill="#CBCBCB" mask="url(#mask-2)"></path>
                    </g>
                    <path d="M13.4651,16.9544 C13.1941,11.5644 3.4731,11.5554 3.5741,17.0704 L3.5981,22.6214 L0.0651,19.5064 L9.99999994e-05,21.5824 L4.6671,25.5084 L9.1241,21.6074 L9.1301,19.3304 L5.6091,22.5254 L5.6281,17.4754 C5.7111,13.8584 11.3991,13.9914 11.5901,17.3804 L13.4651,16.9544 Z" id="Fill-1" fill="#CBCBCB"></path>
                    <g id="编组" transform="translate(7.000000, 0.000000)">
                        <mask id="mask-4" fill="white">
                            <use xlink:href="#path-3"></use>
                        </mask>
                        <g id="Clip-4"></g>
                        <polygon id="Fill-3" fill="#CBCBCB" mask="url(#mask-4)" points="6.677 29.0003 6.651 4.3433 10.536 7.4933 10.603 4.6013 5.553 0.5643 0.383 4.5953 0.461 7.6733 4.585 4.1653 4.599 28.9983"></polygon>
                    </g>
                </g>
            </g>
        </g>
    </g>
</svg>