<?xml version="1.0" encoding="UTF-8"?>
<svg width="30px" height="34px" viewBox="0 0 30 34" version="1.1" xmlns="http://www.w3.org/2000/svg" xmlns:xlink="http://www.w3.org/1999/xlink">
    <!-- Generator: Sketch 54.1 (76490) - https://sketchapp.com -->
    <title>8</title>
    <desc>Created with Sketch.</desc>
    <g id="页面" stroke="none" stroke-width="1" fill="none" fill-rule="evenodd">
        <g id="C9_6_icon-汇总说明-" transform="translate(-1716.000000, -577.000000)" fill="#FFFFFF" fill-rule="nonzero">
            <g id="编组-45" transform="translate(1197.000000, 573.000000)">
                <g id="8" transform="translate(515.600000, 0.000000)">
                    <g id="编组复制-43复制复制复制复制复制复制" transform="translate(22.804065, 3.466667)">
                        <polygon id="Fill-2" points="0.174875 0.62493 5.921125 2.44533 7.017375 4.44456333 6.266125 9.93043 9.899875 1.27119667"></polygon>
                    </g>
                    <path d="M16.8043155,37.4499333 L19.4043155,37.4302 C18.874758,27.4278142 19.2271982,20.6776099 20.4616364,17.1795869 C21.6960745,13.681564 24.8160092,10.5921117 29.8214405,7.91123 L28.7251905,5.91199667 C23.0076071,9.07234955 19.4673154,12.4555062 18.1043155,16.0614667 C16.7413156,19.6674271 16.3079823,26.796916 16.8043155,37.4499333 Z" id="路径-10复制-6"></path>
                    <path d="M18.6841925,12.6495904 C16.5520134,11.6818749 12.9056057,11.8700547 12.9056057,11.8700547 L6.1174978,11.7295303 L9.15077187,16.6634882 L9.01228275,16.7434449 L1.53249187,10.1920108 L8.91372085,5.54753696 L6.34914478,9.44755298 L12.5391449,9.5964919 C12.5391449,9.5964919 16.0387566,9.51187148 18.0231496,10.1017809 C20.0056511,10.6904639 22.570293,12.0553733 22.8426547,12.5586785 C23.3645869,13.5666584 21.1968892,16.4105198 21.2472209,15.9189573 C21.2901023,15.4026889 20.8182774,13.6160575 18.6841925,12.6495904 Z" id="Fill-2复制-3" transform="translate(12.228160, 11.145491) rotate(-330.000000) translate(-12.228160, -11.145491) "></path>
                </g>
            </g>
        </g>
    </g>
</svg>