<?xml version="1.0" encoding="UTF-8"?>
<svg width="15px" height="29px" viewBox="0 0 15 29" version="1.1" xmlns="http://www.w3.org/2000/svg" xmlns:xlink="http://www.w3.org/1999/xlink">
    <!-- Generator: Sketch 54.1 (76490) - https://sketchapp.com -->
    <title>17</title>
    <desc>Created with Sketch.</desc>
    <g id="待定" stroke="none" stroke-width="1" fill="none" fill-rule="evenodd">
        <g id="工具栏汇总复制" transform="translate(-1535.000000, -765.000000)" fill="#FFFFFF">
            <g id="编组-25" transform="translate(1382.000000, 615.000000)">
                <g id="17" transform="translate(153.000000, 149.000000) scale(0.9)">
                    <g id="编组复制-41">
                        <polygon id="Fill-1" points="1.0061 7.3645 0.9781 29.2045 3.3411 29.2125 3.3601 7.2255"></polygon>
                        <g id="编组" transform="translate(1.000000, 0.212000)">
                            <path d="M0.1419,6.9521 C0.2879,6.5281 1.6949,5.3741 2.7769,4.8721 C3.8589,4.3701 5.7669,4.4241 5.7669,4.4241 L8.8759,4.4361 L5.9199,0.8521 L8.5879,0.7881 L12.3159,5.4501 L8.5939,10.2231 L5.7529,10.1521 L8.9899,6.3461 L5.5529,6.3281 C5.5529,6.3281 3.8769,6.3221 2.7109,7.1411 C1.5449,7.9611 1.2499,9.6071 1.2439,10.0061 C1.2339,10.8041 -0.1561,7.7981 0.1419,6.9521" id="Fill-4"></path>
                            <path d="M1.0418711,18.164 C1.1878711,17.74 2.5948711,16.586 3.6768711,16.084 C4.7588711,15.582 6.6668711,15.636 6.6668711,15.636 L9.7758711,15.648 L6.8198711,12.064 L9.4878711,12 L13.2158711,16.662 L9.4938711,21.435 L6.6528711,21.364 L9.8898711,17.558 L6.4528711,17.54 C6.4528711,17.54 4.7768711,17.534 3.6108711,18.353 C2.4448711,19.173 2.1498711,20.819 2.1438711,21.218 C2.1338711,22.016 0.743871102,19.01 1.0418711,18.164" id="Fill-4复制"></path>
                        </g>
                    </g>
                </g>
            </g>
        </g>
    </g>
</svg>