<?xml version="1.0" encoding="UTF-8"?>
<svg width="18px" height="29px" viewBox="0 0 18 29" version="1.1" xmlns="http://www.w3.org/2000/svg" xmlns:xlink="http://www.w3.org/1999/xlink">
    <!-- Generator: Sketch 54.1 (76490) - https://sketchapp.com -->
    <title>5</title>
    <desc>Created with Sketch.</desc>
    <defs>
        <polygon id="path-1" points="0.0636 0.8325 10.1876 0.8325 10.1876 29 0.0636 29"></polygon>
        <polygon id="path-3" points="0.450062354 0.241 12.478 0.241 12.478 9.36 0.450062354 9.36"></polygon>
    </defs>
    <g id="待定" stroke="none" stroke-width="1" fill="none" fill-rule="evenodd">
        <g id="工具栏汇总复制" transform="translate(-1676.000000, -616.000000)">
            <g id="编组-25" transform="translate(1382.000000, 615.000000)">
                <g id="5" transform="translate(294.000000, 0.000000)">
                    <g id="编组" transform="translate(0.000000, 0.168000)">
                        <mask id="mask-2" fill="white">
                            <use xlink:href="#path-1"></use>
                        </mask>
                        <g id="Clip-4"></g>
                        <polygon id="Fill-3" fill="#CBCBCB" mask="url(#mask-2)" points="6.2966 29.0005 6.2716 4.5755 10.1176 7.6945 10.1876 4.8315 5.1846 0.8325 0.0636 4.8265 0.1406 7.8755 4.2246 4.3995 4.2386 29.0005"></polygon>
                    </g>
                    <g id="编组" transform="translate(5.000000, 10.168000)">
                        <mask id="mask-4" fill="white">
                            <use xlink:href="#path-3"></use>
                        </mask>
                        <g id="Clip-6"></g>
                        <path d="M0.5871,5.957 C0.7311,5.547 1.8451,4.675 2.8921,4.189 C3.9381,3.703 6.1451,3.756 6.1451,3.756 L9.1541,3.768 L6.2961,0.303 L8.8761,0.241 L12.4781,4.747 L8.8811,9.36 L6.1361,9.291 L9.2651,5.612 L5.9441,5.596 C5.9441,5.596 4.0821,5.346 2.9531,6.138 C1.8261,6.93 0.5691,8.279 0.5631,8.665 C0.5511,9.437 0.3001,6.775 0.5871,5.957" id="Fill-5" fill="#CBCBCB" mask="url(#mask-4)"></path>
                    </g>
                </g>
            </g>
        </g>
    </g>
</svg>