<?xml version="1.0" encoding="UTF-8"?>
<svg width="17px" height="29px" viewBox="0 0 17 29" version="1.1" xmlns="http://www.w3.org/2000/svg" xmlns:xlink="http://www.w3.org/1999/xlink">
    <!-- Generator: Sketch 54.1 (76490) - https://sketchapp.com -->
    <title>2</title>
    <desc>Created with Sketch.</desc>
    <g id="待定" stroke="none" stroke-width="1" fill="none" fill-rule="evenodd">
        <g id="工具栏汇总复制" transform="translate(-1462.000000, -620.000000)" fill="#CBCBCB">
            <g id="编组-25" transform="translate(1382.000000, 615.000000)">
                <g id="2" transform="translate(79.000000, 5.000000)">
                    <polygon id="Fill-1" points="12.7099 0.0002 8.2059 3.5992 8.2689 6.1762 11.7329 3.3212 11.7199 28.4142 13.5599 28.3752 13.5739 3.2102 17.2499 6.3382 17.3199 3.6292 17.3199 3.5932"></polygon>
                    <g id="编组" transform="translate(0.000000, 7.415000)">
                        <path d="M11.9364,9.6313 C11.9574,9.2143 11.7034,7.7683 10.5764,6.9773 C9.4504,6.1853 7.5304,6.3203 7.5304,6.3203 L4.2094,6.3363 L7.3384,10.0133 L4.5974,10.0823 L0.9994,5.4723 L4.6014,0.9673 L7.1794,1.0293 L4.3244,4.4933 L7.3304,4.4813 C7.3304,4.4813 9.1734,4.4293 10.2204,4.9153 C11.2664,5.4003 12.6214,6.5153 12.7664,6.9233 C13.0444,7.7403 11.9114,10.0283 11.9364,9.6313" id="Fill-2"></path>
                    </g>
                </g>
            </g>
        </g>
    </g>
</svg>