<?xml version="1.0" encoding="UTF-8"?>
<svg width="23px" height="35px" viewBox="0 0 23 35" version="1.1" xmlns="http://www.w3.org/2000/svg" xmlns:xlink="http://www.w3.org/1999/xlink">
    <!-- Generator: Sketch 54.1 (76490) - https://sketchapp.com -->
    <title>6</title>
    <desc>Created with Sketch.</desc>
    <g id="页面" stroke="none" stroke-width="1" fill="none" fill-rule="evenodd">
        <g id="C9_6_icon-汇总说明-" transform="translate(-1578.000000, -573.000000)" fill="#FFFFFF" fill-rule="nonzero">
            <g id="编组-45" transform="translate(1197.000000, 573.000000)">
                <g id="6" transform="translate(378.000000, 0.000000)">
                    <path d="M18.9616548,15.2840226 C18.5526798,15.4775537 18.1450258,15.791901 17.7386929,16.2270645 L17.7076276,34.8517038 L20.6064457,34.8589808 L20.6297639,14.8589808 C19.9266663,14.9488109 19.3706299,15.0904915 18.9616548,15.2840226 Z" id="Fill-1复制-5"></path>
                    <polygon id="Fill-1复制-6" transform="translate(19.536878, 11.875000) rotate(-360.000000) translate(-19.536878, -11.875000) " points="19.4761276 0 14.0884003 6.41224396 14.0258094 6.41224396 18.2611276 4.28331984 18.2611276 23.75 20.5193094 23.7174016 20.5193094 4.28331984 25.0479457 6.54765257 25.0479457 6.41224396"></polygon>
                    <path d="M18.4197214,14.3926289 C16.2961328,13.390241 12.6897126,13.5294277 12.6897126,13.5294277 L5.96930832,13.2949546 L9.03918312,18.2981218 L8.90321198,18.3766248 L1.41023366,11.685914 L8.6520031,7.11678255 L6.16726011,11.0034009 L12.2958074,11.2381269 C12.2958074,11.2381269 15.7583587,11.2010638 17.7304921,11.8215055 C19.7007365,12.4406878 22.257803,13.848425 22.5342784,14.3582815 C23.0646907,15.379059 20.9582597,18.2090661 21.0013287,17.7154468 C21.0366846,17.196881 20.5451792,15.3937874 18.4197214,14.3926289 Z" id="Fill-2复制-2" transform="translate(12.015113, 12.746704) rotate(-330.000000) translate(-12.015113, -12.746704) "></path>
                </g>
            </g>
        </g>
    </g>
</svg>