<?xml version="1.0" encoding="UTF-8"?>
<svg width="36px" height="34px" viewBox="0 0 36 34" version="1.1" xmlns="http://www.w3.org/2000/svg" xmlns:xlink="http://www.w3.org/1999/xlink">
    <!-- Generator: Sketch 54.1 (76490) - https://sketchapp.com -->
    <title>3</title>
    <desc>Created with Sketch.</desc>
    <g id="页面" stroke="none" stroke-width="1" fill="none" fill-rule="evenodd">
        <g id="C9_6_icon-汇总说明-" transform="translate(-1353.000000, -577.000000)" fill="#FFFFFF" fill-rule="nonzero">
            <g id="编组-45" transform="translate(1197.000000, 573.000000)">
                <g id="3" transform="translate(152.600000, 0.000000) scale(0.9)">
                    <path d="M19.0049522,17.8200069 C18.6571789,18.0097922 18.310529,18.3180554 17.9650024,18.7447964 L17.9385859,37.0089588 L20.4036057,37.016095 L20.4234344,17.4031918 C19.825553,17.4912832 19.3527256,17.6302216 19.0049522,17.8200069 Z" id="Fill-1复制-3"></path>
                    <polygon id="Fill-1复制-4" transform="translate(28.499192, 19.368546) rotate(-270.000000) translate(-28.499192, -19.368546) " points="28.4385146 8.80793998 23.0572242 15.1813219 22.9947081 15.1813219 27.2249662 13.0653003 27.2249662 29.9291521 29.4804501 29.8967513 29.4804501 13.0653003 34.0036759 15.3159098 34.0036759 15.1813219"></polygon>
                    <path d="M18.5647697,11.9585715 C16.4455532,10.9967906 12.8212801,11.1838907 12.8212801,11.1838907 L6.07438649,11.0443467 L9.08915471,15.9481898 L8.95150492,16.027662 L1.51724507,9.51627817 L8.85374633,4.89996476 L6.30466887,8.77626761 L12.4570857,8.92418585 C12.4570857,8.92418585 15.9354521,8.8400169 17.9077868,9.42629614 C19.8782415,10.0113564 22.427288,11.3679034 22.6979869,11.8681373 C23.2167319,12.8699667 21.0621426,15.6965421 21.1121777,15.2079735 C21.1548082,14.6948495 20.6858806,12.9191115 18.5647697,11.9585715 Z" id="Fill-2复制" transform="translate(12.147953, 10.463813) rotate(-330.000000) translate(-12.147953, -10.463813) "></path>
                </g>
            </g>
        </g>
    </g>
</svg>