<?xml version="1.0" encoding="UTF-8"?>
<svg width="37px" height="35px" viewBox="0 0 37 35" version="1.1" xmlns="http://www.w3.org/2000/svg" xmlns:xlink="http://www.w3.org/1999/xlink">
    <!-- Generator: Sketch 54.1 (76490) - https://sketchapp.com -->
    <title>9</title>
    <desc>Created with Sketch.</desc>
    <g id="页面" stroke="none" stroke-width="1" fill="none" fill-rule="evenodd">
        <g id="C9_6_icon-汇总说明-" transform="translate(-1794.000000, -573.000000)" fill="#FFFFFF" fill-rule="nonzero">
            <g id="编组-45" transform="translate(1197.000000, 573.000000)">
                <g id="9" transform="translate(594.400000, 0.000000)">
                    <polygon id="Fill-1复制-11" transform="translate(28.499192, 21.863125) rotate(-270.000000) translate(-28.499192, -21.863125) " points="28.437317 11.3025189 22.949817 17.6759008 22.886067 17.6759008 27.199817 15.5598793 27.199817 32.4237311 29.499817 32.3913303 29.499817 15.5598793 34.112317 17.8104888 34.112317 17.6759008"></polygon>
                    <polygon id="Fill-1复制-13" transform="translate(19.350416, 17.500000) rotate(-360.000000) translate(-19.350416, -17.500000) " points="19.2889159 -3.83693077e-12 13.8346735 6.41224396 13.7713098 6.41224396 18.0589159 4.28331984 18.0589159 35 20.3449765 34.9674016 20.3449765 4.28331984 24.929522 6.54765257 24.929522 6.41224396"></polygon>
                    <path d="M18.6225918,14.3598813 C16.484699,13.365752 12.8441419,13.5246475 12.8441419,13.5246475 L6.06276515,13.3253769 L9.13431861,18.327575 L8.99666881,18.4070471 L1.4700785,11.7357423 L8.80332719,7.11379524 L6.2748001,11.0256924 L12.4588384,11.2283806 C12.4588384,11.2283806 15.9536485,11.1726929 17.9407256,11.7845068 C19.925903,12.3950676 22.4991205,13.79348 22.7754302,14.3034322 C23.3052968,15.3245246 21.1642331,18.174527 21.2103396,17.6791539 C21.2487951,17.1587987 20.7623777,15.3527675 18.6225918,14.3598813 Z" id="Fill-2复制-4" transform="translate(12.164938, 12.760421) rotate(-330.000000) translate(-12.164938, -12.760421) "></path>
                </g>
            </g>
        </g>
    </g>
</svg>