<?xml version="1.0" encoding="UTF-8"?>
<svg width="22px" height="34px" viewBox="0 0 22 34" version="1.1" xmlns="http://www.w3.org/2000/svg" xmlns:xlink="http://www.w3.org/1999/xlink">
    <!-- Generator: Sketch 54.1 (76490) - https://sketchapp.com -->
    <title>编组 44</title>
    <desc>Created with Sketch.</desc>
    <g id="页面" stroke="none" stroke-width="1" fill="none" fill-rule="evenodd">
        <g id="C9_6_icon-汇总说明-" transform="translate(-1197.000000, -576.000000)" fill="#FFFFFF" fill-rule="nonzero">
            <g id="编组-45" transform="translate(1197.000000, 573.000000)">
                <g id="编组-44">
                    <path d="M20.1654911,17.7172577 C19.7529096,17.907043 19.3416607,18.2153062 18.9317447,18.6420472 L18.9004054,36.9062096 L21.8247864,36.9133458 L21.8483102,17.3004425 C21.1390124,17.388534 20.5780727,17.5274723 20.1654911,17.7172577 Z" id="Fill-1复制-2"></path>
                    <polygon id="Fill-1" transform="translate(10.852786, 18.066192) rotate(-90.000000) translate(-10.852786, -18.066192) " points="10.7921089 7.54238214 5.41081861 13.8935571 5.34830248 13.8935571 9.57856054 11.7849085 9.57856054 28.5900012 11.8340444 28.5577133 11.8340444 11.7849085 16.3572702 14.0276761 16.3572702 13.8935571"></polygon>
                    <path d="M19.5068305,11.9688694 C17.3917009,11.0047289 13.7771811,11.1861979 13.7771811,11.1861979 L7.04770828,11.036596 L10.0619969,15.9407161 L9.92482671,16.0199113 L2.50017028,9.50298298 L9.81053462,4.90175973 L7.2739669,8.77084008 L13.4105292,8.92791196 C13.4105292,8.92791196 16.8796788,8.84906434 18.8477438,9.43780865 C20.8139319,10.0253322 23.3583639,11.3845434 23.6291101,11.88475 C23.6993851,12.020416 24.1399061,11.9265708 24.1245388,12.1162293 C24.026436,13.3269837 22.0099756,15.6412527 22.052484,15.2192843 C22.0942289,14.7066716 21.6238476,12.9317729 19.5068305,11.9688694 Z" id="Fill-2" transform="translate(13.312551, 10.460836) rotate(-330.000000) translate(-13.312551, -10.460836) "></path>
                </g>
            </g>
        </g>
    </g>
</svg>