<?xml version="1.0" encoding="UTF-8"?>
<svg width="26px" height="35px" viewBox="0 0 26 35" version="1.1" xmlns="http://www.w3.org/2000/svg" xmlns:xlink="http://www.w3.org/1999/xlink">
    <!-- Generator: Sketch 54.1 (76490) - https://sketchapp.com -->
    <title>14</title>
    <desc>Created with Sketch.</desc>
    <g id="页面" stroke="none" stroke-width="1" fill="none" fill-rule="evenodd">
        <g id="C9_6_icon-汇总说明-" transform="translate(-1344.000000, -674.000000)" fill="#FFFFFF" fill-rule="nonzero">
            <g id="编组-45" transform="translate(1197.000000, 573.000000)">
                <g id="14" transform="translate(147.088437, 101.000000)">
                    <polygon id="Fill-1复制-14" transform="translate(10.824979, 20.613125) rotate(-90.000000) translate(-10.824979, -20.613125) " points="10.7631038 10.0893155 5.27560378 16.4404905 5.21185378 16.4404905 9.52560378 14.3318418 9.52560378 31.1369345 11.8256038 31.1046466 11.8256038 14.3318418 16.4381038 16.5746094 16.4381038 16.4404905"></polygon>
                    <polygon id="Fill-1复制-15" transform="translate(20.279509, 17.500000) rotate(-360.000000) translate(-20.279509, -17.500000) " points="20.2182228 -3.83693077e-12 14.7829847 6.41224396 14.7198419 6.41224396 18.9925085 4.28331984 18.9925085 35 21.2706038 34.9674016 21.2706038 4.28331984 25.8391752 6.54765257 25.8391752 6.41224396"></polygon>
                    <path d="M19.5646291,14.3692368 C17.4308232,13.3727479 13.8000195,13.5260124 13.8000195,13.5260124 L7.03606345,13.3166839 L10.1071373,18.3191588 L9.96996711,18.3983541 L2.45298022,11.7215047 L9.76009199,7.11464782 L7.24407464,11.0193225 L13.4122584,11.2311643 C13.4122584,11.2311643 16.8978517,11.180798 18.8806591,11.7950769 C20.86157,12.408101 23.4301729,13.8091776 23.70653,14.3191025 C24.2365524,15.3401049 22.1053838,18.1843944 22.1506225,17.6895224 C22.1881924,17.1696784 21.7003213,15.3644865 19.5646291,14.3692368 Z" id="Fill-2复制-6" transform="translate(13.122129, 12.756501) rotate(-330.000000) translate(-13.122129, -12.756501) "></path>
                </g>
            </g>
        </g>
    </g>
</svg>