<?xml version="1.0" encoding="UTF-8"?>
<svg width="18px" height="34px" viewBox="0 0 18 34" version="1.1" xmlns="http://www.w3.org/2000/svg" xmlns:xlink="http://www.w3.org/1999/xlink">
    <!-- Generator: Sketch 54.1 (76490) - https://sketchapp.com -->
    <title>12</title>
    <desc>Created with Sketch.</desc>
    <g id="页面" stroke="none" stroke-width="1" fill="none" fill-rule="evenodd">
        <g id="C9_6_icon-汇总说明-" transform="translate(-1201.000000, -675.000000)" fill="#FFFFFF" fill-rule="nonzero">
            <g id="编组-45" transform="translate(1197.000000, 573.000000)">
                <g id="12" transform="translate(1.000000, 99.000000)">
                    <g id="1">
                        <path d="M19.1654911,17.7172577 C18.7529096,17.907043 18.3416607,18.2153062 17.9317447,18.6420472 L17.9004054,36.9062096 L20.8247864,36.9133458 L20.8483102,17.3004425 C20.1390124,17.388534 19.5780727,17.5274723 19.1654911,17.7172577 Z" id="Fill-1复制-7"></path>
                        <path d="M18.5068305,11.9688694 C16.3917009,11.0047289 12.7771811,11.1861979 12.7771811,11.1861979 L6.04770828,11.036596 L9.06199689,15.9407161 L8.92482671,16.0199113 L1.50017028,9.50298298 L8.81053462,4.90175973 L6.2739669,8.77084008 L12.4105292,8.92791196 C12.4105292,8.92791196 15.8796788,8.84906434 17.8477438,9.43780865 C19.8139319,10.0253322 22.3583639,11.3845434 22.6291101,11.88475 C22.6993851,12.020416 23.1399061,11.9265708 23.1245388,12.1162293 C23.026436,13.3269837 21.0099756,15.6412527 21.052484,15.2192843 C21.0942289,14.7066716 20.6238476,12.9317729 18.5068305,11.9688694 Z" id="Fill-2复制-5" transform="translate(12.312551, 10.460836) rotate(-330.000000) translate(-12.312551, -10.460836) "></path>
                        <path d="M20.9199352,20.950913 C20.579459,14.1807839 9.48612564,14.1697517 9.61488754,21.0980097 L9.64460183,31.1483968 L5.16641135,27.2368484 L11.0015542,34.7743323 L16.6608875,27.0149775 L12.1975542,31.0307194 L12.2198399,21.6067194 C12.325078,17.0626549 18.3001256,17.2305904 18.539078,21.4865904 L20.9199352,20.950913 Z" id="Fill-6"></path>
                    </g>
                </g>
            </g>
        </g>
    </g>
</svg>