<?xml version="1.0" encoding="UTF-8"?>
<svg width="25px" height="29px" viewBox="0 0 25 29" version="1.1" xmlns="http://www.w3.org/2000/svg" xmlns:xlink="http://www.w3.org/1999/xlink">
    <!-- Generator: Sketch 54.1 (76490) - https://sketchapp.com -->
    <title>9</title>
    <desc>Created with Sketch.</desc>
    <g id="待定" stroke="none" stroke-width="1" fill="none" fill-rule="evenodd">
        <g id="工具栏汇总复制" transform="translate(-1461.000000, -695.000000)" fill="#FFFFFF">
            <g id="编组-25" transform="translate(1382.000000, 615.000000)">
                <g id="9" transform="translate(79.000000, 79.000000) scale(0.9)">
                    <polygon id="Fill-1" points="11.0052 7.3645 10.9782 29.2045 13.3402 29.2125 13.3592 7.2255"></polygon>
                    <g id="编组" transform="translate(0.000000, 0.212000)">
                        <path d="M12.1751,6.9521 C12.0281,6.5281 10.6201,5.3741 9.5381,4.8721 C8.4561,4.3701 6.5491,4.4241 6.5491,4.4241 L3.4401,4.4361 L6.3951,0.8521 L3.7271,0.7881 L0.0001,5.4501 L3.7211,10.2231 L6.5631,10.1511 L3.3271,6.3451 L6.7631,6.3281 C6.7631,6.3281 8.4411,6.3221 9.6071,7.1411 C10.7731,7.9611 11.0681,9.6071 11.0751,10.0061 C11.0811,10.8041 12.4701,7.7981 12.1751,6.9521" id="Fill-2"></path>
                        <path d="M12.1429,6.9521 C12.2889,6.5281 13.6959,5.3741 14.7779,4.8721 C15.8599,4.3701 17.7679,4.4241 17.7679,4.4241 L20.8769,4.4361 L17.9209,0.8521 L20.5889,0.7881 L24.3169,5.4501 L20.5979,10.2231 L17.7539,10.1511 L20.9909,6.3451 L17.5559,6.3281 C17.5559,6.3281 15.8769,6.3221 14.7099,7.1411 C13.5439,7.9611 13.2489,9.6071 13.2429,10.0061 C13.2349,10.8041 11.8429,7.7981 12.1429,6.9521" id="Fill-4"></path>
                    </g>
                </g>
            </g>
        </g>
    </g>
</svg>