<?xml version="1.0" encoding="UTF-8"?>
<svg width="28px" height="35px" viewBox="0 0 28 35" version="1.1" xmlns="http://www.w3.org/2000/svg" xmlns:xlink="http://www.w3.org/1999/xlink">
    <!-- Generator: Sketch 54.1 (76490) - https://sketchapp.com -->
    <title>右右后方掉</title>
    <desc>Created with Sketch.</desc>
    <g id="页面" stroke="none" stroke-width="1" fill="none" fill-rule="evenodd">
        <g id="C9_6_icon-汇总说明-" transform="translate(-994.000000, -1237.000000)" fill-rule="nonzero">
            <g id="编组-8" transform="translate(994.000000, 1237.000000)">
                <g id="右右后方掉" transform="translate(1.000000, 1.000000)">
                    <path d="M8.69673216,17.0755955 C8.73657986,15.4150167 10.0204962,14.8670616 11.3862362,14.8670616 C11.9616291,14.8670616 12.6918649,14.9523618 13.1476181,15.1676571 C13.6387556,15.3996679 13.7763603,15.6643292 13.8202362,15.9234665 C13.8917907,16.3460776 13.8917907,18.9354745 13.8202362,23.6916571 L10.3232362,20.6086571 L10.2562362,22.6636571 L14.8772362,26.5506571 L19.2902362,22.6906571 L19.2952362,20.4356571 L15.8102362,23.5996571 L15.8292362,16.1726571 C14.8772362,11.25012 6.81523618,12.7226571 7.00323618,16.0786571 L8.69673216,17.0755955 Z" id="path22940_9_复制-6" fill="#ffffff"></path>
                    <polygon id="path2200_4_复制-7" fill="#FFFFFF" points="6.158 32.9787224 6.186 7.15255237 8.54 6.987 8.522 32.987"></polygon>
                    <path d="M6.1998711,7.164 C6.3458711,6.74 7.7528711,5.586 8.8348711,5.084 C9.9168711,4.582 11.8238711,4.636 11.8238711,4.636 L14.9338711,4.648 L11.9778711,1.064 L14.6458711,1 L18.3738711,5.662 L14.6518711,10.435 L11.8108711,10.364 L15.0478711,6.558 L11.6108711,6.54 C11.6108711,6.54 9.9348711,6.534 8.7688711,7.353 C7.6028711,8.173 7.3078711,9.819 7.3018711,10.218 C7.2918711,11.016 5.9018711,8.01 6.1998711,7.164 Z" id="path2249_1_复制-3" fill="#ffffff"></path>
                    <rect id="矩形复制-44" stroke="#ffffff" stroke-width="2" x="0" y="0" width="26" height="33"></rect>
                </g>
            </g>
        </g>
    </g>
</svg>