<?xml version="1.0" encoding="UTF-8"?>
<svg width="28px" height="35px" viewBox="0 0 28 35" version="1.1" xmlns="http://www.w3.org/2000/svg" xmlns:xlink="http://www.w3.org/1999/xlink">
    <!-- Generator: Sketch 54.1 (76490) - https://sketchapp.com -->
    <title>左直右后方掉</title>
    <desc>Created with Sketch.</desc>
    <g id="页面" stroke="none" stroke-width="1" fill="none" fill-rule="evenodd">
        <g id="C9_6_icon-汇总说明-" transform="translate(-995.000000, -1299.000000)" fill-rule="nonzero">
            <g id="编组-8" transform="translate(994.000000, 1237.000000)">
                <g id="左直右后方掉" transform="translate(2.000000, 63.000000)">
                    <path d="M13.8547322,18.0755955 C13.8945799,16.4150167 15.1784962,15.8670616 16.5442362,15.8670616 C17.1196291,15.8670616 17.8498649,15.9523618 18.3056181,16.1676571 C18.7967556,16.3996679 18.9343603,16.6643292 18.9782362,16.9234665 C19.0497907,17.3460776 19.0497907,19.9354745 18.9782362,24.6916571 L15.4812362,21.6086571 L15.4142362,23.6636571 L20.0352362,27.5506571 L24.4482362,23.6906571 L24.4532362,21.4356571 L20.9682362,24.5996571 L20.9872362,17.1726571 C20.0352362,12.25012 11.9732362,13.7226571 12.1612362,17.0786571 L13.8547322,18.0755955 Z" id="path22940_9_复制-7" fill="#FFFFFF"></path>
                    <polygon id="path2200_4_复制-6" fill="#FFFFFF" points="11.9201538 33.2190277 12.158 11.2390277 14.1168968 11.2390277 14.4526145 33.2190277"></polygon>
                    <path d="M13.175,15.1780277 C13.028,14.7540277 11.621,13.6000277 10.539,13.0980277 C9.457,12.5960277 7.55,12.6500277 7.55,12.6500277 L4.441,12.6620277 L7.396,9.07802773 L4.728,9.01402773 L1,13.6760277 L4.721,18.4490277 L7.563,18.3770277 L4.326,14.5710277 L7.762,14.5540277 C7.762,14.5540277 9.44,14.5480277 10.606,15.3670277 C11.772,16.1870277 12.066,17.8330277 12.073,18.2320277 C12.081,19.0300277 13.471,16.0240277 13.175,15.1780277 Z" id="path2214_5_复制-3" fill="#FFFFFF"></path>
                    <polygon id="path2214_13_复制-8" fill="#FFFFFF" points="14.36 27.5340277 14.0872793 4.004 17.7652793 7.131 17.8332793 4.387 13.2242793 0.793 8.5470131 4.554 8.6100131 7.131 12.2276922 4.004 11.978 27.5340277"></polygon>
                    <rect id="矩形复制-59" stroke="#FFFFFF" stroke-width="2" x="0" y="0" width="26" height="33"></rect>
                </g>
            </g>
        </g>
    </g>
</svg>