<?xml version="1.0" encoding="UTF-8"?>
<svg width="25px" height="29px" viewBox="0 0 25 29" version="1.1" xmlns="http://www.w3.org/2000/svg" xmlns:xlink="http://www.w3.org/1999/xlink">
    <!-- Generator: Sketch 54.1 (76490) - https://sketchapp.com -->
    <title>12</title>
    <desc>Created with Sketch.</desc>
    <defs>
        <polygon id="path-1" points="0 0.241 12.0287908 0.241 12.0287908 9.36 0 9.36"></polygon>
        <polygon id="path-3" points="0.0636 0.8325 10.1876 0.8325 10.1876 29 0.0636 29"></polygon>
        <polygon id="path-5" points="0.450062354 0.241 12.478 0.241 12.478 9.36 0.450062354 9.36"></polygon>
    </defs>
    <g id="待定" stroke="none" stroke-width="1" fill="none" fill-rule="evenodd">
        <g id="工具栏汇总复制" transform="translate(-1669.000000, -701.000000)">
            <g id="编组-25" transform="translate(1382.000000, 615.000000)">
                <g id="12" transform="translate(287.000000, 85.168000) scale(0.9)">
                    <g id="编组" transform="translate(0.000000, 10.000000)">
                        <mask id="mask-2" fill="white">
                            <use xlink:href="#path-1"></use>
                        </mask>
                        <g id="Clip-2"></g>
                        <path d="M11.8918,5.957 C11.7488,5.547 10.6338,4.675 9.5868,4.189 C8.5408,3.703 6.3328,3.756 6.3328,3.756 L3.3228,3.768 L6.1808,0.303 L3.6008,0.241 L-0.0002,4.747 L3.5958,9.36 L6.3418,9.291 L3.2128,5.612 L6.5328,5.596 C6.5328,5.596 8.3968,5.346 9.5238,6.138 C10.6508,6.93 11.9078,8.279 11.9148,8.665 C11.9278,9.437 12.1788,6.775 11.8918,5.957" id="Fill-1" fill="#FFFFFF" mask="url(#mask-2)"></path>
                    </g>
                    <g id="编组" transform="translate(7.000000, 0.000000)">
                        <mask id="mask-4" fill="white">
                            <use xlink:href="#path-3"></use>
                        </mask>
                        <g id="Clip-4"></g>
                        <polygon id="Fill-3" fill="#FFFFFF" mask="url(#mask-4)" points="6.2966 29.0005 6.2716 4.5755 10.1176 7.6945 10.1876 4.8315 5.1846 0.8325 0.0636 4.8265 0.1406 7.8755 4.2246 4.3995 4.2386 29.0005"></polygon>
                    </g>
                    <g id="编组" transform="translate(12.000000, 10.000000)">
                        <mask id="mask-6" fill="white">
                            <use xlink:href="#path-5"></use>
                        </mask>
                        <g id="Clip-6"></g>
                        <path d="M0.5871,5.957 C0.7311,5.547 1.8451,4.675 2.8921,4.189 C3.9381,3.703 6.1451,3.756 6.1451,3.756 L9.1541,3.768 L6.2961,0.303 L8.8761,0.241 L12.4781,4.747 L8.8811,9.36 L6.1361,9.291 L9.2651,5.612 L5.9441,5.596 C5.9441,5.596 4.0821,5.346 2.9531,6.138 C1.8261,6.93 0.5691,8.279 0.5631,8.665 C0.5511,9.437 0.3001,6.775 0.5871,5.957" id="Fill-5" fill="#FFFFFF" mask="url(#mask-6)"></path>
                    </g>
                </g>
            </g>
        </g>
    </g>
</svg>