<?xml version="1.0" encoding="UTF-8"?>
<svg width="18px" height="29px" viewBox="0 0 18 29" version="1.1" xmlns="http://www.w3.org/2000/svg" xmlns:xlink="http://www.w3.org/1999/xlink">
    <!-- Generator: Sketch 54.1 (76490) - https://sketchapp.com -->
    <title>7</title>
    <desc>Created with Sketch.</desc>
    <defs>
        <polygon id="path-1" points="0.383 0.5643 10.603 0.5643 10.603 29 0.383 29"></polygon>
    </defs>
    <g id="待定" stroke="none" stroke-width="1" fill="none" fill-rule="evenodd">
        <g id="工具栏汇总复制" transform="translate(-1815.000000, -621.000000)">
            <g id="编组-25" transform="translate(1382.000000, 615.000000)">
                <g id="7" transform="translate(433.000000, 5.000000) scale(0.9)">
                    <path d="M13.4651,17.3904 C13.1941,12.0004 3.4731,11.9914 3.5741,17.5064 L3.5981,23.0574 L0.0651,19.9424 L0.0001,22.0184 L4.6671,25.9444 L9.1241,22.0434 L9.1301,19.7664 L5.6091,22.9614 L5.6281,17.9114 C5.7111,14.2944 11.3991,14.4274 11.5901,17.8164 L13.4651,17.3904 Z" id="Fill-1" fill="#FFFFFF"></path>
                    <g id="编组" transform="translate(7.000000, 0.436000)">
                        <mask id="mask-2" fill="white">
                            <use xlink:href="#path-1"></use>
                        </mask>
                        <g id="Clip-4"></g>
                        <polygon id="Fill-3" fill="#FFFFFF" mask="url(#mask-2)" points="6.677 29.0003 6.651 4.3433 10.536 7.4933 10.603 4.6013 5.553 0.5643 0.383 4.5953 0.461 7.6733 4.585 4.1653 4.599 28.9983"></polygon>
                    </g>
                </g>
            </g>
        </g>
    </g>
</svg>