<?xml version="1.0" encoding="UTF-8"?><svg id="b" xmlns="http://www.w3.org/2000/svg" width="30" height="18" viewBox="0 0 30 18"><defs><style>.d{fill:none;}.e{fill:#ffb400;}</style></defs><g id="c"><path class="e" d="M25.1,7.7h-3.1c0,0,3.5,4.2,3.5,4.2h-7.4c.5-.4,1.1-1.3,1.5-2.1,.5-1,.4-3.3,.4-3.3V3.5s3.5,2.9,3.5,2.9V3.7c0,0-4.4-3.6-4.4-3.6l-4.6,3.6v2.7c0,0,3.8-3.1,3.8-3.1v3.3s.3,1.9-.5,3c-.6,.9-1.5,1.8-2.1,2.2h-3c1.8-2.9,.8-8-3.2-7.9H3.8S6.9,.4,6.9,.4h-2.1c0,0-3.9,4.6-3.9,4.6l3.9,4.4h2.3s-3.2-3.5-3.2-3.5h5c3.6,.1,3.5,5.7,0,5.9h0s-8.1,0-8.1,0v2.1H25.4s-3.1,3.8-3.1,3.8h2.9c0,0,4-4.9,4-4.9l-4-5.1Z"/><rect class="d" width="30" height="18"/></g></svg>