<?xml version="1.0" encoding="UTF-8"?><svg id="b" xmlns="http://www.w3.org/2000/svg" width="30" height="24" viewBox="0 0 30 24"><defs><style>.d{fill:none;}.e{fill:#ffb400;}</style></defs><g id="c"><path class="e" d="M19.3,20.2v-2.6c0,0-3.5,2.9-3.5,2.9v-3s0-1.8-.4-2.9c-.3-.5-.7-1.2-1.1-1.7h6.4s0,0,0,0L26.5,3.4l1.5,4.6,1.5-2.3L27.5,.2l-5.7,.7-1.3,2.2,4.4-.6-5.2,8.4H1s0,2,0,2H11.1c.6,.1,1.6,.5,2.2,1.3,.8,1.1,.7,3,.7,3v3.3s-3.7-3.1-3.7-3.1v2.7c0,0,4.5,3.6,4.5,3.6l4.5-3.6Z"/><rect class="d" width="30" height="24"/></g></svg>