<?xml version="1.0" standalone="no"?><!DOCTYPE svg PUBLIC "-//W3C//DTD SVG 1.1//EN" "http://www.w3.org/Graphics/SVG/1.1/DTD/svg11.dtd"><svg t="1701228237519" class="icon" viewBox="0 0 1024 1024" version="1.1" xmlns="http://www.w3.org/2000/svg" p-id="5562" xmlns:xlink="http://www.w3.org/1999/xlink" width="32" height="32"><path d="M810.666667 512c117.333333 0 213.333333 96 213.333333 213.333333s-96 213.333333-213.333333 213.333334-213.333333-96-213.333334-213.333334c0-87.466667 53.333333-162.133333 128-196.266666l-23.466666-113.066667-294.4 219.733333c12.8 27.733333 19.2 57.6 19.2 89.6 0 117.333333-96 213.333333-213.333334 213.333334S0 842.666667 0 725.333333s96-213.333333 213.333333-213.333333c19.2 0 36.266667 2.133333 53.333334 6.4L238.933333 320H192c-23.466667 0-42.666667-19.2-42.666667-42.666667s19.2-42.666667 42.666667-42.666666h170.666667c23.466667 0 42.666667 19.2 42.666666 42.666666s-19.2 42.666667-42.666666 42.666667h-36.266667l32 245.333333 322.133333-238.933333L648.533333 170.666667H554.666667c-23.466667 0-42.666667-19.2-42.666667-42.666667s19.2-42.666667 42.666667-42.666667h128c19.2 0 38.4 14.933333 42.666666 34.133334l44.8 213.333333v2.133333L810.666667 512c-2.133333 0 0 0 0 0z m0 341.333333c70.4 0 128-57.6 128-128 0-64-49.066667-119.466667-110.933334-125.866666l25.6 117.333333c4.266667 23.466667-10.666667 44.8-32 51.2h-8.533333c-19.2 0-38.4-12.8-42.666667-34.133333l-25.6-117.333334C706.133333 640 682.666667 678.4 682.666667 725.333333c0 70.4 57.6 128 128 128z m-597.333334 0c70.4 0 128-57.6 128-128 0-12.8-2.133333-25.6-6.4-38.4l-96 72.533334c-8.533333 6.4-17.066667 8.533333-25.6 8.533333-12.8 0-25.6-6.4-34.133333-17.066667-14.933333-19.2-10.666667-44.8 8.533333-59.733333l96-72.533333c-21.333333-12.8-44.8-21.333333-72.533333-21.333334-70.4 0-128 57.6-128 128s59.733333 128 130.133333 128z" fill="#1296db" p-id="5563" data-spm-anchor-id="a313x.search_index.0.i12.313a3a814L2WEQ" class="selected"></path></svg>