<?xml version="1.0" encoding="UTF-8"?>
<svg xmlns="http://www.w3.org/2000/svg" width="28" height="124"
    xmlns:xlink="http://www.w3.org/1999/xlink" viewBox="0 0 28 124">
    <defs>
        <linearGradient id="d" x1="2056" y1="65.7" x2="2078.3" y2="65.7"
            gradientTransform="translate(2081.2) rotate(-180) scale(1 -1)"
            gradientUnits="userSpaceOnUse">
            <stop offset="0" stop-color="#d87a1e" />
            <stop offset=".2" stop-color="#d87a1e" />
            <stop offset=".2" stop-color="#c4660a" />
            <stop offset=".8" stop-color="#9f3e00" />
            <stop offset=".8" stop-color="#913300" />
            <stop offset="1" stop-color="#9d3f00" />
        </linearGradient>
    </defs>
    <g style="isolation:isolate;">
        <g id="b">
            <g id="c">
                <rect width="28" height="124" style="fill:none; opacity:0; stroke-width:0px;" />
                <path
                    d="m2.9,62.2l22.4-.6v1.3c0,1.7-1.1,3.5-3.3,4.8-4.4,2.7-11.5,2.7-15.8,0-2.2-1.3-3.3-3.1-3.2-4.8"
                    style="fill:url(#d); stroke-width:0px;" />
                <path
                    d="m6.1,67.1c4.4,2.7,11.4,2.6,15.8,0,4.4-2.7,4.4-7,0-9.7-4.4-2.7-11.4-2.6-15.8,0-4.4,2.7-4.4,7,0,9.7Z"
                    style="fill:#dd2824; stroke-width:0px;" />
                <path d="m7.5,54l3.6-32.5-3.6,32c0,.2,0,.4,0,.5Z"
                    style="fill:#aa211a; mix-blend-mode:multiply; stroke-width:0px;" />
                <path d="m7,58.9c0,0,0-.2-.1-.3l-.4,3.7s0,0,.1.1l.4-3.6Z"
                    style="fill:#aa211a; mix-blend-mode:multiply; stroke-width:0px;" />
                <path
                    d="m10.4,21.6s-4.4,38.2-4.4,38.5c0,.8.1,1.3.3,2,0,0,0,0,.2.2l.4-3.7.6-5.1,3.6-32h-.7Z"
                    style="fill:#aa211a; mix-blend-mode:multiply; stroke-width:0px;" />
                <path
                    d="m14.8,62.5v-4.6c0,0-.7-35.8-.7-35.8h-1.4l-1.6,35.4-.2,4.6v3.1c1.1.5,2.5.8,4,.7v-3.4Z"
                    style="fill:#dd2824; stroke-width:0px;" />
                <path
                    d="m11.1,21.5l-3.6,32.5-.5,4.8-.4,3.6c.6.6,2,1.9,4.1,2.7v-3.1c.1,0,.4-4.6.4-4.6l1.6-35.4-1.6-.5Z"
                    style="fill:#bc1919; stroke-width:0px;" />
                <path d="m7.5,54c0-.2,0-.4,0-.5l-.6,5.1c0,0,0,.2.1.3l.5-4.8Z"
                    style="fill:#aa211a; mix-blend-mode:multiply; stroke-width:0px;" />
                <path d="m17.6,21.9l-.8.2,3.7,31.6.6,4.9.5,4.6c.3-1,.4-2,.4-3l-4.4-38.3Z"
                    style="fill:#bc1919; stroke-width:0px;" />
                <path
                    d="m21.1,58.6l-.6-4.9-3.7-31.6h-2.7l.6,35.8v4.6c0,0,.1,3.4.1,3.4,2-.1,4.3-.8,6.7-2.7l-.5-4.6Z"
                    style="fill:#ff4545; stroke-width:0px;" />
                <path
                    d="m16.6,23.2c-1.4.9-3.7.9-5.1,0-1.4-.9-1.4-2.3,0-3.1,1.4-.9,3.7-.9,5.1,0,1.4.9,1.4,2.3,0,3.1Z"
                    style="fill:#721715; stroke-width:0px;" />
                <path
                    d="m16.3,23.1c-1.3.8-3.5.8-4.9,0-1.3-.8-1.4-2.2,0-3,1.3-.8,3.5-.8,4.9,0,1.3.8,1.4,2.2,0,3Z"
                    style="fill:#891515; stroke-width:0px;" />
                <path
                    d="m19.2,52.3c-3.2,2.7-8,2.5-10.8-.6-.6-.7-1-1.4-1.3-2.2-.3,2.3-.5,4.3-.7,6,.3,1.1.9,2.1,1.7,3,3,3.3,8.2,3.8,11.5,1,.9-.7,1.6-1.7,2-2.6l-.8-6.6c-.4.8-1,1.5-1.7,2.1Z"
                    style="fill:#ffe2d6; stroke-width:0px;" />
                <path
                    d="m19.3,47.5c.4-.4.8-.8,1.1-1.2l-.8-6.5c-.2.3-.5.5-.8.8-3,2.6-7.6,2.4-10.2-.6-.2-.2-.3-.4-.5-.6-.2,2-.5,4-.7,6,.2.4.5.8.9,1.2,2.8,3.2,7.7,3.6,10.9.9Z"
                    style="fill:#ffe2d6; stroke-width:0px;" />
                <path
                    d="m19.2,35.2l-.7-5.9c-2.7,1.8-6.5,1.7-9-.2-.2,1.7-.4,3.6-.6,5.5,2.8,2.5,7.3,2.7,10.4.6Z"
                    style="fill:#ffe2d6; stroke-width:0px;" />
            </g>
        </g>
    </g>
</svg>