<?xml version="1.0" encoding="UTF-8"?>
<svg id="b" xmlns="http://www.w3.org/2000/svg" width="107.5" height="105.4"
    xmlns:xlink="http://www.w3.org/1999/xlink" viewBox="0 0 107.5 105.4">
    <defs>
        <style>
            .p{fill:none;}.p,.q,.r,.s,.t,.u,.v,.w,.x,.y,.z,.aa,.ab{stroke-width:0px;}.q{fill:url(#e);}.r{fill:url(#f);}.s{fill:url(#d);}.t{fill:url(#j);}.u{fill:url(#i);}.v{fill:url(#h);}.w{fill:url(#m);}.x{fill:url(#g);}.y{fill:url(#o);}.z{fill:url(#k);}.aa{fill:url(#n);}.ab{fill:url(#l);}
        </style>
        <linearGradient id="d" x1="48.3" y1="52.7" x2="49.7" y2="52.7"
            gradientUnits="userSpaceOnUse">
            <stop offset="0" stop-color="#231815" />
            <stop offset="0" stop-color="#372d2a" />
            <stop offset="0" stop-color="#655d5b" />
            <stop offset=".1" stop-color="#8e8987" />
            <stop offset=".2" stop-color="#b1adac" />
            <stop offset=".2" stop-color="#cdcbca" />
            <stop offset=".3" stop-color="#e3e2e1" />
            <stop offset=".3" stop-color="#f2f2f2" />
            <stop offset=".4" stop-color="#fcfbfb" />
            <stop offset=".5" stop-color="#fff" />
            <stop offset=".7" stop-color="#fcfcfc" />
            <stop offset=".7" stop-color="#f5f5f5" />
            <stop offset=".8" stop-color="#e9e8e8" />
            <stop offset=".8" stop-color="#d8d6d6" />
            <stop offset=".9" stop-color="#c2bfbe" />
            <stop offset=".9" stop-color="#a6a2a1" />
            <stop offset=".9" stop-color="#85807e" />
            <stop offset="1" stop-color="#605957" />
            <stop offset="1" stop-color="#3a312f" />
            <stop offset="1" stop-color="#453d3b" />
            <stop offset="1" stop-color="#65605f" />
            <stop offset="1" stop-color="#7f7c7b" />
            <stop offset="1" stop-color="#91908f" />
            <stop offset="1" stop-color="#9c9c9b" />
            <stop offset="1" stop-color="#a0a0a0" />
        </linearGradient>
        <linearGradient id="e" x1="38.4" x2="39.8" xlink:href="#d" />
        <linearGradient id="f" x1="68.2" x2="69.6" xlink:href="#d" />
        <linearGradient id="g" x1="58.3" x2="59.6" xlink:href="#d" />
        <linearGradient id="h" x1="101.9" y1="52.7" x2="103.3" y2="52.7" xlink:href="#d" />
        <linearGradient id="i" x1="92" y1="52.7" x2="93.3" y2="52.7" xlink:href="#d" />
        <linearGradient id="j" x1="14.4" y1="52.7" x2="15.8" y2="52.7" xlink:href="#d" />
        <linearGradient id="k" x1="4.5" y1="52.7" x2="5.8" y2="52.7" xlink:href="#d" />
        <linearGradient id="l" x1="407.3" y1="29.7" x2="408.6" y2="29.7"
            gradientTransform="translate(-354.2 15.6)" xlink:href="#d" />
        <linearGradient id="m" x1="392.6" y1="29.7" x2="393.9" y2="29.7"
            gradientTransform="translate(-339.5 30.3)" xlink:href="#d" />
        <linearGradient id="n" x1="406.7" y1="360.1" x2="411.5" y2="360.1"
            gradientTransform="translate(-382 -307.4)" gradientUnits="userSpaceOnUse">
            <stop offset="0" stop-color="#989898" />
            <stop offset="0" stop-color="#a3a3a3" />
            <stop offset=".1" stop-color="#c4c5c5" />
            <stop offset=".2" stop-color="#d8d9d9" />
            <stop offset=".3" stop-color="#e0e1e1" />
            <stop offset=".4" stop-color="#dbdcdc" />
            <stop offset=".5" stop-color="#cccece" />
            <stop offset=".6" stop-color="#b5b6b7" />
            <stop offset=".7" stop-color="#949697" />
            <stop offset=".8" stop-color="#6a6c6f" />
            <stop offset=".8" stop-color="#3f4246" />
            <stop offset="1" stop-color="#404247" />
            <stop offset="1" stop-color="#43434a" />
        </linearGradient>
        <linearGradient id="o" x1="78.5" y1="52.7" x2="83.3" y2="52.7"
            gradientTransform="matrix(1,0,0,1,0,0)" xlink:href="#n" />
    </defs>
    <g id="c">
        <rect class="p" width="107.5" height="105.4" />
        <path class="s"
            d="m48.6,45.2h.9c.1,0,.2.1.2.2v14.6c0,0,0,.1-.1.1h-1.2s0,0,0,0v-14.7c0-.1.1-.2.2-.2Z" />
        <path class="q"
            d="m38.6,45.2h.9c.1,0,.2.1.2.2v14.6c0,0,0,.1-.1.1h-1.2s0,0,0,0v-14.7c0-.1.1-.2.2-.2Z" />
        <path class="r"
            d="m68.4,45.2h.9c.1,0,.2.1.2.2v14.6c0,0,0,.1-.1.1h-1.2s0,0,0,0v-14.7c0-.1.1-.2.2-.2Z" />
        <path class="x"
            d="m58.5,45.2h.9c.1,0,.2.1.2.2v14.6c0,0,0,.1-.1.1h-1.2s0,0,0,0v-14.7c0-.1.1-.2.2-.2Z" />
        <path class="v"
            d="m102.1,45.2h.9c.1,0,.2.1.2.2v14.6c0,0,0,.1-.1.1h-1.2s0,0,0,0v-14.7c0-.1.1-.2.2-.2Z" />
        <path class="u"
            d="m92.2,45.2h.9c.1,0,.2.1.2.2v14.6c0,0,0,.1-.1.1h-1.2s0,0,0,0v-14.7c0-.1.1-.2.2-.2Z" />
        <path class="t"
            d="m14.6,45.2h.9c.1,0,.2.1.2.2v14.6c0,0,0,.1-.1.1h-1.2s0,0,0,0v-14.7c0-.1.1-.2.2-.2Z" />
        <path class="z"
            d="m4.7,45.2h.9c.1,0,.2.1.2.2v14.6c0,0,0,.1-.1.1h-1.2s0,0,0,0v-14.7c0-.1.1-.2.2-.2Z" />
        <path class="ab"
            d="m53.3-8.4h.9c.1,0,.2.1.2.2v107.1c0,0,0,.1-.1.1h-1.1s0,0,0,0V-8.1c0-.1.1-.2.2-.2Z"
            transform="translate(8.4 99.1) rotate(-90)" />
        <path class="w"
            d="m53.3,6.3h.9c.1,0,.2.1.2.2v107.1c0,0,0,.1-.1.1h-1.1s0,0,0,0V6.6c0-.1.1-.2.2-.2Z"
            transform="translate(-6.3 113.8) rotate(-90)" />
        <path class="aa"
            d="m25.4,40.6h3.1c.6,0,1.1.5,1.1,1.1v22.3c0,.5-.4,1-1,1h-3.4c-.5,0-.9-.4-.9-.9v-22.3c0-.6.5-1.1,1.1-1.1Z"
            transform="translate(54 105.4) rotate(180)" />
        <path class="y"
            d="m79.2,40.6h3.1c.6,0,1.1.5,1.1,1.1v22.3c0,.5-.4,1-1,1h-3.4c-.5,0-.9-.4-.9-.9v-22.3c0-.6.5-1.1,1.1-1.1Z" />
    </g>
</svg>