<?xml version="1.0" encoding="UTF-8"?><svg id="b" xmlns="http://www.w3.org/2000/svg" width="51" height="51" viewBox="0 0 51 51"><g id="c"><path d="m25.5,50C12,50,1,39,1,25.5S12,1,25.5,1s24.5,11,24.5,24.5-11,24.5-24.5,24.5Z" style="fill:#f24643; stroke-width:0px;"/><path d="m25.5,2c13,0,23.5,10.5,23.5,23.5s-10.5,23.5-23.5,23.5S2,38.5,2,25.5,12.5,2,25.5,2m0-2h0C11.4,0,0,11.4,0,25.5s11.4,25.5,25.5,25.5h0c14.1,0,25.5-11.4,25.5-25.5S39.6,0,25.5,0h0Z" style="fill:#510710; stroke-width:0px;"/><path d="m7.9,18.9c-.6-.3-1.8-.7-2.4-.9l.3-.8c.6.2,1.7.6,2.3.9l-.2.8Zm6.9-3.3c.2.2.4.4.6.7.6.8.6,1.1.3,1.3-.2.3-.6.4-1.5.2-.1,0-.2,0-.3-.1.1.6.2,1.2.2,1.9h-.8c0-.3,0-.5,0-.8l-1,1.1-2.1-1.8,1.2-1.4,1.8,1.5c0-.3,0-.6-.2-.9-.9-.5-1.9-1.2-3.2-2.1l-1.5,1.7,2.4,2c.7.6,1.6,1.8,1.9,2.7l-.9.2c-.3-.9-.8-1.7-1.5-2.3l-3-2.6,1.9-2.2-1-.7.5-.6.9.7.5-.6c-.3,0-.7,0-1,0v-.7c.4,0,.9,0,1.2,0v.4s.4-.5.4-.5l.6.5-1.1,1.3c.8.6,1.6,1.1,2.2,1.5-.3-.6-.7-1.1-1.2-1.7l.6-.5c.8,1,1.4,1.9,1.7,2.9.3.1.6.3.8.3.3,0,.4,0,.5,0,0,0,0-.2-.3-.6-.1-.2-.3-.4-.5-.6l.6-.3Zm-5.7,3.4c.8,1.1,1.5,2.2,2.1,3.1l-.7.5c-.6-1-1.3-2.1-2.1-3.1l.7-.5Zm1.9-2.8l-1.3,1.5-.6-.5,1.3-1.5.6.5Zm.7,1.4l-.4.5.9.8.4-.5-.9-.8Z" style="fill:#fff; stroke-width:0px;"/><path d="m17.1,10.6c-.3-.4-1.1-1.1-1.5-1.4l.5-.6c.4.3,1.1.9,1.5,1.3l-.5.7Zm7.4,2.8v.9c-1.2.4-2.4.7-3.6,1-1.1.3-1.7.2-2.5-.4-.2.5-.5,1-.7,1.4l-.7-.6c.3-.5.6-.9.8-1.4l-.6-2.3-.9.2-.2-.9,1.7-.5.8,3.1c.7.6,1.2.7,2.3.4,1.3-.3,2.5-.7,3.7-1.1Zm-5.8.4c.6-.5,1.2-1.3,1.5-2l-1.5.4-.6-2.3,1.8-.5-.2-.6-2,.5-.2-.8,2-.5-.2-.8.8-.2.2.7,2.1-.5.2.8-2.1.5.2.6,1.8-.5.6,2.3-1.8.5v.5c.1,0,.3-.5.3-.5.5.2,1.5.6,2.2.8l-.2.9c-.6-.3-1.5-.7-2.1-.9l.4,1.6-.8.2-.4-1.6c-.3.7-.8,1.3-1.3,1.8l-.7-.6Zm.6-2.5l1-.3-.2-.8-1,.3.2.8Zm1.6-1.3l.2.8,1.1-.3-.2-.8-1.1.3Z" style="fill:#fff; stroke-width:0px;"/><path d="m33.4,15.9l-2.9-1.1-.5,1.4-.8-.3.5-1.4-3.3-1.2.3-.8,3.3,1.2.4-1.1-2.4-.9.3-.8c.4-.3,1-.8,1.6-1.3l-1.4-.5.3-.8,1.8.7c.4-.4.7-.8.9-1.1l.8.6c-.2.3-.5.6-.7.8l3.6,1.4-.3.8-4-1.5c-.5.5-1.1,1-1.5,1.3l1.4.5.5-1.3.8.4-.5,1.2,2.2.8-.3.8-2.2-.8-.4,1.1,2.9,1.1-.3.8Z" style="fill:#fff; stroke-width:0px;"/><path d="m39.2,23.6l-.8.3c-.8-1-1.5-2-2.3-3.1-.6-1-.8-1.5-.5-2.5-.5,0-1,0-1.5-.2l.3-.9c.5,0,1.1.2,1.7.2l1.9-1.3-.5-.7.8-.5,1,1.4-2.6,1.8c-.4.9-.2,1.4.4,2.3.7,1.1,1.5,2.1,2.3,3.2Zm2.4-5.9l-1.2-1.7.6-.4.8,1.1c0-.3.2-.6.3-.9l.8.2c0,.4-.2.7-.3,1.1h-.5c0,0,.6.8.6.8.5,0,1.2,0,1.5,0v.8c-.2,0-.5,0-.9,0l.8,1.2-.6.4-1.4-1.9c-.2,0-.4.1-.5.2l1.1,1.6-3.5,2.5-2.5-3.5,3.5-2.5.8,1.2.6-.2Zm-2.4,3.9l.4-.3-1.5-2.1-.4.3,1.5,2.1Zm-.5-2.8l1.5,2.1.4-.3-1.5-2.1-.4.3Zm.6-3.1c.2-.4.6-1.4.8-2l.8.3c-.1.5-.5,1.4-.7,1.9l-.9-.2Zm2.3,4.2l-1.5-2.1-.4.3,1.5,2.1.4-.3Z" style="fill:#fff; stroke-width:0px;"/><path d="m33.7,37.9l-.3,1.7c-2.8.1-5.5.2-8.3.1-2.7,0-4.5-.6-5.4-2.5-.3,1-.6,2-1.1,3.1l-1.5-.6c1.1-2.5,1.6-4,1.6-7.6h1.6c0,1,0,1.9-.1,2.7.3,1,.7,1.6,1.2,2.1v-5.7h-3.5v-1.7h3.2v-2.1h-2.6v-1.6h2.6v-2.1h1.7v2.1h2.4v1.6h-2.4v2.1h2.9v1.7h-2.6v2.3h2.4v1.7h-2.4v2.6c.6.2,1.4.2,2.3.3,2.8,0,5.6,0,8.5-.1Zm-3.2-11.7h-4.7v-1.7h6.4v6.1h-4.7v3.1c0,1,.2,1.2,1,1.2.4,0,.9,0,1.3,0,1,0,1.2-.2,1.3-1.1,0-.3.1-.8.1-1.3l1.6.6c0,.4,0,.7-.2,1.3-.3,1.8-.7,2.2-2.5,2.2-.7,0-1.5,0-2.2,0-1.7,0-2.2-.7-2.2-2.6v-5.2h4.7v-2.8Z" style="fill:#fff; stroke-width:0px;"/></g></svg>