<?xml version="1.0" encoding="UTF-8"?>
<svg xmlns="http://www.w3.org/2000/svg" xmlns:xlink="http://www.w3.org/1999/xlink" viewBox="0 0 28 124">
  <defs>
    <style>
      .cls-1 {
        fill: #aa211a;
        mix-blend-mode: multiply;
      }

      .cls-1, .cls-2, .cls-3, .cls-4, .cls-5, .cls-6, .cls-7, .cls-8, .cls-9 {
        stroke-width: 0px;
      }

      .cls-2 {
        fill: none;
        opacity: 0;
      }

      .cls-10 {
        isolation: isolate;
      }

      .cls-3 {
        fill: url(#_铃琨眄沭噤桢眚_3);
      }

      .cls-4 {
        fill: #721715;
      }

      .cls-5 {
        fill: #d24f00;
      }

      .cls-6 {
        fill: #dd2824;
      }

      .cls-7 {
        fill: #bc1919;
      }

      .cls-8 {
        fill: #ffe2d6;
      }

      .cls-9 {
        fill: #ff4545;
      }
    </style>
    <linearGradient id="_铃琨眄沭噤桢眚_3" data-name="铃琨眄沭噤桢眚 3" x1="-3198.91" y1="65.71" x2="-3176.55" y2="65.71" gradientTransform="translate(-3173.67) rotate(-180) scale(1 -1)" gradientUnits="userSpaceOnUse">
      <stop offset="0" stop-color="#d87a1e"/>
      <stop offset=".21" stop-color="#d87a1e"/>
      <stop offset=".21" stop-color="#c4660a"/>
      <stop offset=".79" stop-color="#9f3e00"/>
      <stop offset=".79" stop-color="#913300"/>
      <stop offset="1" stop-color="#9d3f00"/>
    </linearGradient>
  </defs>
  <g class="cls-10">
    <g id="_图层_2" data-name="图层 2">
      <g id="_图层_1-2" data-name="图层 1">
        <rect class="cls-2" width="28" height="124"/>
        <g>
          <g>
            <path class="cls-3" d="m2.88,64.12v-1.9l22.36-.58v1.32c-.02,1.74-1.12,3.48-3.3,4.81-4.38,2.67-11.46,2.69-15.81.03-2.18-1.33-3.27-3.09-3.25-4.84v1.16Z"/>
            <path class="cls-6" d="m6.13,67.06c4.35,2.66,11.43,2.64,15.81-.03,4.38-2.67,4.4-7,.05-9.66-4.35-2.66-11.43-2.64-15.81.03-4.38,2.67-4.4,7-.05,9.66Z"/>
          </g>
          <g>
            <path class="cls-5" d="m7.52,54.02l3.57-32.53-3.62,32c0,.18.02.35.06.53Z"/>
            <path class="cls-5" d="m6.99,58.87c-.04-.09-.07-.19-.1-.28l-.42,3.75s.08.09.13.14l.39-3.6Z"/>
            <path class="cls-1" d="m10.41,21.64s-4.45,38.19-4.45,38.52c0,.8.1,1.33.3,1.97,0,0,.07.08.19.21l.42-3.75.58-5.09,3.62-32-.68.15Z"/>
            <path class="cls-6" d="m14.8,62.49l-.08-4.63-.63-35.83h-1.41l-1.63,35.39-.21,4.61-.14,3.13c1.2.47,2.6.78,4.17.7l-.06-3.37Z"/>
            <path class="cls-7" d="m11.09,21.49l-3.57,32.53-.53,4.85-.39,3.6c.61.61,2.04,1.9,4.09,2.71l.14-3.13.21-4.61,1.63-35.39-1.59-.55Z"/>
            <path class="cls-5" d="m7.52,54.02c-.03-.18-.05-.35-.06-.53l-.58,5.09c.03.09.06.19.1.28l.53-4.85Z"/>
            <path class="cls-7" d="m17.6,21.86l-.77.18,3.66,31.62.57,4.92.53,4.59c.31-.97.43-2.01.43-3.01l-4.42-38.29Z"/>
            <path class="cls-9" d="m21.06,58.58l-.57-4.92-3.66-31.62h-2.75l.63,35.83.08,4.63.06,3.37c2-.11,4.28-.85,6.73-2.7l-.53-4.59Z"/>
          </g>
          <g>
            <path class="cls-4" d="m16.56,23.23c-1.4.86-3.69.85-5.1,0-1.41-.86-1.42-2.26-.02-3.11,1.4-.86,3.69-.85,5.1,0,1.41.86,1.42,2.26.02,3.11Z"/>
            <path class="cls-4" d="m16.3,23.12c-1.34.82-3.52.81-4.86,0-1.35-.82-1.35-2.15-.02-2.97,1.34-.82,3.52-.81,4.86,0,1.35.82,1.35,2.15.02,2.97Z"/>
          </g>
          <g>
            <path class="cls-8" d="m19.24,52.34c-3.2,2.75-8.04,2.48-10.81-.59-.59-.66-1.04-1.39-1.35-2.16-.26,2.29-.5,4.35-.69,5.99.33,1.07.89,2.1,1.71,3,3,3.33,8.17,3.76,11.55.98.91-.75,1.59-1.66,2.04-2.64l-.77-6.65c-.42.76-.98,1.47-1.68,2.08Z"/>
            <path class="cls-8" d="m19.34,47.54c.43-.36.8-.76,1.12-1.19l-.75-6.53c-.23.27-.48.54-.75.78-3.02,2.64-7.59,2.39-10.21-.57-.18-.2-.34-.41-.49-.63-.23,2.01-.47,4.04-.69,5.99.25.42.54.83.88,1.21,2.83,3.2,7.72,3.62,10.91.94Z"/>
            <path class="cls-8" d="m19.18,35.21l-.68-5.9c-2.74,1.8-6.51,1.69-9.05-.22-.2,1.69-.41,3.56-.64,5.51,2.82,2.45,7.32,2.73,10.37.6Z"/>
          </g>
        </g>
      </g>
    </g>
  </g>
</svg>