<?xml version="1.0" encoding="UTF-8"?>
<svg id="b" xmlns="http://www.w3.org/2000/svg" width="70" height="94"
    xmlns:xlink="http://www.w3.org/1999/xlink" viewBox="0 0 70 94">
    <defs>
        <style>.e{fill:none;opacity:0;}.e,.f{stroke-width:0px;}.f{fill:url(#d);}</style>
        <linearGradient id="d" x1="399.5" y1="413.3" x2="399.5" y2="411.9"
            gradientTransform="translate(-4397.7 -3927.6) rotate(90) scale(10 -10.8)"
            gradientUnits="userSpaceOnUse">
            <stop offset="0" stop-color="#ca4916" />
            <stop offset="1" stop-color="#f7ad5d" />
        </linearGradient>
    </defs>
    <g id="c">
        <rect class="e" width="70" height="94" />
        <path class="f"
            d="m35,82.4h22.4v-4.1c0-.7.4-1.3,1-1.6.6-.3,1.3-.2,1.7.2l7.4,5.8c.8.6.9,1.7.2,2.5,0,0-.1.1-.2.2l-7.4,5.8c-.5.4-1.2.5-1.7.2-.6-.3-1-.9-1-1.6v-4.2h-22.3c0-.6,0-.7,0-1.4s0-1.1,0-1.9h0Z" />
    </g>
</svg>