<?xml version="1.0" encoding="UTF-8"?><svg id="b" xmlns="http://www.w3.org/2000/svg" width="70" height="94" xmlns:xlink="http://www.w3.org/1999/xlink" viewBox="0 0 70 94"><defs><style>.h{stroke:#db4646;stroke-width:2.1px;}.h,.i,.j{fill:none;}.k{fill:#363333;opacity:.7;}.k,.l{isolation:isolate;}.k,.l,.i,.m,.n,.o,.p{stroke-width:0px;}.l{fill:#262d34;opacity:.2;}.i{opacity:0;}.j{stroke:#2f2f2f;stroke-linecap:round;stroke-width:1.4px;}.m{fill:#2f2f2f;}.n{fill:#fff;}.o{fill:url(#e);}.p{fill:url(#d);}</style><radialGradient id="d" cx="-167.6" cy="279.9" fx="-167.6" fy="279.9" r="1.3" gradientTransform="translate(11449.3 -3063) rotate(38.1) scale(54 33.9) skewX(7.5)" gradientUnits="userSpaceOnUse"><stop offset="0" stop-color="#b5b4b4"/><stop offset=".7" stop-color="#6e6c6c"/><stop offset="1" stop-color="#2f2f2f"/></radialGradient><radialGradient id="e" cx="-168" cy="283.4" fx="-168" fy="283.4" r=".5" gradientTransform="translate(6660.2 -10832.7) scale(39.4 38.4)" gradientUnits="userSpaceOnUse"><stop offset="0" stop-color="#e75545"/><stop offset=".8" stop-color="#c4483b"/><stop offset="1" stop-color="#983b31"/></radialGradient></defs><g id="c"><rect class="i" width="70" height="94"/><path class="p" d="m27.1,69.3l-1.1-1c-9.6-4.2-15.6-13.4-15.4-23.6,0-14.1,11.2-25.5,25-25.5s25,11.4,25,25.5-6.5,19.8-15.6,23.6c-.3.3-.6.6-.9,1-3.4,3.9-6.2,8.3-8.3,13,0,0-3.6-7.8-8.9-13h.1Z"/><ellipse class="o" cx="35.4" cy="43.7" rx="19.8" ry="19.2"/><ellipse class="n" cx="35.6" cy="43.5" rx="20.1" ry="19.6"/><ellipse class="h" cx="35.6" cy="43.5" rx="19" ry="18.5"/><ellipse class="n" cx="35.6" cy="43.5" rx="21.6" ry="21"/><ellipse class="h" cx="35.6" cy="43.5" rx="20.5" ry="19.9"/><path class="n" d="m35.6,60.2c-2.3,0-4.6-.4-6.7-1.3-2.1-.8-3.9-2-5.5-3.6-1.6-1.5-2.8-3.4-3.7-5.3-.9-2.1-1.4-4.3-1.4-6.5s.4-4.5,1.4-6.5c.9-2,2.1-3.8,3.7-5.3,1.6-1.5,3.4-2.7,5.5-3.6,2.2-.9,4.4-1.3,6.7-1.3s4.6.4,6.7,1.3c2.1.8,3.9,2,5.5,3.6s2.8,3.4,3.7,5.3c.9,2.1,1.4,4.3,1.4,6.5s-.4,4.5-1.4,6.5c-.9,2-2.1,3.8-3.7,5.3-1.6,1.5-3.4,2.7-5.5,3.6-2.2.9-4.4,1.3-6.7,1.3Z"/><path class="m" d="m35.6,28.1c-2.2,0-4.2.4-6.2,1.2-1.9.8-3.6,1.9-5,3.3s-2.6,3.1-3.4,4.9c-.8,1.9-1.2,3.9-1.2,6s.4,4.1,1.2,6c.8,1.8,1.9,3.5,3.4,4.9s3.2,2.5,5,3.3c1.9.8,4,1.2,6.2,1.2s4.2-.4,6.2-1.2c1.9-.8,3.6-1.9,5-3.3s2.6-3.1,3.4-4.9c.8-1.9,1.2-3.9,1.2-6s-.4-4.1-1.2-6c-.8-1.8-1.9-3.5-3.4-4.9s-3.2-2.5-5-3.3c-1.9-.8-4-1.2-6.2-1.2m0-2.8c10.3,0,18.7,8.1,18.7,18.2s-8.3,18.2-18.7,18.2-18.7-8.1-18.7-18.2,8.3-18.2,18.7-18.2Z"/><line class="j" x1="19.5" y1="50.1" x2="42.4" y2="27.7"/><line class="j" x1="22.3" y1="55" x2="48.2" y2="31.2"/><path class="j" d="m27.9,58.4l23.9-22.3"/><ellipse id="f" class="l" cx="35.8" cy="82" rx="14.4" ry="3.7"/><ellipse id="g" class="k" cx="35.8" cy="82" rx="7.5" ry="3"/></g></svg>