<?xml version="1.0" encoding="UTF-8"?>
<svg id="b" xmlns="http://www.w3.org/2000/svg" width="124.7" height="124.9"
    xmlns:xlink="http://www.w3.org/1999/xlink" viewBox="0 0 124.7 124.9">
    <defs>
        <style>
            .j{fill:url(#f);}.k{fill:#fff;}.l,.m{fill:#535a60;}.n{fill:#262d34;isolation:isolate;opacity:.2;}.o{fill:#d82e00;stroke:#8a1c21;}.o,.p{stroke-miterlimit:10;}.m{opacity:0;}.p{fill:url(#g);stroke:#8b9fae;stroke-width:1.4px;}
        </style>
        <linearGradient id="f" x1="60.1" y1="51.1" x2="64.9" y2="51.1"
            gradientUnits="userSpaceOnUse">
            <stop offset="0" stop-color="#989898" />
            <stop offset="0" stop-color="#a3a3a3" />
            <stop offset=".1" stop-color="#c4c5c5" />
            <stop offset=".2" stop-color="#d8d9d9" />
            <stop offset=".3" stop-color="#e0e1e1" />
            <stop offset=".4" stop-color="#dbdcdc" />
            <stop offset=".5" stop-color="#cccece" />
            <stop offset=".6" stop-color="#b5b6b7" />
            <stop offset=".7" stop-color="#949697" />
            <stop offset=".8" stop-color="#6a6c6f" />
            <stop offset=".8" stop-color="#3f4246" />
            <stop offset="1" stop-color="#404247" />
            <stop offset="1" stop-color="#43434a" />
        </linearGradient>
        <linearGradient id="g" x1="20.8" y1="24" x2="103.9" y2="24" gradientUnits="userSpaceOnUse">
            <stop offset="0" stop-color="#afbacb" />
            <stop offset=".1" stop-color="#c1ccda" />
            <stop offset=".4" stop-color="#d9e6f0" />
            <stop offset=".5" stop-color="#e3f0f8" />
            <stop offset=".6" stop-color="#dde9f2" />
            <stop offset=".8" stop-color="#ccd8e4" />
            <stop offset="1" stop-color="#b1bbcc" />
            <stop offset="1" stop-color="#aeb8c9" />
        </linearGradient>
    </defs>
    <g id="c">
        <g>
            <rect class="m" y=".1" width="124.7" height="124.7" />
            <ellipse id="d" class="n" cx="62.4" cy="62.5" rx="14.4" ry="3.7" />
            <ellipse id="e" class="l" cx="62.4" cy="62.5" rx="7.5" ry="3" />
            <path class="j"
                d="M62.4,39h0c1.4,0,2.6,1.2,2.6,2.6v19.2c0,1.4-1.1,2.5-2.5,2.5h-.3c-1.4,0-2.5-1.1-2.5-2.5v-19.3c0-1.4,1.2-2.6,2.6-2.6Z" />
            <rect class="p" x="20.8" y=".7" width="83.1" height="46.6" rx="14.4" ry="14.4" />
            <rect class="o" x="21.7" y="2.8" width="81.3" height="44" rx="14.1" ry="14.1" />
            <path id="h" class="k"
                d="M27.8,10.8c-.3,0-.6-.2-.7-.4s0-.6,.1-.8c1.3-1.6,3-2.9,4.8-3.9,.2,0,.4-.1,.6,0,.2,0,.4,.2,.5,.4,.2,.4,0,.9-.3,1.1-1.7,.9-3.1,2.1-4.3,3.5-.2,.2-.4,.3-.6,.3h0Zm-1.8,2.6c-.1,0-.3,0-.4-.1-.2-.1-.3-.3-.4-.5,0-.2,0-.4,.1-.6l.3-.4c.1-.2,.3-.3,.5-.4,.2,0,.4,0,.6,0,.2,.1,.3,.3,.4,.5s0,.4-.1,.6l-.3,.4c-.1,.2-.4,.4-.7,.4h0Z" />
            <g>
                <path class="k"
                    d="M51.8,26.8v15.4h-14.3v-15.4h14.3Zm-2.2,2h-10v11.3h10v-11.3Zm-6,3.7h-3.4v-2h3.4v-1.2h2.1v1.2h3.4v2h-3.4v1.2h2.6v5.3h-7.2v-5.3h2.6v-1.2Zm2.7,3h-3.3v1.8h3.3v-1.8Z" />
                <path class="k"
                    d="M63.8,40c2.2,0,4.4,0,6.6,0l-.6,2.1c-2,.1-4.3,.1-6.4,0-2.3,0-4.1-.8-5.3-2.3-.6,1.1-1.3,2-2.2,3l-1.8-1.5c2-2.1,2.8-3.5,3.1-6.6l2.2,.2c0,1-.3,1.9-.5,2.7,.7,1.1,1.5,1.7,2.6,2.1v-5.9h-5.8v-2.1h13.3v2.1h-5.3v1.9h4.8v2.1h-4.8v2.3Zm-6.4-8.8h-2.2v-3.4h6.2l-.3-1.5h2.3c0,0,.3,1.5,.3,1.5h5.9v3.4h-2.1v-1.4h-10.1v1.4Z" />
                <path class="k"
                    d="M77.2,35.4c-.3-.3-.6-.7-.8-1v8.1h-2v-7c-.5,1.1-1,2.1-1.6,2.9l-1.2-1.9c.9-1.3,2-3.4,2.7-5.3h-1.7v-2.1h1.8v-2.8h2v2.8h1.6v2.1h-1.6v1.2l.4-.4c.6,.5,1.3,1.3,1.9,1.9l-1.4,1.4Zm10.4,2.4c-.7-.4-1.4-.8-2-1.2v5.6h-2.1v-6.7h.9c-.7-.7-1.3-1.5-1.8-2.4-.4,.9-1,1.7-1.8,2.5h.8v1.4c0,2.7-.6,4.1-2.9,5.9l-1.5-1.5c2-1.7,2.3-2.2,2.3-4.4v-.2c-.5,.4-1,.7-1.6,1.1l-1.3-1.7c1.8-1.1,2.9-2,3.6-3.2h-2v-2.1h2.9c.1-.5,.3-1,.3-1.7-1,0-2,.1-2.8,.2l-.2-2.1c2.6-.1,6.2-.5,8.4-.9l.2,2.1c-.9,.1-2.1,.3-3.3,.4,0,.6-.2,1.3-.3,1.9h4.4v2.1h-2.9c.9,1.2,2.1,1.9,3.8,2.8l-1,2.1Z" />
            </g>
            <path id="i" class="k"
                d="M73.2,11.9h-21.7l-4.9-6.2,1.7-1.3,4.3,5.4h19.7l4.3-5.4,1.7,1.3-4.9,6.2Zm3.2,10.5l-4.3-5.9h-19.6l-4.3,5.7-1.7-1.3,4.9-6.5h21.8l4.9,6.7-1.7,1.3Z" />
        </g>
    </g>
</svg>