<?xml version="1.0" encoding="UTF-8"?>
<svg id="b" xmlns="http://www.w3.org/2000/svg" width="73.6" height="200"
    xmlns:xlink="http://www.w3.org/1999/xlink" viewBox="0 0 73.6 200">
    <defs>
        <linearGradient id="d" x1="17.2" y1="200.1" x2="17.3" y2="199.4"
            gradientTransform="translate(-1235.9 18039.9) scale(73.6 -90.2)"
            gradientUnits="userSpaceOnUse">
            <stop offset="0" stop-color="#5f1508" />
            <stop offset="1" stop-color="#ef8673" />
        </linearGradient>
        <radialGradient id="e" cx="17.1" cy="198.8" fx="17.1" fy="198.8" r="1.3"
            gradientTransform="translate(-5248.8 8042.3) rotate(38.9) scale(76 -48) skewX(-8.4)"
            gradientUnits="userSpaceOnUse">
            <stop offset="0" stop-color="#ffd587" />
            <stop offset=".6" stop-color="#ed7b28" />
            <stop offset="1" stop-color="#a81705" />
        </radialGradient>
        <radialGradient id="f" cx="16.9" cy="199.5" fx="16.9" fy="199.5" r=".5"
            gradientTransform="translate(-892.7 10999) scale(54.9 -54.9)"
            gradientUnits="userSpaceOnUse">
            <stop offset="0" stop-color="#e75545" />
            <stop offset=".8" stop-color="#c4483b" />
            <stop offset="1" stop-color="#983b31" />
        </radialGradient>
    </defs>
    <g id="c">
        <rect width="73.6" height="200" style="fill:rgba(77,77,77,0); stroke-width:0px;" />
        <rect y="10" width="73.6" height="100"
            style="fill:rgba(255,255,255,0); stroke-width:0px;" />
        <ellipse cx="36.6" cy="101.2" rx="24.2" ry="8.5"
            style="fill:#ff8a4c; isolation:isolate; opacity:.3; stroke-width:0px;" />
        <ellipse cx="36.6" cy="101.2" rx="8.5" ry="3.3"
            style="fill:#a74d4b; isolation:isolate; opacity:.7; stroke-width:0px;" />
        <path
            d="m24.2,79.5c-.6-.5-1.1-1-1.6-1.5C4,70.4-4.9,49.2,2.7,30.6,8.4,16.8,21.9,7.8,36.8,8c20.1-.2,36.5,15.8,36.8,35.9.2,15-8.9,28.6-22.9,34.2-.4.4-.8.9-1.3,1.4-5,5.6-9,11.8-12.1,18.6,0,0-5.3-11.2-13.1-18.6Z"
            style="fill:url(#d); stroke-width:0px;" />
        <path
            d="m24.7,82.5c-.5-.5-1-1-1.5-1.5C10,75,1.6,61.9,1.8,47.4,1.8,27.3,17.4,11,36.6,11s34.8,16.3,34.8,36.4-9,28.3-21.7,33.7c-.4.4-.8.9-1.2,1.4-4.7,5.6-8.6,11.9-11.5,18.6,0,0-5-11.2-12.4-18.6Z"
            style="fill:url(#e); stroke-width:0px;" />
        <circle cx="36.3" cy="46" r="27.5" style="fill:url(#f); stroke-width:0px;" />
        <path
            d="m16,22.6c-.4,0-.7-.3-.8-.6-.1-.3,0-.7.2-.9,1.7-1.7,3.8-3,6-3.9.2,0,.5,0,.7,0,.2,0,.4.3.5.5.2.5,0,1-.5,1.2-2,.8-3.8,2-5.4,3.5-.2.2-.5.3-.8.2h0Zm-2.4,2.7c-.2,0-.3,0-.5-.2-.2-.1-.3-.4-.4-.6,0-.2,0-.5.2-.7l.4-.5c.2-.2.4-.3.6-.3.2,0,.5,0,.7.2.2.1.3.4.4.6,0,.2,0,.5-.2.7l-.4.4c-.2.3-.5.4-.8.4"
            style="fill:#fff; stroke-width:0px;" />
        <path
            d="m35.9,72.5c-3.6,0-7-.7-10.3-2.1-3.2-1.3-6-3.2-8.4-5.7s-4.3-5.3-5.7-8.4c-1.4-3.3-2.1-6.7-2.1-10.3s.7-7,2.1-10.3c1.3-3.2,3.2-6,5.7-8.4s5.3-4.3,8.4-5.7c3.3-1.4,6.7-2.1,10.3-2.1s7,.7,10.3,2.1c3.2,1.3,6,3.2,8.4,5.7s4.3,5.3,5.7,8.4c1.4,3.3,2.1,6.7,2.1,10.3s-.7,7-2.1,10.3c-1.3,3.2-3.2,6-5.7,8.4s-5.3,4.3-8.4,5.7c-3.3,1.4-6.7,2.1-10.3,2.1Z"
            style="fill:#272727; stroke-width:0px;" />
        <path
            d="m35.9,21c-3.4,0-6.7.7-9.7,2-3,1.3-5.7,3.1-7.9,5.4-2.3,2.3-4.1,5-5.4,7.9-1.3,3.1-2,6.4-2,9.7s.7,6.7,2,9.7c1.3,3,3.1,5.7,5.4,7.9,2.3,2.3,5,4.1,7.9,5.4,3.1,1.3,6.4,2,9.7,2s6.7-.7,9.7-2c3-1.3,5.7-3.1,7.9-5.4,2.3-2.3,4.1-5,5.4-7.9,1.3-3.1,2-6.4,2-9.7s-.7-6.7-2-9.7c-1.3-3-3.1-5.7-5.4-7.9-2.3-2.3-5-4.1-7.9-5.4-3.1-1.3-6.4-2-9.7-2m0-3c15.5,0,28,12.5,28,28s-12.5,28-28,28S7.9,61.5,7.9,46s12.5-28,28-28Z"
            style="fill:#db4646; stroke-width:0px;" />
        <g style="isolation:isolate;">
            <text transform="translate(21.9 54)"
                style="fill:#fff; font-family:PingFangSC-Regular-GBpc-EUC-H, &apos;PingFang SC&apos;; font-size:28px; isolation:isolate; letter-spacing:0em;">
                <tspan x="0" y="0">限</tspan>
            </text>
        </g>
    </g>
</svg>