<?xml version="1.0" encoding="UTF-8"?>
<svg id="b" xmlns="http://www.w3.org/2000/svg" width="54.8" height="38.7"
    xmlns:xlink="http://www.w3.org/1999/xlink" viewBox="0 0 54.8 38.7">
    <defs>
        <linearGradient id="d" x1="27.4" y1="36" x2="27.4" y2="18.9" gradientUnits="userSpaceOnUse">
            <stop offset="0" stop-color="#f5a823" />
            <stop offset=".3" stop-color="#f5c003" />
            <stop offset=".5" stop-color="#f6d11b" />
            <stop offset=".7" stop-color="#f8e93e" />
            <stop offset=".9" stop-color="#f9f956" />
            <stop offset="1" stop-color="#faff5f" />
        </linearGradient>
        <linearGradient id="e" x1="27.4" y1="34.4" x2="27.4" y2="19.6"
            gradientUnits="userSpaceOnUse">
            <stop offset="0" stop-color="#ff7e00" />
            <stop offset=".3" stop-color="#fe8000" />
            <stop offset=".5" stop-color="#fd8900" />
            <stop offset=".6" stop-color="#fa9901" />
            <stop offset=".8" stop-color="#f7ae02" />
            <stop offset=".9" stop-color="#f5c003" />
            <stop offset=".9" stop-color="#f6d11b" />
            <stop offset="1" stop-color="#f8e93e" />
            <stop offset="1" stop-color="#f9f956" />
            <stop offset="1" stop-color="#faff5f" />
        </linearGradient>
        <linearGradient id="f" x1=".7" y1="18.4" x2="14.3" y2="18.4" gradientUnits="userSpaceOnUse">
            <stop offset="0" stop-color="#ff9f0f" />
            <stop offset=".2" stop-color="#edb80f" />
            <stop offset=".5" stop-color="#f6d11b" />
            <stop offset=".7" stop-color="#f8e93e" />
            <stop offset=".9" stop-color="#f9f956" />
            <stop offset="1" stop-color="#faff5f" />
        </linearGradient>
        <linearGradient id="g" x1="407.6" y1="34.3" x2="421.2" y2="34.3"
            gradientTransform="translate(461.6 -15.9) rotate(-180) scale(1 -1)" xlink:href="#f" />
    </defs>
    <g id="c">
        <rect x="40.9" y="1" width="13.9" height="37.3" rx="1" ry="1"
            style="fill:#684214; stroke-width:0px;" />
        <rect y="35.2" width="54.4" height="3.5" rx="1" ry="1"
            style="fill:#684214; stroke-width:0px;" />
        <rect width="54.4" height="36.9" rx="1" ry="1" style="fill:#e8b30a; stroke-width:0px;" />
        <rect x=".4" y=".9" width="54" height="36" rx="1" ry="1"
            style="fill:#fcd90b; stroke-width:0px;" />
        <path
            d="m42.8,18.9H12.3c-.5,0-.9.2-1.1.6L1,33.8c-.7.9,0,2.2,1.1,2.2h50.4c1.1,0,1.8-1.3,1.2-2.2l-9.8-14.2c-.3-.4-.7-.6-1.2-.6Z"
            style="fill:url(#d); stroke-width:0px;" />
        <rect x="13.2" y="5.4" width="28.2" height="14.4" style="fill:#fffdab; stroke-width:0px;" />
        <path
            d="m40.3,19.6H14.8c-.5,0-.9.2-1.2.6l-8.3,12c-.6.9,0,2.2,1.2,2.2h41.9c1.1,0,1.8-1.3,1.2-2.2l-8.1-12c-.3-.4-.7-.6-1.2-.6Z"
            style="fill:url(#e); stroke-width:0px;" />
        <path d="m14.3,17V5.4L.8,1.9v33c-.1,0,12.9-16.3,12.9-16.3.4-.4.6-1,.6-1.6Z"
            style="fill:url(#f); stroke-width:0px;" />
        <path d="m40.4,17V5.4s13.5-3.4,13.5-3.4v33c.1,0-12.9-16.3-12.9-16.3-.4-.4-.6-1-.6-1.6Z"
            style="fill:url(#g); stroke-width:0px;" />
    </g>
</svg>