<?xml version="1.0" standalone="no"?><!DOCTYPE svg PUBLIC "-//W3C//DTD SVG 1.1//EN"
    "http://www.w3.org/Graphics/SVG/1.1/DTD/svg11.dtd">
<svg t="1695778478511" class="icon" viewBox="0 0 1024 1024" version="1.1"
    xmlns="http://www.w3.org/2000/svg" p-id="11568" xmlns:xlink="http://www.w3.org/1999/xlink"
    width="64" height="64">
    <path
        d="M773.504 615.189333S771.157333 597.333333 746.688 597.333333h-79.338667c17.024 56.981333 31.936 109.546667 31.936 112.618667 0 50.922667-72.554667 72.384-190.229333 72.384-117.653333 0-184.554667-20.053333-184.554667-70.954667 0-3.562667 21.290667-57.429333 38.208-114.048h-86.677333c-17.194667 0-19.989333 15.978667-19.989333 15.978667L174.058667 874.368 188.053333 896h653.909334l8.021333-21.632-76.48-259.178667z"
        fill="#e54031" p-id="11569" data-spm-anchor-id="a313x.search_index.0.i15.29a03a81xPIsNv"
        class="selected"></path>
    <path
        d="M512.021333 128c-21.952 0-39.765333 3.818667-39.765333 8.490667-10.496 31.637333-173.269333 557.717333-173.269333 571.178666 0 50.944 95.381333 81.642667 213.013333 81.642667s213.034667-30.698667 213.034667-81.642667c0-11.712-162.432-539.050667-173.269334-571.178666 0.021333-4.672-17.770667-8.490667-39.744-8.490667z"
        fill="#ffffff" p-id="11570" data-spm-anchor-id="a313x.search_index.0.i13.29a03a81xPIsNv"
        class=""></path>
    <path
        d="M708.181333 649.536C683.349333 687.616 604.608 725.333333 512.981333 725.333333c-92.586667 0-173.994667-36.181333-197.994666-74.88-10.645333 31.637333-19.029333 56.469333-19.029334 69.973334 0 50.901333 96.704 90.218667 216.064 90.218666s216.128-39.338667 216.128-90.218666c0-11.690667-8.938667-38.72-19.968-70.890667zM669.589333 518.698667l-44.245333-144.938667s-39.616 31.552-113.301333 31.552c-73.664 0-113.408-31.552-113.408-31.552l-44.394667 145.194667S398.357333 576 512.042667 576c114.624 0 157.546667-57.301333 157.546666-57.301333zM581.141333 230.592l-29.354666-94.08s-1.770667-8.490667-39.765334-8.490667c-39.338667 0-39.765333 8.490667-39.765333 8.490667l-29.354667 94.016S461.781333 256 512 256c50.24 0 69.141333-25.408 69.141333-25.408z"
        fill="#e54031" p-id="11571" data-spm-anchor-id="a313x.search_index.0.i12.29a03a81xPIsNv"
        class="selected"></path>
</svg>