<?xml version="1.0" standalone="no"?><!DOCTYPE svg PUBLIC "-//W3C//DTD SVG 1.1//EN" "http://www.w3.org/Graphics/SVG/1.1/DTD/svg11.dtd"><svg t="1694764314305" class="icon" viewBox="0 0 1024 1024" version="1.1" xmlns="http://www.w3.org/2000/svg" p-id="5873" width="64" height="64" xmlns:xlink="http://www.w3.org/1999/xlink"><path d="M707.3792 140.663467a16.7936 16.7936 0 0 0-12.526933-1.092267L22.562133 341.265067l303.547734 171.588266 681.710933-221.969066-300.4416-150.2208z m-309.794133 289.4848a17.066667 17.066667 0 0 1-23.3472 6.075733l-107.588267-63.249067a17.066667 17.066667 0 0 1 17.271467-29.457066l107.588266 63.249066a17.066667 17.066667 0 0 1 6.075734 23.381334z m129.1264-42.154667a17.066667 17.066667 0 0 1-23.3472 6.075733l-107.588267-63.249066a17.066667 17.066667 0 1 1 17.271467-29.457067l107.588266 63.249067a17.066667 17.066667 0 0 1 6.075734 23.381333z m129.092266-42.1888a17.066667 17.066667 0 0 1-23.3472 6.075733l-107.554133-63.249066a17.066667 17.066667 0 0 1 17.271467-29.457067l107.554133 63.249067a17.066667 17.066667 0 0 1 6.075733 23.381333z m114.414934-33.723733a16.7936 16.7936 0 0 1-8.635734-2.3552L653.994667 246.4768a17.1008 17.1008 0 0 1 17.271466-29.457067l107.588267 63.249067a17.066667 17.066667 0 0 1-8.635733 31.812267zM0 702.0544a17.066667 17.066667 0 0 0 8.772267 14.916267L307.2 882.756267V541.354667l-307.2-173.636267v334.336z m341.333333-158.242133v341.333333l670.856534-218.043733a17.066667 17.066667 0 0 0 11.810133-16.247467V321.536l-682.666667 222.276267z" p-id="5874" data-spm-anchor-id="a313x.search_index.0.i0.6e443a81vwTD8P" class="selected" fill="#bfbfbf"></path></svg>