<?xml version="1.0" encoding="UTF-8"?>
<svg id="b" xmlns="http://www.w3.org/2000/svg" width="69.7" height="136"
    xmlns:xlink="http://www.w3.org/1999/xlink" viewBox="0 0 69.7 136">
    <defs>
        <radialGradient id="d" cx="16.6" cy="167.7" fx="16.6" fy="167.7" r="1.3"
            gradientTransform="translate(-4555.9 6707) rotate(38.9) scale(76 -48) skewX(-8.4)"
            gradientUnits="userSpaceOnUse">
            <stop offset="0" stop-color="#ff9287" />
            <stop offset=".8" stop-color="#ff5f4c" />
            <stop offset="1" stop-color="#ff5f4c" />
        </radialGradient>
        <radialGradient id="e" cx="16.4" cy="167.9" fx="16.4" fy="167.9" r=".5"
            gradientTransform="translate(-867.4 9288.4) scale(54.9 -54.9)"
            gradientUnits="userSpaceOnUse">
            <stop offset="0" stop-color="#e75545" />
            <stop offset=".8" stop-color="#c4483b" />
            <stop offset="1" stop-color="#983b31" />
        </radialGradient>
    </defs>
    <g id="c">
        <rect x="0" width="69.7" height="136" style="fill:rgba(255,255,255,0); stroke-width:0px;" />
        <ellipse cx="34.8" cy="123.5" rx="24.2" ry="8.5"
            style="fill:#ff5f4c; isolation:isolate; opacity:.3; stroke-width:0px;" />
        <ellipse cx="34.8" cy="123.5" rx="8.5" ry="3.3"
            style="fill:#a74d4b; isolation:isolate; opacity:.7; stroke-width:0px;" />
        <path
            d="m23,104.9c-.5-.5-1-1-1.5-1.5C8.2,97.4-.2,84.2,0,69.7,0,49.6,15.6,33.3,34.8,33.3s34.8,16.3,34.8,36.4-9,28.3-21.7,33.7c-.4.4-.8.9-1.2,1.4-4.7,5.6-8.6,11.9-11.5,18.6,0,0-5-11.2-12.4-18.6Z"
            style="fill:url(#d); stroke-width:0px;" />
        <circle cx="34.5" cy="68.4" r="27.5" style="fill:url(#e); stroke-width:0px;" />
        <circle cx="34.8" cy="68" r="28" style="fill:#fff; stroke-width:0px;" />
        <circle cx="34.8" cy="68" r="24" style="fill:#2a23f5; stroke-width:0px;" />
        <circle cx="34.8" cy="68" r="25.5"
            style="fill:none; stroke:#db4646; stroke-dasharray:0 0 9 10; stroke-linecap:square; stroke-width:3px;" />
    </g>
</svg>