<svg xmlns="http://www.w3.org/2000/svg" xmlns:xlink="http://www.w3.org/1999/xlink" width="140"
    height="140" viewBox="0 0 140 140">
    <defs>
        <style>
            .a{fill:none;}.b{fill:#898989;opacity:0;}.c{opacity:0.14;mix-blend-mode:multiply;isolation:isolate;}.d{clip-path:url(#a);}.e{fill:#b2250a;}.f{fill:#ea7626;}.g{fill:#fae8c8;}
        </style>
        <clipPath id="a">
            <rect class="a" width="54.796" height="40.392" />
        </clipPath>
    </defs>
    <g transform="translate(-1333 -1090)">
        <g transform="translate(251 665)">
            <rect class="b" width="140" height="140" transform="translate(1082 425)" />
            <g transform="translate(229.467 -611)">
                <g transform="translate(937.713 1086)">
                    <g transform="translate(0 0)">
                        <g class="c" transform="translate(0)">
                            <g transform="translate(0)">
                                <g class="d">
                                    <path
                                        d="M38.035,31.807l-16.7-13a3.818,3.818,0,0,0-6.163,3.014v3.908h-26.39A4.066,4.066,0,0,0-15.287,29.8V39.844a4.066,4.066,0,0,0,4.066,4.066h26.39v3.908a3.818,3.818,0,0,0,6.163,3.014l16.7-13a3.819,3.819,0,0,0,0-6.027"
                                        transform="translate(15.287 -18)" />
                                </g>
                            </g>
                        </g>
                        <path class="e"
                            d="M39.533,29.22H37.54L21.332,41.831a3.819,3.819,0,0,1-6.163-3.014V34.909h-26.39a4.066,4.066,0,0,1-4.066-4.066V20.8a4.066,4.066,0,0,1,4.066-4.066h26.39V12.825a3.818,3.818,0,0,1,6.163-3.014l16.7,13a3.791,3.791,0,0,1,1.448,2.581l.049.005Z"
                            transform="translate(15.287 -5.889)" />
                        <path class="f"
                            d="M38.028,13.807l-16.7-13a3.818,3.818,0,0,0-6.163,3.014V7.733H-11.253A4.066,4.066,0,0,0-15.318,11.8V21.844a4.066,4.066,0,0,0,4.066,4.066H15.162v3.908a3.818,3.818,0,0,0,6.163,3.014l16.7-13a3.819,3.819,0,0,0,0-6.027"
                            transform="translate(15.318 6.457)" />
                    </g>
                    <path class="g"
                        d="M75.8,20.234a2.381,2.381,0,0,1-1.511-.539L71.346,17.29a2.392,2.392,0,1,1,3.025-3.706l2.948,2.406A2.392,2.392,0,0,1,75.8,20.234"
                        transform="translate(-35.64 -1.875)" />
                </g>
            </g>
        </g>
    </g>
</svg>