<?xml version="1.0" encoding="UTF-8"?><svg id="b" xmlns="http://www.w3.org/2000/svg" width="39.7" height="39.7" viewBox="0 0 39.7 39.7"><defs><style>.d{fill:#fff;}.e{fill:#919191;}.f{fill:#7c7d7d;}.g{fill:#a01f38;}.h{fill:#c9233b;}.i{fill:#dad7e5;}.j{fill:#425b72;}.k{fill:#1a232b;}</style></defs><g id="c"><g><path class="g" d="M39.7,19.8c0,11-8.9,19.8-19.8,19.8C1.6,39.7-7.2,16.6,7.1,4.6c12.7-10.7,32.6-1.7,32.6,15.2Z"/><path class="h" d="M39.7,19.8c0,4.7-1.6,9.2-4.6,12.8-8.8,6.6-18.6,5.6-25.3,.1C1.3,25.8,0,13.3,7,4.8c0,0,0-.1,.1-.2,12.7-10.7,32.6-1.7,32.6,15.2Z"/><path class="i" d="M34.7,19.8c0,8.2-6.7,14.9-14.9,14.8-8.2,0-14.9-6.7-14.8-14.9,0-7.7,5.9-14.1,13.6-14.8,8.2-.7,15.4,5.4,16.1,13.6,0,.4,0,.9,0,1.3Z"/><path class="d" d="M34.7,19.8c0,4.5-2.3,8.7-3.6,9.5-6.7,4.8-16,3.3-20.8-3.4-3.7-5.2-3.7-12.2,0-17.4,.8-1.3,5-3.6,9.5-3.6,8.2,0,14.9,6.7,14.9,14.9Z"/><path class="e" d="M21.1,5v2.5c0,.7-.6,1.2-1.2,1.2s-1.2-.6-1.2-1.2v-2.5c.8,0,1.7,0,2.5,0Z"/><path class="f" d="M10.2,12l-1.7-1.7c.5-.6,1.1-1.2,1.8-1.7l1.7,1.7c.5,.5,.5,1.3,0,1.8s-1.3,.5-1.8,0Z"/><path class="f" d="M7.5,21.1h-2.5c0-.8,0-1.7,0-2.5h2.5c.7,0,1.2,.6,1.2,1.2s-.6,1.2-1.2,1.2Z"/><path class="f" d="M12,29.5l-1.7,1.7c-.6-.5-1.2-1.1-1.7-1.7l1.7-1.7c.5-.5,1.3-.5,1.8,0,.5,.5,.5,1.3,0,1.8h0Z"/><path class="f" d="M21.1,32.2v2.5c-.8,0-1.7,0-2.5,0v-2.5c0-.7,.6-1.2,1.2-1.2s1.2,.6,1.2,1.2Z"/><path class="f" d="M31.2,29.4c-.5,.6-1.1,1.2-1.7,1.8l-1.7-1.7c-.5-.5-.5-1.3,0-1.8,.5-.5,1.3-.5,1.8,0h0l1.7,1.7Z"/><path class="e" d="M34.7,21.1h-2.5c-.7,0-1.2-.6-1.2-1.2s.6-1.2,1.2-1.2h2.5c0,.8,0,1.7,0,2.5Z"/><path class="e" d="M31.2,10.2c-1.9,1.9-1.9,2.1-2.6,2.1-.7,0-1.2-.5-1.2-1.2,0-.3,.1-.7,.4-.9l1.7-1.7c.6,.5,1.2,1.1,1.7,1.7Z"/><path class="e" d="M18.6,18.6v-6.2c0-.7,.6-1.2,1.2-1.2s1.2,.6,1.2,1.2v6.2c0,.7-.6,1.2-1.2,1.2s-1.2-.6-1.2-1.2Z"/><path class="e" d="M24.8,21.1h-3.7c-.7,0-1.2-.6-1.2-1.2s.6-1.2,1.2-1.2h3.7c.7,0,1.2,.6,1.2,1.2s-.6,1.2-1.2,1.2Z"/><path class="e" d="M10.2,12l-1.2-1.2c.4-.8,.8-1.5,1.3-2.2l1.6,1.6c.5,.5,.5,1.3,0,1.8-.5,.5-1.3,.5-1.8,0Z"/><path class="e" d="M7.9,21c-.2-.8-.3-1.6-.4-2.4,.7,0,1.2,.6,1.2,1.3,0,.5-.3,.9-.8,1.1Z"/><path class="e" d="M12.3,28.3c-.3-.3-.6-.6-.9-.9,.5,.1,.8,.5,.9,.9Z"/><path class="e" d="M21.1,32.2c-.8,0-1.6-.2-2.4-.4,.3-.6,1-.9,1.6-.7,.4,.2,.7,.6,.8,1.1Z"/><path class="e" d="M31.1,29.3c-.7,.5-1.4,1-2.2,1.3l-1.2-1.2c-.5-.5-.5-1.3,0-1.8,.5-.5,1.3-.5,1.8,0l1.6,1.7Z"/><path class="k" d="M22.3,19.8c0,1.4-1.1,2.5-2.5,2.5-1.4,0-2.5-1.1-2.5-2.5,0-1,.6-1.9,1.5-2.3,1.2-.6,2.7,0,3.3,1.2,.1,.3,.2,.7,.2,1Z"/><path class="j" d="M22.1,20.9c-1.3,.6-2.7,0-3.3-1.3-.3-.6-.3-1.4,0-2,1.3-.6,2.7,0,3.3,1.3,.3,.6,.3,1.4,0,2Z"/></g></g></svg>