<?xml version="1.0" encoding="UTF-8"?>
<svg id="b" xmlns="http://www.w3.org/2000/svg" width="124.7" height="125.4"
    xmlns:xlink="http://www.w3.org/1999/xlink" viewBox="0 0 124.7 125.4">
    <defs>
        <style>
            .h{fill:url(#f);}.i{fill:#fff;}.j,.k{fill:#535a60;}.l{fill:#262d34;isolation:isolate;opacity:.2;}.m{fill:#d82e00;stroke:#8a1c21;}.m,.n{stroke-miterlimit:10;}.k{opacity:0;}.n{fill:url(#g);stroke:#8b9fae;stroke-width:1.4px;}
        </style>
        <linearGradient id="f" x1="60.1" y1="51.1" x2="64.9" y2="51.1"
            gradientUnits="userSpaceOnUse">
            <stop offset="0" stop-color="#989898" />
            <stop offset="0" stop-color="#a3a3a3" />
            <stop offset=".1" stop-color="#c4c5c5" />
            <stop offset=".2" stop-color="#d8d9d9" />
            <stop offset=".3" stop-color="#e0e1e1" />
            <stop offset=".4" stop-color="#dbdcdc" />
            <stop offset=".5" stop-color="#cccece" />
            <stop offset=".6" stop-color="#b5b6b7" />
            <stop offset=".7" stop-color="#949697" />
            <stop offset=".8" stop-color="#6a6c6f" />
            <stop offset=".8" stop-color="#3f4246" />
            <stop offset="1" stop-color="#404247" />
            <stop offset="1" stop-color="#43434a" />
        </linearGradient>
        <linearGradient id="g" x1="20.8" y1="24" x2="103.9" y2="24" gradientUnits="userSpaceOnUse">
            <stop offset="0" stop-color="#afbacb" />
            <stop offset=".1" stop-color="#c1ccda" />
            <stop offset=".4" stop-color="#d9e6f0" />
            <stop offset=".5" stop-color="#e3f0f8" />
            <stop offset=".6" stop-color="#dde9f2" />
            <stop offset=".8" stop-color="#ccd8e4" />
            <stop offset="1" stop-color="#b1bbcc" />
            <stop offset="1" stop-color="#aeb8c9" />
        </linearGradient>
    </defs>
    <g id="c">
        <g>
            <rect class="k" y=".7" width="124.7" height="124.7" />
            <ellipse id="d" class="l" cx="62.4" cy="62.5" rx="14.4" ry="3.7" />
            <ellipse id="e" class="j" cx="62.4" cy="62.5" rx="7.5" ry="3" />
            <path class="h"
                d="M62.4,39h0c1.4,0,2.6,1.2,2.6,2.6v19.2c0,1.4-1.1,2.5-2.5,2.5h-.3c-1.4,0-2.5-1.1-2.5-2.5v-19.3c0-1.4,1.2-2.6,2.6-2.6Z" />
            <rect class="n" x="20.8" y=".7" width="83.1" height="46.6" rx="14.4" ry="14.4" />
            <rect class="m" x="21.7" y="2.8" width="81.3" height="44" rx="14.1" ry="14.1" />
            <g>
                <path class="i"
                    d="M43.2,34.5h-.1c0,0,0,1.7,0,1.7h-5.7v.7c-.1,0,5.1,0,5.1,0,0,.7-.3,2.5-.4,3.4-.2,1.7-.8,2.1-2.7,2.2h-1.1c0,0-.6-1.8-.6-1.8h1.4c.6-.2,.8-.2,.9-.7,0-.2,.2-.8,.2-1.1h-5.3l.5-2.6h-.9v-2h8.2c-.6-.5-1.2-1-1.8-1.5v.9h-4.6v-.6c-.4,.4-.9,.8-1.4,1.3l-.9-1.5v.5h-1.2v1.7h1.2v2.1h-1.2v2l1.5-.3v1c0,0,.1,1.1,.1,1.1-1.1,.1-5.4,.8-6.5,1l-.2-2.1c.2,0,.4,0,.7-.1v-5.7h1.9v5.5h.7v-6.2h-2.4v-6.1h5.4v5.2c1-.7,1.7-1.4,2.3-2.3h-1.8v-2.1h2.7c.1-.5,.3-1,.4-1.5l1.9,.3c0,.5-.2,.9-.3,1.3h4v2.1h-2.1c.7,1.2,1.8,2.1,3,2.8l-1,1.7Zm-12.6-3.5h1.6v-1.9h-1.6v1.9Zm9.5,.5c-.4-.5-.7-1-.9-1.6h-.7c-.3,.6-.6,1.1-.9,1.6h2.5Z" />
                <path class="i"
                    d="M45.8,39.5c1-.1,4.2-.9,5.8-1.5l.2,2c-.9,.4-4.6,1.4-5.5,1.5l-.5-2Zm15.9-1c-.1,.6-.2,1-.5,1.7-.5,1.7-1.2,2.3-2.5,2.3s-1.7-.5-2.7-2.1l-.2-.4c-.9,.5-1.8,1-2.8,1.4l-1-2c1.2-.4,2.2-.9,3-1.4-.3-.8-.5-1.8-.7-3l-2.1,.3-.2-2.1,1.9-.3v-1.2c-.1,0-1.3,.1-1.3,.1v-1.7c-1.2,2-2.5,4.2-3.2,5,.7,0,1.7-.4,2.4-.5v2c-1,.2-2.7,.6-3.9,.9-.4,0-.7,.2-.9,.3l-.6-2.2c.6-.2,.8-.3,1.1-.7,.3-.4,.8-1.1,1.3-2-.6,0-1.2,0-1.6,.1h-.7c0,.1-.5-1.9-.5-1.9,.4-.2,.5-.3,.7-.4,.4-.3,1.7-2.5,2.4-4.5l1.9,.9c-.7,1.3-1.9,3.4-2.4,3.9,.4,0,.8,0,1.3,0l1-2.1,1.7,.9v.3c-.1,0,.9-.1,.9-.1,0-1.1-.1-3-.2-3.6h2.1c0,.5,0,1.7,.2,3.3l1.9-.2c-.4-.7-1-1.5-1.5-2.1l1.4-1.1c.6,.6,1.2,1.4,1.7,2.2l-1.1,.9,2.3-.3,.2,2-4.7,.6c0,.4,0,.8,.1,1.2l4.8-.6,.2,2.1-1.9,.3,1.3,1.4c-.8,1-1.7,2-2.8,2.9,.1,.2,.2,.4,.3,.5,.3,.6,.7,.8,.9,.8,.4,0,.5-.2,.8-1.1,.2-.6,.3-.9,.3-1.4l1.8,.9Zm-5.4-3.6c.2,.8,.3,1.4,.5,2,.8-.7,1.5-1.5,2.2-2.4l-2.7,.4Z" />
                <path class="i"
                    d="M72.6,34.5c1.1,2.8,3.4,4.7,6.8,6.1l-1.2,2.4c-3.4-1.8-5.6-3.6-6.9-6.1-1.1,2.1-3.2,4.1-6.7,6l-1.6-2.1c3.6-1.7,6-3.7,6.7-6.3h-5.9v-2.2h6.2v-2.9h-5.2v-2.2h12.8v2.2h-5.3v2.9h6.2v2.2h-6Z" />
                <path class="i"
                    d="M86.1,35.4c-.3-.3-.6-.7-.8-1v8.1h-2v-7c-.5,1.1-1,2.1-1.6,2.9l-1.2-1.9c.9-1.3,2-3.4,2.7-5.3h-1.7v-2.1h1.8v-2.8h2v2.8h1.6v2.1h-1.6v1.2l.4-.4c.6,.5,1.3,1.3,1.9,1.9l-1.4,1.4Zm10.4,2.4c-.7-.4-1.4-.8-2-1.2v5.6h-2.1v-6.7h.9c-.7-.7-1.3-1.5-1.8-2.4-.4,.9-1,1.7-1.8,2.5h.8v1.4c0,2.7-.6,4.1-2.9,5.9l-1.5-1.5c2-1.7,2.3-2.2,2.3-4.4v-.2c-.5,.4-1,.7-1.6,1.1l-1.3-1.7c1.8-1.1,2.9-2,3.6-3.2h-2v-2.1h2.9c.1-.5,.3-1,.3-1.7-1,0-2,.1-2.8,.2l-.2-2.1c2.6-.1,6.2-.5,8.4-.9l.2,2.1c-.9,.1-2.1,.3-3.3,.4,0,.6-.2,1.3-.3,1.9h4.4v2.1h-2.9c.9,1.2,2.1,1.9,3.8,2.8l-1,2.1Z" />
            </g>
        </g>
    </g>
</svg>