<?xml version="1.0" standalone="no"?><!DOCTYPE svg PUBLIC "-//W3C//DTD SVG 1.1//EN" "http://www.w3.org/Graphics/SVG/1.1/DTD/svg11.dtd"><svg t="1692696109420" class="icon" viewBox="0 0 1024 1024" version="1.1" xmlns="http://www.w3.org/2000/svg" p-id="11756" width="32" height="32" xmlns:xlink="http://www.w3.org/1999/xlink"><path d="M537.6 409.6a51.2 51.2 0 1 1-2.7904 102.3232c2.9952 3.3024 5.8368 7.04 8.5504 11.2128 2.0992 7.9104 4.224 16.384 6.3232 24.9856l4.7616 19.456c6.8608 27.904 13.7216 53.9136 20.5824 63.232 9.7024 13.184 16.4096 32.384 14.7456 46.5408l-0.6656 3.7376 52.8128 25.1392 3.5072-3.584c6.1696-3.1488 9.6256-6.2976 15.104-4.608l2.5088 1.024 14.08 7.168c7.04 0 7.04-3.584 7.04-10.7776-20.4288-31.2576 1.9712-69.248 35.328-68.4288l3.4048 0.2304 35.2-57.4464c9.984-13.568 16.7936-20.736 23.4496-6.3488l1.1776 2.7648L972.8 918.016 128 921.6l31.6672-57.4464 154.88-3.584c-6.8096-45.312 46.0288-188.672 84.5568-246.272l3.456-5.0176-28.16-53.8368c-7.04-14.336 0-28.7232 28.16-43.0848 21.12-10.752 42.24-21.5296 63.36-25.1136a88.9088 88.9088 0 0 1 28.2368 0.5888A51.2 51.2 0 0 1 537.6 409.6z m-40.0128 242.7648l17.6128 28.7232c10.5728 14.336 17.6128 32.3072 14.08 50.2528 0 51.5072-3.2256 103.0144-15.8208 123.1104l-1.792 2.5344h28.16v10.752h10.5728c-3.5072-14.336 3.5072-25.088 14.08-32.2816 14.08-3.584 17.6128-17.9712 17.6128-39.5008 31.6672-25.1136 56.32-35.8912 70.4-14.336 6.4-6.5536 12.8-7.1424 24.4736-4.5056l3.6608 0.896v-14.336l-28.16-17.9712c-6.2464 0-9.728-2.816-10.4192-8.4992l-0.128-2.2784v-10.752l-144.3072-71.808zM224.6912 97.28l2.9952 0.1792c16.0256 2.4064 28.16 22.3232 24.2944 42.24L120.32 829.5168c-3.84 19.9168-20.3776 33.9968-36.4032 32.0512-16.0512-1.9456-28.16-22.3232-24.32-42.24L191.2576 129.5104c3.8656-19.9168 20.4032-33.9968 36.4288-32.0512z m198.9888 576.6144c-19.3536 59.2384-44.6464 118.4768-73.1136 169.4208l-7.8592 13.6704 130.2528-3.584c-9.9072-30.2848-7.424-76.3648-4.1728-123.392l0.64-9.4464-45.7472-46.6688z m116.1472-68.1984c-3.2256 13.2608-15.488 29.568-14.592 37.632l0.512 1.8688 42.24 21.5296c-14.08-17.9456-21.12-39.4752-28.16-61.0304z m-91.52-71.7824c-24.6272 0-38.7072 10.752-17.5872 32.3072 0-10.752 7.04-25.1392 17.6128-32.3072zM658.0736 99.328c16.0256-1.3312 32.5632 8.448 36.4288 22.3744l91.0592 331.8784c3.8656 14.2336-8.2688 28.16-24.32 29.4912-16 1.3568-32.512-8.448-36.4032-22.3744L633.7792 128.8448c-3.8656-13.9008 6.3232-26.7776 24.2944-29.4912zM452.096 129.9968c16.0256 0 28.16 7.7824 28.16 19.9168v156.9024c0 9.728-12.1344 19.9168-28.16 19.9168-16.0256 0-28.16-7.7824-28.16-19.9168V149.9392c0-9.728 12.1344-19.9168 28.16-19.9168z" fill="#FF0000" p-id="11757" data-spm-anchor-id="a313x.search_index.0.i16.1f1e3a81TbBd6K" class=""></path></svg>