<?xml version="1.0" standalone="no"?><!DOCTYPE svg PUBLIC "-//W3C//DTD SVG 1.1//EN" "http://www.w3.org/Graphics/SVG/1.1/DTD/svg11.dtd"><svg t="1692250898311" class="icon" viewBox="0 0 1029 1024" version="1.1" xmlns="http://www.w3.org/2000/svg" p-id="17364" width="32.15625" height="32" xmlns:xlink="http://www.w3.org/1999/xlink"><path d="M513.998507 838.81472L471.04 771.07712l188.1856-119.35232 42.96192 67.7376z" fill="#ffffff" p-id="17365"></path><path d="M333.571413 717.085013l45.7728-65.870506 180.391254 125.346133-45.7728 65.872213zM525.453653 617.2672l-46.578346-77.31712 327.191893-183.719253 46.578347 77.318826z" fill="#ffffff" p-id="17366"></path><path d="M192.570027 466.875733l39.514453-80.974506 334.77632 151.74656-39.514453 80.974506zM519.231147 358.3488l-58.55232-71.877973L944.546133 74.671787l58.55232 71.877973z" fill="#ffffff" p-id="17367"></path><path d="M50.399573 177.826133l53.072214-73.96352 464.4352 180.007254-53.070507 73.96352z" fill="#ffffff" p-id="17368"></path><path d="M545.8688 973.75232l-71.4752 36.406613L5.927253 90.436267l71.4752-36.404907z" fill="#ffffff" p-id="17369"></path><path d="M552.285867 1009.890987l-71.115094-37.108054L958.660267 57.71264l71.113386 37.108053z" fill="#ffffff" p-id="17370"></path><path d="M471.04 957.44h83.626667v51.2h-83.626667z" fill="#ffffff" p-id="17371"></path></svg>