<?xml version="1.0" standalone="no"?><!DOCTYPE svg PUBLIC "-//W3C//DTD SVG 1.1//EN"
    "http://www.w3.org/Graphics/SVG/1.1/DTD/svg11.dtd">
<svg t="1692082615557" class="icon" viewBox="0 0 1024 1024" version="1.1"
    xmlns="http://www.w3.org/2000/svg" p-id="5694" width="80" height="80"
    xmlns:xlink="http://www.w3.org/1999/xlink">
    <path
        d="M512 512m-469.333333 0a469.333333 469.333333 0 1 0 938.666666 0 469.333333 469.333333 0 1 0-938.666666 0Z"
        fill="#1b23b4" p-id="5695" data-spm-anchor-id="a313x.search_index.0.i5.4d923a81SJBtt2"
        class="selected"></path>
    <path
        d="M307.029333 499.84a215.722667 215.722667 0 0 0 85.76 191.317333l6.229334 3.84-12.202667-72.533333 82.688 50.432 42.026667 133.077333-138.666667 22.869334L290.133333 778.453333l70.741334-21.973333-2.645334-2.517333a286.421333 286.421333 0 0 1-123.221333-250.24l71.978667-3.882667z m426.453334-180.48l116.352 78.250667 24.832 93.056-66.474667-32.512 0.128 3.669333c30.250667 147.925333-60.8 295.424-209.792 334.506667-6.485333 1.706667-12.928 3.157333-19.413333 4.394666l-21.717334-68.266666a221.44 221.44 0 0 0 22.784-4.693334c109.653333-28.757333 177.578667-135.381333 159.488-244.096l-1.877333-7.04-41.557333 60.842667-24.832-93.013333 62.08-125.098667z m-52.352-48.554667l-31.914667 64.213334a219.733333 219.733333 0 0 0-262.784 9.898666l-5.205333 5.12 73.941333 5.333334-68.949333 67.754666-140.288 9.088 10.325333-139.093333 68.906667-67.712 4.821333 73.344 3.072-1.962667c98.261333-85.845333 240.981333-94.421333 348.074667-26.026666z"
        fill="#FFFFFF" p-id="5696"></path>
</svg>