<svg xmlns="http://www.w3.org/2000/svg" xmlns:xlink="http://www.w3.org/1999/xlink" width="136" height="136" viewBox="0 0 136 136"><defs><style>.a,.h,.j{fill:none;}.a{opacity:0;}.b{fill:#4d4d4d;opacity:0.304;}.c{fill:#363333;opacity:0.708;}.d{fill:url(#a);}.e{fill:url(#b);}.f,.g{fill:#fff;}.f{stroke:#db4646;stroke-width:3px;}.h{stroke:#2f2f2f;stroke-linecap:round;stroke-width:2px;}.i,.k{stroke:none;}.k{fill:#2f2f2f;}</style><radialGradient id="a" cx="0.21" cy="0.134" r="1.274" gradientTransform="matrix(0.849, 0.529, -0.307, 0.493, 0.073, -0.043)" gradientUnits="objectBoundingBox"><stop offset="0" stop-color="#b5b4b4"/><stop offset="0.697" stop-color="#6e6c6c"/><stop offset="1" stop-color="#2f2f2f"/></radialGradient><radialGradient id="b" cx="0.5" cy="0.5" r="0.5" gradientUnits="objectBoundingBox"><stop offset="0" stop-color="#e75545"/><stop offset="0.793" stop-color="#c4483b"/><stop offset="1" stop-color="#983b31"/></radialGradient></defs><g transform="translate(-832 -256)"><rect class="a" width="136" height="136" transform="translate(832 256)"/><g transform="translate(865.164 289.346)"><g transform="translate(10.653 81.66)"><ellipse class="b" cx="24.183" cy="8.497" rx="24.183" ry="8.497"/><ellipse class="c" cx="8.497" cy="3.268" rx="8.497" ry="3.268" transform="translate(15.687 5.229)"/></g><g transform="translate(0 0)"><path class="d" d="M22.956,71.538q-.792-.8-1.543-1.533A36.466,36.466,0,0,1,0,36.4C0,16.3,15.6,0,34.837,0S69.673,16.3,69.673,36.4c0,15.235-8.954,28.283-21.664,33.711q-.588.673-1.219,1.424A73.582,73.582,0,0,0,35.337,90.157S30.335,78.981,22.956,71.538Z" transform="translate(0 0)"/><circle class="e" cx="27.451" cy="27.451" r="27.451" transform="translate(7.029 7.568)"/></g></g><g transform="translate(10050 7500)"><g class="f" transform="translate(-9178 -7204)"><circle class="i" cx="28" cy="28" r="28"/><circle class="j" cx="28" cy="28" r="26.5"/></g></g><g transform="translate(199 -504)"><g transform="translate(9849 8002)"><g class="f" transform="translate(-9178 -7204)"><circle class="i" cx="30" cy="30" r="30"/><circle class="j" cx="30" cy="30" r="28.5"/></g><g class="g" transform="translate(-9174 -7200)"><path class="i" d="M 26 50 C 22.75914001464844 50 19.61627960205078 49.36571884155273 16.65872955322266 48.11478042602539 C 13.80107021331787 46.90608978271484 11.23419952392578 45.17533111572266 9.029439926147461 42.97055816650391 C 6.82466983795166 40.76580047607422 5.093910217285156 38.19892883300781 3.885220050811768 35.34127044677734 C 2.63427996635437 32.38372039794922 2 29.24085998535156 2 26 C 2 22.75914001464844 2.63427996635437 19.61627960205078 3.885220050811768 16.65872955322266 C 5.093910217285156 13.80107021331787 6.82466983795166 11.23419952392578 9.029439926147461 9.029439926147461 C 11.23419952392578 6.82466983795166 13.80107021331787 5.093910217285156 16.65872955322266 3.885220050811768 C 19.61627960205078 2.63427996635437 22.75914001464844 2 26 2 C 29.24085998535156 2 32.38372039794922 2.63427996635437 35.34127044677734 3.885220050811768 C 38.19892883300781 5.093910217285156 40.76580047607422 6.82466983795166 42.97055816650391 9.029439926147461 C 45.17533111572266 11.23419952392578 46.90608978271484 13.80107021331787 48.11478042602539 16.65872955322266 C 49.36571884155273 19.61627960205078 50 22.75914001464844 50 26 C 50 29.24085998535156 49.36571884155273 32.38372039794922 48.11478042602539 35.34127044677734 C 46.90608978271484 38.19892883300781 45.17533111572266 40.76580047607422 42.97055816650391 42.97055816650391 C 40.76580047607422 45.17533111572266 38.19892883300781 46.90608978271484 35.34127044677734 48.11478042602539 C 32.38372039794922 49.36571884155273 29.24085998535156 50 26 50 Z"/><path class="k" d="M 26 4 C 23.02825546264648 4 20.14753341674805 4.581123352050781 17.43783187866211 5.727222442626953 C 14.81856536865234 6.835090637207031 12.46538925170898 8.421920776367188 10.44365692138672 10.44365692138672 C 8.421920776367188 12.46538925170898 6.835090637207031 14.81856536865234 5.727222442626953 17.43783187866211 C 4.581123352050781 20.14753341674805 4 23.02825546264648 4 26 C 4 28.97174453735352 4.581123352050781 31.85246658325195 5.727222442626953 34.56216430664062 C 6.835090637207031 37.18143463134766 8.421920776367188 39.53461074829102 10.44365692138672 41.55634307861328 C 12.46538925170898 43.57807922363281 14.81856536865234 45.16490936279297 17.43783187866211 46.27277755737305 C 20.14753341674805 47.41887664794922 23.02825546264648 48 26 48 C 28.97174453735352 48 31.85246658325195 47.41887664794922 34.56216430664062 46.27277755737305 C 37.18143463134766 45.16490936279297 39.53461074829102 43.57807922363281 41.55634307861328 41.55634307861328 C 43.57807922363281 39.53461074829102 45.16490936279297 37.18143463134766 46.27277755737305 34.56216430664062 C 47.41887664794922 31.85246658325195 48 28.97174453735352 48 26 C 48 23.02825546264648 47.41887664794922 20.14753341674805 46.27277755737305 17.43783187866211 C 45.16490936279297 14.81856536865234 43.57807922363281 12.46538925170898 41.55634307861328 10.44365692138672 C 39.53461074829102 8.421920776367188 37.18143463134766 6.835090637207031 34.56216430664062 5.727222442626953 C 31.85246658325195 4.581123352050781 28.97174453735352 4 26 4 M 26 0 C 40.35939788818359 0 52 11.64059829711914 52 26 C 52 40.35939788818359 40.35939788818359 52 26 52 C 11.64059829711914 52 0 40.35939788818359 0 26 C 0 11.64059829711914 11.64059829711914 0 26 0 Z"/></g></g><g transform="translate(677.491 804.832)"><line class="h" y1="32" x2="32" transform="translate(1.009 0.668)"/><line class="h" y1="34" x2="36" transform="translate(5.009 5.668)"/><path class="h" d="M.857,33.306,34.121,1.4" transform="translate(11.84 11.226)"/></g></g></g></svg>