<?xml version="1.0" encoding="UTF-8"?>
<svg id="b" xmlns="http://www.w3.org/2000/svg" width="70" height="136"
    xmlns:xlink="http://www.w3.org/1999/xlink" viewBox="0 0 70 136">
    <defs>
        <linearGradient id="d" x1="-2467.2" y1="99.9" x2="-2467.2" y2="98.6"
            gradientTransform="translate(-1019.3 24840.3) rotate(90) scale(10 -10.8)"
            gradientUnits="userSpaceOnUse">
            <stop offset="0" stop-color="#ca4916" />
            <stop offset="1" stop-color="#f7ad5d" />
        </linearGradient>
    </defs>
    <g id="c">
        <rect width="70" height="136" style="opacity:0; stroke-width:0px;" />
        <path
            d="m34.1,66.1h22.4v-4.1c0-.7.4-1.3,1-1.6.6-.3,1.3-.2,1.7.2l7.4,5.8c.8.6.9,1.7.2,2.5,0,0-.1.1-.2.2l-7.4,5.8c-.5.4-1.2.5-1.7.2-.6-.3-1-.9-1-1.6v-4.2h-22.3c0-.6,0-.7,0-1.4s0-1.1,0-1.9h0Z"
            style="fill:url(#d); stroke-width:0px;" />
    </g>
</svg>