<svg xmlns="http://www.w3.org/2000/svg" width="56" height="74.999" viewBox="0 0 56 74.999"><defs><style>.a{fill:#fff;opacity:0;}.b{fill:#fad950;}.c,.d{fill:#0b1923;}.c{stroke:#0b1923;stroke-width:0.5px;}.e,.f{stroke:none;}.f{fill:#0b1923;}</style></defs><g transform="translate(1401 -1261.001) rotate(90)"><rect class="a" width="56" height="56" transform="translate(1280 1345)"/><g transform="translate(0 -2)"><g class="b" transform="translate(1280 1349)"><path class="e" d="M 52.55363845825195 47.5 L 3.446360111236572 47.5 C 3.195830106735229 47.5 3.067879915237427 47.34397125244141 3.0139000415802 47.25096893310547 C 2.959929943084717 47.157958984375 2.887939929962158 46.96945190429688 3.012239933013916 46.75191879272461 L 27.56587028503418 3.783060550689697 C 27.69112968444824 3.563860416412354 27.89163017272949 3.53113055229187 28 3.53113055229187 C 28.10836029052734 3.53113055229187 28.30886077880859 3.563860416412354 28.43411064147949 3.783050537109375 L 52.98777008056641 46.75193023681641 C 53.112060546875 46.96945190429688 53.04006958007812 47.157958984375 52.98609924316406 47.25096893310547 C 52.93212127685547 47.34397125244141 52.80416870117188 47.5 52.55363845825195 47.5 Z"/><path class="f" d="M 27.99999618530273 6.046699523925781 L 5.169540405273438 46 L 50.83046340942383 46 L 27.99999618530273 6.046699523925781 M 27.99999809265137 2.0311279296875 C 28.67629432678223 2.0311279296875 29.35259056091309 2.367034912109375 29.73648071289062 3.038848876953125 L 54.29013061523438 46.00772094726562 C 55.05202102661133 47.34104156494141 54.08929061889648 49 52.55363845825195 49 L 3.446361541748047 49 C 1.910709381103516 49 0.9479789733886719 47.34104156494141 1.709869384765625 46.00772094726562 L 26.26350975036621 3.038848876953125 C 26.64740562438965 2.367034912109375 27.32370185852051 2.0311279296875 27.99999809265137 2.0311279296875 Z"/></g><path class="c" d="M44.849,49.162a.812.812,0,0,0,.794-.794V46.779H48.2a4.526,4.526,0,0,0,3.462-1.419,5.191,5.191,0,0,0,1.248-3.178,2.467,2.467,0,0,0,2.213-2.667c-.113-3.235-3.235-4.483-5.221-4.483H40.309a5.77,5.77,0,0,0-5.278,5.618v1.475a1.138,1.138,0,0,0,1.135,1.135h.34c.113,2.043,1.305,3.518,2.951,3.518h1.873v1.589a.812.812,0,0,0,.794.794h.908v.624a2.519,2.519,0,0,0,2.5,2.5h.738v1.362a1.5,1.5,0,0,0,1.475,1.475H50.41a1.5,1.5,0,0,0,1.475-1.475V50.127a1.5,1.5,0,0,0-1.475-1.475H47.743a1.5,1.5,0,0,0-1.475,1.475v1.362H45.53a1.707,1.707,0,0,1-1.7-1.7v-.624Zm2.213,4.483V52.283c1.873,0,1.873-.794,0-.794ZM37.3,43.2h6.242a2.894,2.894,0,0,0,1.759-.624,2.984,2.984,0,0,0,1.021,1.589,3.224,3.224,0,0,0,2.1.794h.4c1.532-.284,2.44-1.589,2.44-3.575a4,4,0,0,0-1.816-3.745,6.605,6.605,0,0,1,.851-.34.413.413,0,1,0-.227-.794,3.922,3.922,0,0,0-1.532.794l-.057.057a6.481,6.481,0,0,0-1.532,2.1c-.738,1.419-2.1,2.951-3.4,2.951H36.167a.366.366,0,0,1-.34-.34V40.593a4.919,4.919,0,0,1,4.483-4.824H49.9c1.135,0,4.313.681,4.426,3.689a1.7,1.7,0,0,1-1.419,1.873,6.868,6.868,0,0,0-.057-1.078.4.4,0,1,0-.794.113,5.661,5.661,0,0,1-1.021,4.426,3.6,3.6,0,0,1-2.894,1.192H39.458C38.266,45.984,37.415,44.849,37.3,43.2Zm4.824,3.575h2.667v1.589H42.125Z" transform="translate(1262.925 1337.469)"/></g><path class="d" d="M69.876,257.508H31.287a2.233,2.233,0,1,1,0-4.466H69.876a2.233,2.233,0,1,1,0,4.466Zm1.217-.951-9.7-8.471a2.2,2.2,0,0,1,0-3.157,2.328,2.328,0,0,1,3.234,0l9.705,8.471a2.2,2.2,0,0,1,0,3.157A2.325,2.325,0,0,1,71.093,256.557Zm-9.7,5.908,9.7-8.471a2.328,2.328,0,0,1,3.234,0,2.2,2.2,0,0,1,0,3.157l-9.7,8.471a2.328,2.328,0,0,1-3.234,0A2.2,2.2,0,0,1,61.392,262.465Z" transform="translate(1016.726 1425) rotate(-90)"/></g></svg>