<?xml version="1.0" encoding="UTF-8"?>
<svg id="b" xmlns="http://www.w3.org/2000/svg" width="70" height="136"
    xmlns:xlink="http://www.w3.org/1999/xlink" viewBox="0 0 70 136">
    <defs>
        <linearGradient id="e" x1="-2257" y1="-504.6" x2="-2257" y2="-504.2"
            gradientTransform="translate(166148.2 45512.3) scale(73.6 90.2)"
            gradientUnits="userSpaceOnUse">
            <stop offset="0" stop-color="#5f1508" />
            <stop offset="1" stop-color="#ef8673" />
        </linearGradient>
        <radialGradient id="f" cx="-2254" cy="-528.2" fx="-2254" fy="-528.2" r=".9"
            gradientTransform="translate(122034 131049.2) rotate(38.9) scale(76 48) skewX(8.4)"
            gradientUnits="userSpaceOnUse">
            <stop offset="0" stop-color="#ffd587" />
            <stop offset=".6" stop-color="#ed7b28" />
            <stop offset="1" stop-color="#a81705" />
        </radialGradient>
        <radialGradient id="g" cx="-2246.7" cy="-496.6" fx="-2246.7" fy="-496.6" r=".3"
            gradientTransform="translate(123377.3 27295.5) scale(54.9)"
            gradientUnits="userSpaceOnUse">
            <stop offset="0" stop-color="#e75545" />
            <stop offset=".8" stop-color="#c4483b" />
            <stop offset="1" stop-color="#983b31" />
        </radialGradient>
    </defs>
    <g id="c">
        <g id="d">
            <rect width="70" height="136" style="fill:none; stroke-width:0px;" />
            <ellipse cx="34.9" cy="68.8" rx="16.5" ry="5.8"
                style="fill:#ff8a4c; isolation:isolate; opacity:.3; stroke-width:0px;" />
            <ellipse cx="34.9" cy="68.8" rx="5.8" ry="2.2"
                style="fill:#a74d4b; isolation:isolate; opacity:.7; stroke-width:0px;" />
            <path
                d="m26.4,54.1c-.4-.3-.7-.7-1.1-1-12.6-5.2-18.7-19.6-13.5-32.2,3.9-9.4,13.1-15.5,23.2-15.4,13.7-.1,24.8,10.7,25,24.4.1,10.2-6.1,19.4-15.6,23.3-.3.3-.5.6-.9,1-3.4,3.8-6.1,8-8.2,12.6,0,0-3.6-7.6-8.9-12.6Z"
                style="fill:url(#e); stroke-width:0px;" />
            <path
                d="m26.8,56.1l-1-1c-9-4.1-14.7-13-14.6-22.8,0-13.7,10.6-24.8,23.7-24.8s23.7,11.1,23.7,24.8-6.1,19.2-14.8,22.9c-.3.3-.5.6-.8,1-3.2,3.8-5.8,8.1-7.8,12.6,0,0-3.4-7.6-8.4-12.6h0Z"
                style="fill:url(#f); stroke-width:0px;" />
            <circle cx="34.7" cy="31.3" r="18.7" style="fill:url(#g); stroke-width:0px;" />
            <path
                d="m20.9,15.4c-.3,0-.5-.2-.5-.4,0-.2,0-.5.1-.6,1.2-1.2,2.6-2,4.1-2.7h.5c.1,0,.3.2.3.3.1.3,0,.7-.3.8-1.4.5-2.6,1.4-3.7,2.4-.1.1-.3.2-.5.1h0Zm-1.6,1.8c-.1,0-.2,0-.3-.1-.1,0-.2-.3-.3-.4,0-.1,0-.3.1-.5l.3-.3c.1-.1.3-.2.4-.2s.3,0,.5.1c.1,0,.2.3.3.4,0,.1,0,.3-.1.5l-.3.3c-.1.2-.3.3-.5.3"
                style="fill:#fff; stroke-width:0px;" />
            <path
                d="m34.4,49.3c-2.4,0-4.8-.5-7-1.4-2.2-.9-4.1-2.2-5.7-3.9s-2.9-3.6-3.9-5.7c-1-2.2-1.4-4.6-1.4-7s.5-4.8,1.4-7c.9-2.2,2.2-4.1,3.9-5.7,1.7-1.6,3.6-2.9,5.7-3.9,2.2-1,4.6-1.4,7-1.4s4.8.5,7,1.4c2.2.9,4.1,2.2,5.7,3.9s2.9,3.6,3.9,5.7c1,2.2,1.4,4.6,1.4,7s-.5,4.8-1.4,7c-.9,2.2-2.2,4.1-3.9,5.7s-3.6,2.9-5.7,3.9c-2.2,1-4.6,1.4-7,1.4Z"
                style="fill:#272727; stroke-width:0px;" />
            <path
                d="m34.4,14.3c-2.3,0-4.6.5-6.6,1.4s-3.9,2.1-5.4,3.7c-1.6,1.6-2.8,3.4-3.7,5.4-.9,2.1-1.4,4.4-1.4,6.6s.5,4.6,1.4,6.6,2.1,3.9,3.7,5.4c1.6,1.6,3.4,2.8,5.4,3.7,2.1.9,4.4,1.4,6.6,1.4s4.6-.5,6.6-1.4,3.9-2.1,5.4-3.7c1.6-1.6,2.8-3.4,3.7-5.4.9-2.1,1.4-4.4,1.4-6.6s-.5-4.6-1.4-6.6-2.1-3.9-3.7-5.4c-1.6-1.6-3.4-2.8-5.4-3.7-2.1-.9-4.4-1.4-6.6-1.4m0-2c10.5,0,19,8.5,19,19s-8.5,19-19,19-19-8.5-19-19,8.5-19,19-19Z"
                style="fill:#db4646; stroke-width:0px;" />
            <g style="isolation:isolate;">
                <text transform="translate(24.9 36.7)"
                    style="fill:#fff; font-family:PingFangSC-Regular-GBpc-EUC-H, &apos;PingFang SC&apos;; font-size:19px; isolation:isolate;">
                    <tspan x="0" y="0">限</tspan>
                </text>
            </g>
        </g>
    </g>
</svg>