<svg xmlns="http://www.w3.org/2000/svg" xmlns:xlink="http://www.w3.org/1999/xlink" width="136"
    height="136" viewBox="0 0 136 136">
    <defs>
        <style>
            .a,.f{fill:#fff;}.a{opacity:0;}.b{fill:#ff5f4c;opacity:0.304;}.c{fill:#a74d4b;opacity:0.708;}.d{fill:url(#a);}.e{fill:url(#b);}.f{stroke:#db4646;stroke-width:3px;}.g{stroke:none;}.h{fill:none;}
        </style>
        <radialGradient id="a" cx="0.21" cy="0.134" r="1.274"
            gradientTransform="matrix(0.849, 0.529, -0.307, 0.493, 0.073, -0.043)"
            gradientUnits="objectBoundingBox">
            <stop offset="0" stop-color="#ff9287" />
            <stop offset="0.786" stop-color="#ff5f4c" />
            <stop offset="1" stop-color="#ff5f4c" />
        </radialGradient>
        <radialGradient id="b" cx="0.5" cy="0.5" r="0.5" gradientUnits="objectBoundingBox">
            <stop offset="0" stop-color="#e75545" />
            <stop offset="0.793" stop-color="#c4483b" />
            <stop offset="1" stop-color="#983b31" />
        </radialGradient>
    </defs>
    <g transform="translate(-956 -396)">
        <rect class="a" width="136" height="136" transform="translate(956 396)" />
        <g transform="translate(989.164 429.346)">
            <g transform="translate(10.653 81.66)">
                <ellipse class="b" cx="24.183" cy="8.497" rx="24.183" ry="8.497" />
                <ellipse class="c" cx="8.497" cy="3.268" rx="8.497" ry="3.268"
                    transform="translate(15.687 5.229)" />
            </g>
            <g transform="translate(0 0)">
                <path class="d"
                    d="M22.956,71.538q-.792-.8-1.543-1.533A36.466,36.466,0,0,1,0,36.4C0,16.3,15.6,0,34.837,0S69.673,16.3,69.673,36.4c0,15.235-8.954,28.283-21.664,33.711q-.588.673-1.219,1.424A73.582,73.582,0,0,0,35.337,90.157S30.335,78.981,22.956,71.538Z"
                    transform="translate(0 0)" />
                <circle class="e" cx="27.451" cy="27.451" r="27.451"
                    transform="translate(7.029 7.568)" />
            </g>
        </g>
        <g transform="translate(10174 7640)">
            <g class="f" transform="translate(-9178 -7204)">
                <circle class="g" cx="28" cy="28" r="28" />
                <circle class="h" cx="28" cy="28" r="26.5" />
            </g>
        </g>
    </g>
</svg>