<?xml version="1.0" encoding="UTF-8"?>
<svg id="b" xmlns="http://www.w3.org/2000/svg" width="90" height="100"
    xmlns:xlink="http://www.w3.org/1999/xlink" viewBox="0 0 90 100">
    <defs>
        <style>
            .e{fill:none;}.e,.f,.g,.h{stroke-width:0px;}.i{clip-path:url(#d);}.f{fill:#a28d92;}.g{fill:#f1eae9;}.h{fill:#fff;}
        </style>
        <clipPath id="d">
            <rect class="e" width="90" height="100" />
        </clipPath>
    </defs>
    <g id="c">
        <g class="i">
            <rect class="h" width="90" height="100" />
            <path class="g"
                d="m-10.8.2H29c.8,0,1.4.6,1.4,1.4,0,.4-.1.7-.4,1l-8.2,8.2c-.3.3-.6.4-1,.4H-19c-.8,0-1.4-.6-1.4-1.4,0-.4.1-.7.4-1L-11.8.6c.3-.3.6-.4,1-.4Z" />
            <path class="g"
                d="m35,.2h39.9c.8,0,1.4.6,1.4,1.4,0,.4-.1.7-.4,1l-8.2,8.2c-.3.3-.6.4-1,.4H26.8c-.8,0-1.4-.6-1.4-1.4,0-.4.1-.7.4-1L34.1.6c.3-.3.6-.4,1-.4Z" />
            <path class="f"
                d="m19.7,13.1c.7,0,1.3.6,1.3,1.4v17.1c0,.8-.6,1.4-1.3,1.4H-19.4c-.7,0-1.3-.6-1.3-1.4h0V14.5c0-.8.6-1.4,1.3-1.4H19.7Z" />
            <path class="f"
                d="m65,13.1c.7,0,1.4.6,1.4,1.4v17.1c0,.8-.6,1.4-1.4,1.4H25.7c-.7,0-1.4-.6-1.4-1.4h0V14.5c0-.8.6-1.4,1.4-1.4h39.3Z" />
            <path class="g"
                d="m80.9.2h39.9c.8,0,1.4.6,1.4,1.4,0,.4-.1.7-.4,1l-8.2,8.2c-.3.3-.6.4-1,.4h-39.9c-.8,0-1.4-.6-1.4-1.4,0-.4.1-.7.4-1L79.9.6c.3-.3.6-.4,1-.4Z" />
            <path class="f"
                d="m110,13.1c.7,0,1.4.6,1.4,1.4v17.1c0,.8-.6,1.4-1.4,1.4h-39.3c-.7,0-1.4-.6-1.4-1.4h0V14.5c0-.8.6-1.4,1.4-1.4h39.3Z" />
            <path class="f"
                d="m42.5,35.4c.7,0,1.4.6,1.4,1.4v17.1c0,.8-.6,1.4-1.4,1.4H3.2c-.7,0-1.4-.6-1.4-1.4h0v-17.1c0-.8.6-1.4,1.4-1.4h39.3Z" />
            <path class="f"
                d="m87.5,35.4c.7,0,1.4.6,1.4,1.4v17.1c0,.8-.6,1.4-1.4,1.4h-39.3c-.7,0-1.4-.6-1.4-1.4h0v-17.1c0-.8.6-1.4,1.4-1.4h39.3Z" />
            <path class="f"
                d="m22.3,57.4c.7,0,1.4.6,1.4,1.4v17.1c0,.8-.6,1.4-1.4,1.4H-17c-.7,0-1.4-.6-1.4-1.4h0v-17.1c0-.8.6-1.4,1.4-1.4H22.3Z" />
            <path class="f"
                d="m67.5,57.4c.7,0,1.4.6,1.4,1.4v17.1c0,.8-.6,1.4-1.4,1.4H28.2c-.7,0-1.4-.6-1.4-1.4h0v-17.1c0-.8.6-1.4,1.4-1.4h39.3Z" />
            <path class="f"
                d="m112.5,57.4c.7,0,1.4.6,1.4,1.4v17.1c0,.8-.6,1.4-1.4,1.4h-39.3c-.7,0-1.4-.6-1.4-1.4h0v-17.1c0-.8.6-1.4,1.4-1.4h39.3Z" />
            <path class="f"
                d="m42.5,80c.7,0,1.4.6,1.4,1.4v17.1c0,.8-.6,1.4-1.4,1.4H3.2c-.7,0-1.4-.6-1.4-1.4h0v-17.1c0-.8.6-1.4,1.4-1.4h39.3Z" />
            <path class="f"
                d="m87.6,79.9c.7,0,1.4.6,1.4,1.4v17.1c0,.8-.6,1.4-1.4,1.4h-39.3c-.7,0-1.4-.6-1.4-1.4h0v-17.1c0-.8.6-1.4,1.4-1.4h39.3Z" />
        </g>
    </g>
</svg>