<svg xmlns="http://www.w3.org/2000/svg" width="80" height="80" viewBox="0 0 80 80">
    <defs>
        <style>
            .a{fill:#1b23b4;stroke:#fceaa0;stroke-width:3px;}.b{fill:#fceaa0;}.c{stroke:none;}.d{fill:none;}
        </style>
    </defs>
    <g transform="translate(-268 -381)">
        <g transform="translate(9446 7585)">
            <g class="a" transform="translate(-9178 -7204)">
                <circle class="c" cx="40" cy="40" r="40" />
                <circle class="d" cx="40" cy="40" r="38.5" />
            </g>
        </g>
        <path class="b"
            d="M257.043,173.635V146.2c0-9.344-8.378-16.918-18.708-16.918s-18.712,7.574-18.712,16.918v27.436H214.94V145.378c0-11.808,10.6-21.378,23.684-21.378s23.683,9.57,23.683,21.378v28.257Zm-18.13-42.773c13.594-.133,16.377,13.195,16.377,13.195v29.579H254.7l-9.934-14.271V144.584s-.436-4.223-5.851-4.223-6.431,4.223-6.431,4.223v14.779l-10.2,14.271h-.913V144.06S223.714,131.009,238.913,130.861Zm5.049,28.5,10.159,14.271h-31.21l10.159-14.272h10.893Zm0,0"
            transform="translate(69.376 269.184)" />
    </g>
</svg>