<?xml version="1.0" encoding="UTF-8"?><svg id="b" xmlns="http://www.w3.org/2000/svg" width="131.3" height="131.3" xmlns:xlink="http://www.w3.org/1999/xlink" viewBox="0 0 131.3 131.3"><defs><linearGradient id="f" x1="63.4" y1="54.8" x2="68.2" y2="54.8" gradientUnits="userSpaceOnUse"><stop offset="0" stop-color="#989898"/><stop offset="0" stop-color="#a3a3a3"/><stop offset=".1" stop-color="#c4c5c5"/><stop offset=".2" stop-color="#d8d9d9"/><stop offset=".3" stop-color="#e0e1e1"/><stop offset=".4" stop-color="#dbdcdc"/><stop offset=".5" stop-color="#cccece"/><stop offset=".6" stop-color="#b5b6b7"/><stop offset=".7" stop-color="#949697"/><stop offset=".8" stop-color="#6a6c6f"/><stop offset=".8" stop-color="#3f4246"/><stop offset="1" stop-color="#404247"/><stop offset="1" stop-color="#43434a"/></linearGradient><linearGradient id="g" x1="41.1" y1="26.7" x2="90.2" y2="26.7" gradientUnits="userSpaceOnUse"><stop offset="0" stop-color="#afbacb"/><stop offset=".1" stop-color="#c1ccda"/><stop offset=".4" stop-color="#d9e6f0"/><stop offset=".5" stop-color="#e3f0f8"/><stop offset=".6" stop-color="#dde9f2"/><stop offset=".8" stop-color="#ccd8e4"/><stop offset="1" stop-color="#b1bbcc"/><stop offset="1" stop-color="#aeb8c9"/></linearGradient></defs><g id="c"><g><rect width="131.3" height="131.3" style="fill:none;"/><g><ellipse id="d" cx="65.7" cy="66.2" rx="14.4" ry="3.7" style="fill:#262d34; isolation:isolate; opacity:.2;"/><ellipse id="e" cx="65.7" cy="66.2" rx="7.5" ry="3" style="fill:#535a60;"/><path d="M65.7,42.6h0c1.4,0,2.6,1.2,2.6,2.6v19.2c0,1.4-1.1,2.5-2.5,2.5h-.3c-1.4,0-2.5-1.1-2.5-2.5v-19.3c0-1.4,1.2-2.6,2.6-2.6Z" style="fill:url(#f);"/><rect x="41.1" y="1" width="49" height="51.4" rx="24.5" ry="24.5" style="fill:url(#g); stroke:#8b9fae; stroke-miterlimit:10; stroke-width:1.1px;"/><rect x="41.7" y="3.3" width="48" height="48.5" rx="24" ry="24" style="fill:#f24643; stroke:#510710; stroke-miterlimit:10;"/><g><path d="M55.5,17.7l-2.3,2.6,1.2,1-.7,.7-1.2-1-2.5,2.9-.7-.6,2.5-2.9-1-.9-1.9,2.1-.7-.6c-.1-.6-.4-1.3-.6-2.1l-1.1,1.3-.7-.6,1.4-1.6c-.2-.5-.5-1-.7-1.3l.9-.5c.2,.3,.4,.7,.5,1.1l2.8-3.2,.7,.6-3.1,3.5c.3,.8,.6,1.5,.7,2l1.1-1.3-1.1-1,.7-.7,1.1,.9,1.7-1.9,.7,.6-1.7,1.9,1,.9,2.3-2.6,.7,.6Z" style="fill:#fff;"/><path d="M57.8,11.7c-.4-.4-1.2-1.2-1.7-1.5l.6-.7c.4,.3,1.2,1,1.6,1.4l-.6,.8Zm8,3.2v.9c-1.4,.4-2.7,.7-4.1,1-1.2,.3-1.8,.2-2.7-.5-.3,.5-.5,1-.8,1.5l-.8-.6c.3-.5,.6-1,.9-1.6l-.6-2.4-1,.2-.2-.9,1.8-.4,.8,3.3c.7,.7,1.3,.7,2.4,.5,1.4-.3,2.8-.7,4.1-1.1Zm-5-4.6l-2.2,.5-.2-.8,1.5-.4c-.2-.2-.5-.4-.8-.6l.5-.7c.4,.2,.6,.4,.9,.7l-.3,.4,1.1-.3c.2-.4,.5-1.1,.6-1.4l.9,.2c0,.2-.3,.6-.4,.9l1.6-.4,.2,.8-2.5,.6c0,.2,0,.4,0,.6l2-.5,1.1,4.4-4.6,1.1-1.1-4.4,1.6-.4v-.6Zm2.3,.8l-2.7,.6v.6c.1,0,2.9-.6,2.9-.6v-.6Zm-2.4,2.4l2.7-.6v-.6c-.1,0-2.9,.6-2.9,.6v.6Zm3.1,.6v-.6c-.1,0-2.8,.6-2.8,.6v.6c.1,0,2.8-.6,2.8-.6Z" style="fill:#fff;"/><path d="M72.7,15.6c.3,.9,1.1,2,2.7,2.9l-.6,.9c-1.6-1.2-2.6-2.2-2.9-3.3-.9,.6-2.3,.6-4.5,.4v-1c2,.4,3.4,.2,4-.3l-2.9-1.1,.3-.8,3.1,1.2,.2-.6,.9,.4-.2,.5,3.1,1.2-.3,.8-2.9-1.2Zm-3.8-3.5c1.3,.1,2.5,0,3.5-.2l-2.6-1,.3-.8,1.8,.7c-.2-.5-.6-1.3-.8-1.7l.8-.4c.3,.4,.7,1.3,.9,1.8l-.6,.4,1.1,.4,.7-1.9,.9,.4-.7,1.8,1,.4-.2-.6c.6-.2,1.4-.5,1.9-.8l.4,.8c-.4,.2-1.2,.5-1.8,.7l1.8,.7-.3,.8-3.1-1.2-.6,1.5-.9-.3,.3-.8c-1,.3-2.1,.3-3.7,.3v-1Zm5.2,.6c.6,.6,2,1.8,2.6,2.4l-.6,.7c-.6-.7-1.9-1.8-2.5-2.5l.5-.6Z" style="fill:#fff;"/><path d="M81.6,26.4l-.7,.5-4.7-6.9,.7-.5,2.1,3.1,.9-.6-1.5-2.3,.7-.5,1.5,2.3,.5-.3,.5,.8-.4,.3,1.5,2.3-.7,.5-1.5-2.3-.9,.6,2.1,3.1Zm-2.5-8.2c.9,.2,1.4,.1,2-.1l-.6-.9,.7-.5,.6,.9h.2c0-.1,.8-.7,.8-.7l-.5-.7,.7-.5,2.5,3.7-.7,.5-.5-.7-1.1,.7,.6,.8-.7,.5-.6-.8-1.4,.9-.5-.7,1.4-.9-.6-.9c-.8,.4-1.5,.5-2.5,.3v-.9Zm3.8,4.1l.4,.6c.3,.3,.4,.4,.8,.2l3-2,.5,.8-3.2,2.1c-.7,.5-1,.4-1.6-.4l-.4-.6,.6-.7Zm-.5-3.9l.6,.9,1.1-.7-.6-.9-.8,.6h-.2Zm1.1,4.2l-.5-.7,2.8-1.9,.5,.7-2.8,1.8Z" style="fill:#fff;"/></g><path d="M63.9,38.9v.9c-.8,.1-5.1,.9-6,1.1v-1.7c.7-.1,5-.9,6-1.1v.8Zm-5.5-6.6l-.4-1.7c.3-.1,.5-.3,.6-.5,.4-.5,1.6-2.7,2.3-4.7l1.5,.6c-.6,1.5-1.7,3.5-2.4,4.5,.3,0,1.1,0,1.7-.1,.5-.9,.9-1.7,1.2-2.4l1.4,.6c-.9,2-2.6,4.9-3.4,6.2,.6-.1,2-.4,2.4-.5v1.7c-.3,0-2.4,.4-3.3,.6-.4,0-.8,.2-1.1,.2l-.4-1.8c.6-.2,.6-.3,.9-.7,.5-.6,1-1.5,1.5-2.4-.6,0-1.3,0-1.6,.1-.3,0-.5,0-.8,.1Zm16.1,2.2l-.6,1.8c-2.1-.8-3.7-1.7-5.1-2.8-.6,.5-1.3,1-2.2,1.4,1.2,.3,3.5,1.2,4.8,1.7l-.6,1.7c-1.1-.5-3.5-1.3-4.9-1.7l.4-1.4c-.7,.4-1.4,.7-2.2,1.1l-.8-1.6c1.8-.7,3.1-1.4,4.2-2.2-.6-.6-1.2-1.3-1.7-2.1-.4,.7-1,1.3-1.5,1.9l-.9-1.2c1.4-1.5,2.8-4,3.4-5.7l1.5,.4c-.2,.4-.3,.8-.5,1.3h5.2v1.7c-.9,1.5-1.7,2.6-2.8,3.8,1.2,.8,2.6,1.5,4.4,2.1Zm-9.5,3.6c1.8,.5,5.3,1.7,7.1,2.4l-.5,1.7c-1.8-.7-5.2-2-7.1-2.4l.5-1.7Zm1.7-9.2c.6,.9,1.2,1.7,2,2.5,.9-.8,1.6-1.7,2.2-2.7h-4.1v.3Z" style="fill:#fff;"/></g></g></g></svg>