<?xml version="1.0" encoding="UTF-8"?><svg id="b" xmlns="http://www.w3.org/2000/svg" width="73.7" height="39.7" xmlns:xlink="http://www.w3.org/1999/xlink" viewBox="0 0 73.7 39.7"><defs><style>.p{fill:url(#i);}.q{fill:url(#o);}.r{fill:url(#n);}.s{fill:url(#f);}.t{fill:none;}.u{fill:url(#j);}.u,.v{stroke:#706a69;stroke-miterlimit:10;stroke-width:.3px;}.v{fill:url(#l);}.w{fill:#fff;}.x{fill:#ffc840;}.y{fill:#ff4649;}.z{fill:#919191;}.aa{fill:#7c7d7d;}.ab{fill:#a01f38;}.ac{fill:#333;}.ad{fill:#c9233b;}.ae{fill:#dad7e5;}.af{fill:#425b72;}.ag{fill:#1a232b;}.ah{fill:#535a60;}.ai{fill:#262d34;isolation:isolate;opacity:.2;}.aj{clip-path:url(#k);}.ak{clip-path:url(#m);}</style><linearGradient id="f" x1="32.6" y1="21.8" x2="35.2" y2="21.8" gradientUnits="userSpaceOnUse"><stop offset="0" stop-color="#989898"/><stop offset=".1" stop-color="#c1c1c1"/><stop offset=".3" stop-color="#e3e3e3"/><stop offset=".4" stop-color="#f7f7f7"/><stop offset=".5" stop-color="#fff"/><stop offset=".6" stop-color="#fbfbfb"/><stop offset=".6" stop-color="#f1f2f2"/><stop offset=".7" stop-color="#e0e1e2"/><stop offset=".8" stop-color="#c9c9cb"/><stop offset=".8" stop-color="#aaabad"/><stop offset=".9" stop-color="#848689"/><stop offset="1" stop-color="#585b5e"/><stop offset="1" stop-color="#3f4246"/></linearGradient><linearGradient id="i" x1="12.1" y1="21.9" x2="14.8" y2="21.9" xlink:href="#f"/><linearGradient id="j" x1="3.4" y1="13" x2="45" y2="13" xlink:href="#f"/><clipPath id="k"><rect class="t" x="4.4" y="9.7" width="39.7" height="7.2" rx=".2" ry=".2"/></clipPath><linearGradient id="l" x1="3.4" y1="24.5" x2="45.1" y2="24.5" xlink:href="#f"/><clipPath id="m"><rect class="t" x="4" y="21.2" width="40.5" height="7.2" rx=".2" ry=".2"/></clipPath><radialGradient id="n" cx="12.6" cy="6.5" fx="12.6" fy="6.5" r="1.7" gradientTransform="translate(1.7 -.9) scale(.9)" gradientUnits="userSpaceOnUse"><stop offset=".5" stop-color="#fff"/><stop offset=".5" stop-color="#fffdf4"/><stop offset=".8" stop-color="#ffea93"/><stop offset=".9" stop-color="#ffdf56"/><stop offset="1" stop-color="#ffdb3f"/></radialGradient><radialGradient id="o" cx="34.6" fx="34.6" xlink:href="#n"/></defs><g id="c"><g><rect class="t" width="73.7" height="39.7"/><g><ellipse id="d" class="ai" cx="33.8" cy="37" rx="5.6" ry="1.5"/><ellipse id="e" class="ah" cx="33.8" cy="37" rx="2.9" ry="1.2"/><path class="s" d="M32.9,6.6h1.9c.3,0,.5,.2,.5,.5v29.4c0,.3-.2,.5-.5,.5h-2c-.3,0-.5-.2-.5-.5V7.1c0-.3,.2-.5,.5-.5Z"/></g><g><ellipse id="g" class="ai" cx="13.4" cy="37.1" rx="5.6" ry="1.4"/><ellipse id="h" class="ah" cx="13.4" cy="37.1" rx="2.9" ry="1.1"/><path class="p" d="M12.4,6.6h1.9c.3,0,.5,.2,.5,.5v29.5c0,.3-.2,.5-.5,.5h-2c-.3,0-.5-.2-.5-.5V7.1c0-.3,.2-.5,.5-.5Z"/></g><rect class="u" x="3.4" y="8.4" width="41.6" height="9.1" rx=".2" ry=".2"/><rect x="3.4" y="9" width="41.6" height="8.5" rx=".2" ry=".2"/><rect class="x" x="4" y="9.7" width="40.5" height="7.2" rx=".2" ry=".2"/><g class="aj"><polygon class="ac" points="8 18.7 3.8 17.8 11.3 6.7 15.5 7.6 8 18.7"/><polygon class="ac" points="17.8 19.2 13.5 18.1 21.1 7.1 25.4 8.1 17.8 19.2"/><polygon class="ac" points="37.2 19.1 32.9 18 40.4 7 44.7 8 37.2 19.1"/><polygon class="ac" points="27.7 18.6 23.2 17.5 30.8 6.5 35.3 7.6 27.7 18.6"/></g><rect class="v" x="3.4" y="19.9" width="41.6" height="9.1" rx=".2" ry=".2"/><rect x="3.4" y="20.6" width="41.6" height="8.5" rx=".2" ry=".2"/><rect class="x" x="4" y="21.2" width="40.5" height="7.2" rx=".2" ry=".2"/><g class="ak"><polygon class="ac" points="7.7 30.3 3.4 29.3 11.1 18.2 15.3 19.2 7.7 30.3"/><polygon class="ac" points="17.7 30.7 13.3 29.7 21 18.6 25.4 19.6 17.7 30.7"/><polygon class="ac" points="37.4 30.6 33 29.6 40.7 18.5 45.1 19.5 37.4 30.6"/><polygon class="ac" points="27.8 30.2 23.2 29.1 31 18 35.5 19.1 27.8 30.2"/></g><g><circle class="y" cx="13.4" cy="5.2" r="2.3"/><circle class="r" cx="13.4" cy="5.2" r="1.4"/></g><g><circle class="y" cx="33.8" cy="5.2" r="2.3"/><circle class="q" cx="33.8" cy="5.2" r="1.4"/></g></g><g><path class="ab" d="M72,17.5c0,6.7-5.4,12-12,12-11.1,0-16.4-14-7.7-21.3,7.7-6.5,19.8-1,19.8,9.2Z"/><path class="ad" d="M72,17.5c0,2.8-1,5.6-2.8,7.7-5.3,4-11.3,3.4-15.3,0-5.1-4.2-5.9-11.8-1.7-16.9,0,0,0,0,0-.1,7.7-6.5,19.8-1,19.8,9.2Z"/><path class="ae" d="M69,17.5c0,5-4.1,9-9.1,9-5,0-9-4.1-9-9.1,0-4.7,3.6-8.6,8.3-9,5-.4,9.3,3.3,9.8,8.2,0,.3,0,.5,0,.8Z"/><path class="w" d="M69,17.5c0,2.7-1.4,5.3-2.2,5.8-4,2.9-9.7,2-12.6-2.1-2.3-3.2-2.3-7.4,0-10.6,.5-.8,3-2.2,5.8-2.2,5,0,9,4,9,9Z"/><path class="z" d="M60.7,8.5v1.5c0,.4-.3,.8-.8,.8s-.8-.3-.8-.8v-1.5c.5,0,1,0,1.5,0Z"/><path class="aa" d="M54.1,12.8l-1-1c.3-.4,.7-.7,1.1-1.1l1,1c.3,.3,.3,.8,0,1.1s-.8,.3-1.1,0Z"/><path class="aa" d="M52.4,18.3h-1.5c0-.5,0-1,0-1.5h1.5c.4,0,.8,.3,.8,.8s-.3,.8-.8,.8Z"/><path class="aa" d="M55.2,23.4l-1,1c-.4-.3-.7-.7-1.1-1.1l1-1c.3-.3,.8-.3,1.1,0,.3,.3,.3,.8,0,1.1h0Z"/><path class="aa" d="M60.7,25.1v1.5c-.5,0-1,0-1.5,0v-1.5c0-.4,.3-.8,.8-.8s.8,.3,.8,.8Z"/><path class="aa" d="M66.9,23.4c-.3,.4-.7,.7-1.1,1.1l-1-1c-.3-.3-.3-.8,0-1.1,.3-.3,.8-.3,1.1,0h0l1,1Z"/><path class="z" d="M69,18.3h-1.5c-.4,0-.8-.3-.8-.8s.3-.8,.8-.8h1.5c0,.5,0,1,0,1.5Z"/><path class="z" d="M66.9,11.7c-1.2,1.2-1.2,1.3-1.6,1.3-.4,0-.8-.3-.8-.7,0-.2,0-.4,.2-.5l1-1c.4,.3,.7,.7,1.1,1.1Z"/><path class="z" d="M59.2,16.8v-3.8c0-.4,.3-.8,.8-.8s.8,.3,.8,.8v3.8c0,.4-.3,.8-.8,.8s-.8-.3-.8-.8Z"/><path class="z" d="M63,18.3h-2.3c-.4,0-.8-.3-.8-.8s.3-.8,.8-.8h2.3c.4,0,.8,.3,.8,.8s-.3,.8-.8,.8Z"/><path class="z" d="M54.1,12.8l-.8-.8c.2-.5,.5-.9,.8-1.3l1,1c.3,.3,.3,.8,0,1.1-.3,.3-.8,.3-1.1,0Z"/><path class="z" d="M52.7,18.2c-.1-.5-.2-1-.2-1.5,.4,0,.7,.4,.7,.8,0,.3-.2,.6-.5,.7Z"/><path class="z" d="M55.4,22.7c-.2-.2-.4-.4-.6-.6,.3,0,.5,.3,.6,.6Z"/><path class="z" d="M60.7,25.1c-.5,0-1-.1-1.4-.2,.2-.4,.6-.6,1-.4,.3,.1,.4,.4,.5,.6Z"/><path class="z" d="M66.8,23.3c-.4,.3-.9,.6-1.3,.8l-.8-.8c-.3-.3-.3-.8,0-1.1,.3-.3,.8-.3,1.1,0l1,1Z"/><path class="ag" d="M61.5,17.5c0,.8-.7,1.5-1.5,1.5-.8,0-1.5-.7-1.5-1.5,0-.6,.3-1.1,.9-1.4,.8-.3,1.6,0,2,.8,0,.2,.1,.4,.1,.6Z"/><path class="af" d="M61.3,18.2c-.8,.3-1.6,0-2-.8-.2-.4-.2-.8,0-1.2,.8-.3,1.6,0,2,.8,.2,.4,.2,.8,0,1.2Z"/></g></g></svg>