<?xml version="1.0" encoding="UTF-8"?>
<svg id="b" xmlns="http://www.w3.org/2000/svg" width="124.7" height="125.7"
    xmlns:xlink="http://www.w3.org/1999/xlink" viewBox="0 0 124.7 125.7">
    <defs>
        <style>
            .j{fill:url(#f);}.k{fill:#fff;}.l,.m{fill:#535a60;}.n{fill:#262d34;isolation:isolate;opacity:.2;}.o{fill:#d82e00;stroke:#8a1c21;}.o,.p{stroke-miterlimit:10;}.m{opacity:0;}.p{fill:url(#g);stroke:#8b9fae;stroke-width:1.4px;}
        </style>
        <linearGradient id="f" x1="60.1" y1="51.1" x2="64.9" y2="51.1"
            gradientUnits="userSpaceOnUse">
            <stop offset="0" stop-color="#989898" />
            <stop offset="0" stop-color="#a3a3a3" />
            <stop offset=".1" stop-color="#c4c5c5" />
            <stop offset=".2" stop-color="#d8d9d9" />
            <stop offset=".3" stop-color="#e0e1e1" />
            <stop offset=".4" stop-color="#dbdcdc" />
            <stop offset=".5" stop-color="#cccece" />
            <stop offset=".6" stop-color="#b5b6b7" />
            <stop offset=".7" stop-color="#949697" />
            <stop offset=".8" stop-color="#6a6c6f" />
            <stop offset=".8" stop-color="#3f4246" />
            <stop offset="1" stop-color="#404247" />
            <stop offset="1" stop-color="#43434a" />
        </linearGradient>
        <linearGradient id="g" x1="20.8" y1="24" x2="103.9" y2="24" gradientUnits="userSpaceOnUse">
            <stop offset="0" stop-color="#afbacb" />
            <stop offset=".1" stop-color="#c1ccda" />
            <stop offset=".4" stop-color="#d9e6f0" />
            <stop offset=".5" stop-color="#e3f0f8" />
            <stop offset=".6" stop-color="#dde9f2" />
            <stop offset=".8" stop-color="#ccd8e4" />
            <stop offset="1" stop-color="#b1bbcc" />
            <stop offset="1" stop-color="#aeb8c9" />
        </linearGradient>
    </defs>
    <g id="c">
        <g>
            <rect class="m" y=".9" width="124.7" height="124.7" />
            <ellipse id="d" class="n" cx="62.4" cy="62.5" rx="14.4" ry="3.7" />
            <ellipse id="e" class="l" cx="62.4" cy="62.5" rx="7.5" ry="3" />
            <path class="j"
                d="M62.4,39h0c1.4,0,2.6,1.2,2.6,2.6v19.2c0,1.4-1.1,2.5-2.5,2.5h-.3c-1.4,0-2.5-1.1-2.5-2.5v-19.3c0-1.4,1.2-2.6,2.6-2.6Z" />
            <rect class="p" x="20.8" y=".7" width="83.1" height="46.6" rx="14.4" ry="14.4" />
            <rect class="o" x="21.7" y="2.8" width="81.3" height="44" rx="14.1" ry="14.1" />
            <path id="h" class="k"
                d="M30.4,10.7c-.3,0-.6-.2-.7-.4s0-.6,.1-.8c1.3-1.6,3-2.9,4.8-3.9,.2,0,.4-.1,.6,0,.2,0,.4,.2,.5,.4,.2,.4,0,.9-.3,1.1-1.7,.9-3.1,2.1-4.3,3.5-.2,.2-.4,.3-.6,.3h0Zm-1.8,2.6c-.1,0-.3,0-.4-.1-.2-.1-.3-.3-.4-.5,0-.2,0-.4,.1-.6l.3-.4c.1-.2,.3-.3,.5-.4,.2,0,.4,0,.6,0,.2,.1,.3,.3,.4,.5s0,.4-.1,.6l-.3,.4c-.1,.2-.4,.4-.7,.4h0Z" />
            <g>
                <path class="k"
                    d="M41.8,37.4c-.2-.4-.5-.9-.8-1.5v6.4h-1.9v-5.7c-.5,1-1,2-1.6,2.8l-1.4-1.6c.9-1.2,1.9-3,2.7-4.8h-1.9v-2h2.1v-1.6c-.7,.1-1.3,.2-1.8,.3l-.2-2c1.6-.2,3.9-.6,5.5-1.1l.4,2c-.6,.2-1.2,.3-1.9,.5v2h1.7v2h-1.7v1l.7-.5c.4,.5,1.2,1.7,1.6,2.5l-1.5,1.3Zm10.7-3.2v1.9c-1.8,2.5-4.3,4.7-9.9,6.6l-1-1.7c4.9-1.4,6.8-2.8,8.4-4.8h-3.4l-.5,.5c.5,.4,.9,.8,1.3,1.2l-1.4,1.4-1.3-1.3c-.6,.5-1.1,.9-1.7,1.3l-1.2-1.5c1.8-1.1,3.1-2.3,4.2-3.6-.8,.3-1.6,.7-2.6,1l-.9-1.8c3.2-1,5.5-2.2,7.1-3.8h-3.6c0,.1-.2,.2-.3,.3,.4,.3,.7,.6,1.2,.9l-1.4,1.3c-.4-.3-.7-.7-1-1-.3,.3-.6,.5-.9,.8l-1.2-1.6c1.8-1.2,3-2.8,3.9-4.1l2,.4c-.2,.3-.4,.7-.6,1h4.6v1.9c-1.2,1.5-2.5,2.6-4.4,3.7l.9,.3-.4,.6h4.3Z" />
                <path class="k"
                    d="M69.6,29.3l-.3,10.8c0,1.5-.7,1.9-2.2,2.1l-1.5,.2-.7-2.2h1.4c.5-.2,.7-.3,.8-1.3,.1-2.3,.2-5.6,.3-7.5h-1.5c0,.2,0,.3,0,.5-.1,3.8,.4,7.1-3.1,10.9l-1.9-1.2c.5-.5,.9-1,1.3-1.4l-1.1,.6-.3-.7c-1.8,.3-3.5,.6-4.8,.8-.2,0-.4,0-.6,.1l-.6-2.2c.5-.2,.6-.5,.7-.8,.3-.4,1.1-2.1,1.6-4.1h-2.3v-2.2h7.4v2.2h-2.8c-.5,1.6-1.3,3.6-1.7,4.5,.8-.1,1.5-.2,2.4-.4-.3-.8-.6-1.6-.9-2.2l1.9-.8c.6,1.2,1.1,2.5,1.7,4.2,1-1.9,.9-3.9,1-7,0-.2,0-.4,0-.6h-1.6v-2.2h1.6v-2.8s2.2,.1,2.2,.1v.8c0,.5,0,1.2,0,1.9h3.7Zm-8,.2h-6v-2.2h6v2.2Z" />
                <path class="k"
                    d="M77.2,35.4c-.3-.3-.6-.7-.8-1v8.1h-2v-7c-.5,1.1-1,2.1-1.6,2.9l-1.2-1.9c.9-1.3,2-3.4,2.7-5.3h-1.7v-2.1h1.8v-2.8h2v2.8h1.6v2.1h-1.6v1.2l.4-.4c.6,.5,1.3,1.3,1.9,1.9l-1.4,1.4Zm10.4,2.4c-.7-.4-1.4-.8-2-1.2v5.6h-2.1v-6.7h.9c-.7-.7-1.3-1.5-1.8-2.4-.4,.9-1,1.7-1.8,2.5h.8v1.4c0,2.7-.6,4.1-2.9,5.9l-1.5-1.5c2-1.7,2.3-2.2,2.3-4.4v-.2c-.5,.4-1,.7-1.6,1.1l-1.3-1.7c1.8-1.1,2.9-2,3.6-3.2h-2v-2.1h2.9c.1-.5,.3-1,.3-1.7-1,0-2,.1-2.8,.2l-.2-2.1c2.6-.1,6.2-.5,8.4-.9l.2,2.1c-.9,.1-2.1,.3-3.3,.4,0,.6-.2,1.3-.3,1.9h4.4v2.1h-2.9c.9,1.2,2.1,1.9,3.8,2.8l-1,2.1Z" />
            </g>
            <path id="i" class="k"
                d="M75.9,11.7h-21.7l-4.9-6.2,1.7-1.3,4.3,5.4h19.7l4.3-5.4,1.7,1.3-4.9,6.2Zm3.2,10.5l-4.3-5.9h-19.6l-4.3,5.7-1.7-1.3,4.9-6.5h21.8l4.9,6.7-1.7,1.3Z" />
        </g>
    </g>
</svg>