<?xml version="1.0" standalone="no"?><!DOCTYPE svg PUBLIC "-//W3C//DTD SVG 1.1//EN" "http://www.w3.org/Graphics/SVG/1.1/DTD/svg11.dtd"><svg t="1688716256005" class="icon" viewBox="0 0 1024 1024" version="1.1" xmlns="http://www.w3.org/2000/svg" p-id="3069" width="32" height="32" xmlns:xlink="http://www.w3.org/1999/xlink"><path d="M512 192c-140.8 0-256 115.2-256 256v512l128-224V448c0-70.4 57.6-128 128-128s128 57.6 128 128v288l128 224V448c0-140.8-115.2-256-256-256z" fill="#FFB43E" p-id="3070"></path><path d="M448 736l-128 224h384L576 736z" fill="#FFB43E" p-id="3071"></path><path d="M512 64C300 64 128 236 128 448v512h64V448c0-176.8 143.2-320 320-320s320 143.2 320 320v512h64V448c0-212-172-384-384-384z" fill="#FFB43E" p-id="3072"></path></svg>