<?xml version="1.0" encoding="UTF-8"?><svg id="b" xmlns="http://www.w3.org/2000/svg" width="107.5" height="105.4" xmlns:xlink="http://www.w3.org/1999/xlink" viewBox="0 0 107.5 105.4"><defs><style>.p{fill:url(#j);}.q{fill:url(#g);}.r{fill:url(#m);}.s{fill:url(#h);}.t{fill:url(#i);}.u{fill:url(#o);}.v{fill:url(#k);}.w{fill:url(#n);}.x{fill:url(#l);}.y{fill:url(#f);}.z{fill:url(#d);}.aa{fill:url(#e);}.ab{fill:none;}</style><linearGradient id="d" x1="48.3" y1="64.9" x2="49.7" y2="64.9" gradientUnits="userSpaceOnUse"><stop offset="0" stop-color="#231815"/><stop offset="0" stop-color="#372d2a"/><stop offset="0" stop-color="#655d5b"/><stop offset=".1" stop-color="#8e8987"/><stop offset=".2" stop-color="#b1adac"/><stop offset=".2" stop-color="#cdcbca"/><stop offset=".3" stop-color="#e3e2e1"/><stop offset=".3" stop-color="#f2f2f2"/><stop offset=".4" stop-color="#fcfbfb"/><stop offset=".5" stop-color="#fff"/><stop offset=".7" stop-color="#fcfcfc"/><stop offset=".7" stop-color="#f5f5f5"/><stop offset=".8" stop-color="#e9e8e8"/><stop offset=".8" stop-color="#d8d6d6"/><stop offset=".9" stop-color="#c2bfbe"/><stop offset=".9" stop-color="#a6a2a1"/><stop offset=".9" stop-color="#85807e"/><stop offset="1" stop-color="#605957"/><stop offset="1" stop-color="#3a312f"/><stop offset="1" stop-color="#453d3b"/><stop offset="1" stop-color="#65605f"/><stop offset="1" stop-color="#7f7c7b"/><stop offset="1" stop-color="#91908f"/><stop offset="1" stop-color="#9c9c9b"/><stop offset="1" stop-color="#a0a0a0"/></linearGradient><linearGradient id="e" x1="38.4" x2="39.8" xlink:href="#d"/><linearGradient id="f" x1="68.2" x2="69.6" xlink:href="#d"/><linearGradient id="g" x1="58.3" x2="59.6" xlink:href="#d"/><linearGradient id="h" x1="101.9" y1="64.9" x2="103.3" y2="64.9" xlink:href="#d"/><linearGradient id="i" x1="92" y1="64.9" x2="93.3" y2="64.9" xlink:href="#d"/><linearGradient id="j" x1="14.4" y1="64.9" x2="15.8" y2="64.9" xlink:href="#d"/><linearGradient id="k" x1="4.5" y1="64.9" x2="5.8" y2="64.9" xlink:href="#d"/><linearGradient id="l" x1="344.8" y1="-9.2" x2="346.1" y2="-9.2" gradientTransform="translate(-291.7 66.7)" xlink:href="#d"/><linearGradient id="m" x1="330.1" y1="-9.2" x2="331.4" y2="-9.2" gradientTransform="translate(-277 81.4)" xlink:href="#d"/><linearGradient id="n" x1="395.3" y1="258.8" x2="400.1" y2="258.8" gradientTransform="translate(-370.6 -193.9)" gradientUnits="userSpaceOnUse"><stop offset="0" stop-color="#989898"/><stop offset="0" stop-color="#a3a3a3"/><stop offset=".1" stop-color="#c4c5c5"/><stop offset=".2" stop-color="#d8d9d9"/><stop offset=".3" stop-color="#e0e1e1"/><stop offset=".4" stop-color="#dbdcdc"/><stop offset=".5" stop-color="#cccece"/><stop offset=".6" stop-color="#b5b6b7"/><stop offset=".7" stop-color="#949697"/><stop offset=".8" stop-color="#6a6c6f"/><stop offset=".8" stop-color="#3f4246"/><stop offset="1" stop-color="#404247"/><stop offset="1" stop-color="#43434a"/></linearGradient><linearGradient id="o" x1="78.5" y1="64.9" x2="83.3" y2="64.9" gradientTransform="matrix(1, 0, 0, 1, 0, 0)" xlink:href="#n"/></defs><g id="c"><g><rect class="ab" width="107.5" height="105.4"/><g><g><path class="z" d="M48.6,57.4h.9c.1,0,.2,.1,.2,.2v14.6c0,0,0,.1-.1,.1h-1.2s0,0,0,0v-14.7c0-.1,.1-.2,.2-.2Z"/><path class="aa" d="M38.6,57.4h.9c.1,0,.2,.1,.2,.2v14.6c0,0,0,.1-.1,.1h-1.2s0,0,0,0v-14.7c0-.1,.1-.2,.2-.2Z"/><path class="y" d="M68.4,57.4h.9c.1,0,.2,.1,.2,.2v14.6c0,0,0,.1-.1,.1h-1.2s0,0,0,0v-14.7c0-.1,.1-.2,.2-.2Z"/><path class="q" d="M58.5,57.4h.9c.1,0,.2,.1,.2,.2v14.6c0,0,0,.1-.1,.1h-1.2s0,0,0,0v-14.7c0-.1,.1-.2,.2-.2Z"/><path class="s" d="M102.1,57.4h.9c.1,0,.2,.1,.2,.2v14.6c0,0,0,.1-.1,.1h-1.2s0,0,0,0v-14.7c0-.1,.1-.2,.2-.2Z"/><path class="t" d="M92.2,57.4h.9c.1,0,.2,.1,.2,.2v14.6c0,0,0,.1-.1,.1h-1.2s0,0,0,0v-14.7c0-.1,.1-.2,.2-.2Z"/><path class="p" d="M14.6,57.4h.9c.1,0,.2,.1,.2,.2v14.6c0,0,0,.1-.1,.1h-1.2s0,0,0,0v-14.7c0-.1,.1-.2,.2-.2Z"/><path class="v" d="M4.7,57.4h.9c.1,0,.2,.1,.2,.2v14.6c0,0,0,.1-.1,.1h-1.2s0,0,0,0v-14.7c0-.1,.1-.2,.2-.2Z"/><path class="x" d="M53.3,3.8h.9c.1,0,.2,.1,.2,.2V111.2c0,0,0,.1-.1,.1h-1.1s0,0,0,0V4c0-.1,.1-.2,.2-.2Z" transform="translate(-3.8 111.3) rotate(-90)"/><path class="r" d="M53.3,18.5h.9c.1,0,.2,.1,.2,.2V125.9c0,0,0,.1-.1,.1h-1.1s0,0,0,0V18.7c0-.1,.1-.2,.2-.2Z" transform="translate(-18.5 126) rotate(-90)"/></g><path class="w" d="M25.4,52.7h3.1c.6,0,1.1,.5,1.1,1.1v22.3c0,.5-.4,1-1,1h-3.4c-.5,0-.9-.4-.9-.9v-22.3c0-.6,.5-1.1,1.1-1.1Z" transform="translate(54 129.8) rotate(180)"/><path class="u" d="M79.2,52.7h3.1c.6,0,1.1,.5,1.1,1.1v22.3c0,.5-.4,1-1,1h-3.4c-.5,0-.9-.4-.9-.9v-22.3c0-.6,.5-1.1,1.1-1.1Z"/></g></g></g></svg>