<?xml version="1.0" standalone="no"?><!DOCTYPE svg PUBLIC "-//W3C//DTD SVG 1.1//EN" "http://www.w3.org/Graphics/SVG/1.1/DTD/svg11.dtd"><svg t="1692173660949" class="icon" viewBox="0 0 1024 1024" version="1.1" xmlns="http://www.w3.org/2000/svg" p-id="15563" xmlns:xlink="http://www.w3.org/1999/xlink" width="12" height="12"><path d="M902.4 173.76h-52.16a24.64 24.64 0 0 0-25.92 25.92v78.08H199.68V199.68a24.64 24.64 0 0 0-25.92-25.92H121.6a24.64 24.64 0 0 0-25.6 25.92v624.64a24.64 24.64 0 0 0 25.92 25.92h51.84a24.64 24.64 0 0 0 25.92-25.92v-76.16h624.64v76.48a24.64 24.64 0 0 0 25.92 25.92h52.16a24.64 24.64 0 0 0 25.92-25.92V199.68a24.64 24.64 0 0 0-25.92-25.92zM240 672H224a24 24 0 0 1-24-24v-272A24 24 0 0 1 224 352h16a24 24 0 0 1 24 24v272a24 24 0 0 1-24 24z m142.08 0h-16a24 24 0 0 1-24-24v-272a24 24 0 0 1 24-24h16a24 24 0 0 1 24 24v272a24 24 0 0 1-24 24z m142.08 0h-16a24 24 0 0 1-24-24v-272a24 24 0 0 1 24-24h16a24 24 0 0 1 24 24v272a24 24 0 0 1-24 24z m142.08 0h-16a24 24 0 0 1-24-24v-272a24 24 0 0 1 24-24h16a24 24 0 0 1 24 24v272a24 24 0 0 1-24.32 24z m142.08 0h-16a24 24 0 0 1-24-24v-272a24 24 0 0 1 24-24h16a24 24 0 0 1 24 24v272a24 24 0 0 1-24.32 24z" fill="#fceaa0" p-id="15564"></path></svg>