<?xml version="1.0" encoding="UTF-8"?>
<svg id="b" xmlns="http://www.w3.org/2000/svg" width="28" height="28"
    xmlns:xlink="http://www.w3.org/1999/xlink" viewBox="0 0 28 28">
    <defs>
        <linearGradient id="d" x1="-2036.5" y1="79" x2="-2036.5" y2="78.4"
            gradientTransform="translate(-827.5 20461.3) rotate(90) scale(10 -10.8)"
            gradientUnits="userSpaceOnUse">
            <stop offset="0" stop-color="#ca4916" />
            <stop offset="1" stop-color="#f7ad5d" />
        </linearGradient>
    </defs>
    <g id="c">
        <rect width="28" height="28" style="fill:none; stroke-width:0px;" />
        <path
            d="m13.9,12.6h7.1v-2.4c0-.4.2-.8.6-1,.4-.2.8-.1,1.1.1l4.7,3.9c.5.4.6,1.2.1,1.7,0,0,0,0-.1.1l-4.7,3.9c-.3.3-.7.3-1.1.1-.4-.2-.6-.6-.6-1v-2.4h-7.1c0-.4,0-.9,0-1.3s0-1.1,0-1.6h0Z"
            style="fill:url(#d); stroke-width:0px;" />
    </g>
</svg>