<?xml version="1.0" encoding="UTF-8"?>
<svg id="b" xmlns="http://www.w3.org/2000/svg" width="69.7" height="136"
    xmlns:xlink="http://www.w3.org/1999/xlink" viewBox="0 0 69.7 136">
    <defs>
        <radialGradient id="d" cx="16.6" cy="167.7" fx="16.6" fy="167.7" r="1.3"
            gradientTransform="translate(-4555.9 6707) rotate(38.9) scale(76 -48) skewX(-8.4)"
            gradientUnits="userSpaceOnUse">
            <stop offset="0" stop-color="#ff9287" />
            <stop offset=".8" stop-color="#ff5f4c" />
            <stop offset="1" stop-color="#ff5f4c" />
        </radialGradient>
        <radialGradient id="e" cx="16.4" cy="167.9" fx="16.4" fy="167.9" r=".5"
            gradientTransform="translate(-867.4 9288.4) scale(54.9 -54.9)"
            gradientUnits="userSpaceOnUse">
            <stop offset="0" stop-color="#e75545" />
            <stop offset=".8" stop-color="#c4483b" />
            <stop offset="1" stop-color="#983b31" />
        </radialGradient>
    </defs>
    <g id="c">
        <rect x="0" width="69.7" height="136" style="fill:rgba(255,255,255,0); stroke-width:0px;" />
        <ellipse cx="34.8" cy="123.5" rx="24.2" ry="8.5"
            style="fill:#ff5f4c; isolation:isolate; opacity:.3; stroke-width:0px;" />
        <ellipse cx="34.8" cy="123.5" rx="8.5" ry="3.3"
            style="fill:#a74d4b; isolation:isolate; opacity:.7; stroke-width:0px;" />
        <path
            d="m23,104.9c-.5-.5-1-1-1.5-1.5C8.2,97.4-.2,84.2,0,69.7,0,49.6,15.6,33.3,34.8,33.3s34.8,16.3,34.8,36.4-9,28.3-21.7,33.7c-.4.4-.8.9-1.2,1.4-4.7,5.6-8.6,11.9-11.5,18.6,0,0-5-11.2-12.4-18.6Z"
            style="fill:url(#d); stroke-width:0px;" />
        <circle cx="34.5" cy="68.4" r="27.5" style="fill:url(#e); stroke-width:0px;" />
        <circle cx="34.8" cy="68" r="30" style="fill:#fff; stroke-width:0px;" />
        <circle cx="34.8" cy="68" r="28.5" style="fill:none; stroke:#db4646; stroke-width:3px;" />
        <path
            d="m34.8,92c-3.2,0-6.4-.6-9.3-1.9-2.9-1.2-5.4-2.9-7.6-5.1-2.2-2.2-3.9-4.8-5.1-7.6-1.3-3-1.9-6.1-1.9-9.3s.6-6.4,1.9-9.3c1.2-2.9,2.9-5.4,5.1-7.6,2.2-2.2,4.8-3.9,7.6-5.1,3-1.3,6.1-1.9,9.3-1.9s6.4.6,9.3,1.9c2.9,1.2,5.4,2.9,7.6,5.1,2.2,2.2,3.9,4.8,5.1,7.6,1.3,3,1.9,6.1,1.9,9.3s-.6,6.4-1.9,9.3c-1.2,2.9-2.9,5.4-5.1,7.6-2.2,2.2-4.8,3.9-7.6,5.1-3,1.3-6.1,1.9-9.3,1.9Z"
            style="fill:#fff; stroke-width:0px;" />
        <path
            d="m34.8,46c-3,0-5.9.6-8.6,1.7-2.6,1.1-5,2.7-7,4.7-2,2-3.6,4.4-4.7,7-1.1,2.7-1.7,5.6-1.7,8.6s.6,5.9,1.7,8.6c1.1,2.6,2.7,5,4.7,7,2,2,4.4,3.6,7,4.7,2.7,1.1,5.6,1.7,8.6,1.7s5.9-.6,8.6-1.7c2.6-1.1,5-2.7,7-4.7,2-2,3.6-4.4,4.7-7,1.1-2.7,1.7-5.6,1.7-8.6s-.6-5.9-1.7-8.6c-1.1-2.6-2.7-5-4.7-7-2-2-4.4-3.6-7-4.7-2.7-1.1-5.6-1.7-8.6-1.7m0-4c14.4,0,26,11.6,26,26s-11.6,26-26,26-26-11.6-26-26,11.6-26,26-26Z"
            style="fill:#2a23f5; stroke-width:0px;" />
    </g>
</svg>