<svg xmlns="http://www.w3.org/2000/svg" xmlns:xlink="http://www.w3.org/1999/xlink" width="296" height="296" viewBox="0 0 296 296"><defs><style>.a{opacity:0;isolation:isolate;}.b{fill:#545e6c;opacity:0.999;}.c{fill:rgba(255,255,255,0.12);stroke:#f7ad5d;}.d{fill:rgba(255,255,255,0.11);stroke:rgba(255,255,255,0.67);opacity:0.459;}.e{stroke:rgba(0,0,0,0);stroke-miterlimit:10;fill:url(#a);}.f{stroke:none;}.g{fill:none;}</style><linearGradient id="a" x1="0.5" y1="0.267" x2="0.5" y2="0.712" gradientUnits="objectBoundingBox"><stop offset="0" stop-color="#ca4916"/><stop offset="1" stop-color="#f7ad5d"/></linearGradient></defs><g transform="translate(-243 -404)"><g transform="translate(1762 -801) rotate(90)"><g class="a" transform="translate(1205 1231)"><rect class="b" width="296" height="296" transform="translate(0 -8)"/></g><g transform="translate(1250 1231)"><g class="c" transform="translate(13 50)"><circle class="f" cx="90" cy="90" r="90"/><circle class="g" cx="90" cy="90" r="89.5"/></g><g class="d" transform="translate(35 72)"><circle class="f" cx="68" cy="68" r="68"/><circle class="g" cx="68" cy="68" r="67.5"/></g><path class="e" d="M18.942,57.189V36.331H6.056A6,6,0,0,1,.535,32.946a5.356,5.356,0,0,1,.753-5.814L21.849,2.2a6.269,6.269,0,0,1,9.537,0L51.947,27.132a5.356,5.356,0,0,1,.753,5.814,6,6,0,0,1-5.521,3.386H34.293V57.1c-2.29-.125-4.628-.189-6.947-.189-2.8,0-5.622.093-8.4.277Z" transform="translate(76.383 -6.188)"/></g></g></g></svg>