<?xml version="1.0" encoding="UTF-8"?><svg id="b" xmlns="http://www.w3.org/2000/svg" width="124.7" height="124.7" xmlns:xlink="http://www.w3.org/1999/xlink" viewBox="0 0 124.7 124.7"><defs><style>.i{fill:url(#f);}.j{fill:#fff;}.k{fill:#1566e8;}.l,.m{fill:#535a60;}.n{fill:#262d34;isolation:isolate;opacity:.2;}.o{fill:url(#g);stroke:#8b9fae;stroke-miterlimit:10;stroke-width:1px;}.m{opacity:0;}</style><linearGradient id="f" x1="60.1" y1="50.4" x2="64.9" y2="50.4" gradientUnits="userSpaceOnUse"><stop offset="0" stop-color="#989898"/><stop offset="0" stop-color="#a3a3a3"/><stop offset=".1" stop-color="#c4c5c5"/><stop offset=".2" stop-color="#d8d9d9"/><stop offset=".3" stop-color="#e0e1e1"/><stop offset=".4" stop-color="#dbdcdc"/><stop offset=".5" stop-color="#cccece"/><stop offset=".6" stop-color="#b5b6b7"/><stop offset=".7" stop-color="#949697"/><stop offset=".8" stop-color="#6a6c6f"/><stop offset=".8" stop-color="#3f4246"/><stop offset="1" stop-color="#404247"/><stop offset="1" stop-color="#43434a"/></linearGradient><linearGradient id="g" x1="40.1" y1="23.8" x2="84.6" y2="23.8" gradientUnits="userSpaceOnUse"><stop offset="0" stop-color="#afbacb"/><stop offset=".1" stop-color="#c1ccda"/><stop offset=".4" stop-color="#d9e6f0"/><stop offset=".5" stop-color="#e3f0f8"/><stop offset=".6" stop-color="#dde9f2"/><stop offset=".8" stop-color="#ccd8e4"/><stop offset="1" stop-color="#b1bbcc"/><stop offset="1" stop-color="#aeb8c9"/></linearGradient></defs><g id="c"><g><rect class="m" y="0" width="124.7" height="124.7"/><g><ellipse id="d" class="n" cx="62.4" cy="61.8" rx="14.4" ry="3.7"/><ellipse id="e" class="l" cx="62.4" cy="61.8" rx="7.5" ry="3"/><path class="i" d="M62.4,38.3h0c1.4,0,2.6,1.2,2.6,2.6v19.2c0,1.4-1.1,2.5-2.5,2.5h-.3c-1.4,0-2.5-1.1-2.5-2.5v-19.3c0-1.4,1.2-2.6,2.6-2.6Z"/><rect class="o" x="40.1" y=".5" width="44.5" height="46.6" rx="14.4" ry="14.4"/><rect class="k" x="40.6" y="2.6" width="43.5" height="44" rx="14.1" ry="14.1"/><path id="h" class="j" d="M46,10.1c-.3,0-.6-.2-.7-.4s0-.6,.1-.8c1.3-1.6,3-2.9,4.8-3.9,.2,0,.4-.1,.6,0,.2,0,.4,.2,.5,.4,.2,.4,0,.9-.3,1.1-1.7,.9-3.1,2.1-4.3,3.5-.2,.2-.4,.3-.6,.3h0Zm-1.8,2.6c-.1,0-.3,0-.4-.1-.2-.1-.3-.3-.4-.5,0-.2,0-.4,.1-.6l.3-.4c.1-.2,.3-.3,.5-.4,.2,0,.4,0,.6,0,.2,.1,.3,.3,.4,.5s0,.4-.1,.6l-.3,.4c-.1,.2-.4,.4-.7,.4h0Z"/><g><path class="j" d="M68.5,35.5h-16.3V13.7h16.3v3.6h2v-5.3h-20.2v25.2h20.2v-3.5h-2v1.8Z"/><path class="j" d="M57.3,19.7c0,2.1,1.7,3.7,3.8,3.7s3.8-1.7,3.8-3.7-1.7-3.7-3.8-3.7-3.8,1.7-3.8,3.7h0Z"/><path class="j" d="M73.3,29.4s0,0-.1,0h0s-3.6,0-3.6,0l-5.3-5.2h-6.7s-1.3,.2-2.4,2v6.1h10.6v-2.5s.3-.1,.6,0c.4,.1,2.5,2.5,2.5,2.5h4.6c.5-.1,.9-.7,.9-1.4,0-.8-.5-1.4-1.1-1.4h0Zm2.4,0h3.2v2.7h-3.2v-2.7Z"/></g></g></g></g></svg>