<?xml version="1.0" encoding="UTF-8"?><svg id="b" xmlns="http://www.w3.org/2000/svg" width="45.4" height="39.7" xmlns:xlink="http://www.w3.org/1999/xlink" viewBox="0 0 45.4 39.7"><defs><style>.p{fill:url(#i);}.q{fill:url(#o);}.r{fill:url(#n);}.s{fill:url(#f);}.t{fill:none;}.u{fill:url(#j);}.u,.v{stroke:#706a69;stroke-miterlimit:10;stroke-width:.3px;}.v{fill:url(#l);}.w{fill:#ffc840;}.x{fill:#ff4649;}.y{fill:#333;}.z{fill:#535a60;}.aa{fill:#262d34;isolation:isolate;opacity:.2;}.ab{clip-path:url(#k);}.ac{clip-path:url(#m);}</style><linearGradient id="f" x1="31" y1="21.8" x2="33.7" y2="21.8" gradientUnits="userSpaceOnUse"><stop offset="0" stop-color="#989898"/><stop offset=".1" stop-color="#c1c1c1"/><stop offset=".3" stop-color="#e3e3e3"/><stop offset=".4" stop-color="#f7f7f7"/><stop offset=".5" stop-color="#fff"/><stop offset=".6" stop-color="#fbfbfb"/><stop offset=".6" stop-color="#f1f2f2"/><stop offset=".7" stop-color="#e0e1e2"/><stop offset=".8" stop-color="#c9c9cb"/><stop offset=".8" stop-color="#aaabad"/><stop offset=".9" stop-color="#848689"/><stop offset="1" stop-color="#585b5e"/><stop offset="1" stop-color="#3f4246"/></linearGradient><linearGradient id="i" x1="10.6" y1="21.8" x2="13.2" y2="21.8" xlink:href="#f"/><linearGradient id="j" x1="1.9" y1="12.9" x2="43.5" y2="12.9" xlink:href="#f"/><clipPath id="k"><rect class="t" x="2.9" y="9.6" width="39.7" height="7.2" rx=".2" ry=".2"/></clipPath><linearGradient id="l" x1="1.9" y1="24.4" x2="43.5" y2="24.4" xlink:href="#f"/><clipPath id="m"><rect class="t" x="2.5" y="21.1" width="40.5" height="7.2" rx=".2" ry=".2"/></clipPath><radialGradient id="n" cx="11" cy="1.1" fx="11" fy="1.1" r="1.7" gradientTransform="translate(1.6 4.1) scale(.9)" gradientUnits="userSpaceOnUse"><stop offset=".5" stop-color="#fff"/><stop offset=".5" stop-color="#fffdf4"/><stop offset=".8" stop-color="#ffea93"/><stop offset=".9" stop-color="#ffdf56"/><stop offset="1" stop-color="#ffdb3f"/></radialGradient><radialGradient id="o" cx="33" fx="33" xlink:href="#n"/></defs><g id="c"><g><rect class="t" width="45.4" height="39.7"/><g><ellipse id="d" class="aa" cx="32.3" cy="37" rx="5.6" ry="1.5"/><ellipse id="e" class="z" cx="32.3" cy="37" rx="2.9" ry="1.2"/><path class="s" d="M31.3,6.5h1.9c.3,0,.5,.2,.5,.5v29.4c0,.3-.2,.5-.5,.5h-2c-.3,0-.5-.2-.5-.5V7.1c0-.3,.2-.5,.5-.5Z"/></g><g><ellipse id="g" class="aa" cx="11.8" cy="37.1" rx="5.6" ry="1.4"/><ellipse id="h" class="z" cx="11.8" cy="37.1" rx="2.9" ry="1.1"/><path class="p" d="M10.9,6.5h1.9c.3,0,.5,.2,.5,.5v29.5c0,.3-.2,.5-.5,.5h-2c-.3,0-.5-.2-.5-.5V7.1c0-.3,.2-.5,.5-.5Z"/></g><rect class="u" x="1.9" y="8.3" width="41.6" height="9.1" rx=".2" ry=".2"/><rect x="1.9" y="9" width="41.6" height="8.5" rx=".2" ry=".2"/><rect class="w" x="2.5" y="9.6" width="40.5" height="7.2" rx=".2" ry=".2"/><g class="ab"><polygon class="y" points="6.4 18.7 2.3 17.7 9.8 6.6 13.9 7.6 6.4 18.7"/><polygon class="y" points="16.3 19.1 11.9 18.1 19.5 7 23.8 8 16.3 19.1"/><polygon class="y" points="35.6 19 31.3 18 38.9 6.9 43.2 7.9 35.6 19"/><polygon class="y" points="26.1 18.5 21.6 17.5 29.3 6.4 33.8 7.5 26.1 18.5"/></g><rect class="v" x="1.9" y="19.8" width="41.6" height="9.1" rx=".2" ry=".2"/><rect x="1.9" y="20.5" width="41.6" height="8.5" rx=".2" ry=".2"/><rect class="w" x="2.5" y="21.1" width="40.5" height="7.2" rx=".2" ry=".2"/><g class="ac"><polygon class="y" points="6.1 30.2 1.9 29.2 9.5 18.1 13.8 19.1 6.1 30.2"/><polygon class="y" points="16.2 30.6 11.8 29.6 19.5 18.5 23.9 19.5 16.2 30.6"/><polygon class="y" points="35.9 30.5 31.5 29.5 39.2 18.4 43.6 19.4 35.9 30.5"/><polygon class="y" points="26.2 30.1 21.6 29 29.4 17.9 34 19 26.2 30.1"/></g><g><circle class="x" cx="11.9" cy="5.1" r="2.3"/><circle class="r" cx="11.9" cy="5.1" r="1.4"/></g><g><circle class="x" cx="32.3" cy="5.1" r="2.3"/><circle class="q" cx="32.3" cy="5.1" r="1.4"/></g></g></g></svg>