<?xml version="1.0" encoding="UTF-8"?><svg id="b" xmlns="http://www.w3.org/2000/svg" width="131.3" height="131.3" xmlns:xlink="http://www.w3.org/1999/xlink" viewBox="0 0 131.3 131.3"><defs><style>.i{fill:url(#g);}.j{fill:url(#h);stroke:#8b9fae;stroke-miterlimit:10;stroke-width:1.1px;}.k{fill:#fff;}.l{fill:#1566e8;}.m{fill:#535a60;}.n{fill:none;opacity:0;}.o{fill:#262d34;isolation:isolate;opacity:.2;}</style><linearGradient id="g" x1="63.4" y1="374.1" x2="68.2" y2="374.1" gradientTransform="translate(0 428.8) scale(1 -1)" gradientUnits="userSpaceOnUse"><stop offset="0" stop-color="#989898"/><stop offset="0" stop-color="#a3a3a3"/><stop offset="0" stop-color="#c4c5c5"/><stop offset=".2" stop-color="#d8d9d9"/><stop offset=".3" stop-color="#e0e1e1"/><stop offset=".4" stop-color="#dbdcdc"/><stop offset=".5" stop-color="#cccece"/><stop offset=".6" stop-color="#b5b6b7"/><stop offset=".7" stop-color="#949697"/><stop offset=".8" stop-color="#6a6c6f"/><stop offset=".8" stop-color="#3f4246"/><stop offset="1" stop-color="#404247"/><stop offset="1" stop-color="#43434a"/></linearGradient><linearGradient id="h" x1="41.1" y1="402.1" x2="90.2" y2="402.1" gradientTransform="translate(0 428.8) scale(1 -1)" gradientUnits="userSpaceOnUse"><stop offset="0" stop-color="#afbacb"/><stop offset="0" stop-color="#c1ccda"/><stop offset=".4" stop-color="#d9e6f0"/><stop offset=".5" stop-color="#e3f0f8"/><stop offset=".6" stop-color="#dde9f2"/><stop offset=".8" stop-color="#ccd8e4"/><stop offset="1" stop-color="#b1bbcc"/><stop offset="1" stop-color="#aeb8c9"/></linearGradient></defs><g id="c"><g id="d"><g><rect class="n" width="131.3" height="131.3"/><g><ellipse id="e" class="o" cx="65.7" cy="66.2" rx="14.4" ry="3.7"/><ellipse id="f" class="m" cx="65.7" cy="66.2" rx="7.5" ry="3"/><path class="i" d="M65.7,42.6h0c1.4,0,2.6,1.2,2.6,2.6v19.2c0,1.4-1.1,2.5-2.5,2.5h-.3c-1.4,0-2.5-1.1-2.5-2.5v-19.3c0-1.4,1.2-2.6,2.6-2.6h.1Z"/><path class="j" d="M65.6,1h0c13.5,0,24.5,11,24.5,24.5v2.4c0,13.5-11,24.5-24.5,24.5h0c-13.5,0-24.5-11-24.5-24.5v-2.4c0-13.5,11-24.5,24.5-24.5Z"/><path class="l" d="M65.7,3.3h0c13.3,0,24,10.7,24,24v.5c0,13.3-10.7,24-24,24h0c-13.3,0-24-10.7-24-24v-.5c0-13.3,10.7-24,24-24Z"/><g><path class="k" d="M55,10.3l3.5-1.7-1.4,3.9,.3,.8c8.4-3.6,15-2.4,21,3.9l-2.3,1.8c-4.8-5.2-10.8-6.1-17.4-3l.4,1,4.2,.9-3.5,2.1-7.9-2.6,3-7.1h.1Z"/><path class="k" d="M55.2,46l-3.2-2.2,4.1-.7,.5-.7c-7.2-5.4-9.5-11.7-7-19.9l2.7,1c-2.1,6.8,0,12.3,6.1,16.4l.6-.8-1.2-4.1,3.6,1.9,1.7,8.1-7.7,.9h-.2Z"/><path class="k" d="M86.5,27.8l-.3,3.9-2.7-3.2h-.8c-1,8.9-5.2,14-13.7,16l-.5-2.8c7-1.7,10.8-6.3,11.2-13.6h-1l-2.8,3.1-.2-4.1,6.1-5.5,4.8,6.1h0Z"/></g><g><path class="k" d="M60.6,30.4v.4c-.5,0-2.6,.4-3.1,.5v-1.1l1-.2v-1.8h-.8v-1.1h.8v-1.5h-.9v-1.1h2.9v1.1h-.9v1.5h.8v1.1h-.8v1.6l.9-.2v.7h0Zm4.3-.1c-.5-.7-1.2-1.6-1.7-2.2v4h-1.1v-3.5c-.3,.5-.7,1-1.2,1.4l-.8-.9c1-1,1.7-2.2,2.3-3.5h-1.6v-1.2h4.4v1.2h-1.6c-.2,.5-.4,1-.6,1.4h.3v.3l.3-.3c.6,.5,1.6,1.6,2.1,2.3l-.7,.9h-.1Z"/><path class="k" d="M71.8,31.2h-5.1v-2.2h1.1v1.2h1v-1.4h1.1v1.4h.9v-1.2h1.1v2.2h0Zm2-3.4s0,2.8,0,3c0,1-.3,1.3-1.1,1.3h-.9l-.3-.8h.7c.4,0,.4-.3,.4-.8v-1.9h-5.4v-4h1.7c0-.2,.2-.5,.3-.7h1.2c0,.3,0,.5-.2,.7h2.8v1.7c0,1-.4,1.1-1.2,1.2h-.6l-.3-.8h.5c.4,0,.5-.2,.5-.4v-.7h-2.4c.4,.3,.8,.6,1.1,.9l-.6,.8c-.4-.4-.9-.8-1.3-1.1l.5-.6h-.8v2.1h5.5Z"/></g></g></g></g></g></svg>