<?xml version="1.0" standalone="no"?><!DOCTYPE svg PUBLIC "-//W3C//DTD SVG 1.1//EN" "http://www.w3.org/Graphics/SVG/1.1/DTD/svg11.dtd"><svg t="1692693298865" class="icon" viewBox="0 0 1024 1024" version="1.1" xmlns="http://www.w3.org/2000/svg" p-id="10694" xmlns:xlink="http://www.w3.org/1999/xlink" width="56" height="56"><path d="M512 0c187.733333 0 341.333333 146.773333 341.333333 329.386667v11.946666c-3.413333 109.226667-66.56 230.4-168.96 354.986667-49.493333 58.026667-102.4 114.346667-160.426666 163.84l-11.946667 10.24-11.946667-10.24-15.36-13.653333c-51.2-46.08-100.693333-97.28-145.066666-150.186667C237.226667 571.733333 175.786667 448.853333 170.666667 341.333333v-11.946666C170.666667 150.186667 319.146667 3.413333 503.466667 0h8.533333z" fill="#2D54EC" p-id="10695"></path><path d="M609.28 455.68h29.013333c8.533333 0 10.24-6.826667 11.946667-15.36 0-6.826667-8.533333-13.653333-17.066667-13.653333h-11.946666c0-1.706667-1.706667-1.706667-3.413334-3.413334l-42.666666-39.253333c-1.706667-1.706667-5.12-5.12-5.12-3.413333-5.12-11.946667-18.773333-20.48-32.426667-20.48H477.866667c-20.48 0-23.893333 8.533333-23.893334 27.306666v83.626667h112.64V426.666667l25.6 18.773333 5.12 5.12c1.706667 3.413333 5.12 5.12 11.946667 5.12z m-95.573333-109.226667c25.6 0 47.786667-20.48 47.786666-44.373333 0-25.6-20.48-44.373333-47.786666-44.373333-25.6 0-47.786667 20.48-47.786667 44.373333 0 23.893333 20.48 44.373333 47.786667 44.373333z m107.52-112.64v46.08h18.773333V187.733333H375.466667v358.4h264.533333v-76.8h-18.773333v27.306667H413.013333V233.813333h208.213334z" fill="#FFFFFF" p-id="10696"></path><path d="M204.8 921.6a307.2 102.4 0 1 0 614.4 0 307.2 102.4 0 1 0-614.4 0Z" fill="#2D54EC" opacity=".366" p-id="10697"></path><path d="M409.6 921.6a102.4 34.133333 0 1 0 204.8 0 102.4 34.133333 0 1 0-204.8 0Z" fill="#2D54EC" p-id="10698"></path></svg>