<?xml version="1.0" encoding="UTF-8"?><svg id="b" xmlns="http://www.w3.org/2000/svg" width="70" height="94" xmlns:xlink="http://www.w3.org/1999/xlink" viewBox="0 0 70 94"><defs><style>.h{stroke:#db4646;stroke-width:2.1px;}.h,.i{fill:none;}.j{fill:#a74d4b;opacity:.7;}.j,.i,.k,.l,.m,.n,.o{stroke-width:0px;}.j,.k{isolation:isolate;}.i{opacity:0;}.k{fill:#ff5f4c;opacity:.3;}.l{fill:#2a23f5;}.m{fill:#fff;}.n{fill:url(#f);}.o{fill:url(#g);}</style><radialGradient id="f" cx="-3.7" cy="281" fx="-3.7" fy="281" r="1.3" gradientTransform="translate(4499.7 -8568.4) rotate(38.1) scale(54 33.9) skewX(7.5)" gradientUnits="userSpaceOnUse"><stop offset="0" stop-color="#ff9287"/><stop offset=".8" stop-color="#ff5f4c"/><stop offset="1" stop-color="#ff5f4c"/></radialGradient><radialGradient id="g" cx="-4.7" cy="282.1" fx="-4.7" fy="282.1" r=".5" gradientTransform="translate(218.3 -10783.8) scale(39.4 38.4)" gradientUnits="userSpaceOnUse"><stop offset="0" stop-color="#e75545"/><stop offset=".8" stop-color="#c4483b"/><stop offset="1" stop-color="#983b31"/></radialGradient></defs><g id="c"><ellipse id="d" class="k" cx="35" cy="83.9" rx="14.4" ry="3.7"/><ellipse id="e" class="j" cx="35" cy="83.9" rx="7.5" ry="3"/><path class="n" d="m26.2,71l-1.1-1c-9.6-4.2-15.6-13.4-15.4-23.6,0-14.1,11.2-25.5,25-25.5s25,11.4,25,25.5-6.5,19.8-15.6,23.6c-.3.3-.6.6-.9,1-3.4,3.9-6.2,8.3-8.3,13,0,0-3.6-7.8-8.9-13h.1Z"/><ellipse class="o" cx="34.5" cy="45.4" rx="19.8" ry="19.2"/><ellipse class="m" cx="34.7" cy="45.2" rx="21.6" ry="21"/><ellipse class="h" cx="34.7" cy="45.2" rx="20.5" ry="19.9"/><path class="m" d="m34.7,61.9c-2.3,0-4.6-.4-6.7-1.3-2.1-.8-3.9-2-5.5-3.6-1.6-1.5-2.8-3.4-3.7-5.3-.9-2.1-1.4-4.3-1.4-6.5s.4-4.5,1.4-6.5c.9-2,2.1-3.8,3.7-5.3,1.6-1.5,3.4-2.7,5.5-3.6,2.2-.9,4.4-1.3,6.7-1.3s4.6.4,6.7,1.3c2.1.8,3.9,2,5.5,3.6s2.8,3.4,3.7,5.3c.9,2.1,1.4,4.3,1.4,6.5s-.4,4.5-1.4,6.5c-.9,2-2.1,3.8-3.7,5.3-1.6,1.5-3.4,2.7-5.5,3.6-2.2.9-4.4,1.3-6.7,1.3Z"/><path class="l" d="m34.7,29.8c-2.2,0-4.2.4-6.2,1.2-1.9.8-3.6,1.9-5,3.3s-2.6,3.1-3.4,4.9c-.8,1.9-1.2,3.9-1.2,6s.4,4.1,1.2,6c.8,1.8,1.9,3.5,3.4,4.9s3.2,2.5,5,3.3c1.9.8,4,1.2,6.2,1.2s4.2-.4,6.2-1.2c1.9-.8,3.6-1.9,5-3.3s2.6-3.1,3.4-4.9c.8-1.9,1.2-3.9,1.2-6s-.4-4.1-1.2-6c-.8-1.8-1.9-3.5-3.4-4.9s-3.2-2.5-5-3.3c-1.9-.8-4-1.2-6.2-1.2m0-2.8c10.3,0,18.7,8.1,18.7,18.2s-8.3,18.2-18.7,18.2-18.7-8.1-18.7-18.2,8.3-18.2,18.7-18.2Z"/><circle class="m" cx="34.8" cy="45.3" r="15.7"/><rect class="i" width="70" height="94"/></g></svg>