<?xml version="1.0" encoding="UTF-8"?>
<svg id="b" xmlns="http://www.w3.org/2000/svg" width="24" height="24"
    xmlns:xlink="http://www.w3.org/1999/xlink" viewBox="0 0 24 24">
    <defs>
        <style>
            .k{fill:none;}.k,.l,.m,.n,.o,.p,.q,.r{stroke-width:0px;}.l{fill:url(#e);}.m{fill:url(#f);}.n{fill:url(#d);}.o{fill:url(#j);}.p{fill:url(#i);}.q{fill:url(#h);}.r{fill:url(#g);}
        </style>
        <linearGradient id="d" x1="21.1" y1="12" x2="22.1" y2="12" gradientUnits="userSpaceOnUse">
            <stop offset="0" stop-color="#231815" />
            <stop offset="0" stop-color="#372d2a" />
            <stop offset="0" stop-color="#655d5b" />
            <stop offset=".1" stop-color="#8e8987" />
            <stop offset=".2" stop-color="#b1adac" />
            <stop offset=".2" stop-color="#cdcbca" />
            <stop offset=".3" stop-color="#e3e2e1" />
            <stop offset=".3" stop-color="#f2f2f2" />
            <stop offset=".4" stop-color="#fcfbfb" />
            <stop offset=".5" stop-color="#fff" />
            <stop offset=".7" stop-color="#fcfcfc" />
            <stop offset=".7" stop-color="#f5f5f5" />
            <stop offset=".8" stop-color="#e9e8e8" />
            <stop offset=".8" stop-color="#d8d6d6" />
            <stop offset=".9" stop-color="#c2bfbe" />
            <stop offset=".9" stop-color="#a6a2a1" />
            <stop offset=".9" stop-color="#85807e" />
            <stop offset="1" stop-color="#605957" />
            <stop offset="1" stop-color="#3a312f" />
            <stop offset="1" stop-color="#453d3b" />
            <stop offset="1" stop-color="#65605f" />
            <stop offset="1" stop-color="#7f7c7b" />
            <stop offset="1" stop-color="#91908f" />
            <stop offset="1" stop-color="#9c9c9b" />
            <stop offset="1" stop-color="#a0a0a0" />
        </linearGradient>
        <linearGradient id="e" x1="16.3" y1="12" x2="17.3" y2="12" xlink:href="#d" />
        <linearGradient id="f" x1="6.6" y1="12" x2="7.6" y2="12" xlink:href="#d" />
        <linearGradient id="g" x1="1.8" y1="12" x2="2.8" y2="12" xlink:href="#d" />
        <linearGradient id="h" x1="-1310.2" y1="19.9" x2="-1308.2" y2="19.9"
            gradientTransform="translate(1321.2 -15.4)" xlink:href="#d" />
        <linearGradient id="i" x1="-1325.3" y1="19.9" x2="-1323.3" y2="19.9"
            gradientTransform="translate(1336.3 -.3)" xlink:href="#d" />
        <linearGradient id="j" x1="-1367.1" y1="-1325.4" x2="-1364.7" y2="-1325.4"
            gradientTransform="translate(1377.9 1337.4)" gradientUnits="userSpaceOnUse">
            <stop offset="0" stop-color="#989898" />
            <stop offset="0" stop-color="#a3a3a3" />
            <stop offset=".1" stop-color="#c4c5c5" />
            <stop offset=".2" stop-color="#d8d9d9" />
            <stop offset=".3" stop-color="#e0e1e1" />
            <stop offset=".4" stop-color="#dbdcdc" />
            <stop offset=".5" stop-color="#cccece" />
            <stop offset=".6" stop-color="#b5b6b7" />
            <stop offset=".7" stop-color="#949697" />
            <stop offset=".8" stop-color="#6a6c6f" />
            <stop offset=".8" stop-color="#3f4246" />
            <stop offset="1" stop-color="#404247" />
            <stop offset="1" stop-color="#43434a" />
        </linearGradient>
    </defs>
    <g id="c">
        <rect class="k" width="24" height="24" />
        <path class="n"
            d="m21.3,4.3h.5c.1,0,.2.1.2.2v15c0,0,0,.1-.1.1h-.8s0,0,0,0V4.5c0-.1.1-.2.2-.2Z" />
        <path class="l"
            d="m16.5,4.3h.5c.1,0,.2.1.2.2v15c0,0,0,.1-.1.1h-.8s0,0,0,0V4.5c0-.1.1-.2.2-.2Z" />
        <path class="m"
            d="m6.9,4.3h.5c.1,0,.2.1.2.2v15c0,0,0,.1-.1.1h-.8s0,0,0,0V4.5c0-.1.1-.2.2-.2Z" />
        <path class="r"
            d="m2,4.3h.5c.1,0,.2.1.2.2v15c0,0,0,.1-.1.1h-.8s0,0,0,0V4.5c0-.1.1-.2.2-.2Z" />
        <path class="q"
            d="m11.2-7.5h1.5c.1,0,.2.1.2.2v23.7c0,0,0,.1-.1.1h-1.8s0,0,0,0V-7.3c0-.1.1-.2.2-.2Z"
            transform="translate(7.5 16.5) rotate(-90)" />
        <path class="p"
            d="m11.2,7.5h1.5c.1,0,.2.1.2.2v23.7c0,0,0,.1-.1.1h-1.8s0,0,0,0V7.8c0-.1.1-.2.2-.2Z"
            transform="translate(-7.5 31.5) rotate(-90)" />
        <path class="o"
            d="m11.2,0h1.5c.3,0,.5.2.5.5v23.1c0,.2-.2.4-.4.4h-1.8c-.2,0-.4-.2-.4-.4V.5c0-.3.2-.5.5-.5Z"
            transform="translate(23.9 24) rotate(180)" />
    </g>
</svg>