<svg xmlns="http://www.w3.org/2000/svg" xmlns:xlink="http://www.w3.org/1999/xlink" width="136" height="136" viewBox="0 0 136 136"><defs><style>.a,.g{fill:#fff;}.a{opacity:0;}.b{fill:#ff8a4c;opacity:0.304;}.c{fill:#a74d4b;opacity:0.708;}.d{fill:url(#a);}.e{fill:url(#b);}.f{fill:#272727;}.g{font-size:28px;font-family:PingFangSC-Regular, PingFang SC;letter-spacing:0.013em;}.h,.i{stroke:none;}.i{fill:#db4646;}</style><radialGradient id="a" cx="0.21" cy="0.134" r="1.274" gradientTransform="matrix(0.849, 0.529, -0.307, 0.493, 0.073, -0.043)" gradientUnits="objectBoundingBox"><stop offset="0" stop-color="#ffd587"/><stop offset="0.627" stop-color="#ed7b28"/><stop offset="1" stop-color="#a81705"/></radialGradient><radialGradient id="b" cx="0.5" cy="0.5" r="0.5" gradientUnits="objectBoundingBox"><stop offset="0" stop-color="#e75545"/><stop offset="0.793" stop-color="#c4483b"/><stop offset="1" stop-color="#983b31"/></radialGradient></defs><g transform="translate(-956 -396)"><rect class="a" width="136" height="136" transform="translate(956 396)"/><g transform="translate(127 -662)"><g transform="translate(572 700)"><g transform="translate(289.868 391)"><rect class="a" width="100" height="100" transform="translate(-14.868 -1)"/><g transform="translate(10.653 81.66)"><ellipse class="b" cx="24.183" cy="8.497" rx="24.183" ry="8.497"/><ellipse class="c" cx="8.497" cy="3.268" rx="8.497" ry="3.268" transform="translate(15.687 5.229)"/></g><g transform="translate(0 0)"><path class="d" d="M22.956,71.538q-.792-.8-1.543-1.533A36.466,36.466,0,0,1,0,36.4C0,16.3,15.6,0,34.837,0S69.673,16.3,69.673,36.4c0,15.235-8.954,28.283-21.664,33.711q-.588.673-1.219,1.424A73.582,73.582,0,0,0,35.337,90.157S30.335,78.981,22.956,71.538Z" transform="translate(0 0)"/><circle class="e" cx="27.451" cy="27.451" r="27.451" transform="translate(7.029 7.568)"/></g></g></g><g transform="translate(10046 8302)"><g class="f" transform="translate(-9178 -7204)"><path class="h" d="M 28 54.5 C 24.42185974121094 54.5 20.9515495300293 53.7995491027832 17.68547058105469 52.41810989379883 C 14.53003978729248 51.08348083496094 11.6958703994751 49.17253112792969 9.261670112609863 46.73833084106445 C 6.827469825744629 44.30413055419922 4.916520118713379 41.4699592590332 3.581890106201172 38.31452941894531 C 2.20044994354248 35.0484504699707 1.5 31.57814025878906 1.5 28 C 1.5 24.42185974121094 2.20044994354248 20.9515495300293 3.581890106201172 17.68547058105469 C 4.916520118713379 14.53003978729248 6.827469825744629 11.6958703994751 9.261670112609863 9.261670112609863 C 11.6958703994751 6.827469825744629 14.53003978729248 4.916520118713379 17.68547058105469 3.581890106201172 C 20.9515495300293 2.20044994354248 24.42185974121094 1.5 28 1.5 C 31.57814025878906 1.5 35.0484504699707 2.20044994354248 38.31452941894531 3.581890106201172 C 41.4699592590332 4.916520118713379 44.30413055419922 6.827469825744629 46.73833084106445 9.261670112609863 C 49.17253112792969 11.6958703994751 51.08348083496094 14.53003978729248 52.41810989379883 17.68547058105469 C 53.7995491027832 20.9515495300293 54.5 24.42185974121094 54.5 28 C 54.5 31.57814025878906 53.7995491027832 35.0484504699707 52.41810989379883 38.31452941894531 C 51.08348083496094 41.4699592590332 49.17253112792969 44.30413055419922 46.73833084106445 46.73833084106445 C 44.30413055419922 49.17253112792969 41.4699592590332 51.08348083496094 38.31452941894531 52.41810989379883 C 35.0484504699707 53.7995491027832 31.57814025878906 54.5 28 54.5 Z"/><path class="i" d="M 28 3 C 24.62369918823242 3 21.34999084472656 3.660579681396484 18.26979064941406 4.963390350341797 C 15.29317092895508 6.222400665283203 12.61925888061523 8.025409698486328 10.32233047485352 10.32233047485352 C 8.025409698486328 12.61925888061523 6.222400665283203 15.29317092895508 4.963390350341797 18.26979064941406 C 3.660579681396484 21.34999084472656 3 24.62369918823242 3 28 C 3 31.37630081176758 3.660579681396484 34.65000915527344 4.963390350341797 37.73020935058594 C 6.222400665283203 40.70682907104492 8.025409698486328 43.38074111938477 10.32233047485352 45.67766952514648 C 12.61925888061523 47.97459030151367 15.29317092895508 49.7775993347168 18.26979064941406 51.0366096496582 C 21.34999084472656 52.33942031860352 24.62369918823242 53 28 53 C 31.37630081176758 53 34.65000915527344 52.33942031860352 37.73020935058594 51.0366096496582 C 40.70682907104492 49.7775993347168 43.38074111938477 47.97459030151367 45.67766952514648 45.67766952514648 C 47.97459030151367 43.38074111938477 49.7775993347168 40.70682907104492 51.0366096496582 37.73020935058594 C 52.33942031860352 34.65000915527344 53 31.37630081176758 53 28 C 53 24.62369918823242 52.33942031860352 21.34999084472656 51.0366096496582 18.26979064941406 C 49.7775993347168 15.29317092895508 47.97459030151367 12.61925888061523 45.67766952514648 10.32233047485352 C 43.38074111938477 8.025409698486328 40.70682907104492 6.222400665283203 37.73020935058594 4.963390350341797 C 34.65000915527344 3.660579681396484 31.37630081176758 3 28 3 M 28 0 C 43.46397018432617 0 56 12.53602981567383 56 28 C 56 43.46397018432617 43.46397018432617 56 28 56 C 12.53602981567383 56 0 43.46397018432617 0 28 C 0 12.53602981567383 12.53602981567383 0 28 0 Z"/></g><text class="g" transform="translate(-9164 -7168)"><tspan x="0" y="0">限</tspan></text></g></g></g></svg>