<?xml version="1.0" encoding="UTF-8"?>
<svg id="b" xmlns="http://www.w3.org/2000/svg" width="56.7" height="56.7" viewBox="0 0 56.7 56.7">
    <g id="c">
        <g>
            <g>
                <circle cx="28.3" cy="28.3" r="26.8" style="fill:#fff;" />
                <path
                    d="M28.3,3c14,0,25.3,11.4,25.3,25.3s-11.4,25.3-25.3,25.3S3,42.3,3,28.3,14.4,3,28.3,3m0-3C12.7,0,0,12.7,0,28.3s12.7,28.3,28.3,28.3,28.3-12.7,28.3-28.3S44,0,28.3,0h0Z"
                    style="fill:#510710;" />
            </g>
            <circle cx="28.3" cy="28.3" r="26" style="fill:#db4646;" />
            <circle cx="28.3" cy="28.3" r="18.4" style="fill:#fff;" />
            <path
                d="M18.4,17.6h7.1v2.1c-.5,1.8-1.1,3.6-1.8,5.4,1.2,2,1.8,4,1.8,5.7,0,2.7-.7,3.3-3.2,3.7h-.6c0,0-.8-2.1-.8-2.1h.7c1.4-.3,1.8-.5,1.8-2s-.6-3-1.9-4.9c.7-2,1.3-3.8,1.8-5.8h-2.8v18.9h-2.2V17.6Zm21.1,18.9l-1.5,2.1c-4.3-2.4-6.6-4.9-8-9.8h-1.4v7.1l3.5-1.6,.3,2.4c-.6,.2-4.1,1.8-5.8,2.6l-1.1-2.2c.8-.3,.8-.5,.8-1.2V17.7h10.9v11h-5.1c.4,1.1,.8,2,1.3,2.9,1.2-.8,2.4-1.8,3.4-2.7l1.3,1.7c-1.1,1-2.4,1.9-3.5,2.7,1.2,1.3,2.7,2.2,4.7,3.1Zm-10.9-16.6v2.4h6.4v-2.4h-6.4Zm0,6.9h6.4v-2.3h-6.4v2.3Z" />
        </g>
    </g>
</svg>