<?xml version="1.0" encoding="UTF-8"?><svg xmlns="http://www.w3.org/2000/svg" width="124.7" height="124.7" xmlns:xlink="http://www.w3.org/1999/xlink" viewBox="0 0 124.7 124.7"><defs><linearGradient id="f" x1="60.1" y1="37.3" x2="64.9" y2="37.3" gradientUnits="userSpaceOnUse"><stop offset="0" stop-color="#989898"/><stop offset="0" stop-color="#a3a3a3"/><stop offset=".1" stop-color="#c4c5c5"/><stop offset=".2" stop-color="#d8d9d9"/><stop offset=".3" stop-color="#e0e1e1"/><stop offset=".4" stop-color="#dbdcdc"/><stop offset=".5" stop-color="#cccece"/><stop offset=".6" stop-color="#b5b6b7"/><stop offset=".7" stop-color="#949697"/><stop offset=".8" stop-color="#6a6c6f"/><stop offset=".8" stop-color="#3f4246"/><stop offset="1" stop-color="#404247"/><stop offset="1" stop-color="#43434a"/></linearGradient><linearGradient id="g" x1="29.2" y1="14.8" x2="95.5" y2="14.8" gradientUnits="userSpaceOnUse"><stop offset="0" stop-color="#afbacb"/><stop offset=".1" stop-color="#c1ccda"/><stop offset=".4" stop-color="#d9e6f0"/><stop offset=".5" stop-color="#e3f0f8"/><stop offset=".6" stop-color="#dde9f2"/><stop offset=".8" stop-color="#ccd8e4"/><stop offset="1" stop-color="#b1bbcc"/><stop offset="1" stop-color="#aeb8c9"/></linearGradient><clipPath id="h"><rect x="29.7" y=".9" width="65.3" height="27.7" rx="4.6" ry="4.6" style="fill:#3a77d1;"/></clipPath></defs><g style="isolation:isolate;"><g id="b"><g id="c"><rect width="124.7" height="124.7" style="fill:#535a60; opacity:0;"/><ellipse id="d" cx="62.4" cy="61.3" rx="14.4" ry="3.7" style="fill:#262d34; isolation:isolate; opacity:.2;"/><ellipse id="e" cx="62.4" cy="61.3" rx="7.5" ry="3" style="fill:#535a60;"/><path d="M62.4,12.6h0c1.4,0,2.6,1.2,2.6,2.6V59.6c0,1.4-1.1,2.5-2.5,2.5h-.3c-1.4,0-2.5-1.1-2.5-2.5V15.2c0-1.4,1.2-2.6,2.6-2.6Z" style="fill:url(#f);"/><g><rect x="29.2" y=".5" width="66.3" height="28.7" rx="4.6" ry="4.6" style="fill:url(#g); stroke:#8b9fae; stroke-miterlimit:10; stroke-width:.9px;"/><g><rect x="29.7" y=".9" width="65.3" height="27.7" rx="4.6" ry="4.6" style="fill:#3a77d1;"/><g style="clip-path:url(#h);"><polygon points="37.5 28.6 27.5 28.6 43.4 .9 53.3 .9 37.5 28.6" style="fill:#30313d; mix-blend-mode:color-dodge;"/><polygon points="58.2 28.6 48.2 28.6 64.1 .9 74 .9 58.2 28.6" style="fill:#30313d; mix-blend-mode:color-dodge;"/><polygon points="79.2 28.6 69.2 28.6 85.1 .9 95 .9 79.2 28.6" style="fill:#30313d; mix-blend-mode:color-dodge;"/></g></g><text transform="translate(39.4 20.7)" style="fill:#fff; font-family:AlibabaPuHuiTiM-GBpc-EUC-H, &apos;Alibaba PuHuiTi&apos;; font-size:15.6px;"><tspan x="0" y="0">障碍物</tspan></text><rect x="29.7" y=".9" width="65.3" height="27.7" rx="4.6" ry="4.6" style="fill:none; stroke:#fff; stroke-miterlimit:10; stroke-width:.9px;"/></g></g></g></g></svg>