<?xml version="1.0" standalone="no"?><!DOCTYPE svg PUBLIC "-//W3C//DTD SVG 1.1//EN" "http://www.w3.org/Graphics/SVG/1.1/DTD/svg11.dtd"><svg t="1695622525511" class="icon" viewBox="0 0 1024 1024" version="1.1" xmlns="http://www.w3.org/2000/svg" p-id="4068" xmlns:xlink="http://www.w3.org/1999/xlink" width="64" height="64"><path d="M896 213.333333h-42.666667V170.666667a42.666667 42.666667 0 0 0-85.333333 0v42.666666H256V170.666667a42.666667 42.666667 0 0 0-85.333333 0v42.666666H128a42.666667 42.666667 0 0 0-42.666667 42.666667v256a42.666667 42.666667 0 0 0 42.666667 42.666667h42.666667v298.666666a42.666667 42.666667 0 0 0 85.333333 0v-298.666666h512v298.666666a42.666667 42.666667 0 0 0 85.333333 0v-298.666666h42.666667a42.666667 42.666667 0 0 0 42.666667-42.666667V256a42.666667 42.666667 0 0 0-42.666667-42.666667zM170.666667 406.186667V298.666667h107.52zM227.84 469.333333l170.666667-170.666666h142.08l-170.666667 170.666666z m262.4 0l170.666667-170.666666h135.68l-170.666667 170.666666zM853.333333 469.333333h-107.093333L853.333333 362.24z" p-id="4069"></path></svg>