<?xml version="1.0" encoding="UTF-8"?>
<svg id="b" xmlns="http://www.w3.org/2000/svg" width="59.2" height="59.2" viewBox="0 0 59.2 59.2">
    <defs>
        <style>
            .d{fill:#1566e8;stroke:#fff;stroke-miterlimit:10;stroke-width:2.5px;}.e,.f{fill:#fff;}.f{font-family:AlibabaPuHuiTiB-GBpc-EUC-H,
            'Alibaba PuHuiTi';font-size:12px;}
        </style>
    </defs>
    <g id="c">
        <g>
            <circle class="d" cx="29.6" cy="29.6" r="28.3" />
            <g>
                <path class="e"
                    d="M34.5,48.2H18.2V26.5h16.3v3.6h2v-5.3H16.2v25.2h20.2v-3.5h-2v1.8Z" />
                <path class="e"
                    d="M23.2,32.4c0,2.1,1.7,3.7,3.8,3.7s3.8-1.7,3.8-3.7-1.7-3.7-3.8-3.7-3.8,1.7-3.8,3.7h0Z" />
                <path class="e"
                    d="M39.3,42.2s0,0-.1,0h0s-3.6,0-3.6,0l-5.3-5.2h-6.7s-1.3,.2-2.4,2v6.1h10.6v-2.5s.3-.1,.6,0c.4,.1,2.5,2.5,2.5,2.5h4.6c.5-.1,.9-.7,.9-1.4,0-.8-.5-1.4-1.1-1.4h0Zm2.4,0h3.2v2.7h-3.2v-2.7Z" />
            </g>
            <text class="f" transform="translate(12.3 19.9)">
                <tspan x="0" y="0">收费站</tspan>
            </text>
        </g>
    </g>
</svg>