<?xml version="1.0" encoding="UTF-8"?><svg id="b" xmlns="http://www.w3.org/2000/svg" width="21.6" height="21.6" viewBox="0 0 21.6 21.6"><g id="c"><path d="m17.6,10.5l-6.6-7.7c-.1,0-.3,0-.5,0l-6.6,7.7c0,.1,0,.4,0,.5l6.6,7.7c.1.1.3.1.5,0l6.6-7.7c.1-.1.1-.4,0-.5Zm-2,.5l-4.6,5.4c-.1.1-.3.1-.4,0l-4.6-5.4c0-.1,0-.4,0-.5l4.6-5.4c.1,0,.3,0,.4,0l4.6,5.4c.1.1.1.4,0,.5Z" style="fill:#6a30c6; stroke-width:0px;"/><path d="m19.6,1c.6,0,1,.4,1,1v17.6c0,.6-.4,1-1,1H2c-.6,0-1-.4-1-1V2c0-.6.4-1,1-1h17.6m0-1H2C.9,0,0,.9,0,2v17.6c0,1.1.9,2,2,2h17.6c1.1,0,2-.9,2-2V2c0-1.1-.9-2-2-2h0Z" style="fill:#6a30c6; stroke-width:0px;"/></g></svg>