<?xml version="1.0" encoding="UTF-8"?><svg id="b" xmlns="http://www.w3.org/2000/svg" width="24" height="24" viewBox="0 0 24 24"><defs><style>.d{fill:none;}.e{fill:#6a30c6;}</style></defs><g id="c"><rect class="d" width="24" height="24"/><path class="e" d="M18.8,11.7l-6.6-7.7c-.1-.1-.3-.1-.5,0l-6.6,7.7c-.1,.1-.1,.4,0,.5l6.6,7.7c.1,.1,.3,.1,.5,0l6.6-7.7c.1-.1,.1-.4,0-.5Zm-2,.5l-4.6,5.4c-.1,.1-.3,.1-.4,0l-4.6-5.4c-.1-.1-.1-.4,0-.5l4.6-5.4c.1-.1,.3-.1,.4,0l4.6,5.4c.1,.1,.1,.4,0,.5Z"/><path class="e" d="M20.8,2.2c.6,0,1,.4,1,1V20.8c0,.6-.4,1-1,1H3.2c-.6,0-1-.4-1-1V3.2c0-.6,.4-1,1-1H20.8m0-1H3.2c-1.1,0-2,.9-2,2V20.8c0,1.1,.9,2,2,2H20.8c1.1,0,2-.9,2-2V3.2c0-1.1-.9-2-2-2h0Z"/></g></svg>