<?xml version="1.0" encoding="UTF-8"?><svg id="b" xmlns="http://www.w3.org/2000/svg" width="122" height="73.5" viewBox="0 0 122 73.5"><g id="c"><polygon points="122 73.5 .2 73.5 0 0 121.8 0 122 73.5" style="fill:#9e9e9e;"/><g><polygon points="7.9 .3 .9 .3 1 15 1 15 1 28.2 7.9 28.2 7.9 .3" style="fill:#bababa;"/><polygon points="9.8 42.9 25.4 42.9 25.4 29.6 9.7 29.6 9.8 42.9" style="fill:#bababa;"/><polygon points="18.4 28.2 25.4 28.2 25.3 15 18.4 15 18.4 28.2" style="fill:#bababa;"/><polygon points="25.4 44.3 18.5 44.3 18.5 57.5 25.5 57.5 25.4 44.3" style="fill:#bababa;"/><polygon points="18.5 58.9 18.6 72.2 25.5 72.2 25.5 58.9 18.5 58.9" style="fill:#bababa;"/><polygon points="27.1 28.2 34.1 28.2 34 15 27.1 15 27.1 28.2" style="fill:#bababa;"/><polygon points="35.8 28.2 42.8 28.2 42.7 15 35.8 15 35.8 28.2" style="fill:#bababa;"/><polygon points="35.9 58.9 36 72.2 44.7 72.2 44.7 72.2 51.6 72.2 51.6 58.9 35.9 58.9" style="fill:#bababa;"/><polygon points="44.6 42.9 51.5 42.9 51.5 29.6 44.5 29.6 44.6 42.9" style="fill:#bababa;"/><polygon points="60.1 14.6 60.1 1.3 53.2 1.3 53.2 14.6 60.1 14.6" style="fill:#bababa;"/><polygon points="53.3 58.9 53.4 72.2 60.3 72.2 60.3 58.9 53.3 58.9" style="fill:#bababa;"/><polygon points="68.9 29.6 62 29.6 62 42.9 68.9 42.9 68.9 29.6" style="fill:#bababa;"/><polygon points="77.5 14.6 77.5 1.3 70.6 1.3 70.6 14.6 77.5 14.6" style="fill:#bababa;"/><polygon points="77.6 29.6 70.7 29.6 70.7 42.9 77.6 42.9 77.6 29.6" style="fill:#bababa;"/><polygon points="79.4 43.9 86.3 43.9 86.3 30.6 79.4 30.6 79.4 43.9" style="fill:#bababa;"/><polygon points="94.9 14.6 94.9 1.3 88 1.3 88 14.6 94.9 14.6" style="fill:#bababa;"/><polygon points="88.1 29.2 95 29.2 95 16 88 16 88.1 29.2" style="fill:#bababa;"/><polygon points="88.1 43.9 103.7 43.9 103.7 30.6 88.1 30.6 88.1 43.9" style="fill:#bababa;"/><polygon points="88.2 59.9 88.2 59.9 79.5 59.9 79.5 73.2 88.2 73.2 88.2 73.2 95.1 73.2 95.1 59.9 88.2 59.9" style="fill:#bababa;"/><polygon points="112.4 14.6 112.3 1.3 105.4 1.3 105.4 14.6 112.4 14.6" style="fill:#bababa;"/><polygon points="104.6 59.9 104.6 73.2 111.5 73.2 111.5 59.9 104.6 59.9" style="fill:#bababa;"/><polygon points="114.2 29.2 121.1 29.2 121.1 16 114.1 16 114.2 29.2" style="fill:#bababa;"/></g><g><polygon points="6.9 45.3 0 45.3 0 58.5 7 58.5 6.9 45.3" style="fill:#c9c9c9;"/><polygon points="16.5 13.6 16.5 .3 9.6 .3 9.6 13.6 16.5 13.6" style="fill:#c9c9c9;"/><polygon points="8.8 59.9 8.8 59.9 0 59.9 0 73.2 8.8 73.2 8.8 73.2 15.7 73.2 15.7 59.9 8.8 59.9" style="fill:#c9c9c9;"/><polygon points="25.2 13.6 25.2 .3 18.3 .3 18.3 13.6 25.2 13.6" style="fill:#c9c9c9;"/><polygon points="33 45.3 26.1 45.3 26.2 58.5 33.1 58.5 33 45.3" style="fill:#c9c9c9;"/><polygon points="41.7 30.6 34.8 30.6 34.9 58.5 41.8 58.5 41.7 30.6" style="fill:#c9c9c9;"/><polygon points="51.4 13.6 51.3 .3 44.4 .3 44.4 13.6 51.4 13.6" style="fill:#c9c9c9;"/><polygon points="61.8 15 61.9 28.2 77.5 28.2 77.5 15 61.8 15" style="fill:#c9c9c9;"/><polygon points="67.9 58.5 67.9 45.3 60.9 45.3 60.9 45.3 52.2 45.3 52.3 58.5 61 58.5 61 58.5 67.9 58.5" style="fill:#c9c9c9;"/><polygon points="85.3 58.5 85.3 45.3 78.3 45.3 78.4 58.5 85.3 58.5" style="fill:#c9c9c9;"/><polygon points="102.6 14.6 102.5 1.3 95.6 1.3 95.7 14.6 102.6 14.6" style="fill:#c9c9c9;"/><polygon points="95.8 59.9 95.8 73.2 102.8 73.2 102.7 59.9 95.8 59.9" style="fill:#c9c9c9;"/><polygon points="111.3 16 104.4 16 104.5 43.9 111.4 43.9 111.3 16" style="fill:#c9c9c9;"/><polygon points="113.2 43.9 120.1 43.9 120 30.6 113.1 30.6 113.2 43.9" style="fill:#c9c9c9;"/></g><g><polygon points="7.8 30.1 .9 30.1 .9 43.4 7.9 43.4 7.8 30.1" style="fill:#ababab;"/><polygon points="9.6 28.7 16.5 28.7 16.5 15.5 9.6 15.5 9.6 28.7" style="fill:#ababab;"/><polygon points="9.7 58 16.6 58 16.6 44.8 9.7 44.8 9.7 58" style="fill:#ababab;"/><polygon points="42.6 14.1 42.6 .8 26.9 .8 27 14.1 42.6 14.1" style="fill:#ababab;"/><polygon points="27.1 43.4 34 43.4 33.9 30.1 27 30.1 27.1 43.4" style="fill:#ababab;"/><polygon points="27.1 59.4 27.2 72.7 34.1 72.7 34 59.4 27.1 59.4" style="fill:#ababab;"/><polygon points="44.4 27.7 51.4 27.7 51.3 14.5 44.4 14.5 44.4 27.7" style="fill:#ababab;"/><polygon points="51.4 44.8 44.5 44.8 44.5 58 51.4 58 51.4 44.8" style="fill:#ababab;"/><polygon points="53.2 43.4 60.1 43.4 60.1 28.7 60.1 28.7 60 15.5 53.1 15.5 53.2 43.4" style="fill:#ababab;"/><polygon points="68.7 14.1 68.7 .8 61.7 .8 61.8 14.1 68.7 14.1" style="fill:#ababab;"/><polygon points="61.9 58.4 62 71.7 68.9 71.7 68.9 58.4 61.9 58.4" style="fill:#ababab;"/><polygon points="77.6 58.4 77.5 43.8 70.6 43.8 70.6 58.4 70.6 58.4 70.7 71.7 77.6 71.7 77.6 58.4 77.6 58.4" style="fill:#ababab;"/><polygon points="79.2 15.5 79.2 28.7 86.2 28.7 86.1 .8 79.2 .8 79.2 15.5 79.2 15.5" style="fill:#ababab;"/><polygon points="94.9 43.8 88 43.8 88 57 95 57 94.9 43.8" style="fill:#ababab;"/><polygon points="103.5 15.5 96.6 15.5 96.7 28.7 103.6 28.7 103.5 15.5" style="fill:#ababab;"/><polygon points="112.4 57 112.3 43.8 105.4 43.8 105.4 43.8 96.7 43.8 96.7 57 105.5 57 105.5 57 112.4 57" style="fill:#ababab;"/><polygon points="114 .8 114 14.1 120.9 14.1 120.9 .8 114 .8" style="fill:#ababab;"/><polygon points="114.1 43.8 114.2 67.1 114.2 71.7 121.1 71.7 121.1 58.4 121.1 58.4 121 43.8 114.1 43.8" style="fill:#ababab;"/></g></g></svg>