<?xml version="1.0" encoding="UTF-8"?><svg id="b" xmlns="http://www.w3.org/2000/svg" width="122.2" height="73.6" viewBox="0 0 122.2 73.6"><g id="c"><g><polygon points="122 73.5 .2 73.5 0 0 121.8 0 122 73.5" style="fill:#ffb339;"/><g><polygon points="9 .8 2 .8 2.1 15.4 2.1 15.4 2.1 28.7 9.1 28.7 9 .8" style="fill:#fcd786;"/><polygon points="10.9 43.3 26.5 43.3 26.5 30 10.8 30 10.9 43.3" style="fill:#fcd786;"/><polygon points="19.5 28.7 26.5 28.7 26.4 15.4 19.5 15.4 19.5 28.7" style="fill:#fcd786;"/><polygon points="26.5 44.7 19.6 44.7 19.6 57.9 26.6 57.9 26.5 44.7" style="fill:#fcd786;"/><polygon points="19.6 59.3 19.7 72.6 26.6 72.6 26.6 59.3 19.6 59.3" style="fill:#fcd786;"/><polygon points="28.2 28.7 35.2 28.7 35.1 15.4 28.2 15.4 28.2 28.7" style="fill:#fcd786;"/><polygon points="36.9 28.7 43.9 28.7 43.8 15.4 36.9 15.4 36.9 28.7" style="fill:#fcd786;"/><polygon points="37 59.3 37.1 72.6 45.8 72.6 45.8 72.6 52.7 72.6 52.7 59.3 37 59.3" style="fill:#fcd786;"/><polygon points="45.7 43.3 52.6 43.3 52.6 30 45.7 30 45.7 43.3" style="fill:#fcd786;"/><polygon points="61.2 15 61.2 1.8 54.3 1.8 54.3 15 61.2 15" style="fill:#fcd786;"/><polygon points="54.5 59.3 54.5 72.6 61.4 72.6 61.4 59.3 54.5 59.3" style="fill:#fcd786;"/><polygon points="70 30 63.1 30 63.1 43.3 70 43.3 70 30" style="fill:#fcd786;"/><polygon points="78.6 15 78.6 1.8 71.7 1.8 71.7 15 78.6 15" style="fill:#fcd786;"/><polygon points="78.7 30 71.8 30 71.8 43.3 78.7 43.3 78.7 30" style="fill:#fcd786;"/><polygon points="80.5 44.3 87.4 44.3 87.4 31 80.5 31 80.5 44.3" style="fill:#fcd786;"/><polygon points="96.1 15 96 1.8 89.1 1.8 89.1 15 96.1 15" style="fill:#fcd786;"/><polygon points="89.2 29.7 96.1 29.7 96.1 16.4 89.1 16.4 89.2 29.7" style="fill:#fcd786;"/><polygon points="89.2 44.3 104.9 44.3 104.8 31 89.2 31 89.2 44.3" style="fill:#fcd786;"/><polygon points="89.3 60.3 89.3 60.3 80.6 60.3 80.6 73.6 89.3 73.6 89.3 73.6 96.2 73.6 96.2 60.3 89.3 60.3" style="fill:#fcd786;"/><polygon points="113.5 15 113.4 1.8 106.5 1.8 106.5 15 113.5 15" style="fill:#fcd786;"/><polygon points="105.7 60.3 105.7 73.6 112.7 73.6 112.6 60.3 105.7 60.3" style="fill:#fcd786;"/><polygon points="115.3 29.7 122.2 29.7 122.2 16.4 115.2 16.4 115.3 29.7" style="fill:#fcd786;"/></g><g><polygon points="8.1 45.7 1.2 45.7 1.2 58.9 8.2 58.9 8.1 45.7" style="fill:#ffd60d;"/><polygon points="17.7 14 17.7 .8 10.7 .8 10.8 14 17.7 14" style="fill:#ffd60d;"/><polygon points="9.9 60.3 9.9 60.3 1.2 60.3 1.3 73.6 10 73.6 10 73.6 16.9 73.6 16.9 60.3 9.9 60.3" style="fill:#ffd60d;"/><polygon points="26.4 14 26.4 .8 19.4 .8 19.5 14 26.4 14" style="fill:#ffd60d;"/><polygon points="34.2 45.7 27.3 45.7 27.3 58.9 34.3 58.9 34.2 45.7" style="fill:#ffd60d;"/><polygon points="42.9 31 36 31 36 58.9 43 58.9 42.9 31" style="fill:#ffd60d;"/><polygon points="52.5 14 52.5 .8 45.6 .8 45.6 14 52.5 14" style="fill:#ffd60d;"/><polygon points="63 15.4 63.1 28.7 78.7 28.7 78.7 15.4 63 15.4" style="fill:#ffd60d;"/><polygon points="69.1 58.9 69 45.7 62.1 45.7 62.1 45.7 53.4 45.7 53.5 58.9 62.2 58.9 62.2 58.9 69.1 58.9" style="fill:#ffd60d;"/><polygon points="86.5 58.9 86.5 45.7 79.5 45.7 79.6 58.9 86.5 58.9" style="fill:#ffd60d;"/><polygon points="103.8 15 103.7 1.8 96.8 1.8 96.8 15 103.8 15" style="fill:#ffd60d;"/><polygon points="97 60.3 97 73.6 104 73.6 103.9 60.3 97 60.3" style="fill:#ffd60d;"/><polygon points="112.5 16.4 105.5 16.4 105.6 44.3 112.6 44.3 112.5 16.4" style="fill:#ffd60d;"/><polygon points="114.3 44.3 121.3 44.3 121.2 31 114.3 31 114.3 44.3" style="fill:#ffd60d;"/></g><g><polygon points="8.1 30 1.1 30 1.2 43.3 8.1 43.3 8.1 30" style="fill:#ed8a48;"/><polygon points="9.8 28.7 16.8 28.7 16.7 15.4 9.8 15.4 9.8 28.7" style="fill:#ed8a48;"/><polygon points="9.9 57.9 16.9 57.9 16.8 44.7 9.9 44.7 9.9 57.9" style="fill:#ed8a48;"/><polygon points="42.8 14 42.8 .8 27.2 .8 27.2 14 42.8 14" style="fill:#ed8a48;"/><polygon points="27.3 43.3 34.2 43.3 34.2 30 27.2 30 27.3 43.3" style="fill:#ed8a48;"/><polygon points="27.3 59.3 27.4 72.6 34.3 72.6 34.3 59.3 27.3 59.3" style="fill:#ed8a48;"/><polygon points="44.7 27.7 51.6 27.7 51.5 14.4 44.6 14.4 44.7 27.7" style="fill:#ed8a48;"/><polygon points="51.6 44.7 44.7 44.7 44.7 57.9 51.7 57.9 51.6 44.7" style="fill:#ed8a48;"/><polygon points="53.4 43.3 60.3 43.3 60.3 28.7 60.3 28.7 60.2 15.4 53.3 15.4 53.4 43.3" style="fill:#ed8a48;"/><polygon points="68.9 14 68.9 .8 62 .8 62 14 68.9 14" style="fill:#ed8a48;"/><polygon points="62.2 58.3 62.2 71.6 69.1 71.6 69.1 58.3 62.2 58.3" style="fill:#ed8a48;"/><polygon points="77.8 58.3 77.7 43.7 70.8 43.7 70.9 58.3 70.9 58.3 70.9 71.6 77.8 71.6 77.8 58.3 77.8 58.3" style="fill:#ed8a48;"/><polygon points="79.4 15.4 79.5 28.7 86.4 28.7 86.3 .8 79.4 .8 79.4 15.4 79.4 15.4" style="fill:#ed8a48;"/><polygon points="95.2 43.7 88.2 43.7 88.3 56.9 95.2 56.9 95.2 43.7" style="fill:#ed8a48;"/><polygon points="103.8 15.4 96.8 15.4 96.9 28.7 103.8 28.7 103.8 15.4" style="fill:#ed8a48;"/><polygon points="112.6 56.9 112.6 43.7 105.6 43.7 105.6 43.7 96.9 43.7 97 56.9 105.7 56.9 105.7 56.9 112.6 56.9" style="fill:#ed8a48;"/><polygon points="114.2 .8 114.2 14 121.2 14 121.1 .8 114.2 .8" style="fill:#ed8a48;"/><polygon points="114.3 43.7 114.4 67.1 114.4 71.6 121.4 71.6 121.3 58.3 121.3 58.3 121.3 43.7 114.3 43.7" style="fill:#ed8a48;"/></g></g></g></svg>