<?xml version="1.0" standalone="no"?><!DOCTYPE svg PUBLIC "-//W3C//DTD SVG 1.1//EN" "http://www.w3.org/Graphics/SVG/1.1/DTD/svg11.dtd"><svg t="1693189486200" class="icon" viewBox="0 0 2495 1024" version="1.1" xmlns="http://www.w3.org/2000/svg" p-id="4072" data-spm-anchor-id="a313x.search_index.0.i2.24ff3a81RzdsdX" width="311.875" height="128" xmlns:xlink="http://www.w3.org/1999/xlink"><path d="M0 0m58.510875 0l56.170441 0q58.510875 0 58.510875 58.510875l0 523.379781q0 58.510875-58.510875 58.510875l-56.170441 0q-58.510875 0-58.510875-58.510875l0-523.379781q0-58.510875 58.510875-58.510875Z" fill="#ffffff" p-id="4073" data-spm-anchor-id="a313x.search_index.0.i0.24ff3a81RzdsdX" class=""></path><path d="M462.52847 0m58.510875 0l56.17044 0q58.510875 0 58.510876 58.510875l0 523.379781q0 58.510875-58.510876 58.510875l-56.17044 0q-58.510875 0-58.510875-58.510875l0-523.379781q0-58.510875 58.510875-58.510875Z" fill="#1296db" p-id="4074" data-spm-anchor-id="a313x.search_index.0.i1.24ff3a81RzdsdX" class=""></path><path d="M925.05694 0m58.510875 0l56.17044 0q58.510875 0 58.510876 58.510875l0 523.379781q0 58.510875-58.510876 58.510875l-56.17044 0q-58.510875 0-58.510875-58.510875l0-523.379781q0-58.510875 58.510875-58.510875Z" fill="#d4237a" p-id="4075" data-spm-anchor-id="a313x.search_index.0.i3.24ff3a81RzdsdX" class=""></path><path d="M1387.585409 0m58.510876 0l56.17044 0q58.510875 0 58.510875 58.510875l0 523.379781q0 58.510875-58.510875 58.510875l-56.17044 0q-58.510875 0-58.510876-58.510875l0-523.379781q0-58.510875 58.510876-58.510875Z" fill="#FF0000" p-id="4076" data-spm-anchor-id="a313x.search_index.0.i4.24ff3a81RzdsdX" class="selected"></path></svg>