<?xml version="1.0" standalone="no"?><!DOCTYPE svg PUBLIC "-//W3C//DTD SVG 1.1//EN" "http://www.w3.org/Graphics/SVG/1.1/DTD/svg11.dtd"><svg t="1657094355936" class="icon" viewBox="0 0 1024 1024" version="1.1" xmlns="http://www.w3.org/2000/svg" p-id="31435" width="128" height="128" xmlns:xlink="http://www.w3.org/1999/xlink"><defs><style type="text/css">@font-face { font-family: feedback-iconfont; src: url("//at.alicdn.com/t/font_1031158_u69w8yhxdu.woff2?t=1630033759944") format("woff2"), url("//at.alicdn.com/t/font_1031158_u69w8yhxdu.woff?t=1630033759944") format("woff"), url("//at.alicdn.com/t/font_1031158_u69w8yhxdu.ttf?t=1630033759944") format("truetype"); }
</style></defs><path d="M921.6 563.2c-9.6-9.6-25.6-9.6-35.2 0L544 896l0-822.4c0-12.8-9.6-22.4-25.6-22.4s-25.6 9.6-25.6 22.4L492.8 896l-342.4-339.2c-9.6-9.6-25.6-9.6-35.2 0-9.6 9.6-9.6 22.4 0 32l384 377.6c6.4 6.4 12.8 6.4 19.2 6.4 0 0 0 0 0 0 3.2 0 3.2 0 6.4 0 0 0 0 0 3.2 0 3.2 0 6.4-3.2 9.6-6.4l380.8-371.2C931.2 588.8 931.2 572.8 921.6 563.2z" p-id="31436"></path></svg>