<?xml version="1.0" standalone="no"?><!DOCTYPE svg PUBLIC "-//W3C//DTD SVG 1.1//EN" "http://www.w3.org/Graphics/SVG/1.1/DTD/svg11.dtd"><svg t="1657094146338" class="icon" viewBox="0 0 1275 1024" version="1.1" xmlns="http://www.w3.org/2000/svg" p-id="29512" width="159.375" height="128" xmlns:xlink="http://www.w3.org/1999/xlink"><defs><style type="text/css">@font-face { font-family: feedback-iconfont; src: url("//at.alicdn.com/t/font_1031158_u69w8yhxdu.woff2?t=1630033759944") format("woff2"), url("//at.alicdn.com/t/font_1031158_u69w8yhxdu.woff?t=1630033759944") format("woff"), url("//at.alicdn.com/t/font_1031158_u69w8yhxdu.ttf?t=1630033759944") format("truetype"); }
</style></defs><path d="M434.01678069 96.35177165a94.289884 94.289884 0 0 0-133.25765214 0L123.48607034 273.6248307A40.38110706 40.38110706 0 0 0 180.5243836 331.26886006l146.48246438-146.98722794v683.24832532a40.38110706 40.38110706 0 0 0 80.76221328 0V184.28163212L554.25152647 331.26886006c0.60571692 0.70666946 1.31238556 1.31238556 2.01905503 2.01905585a40.38110706 40.38110706 0 0 0 55.01925824-59.15832165zM1151.48809462 650.58246162a40.38110706 40.38110706 0 0 0-57.03831326-2.01905503 19.08007305 19.08007305 0 0 0-2.01905503 2.01905503l-146.28055929 146.38151184V113.71564814a40.38110706 40.38110706 0 0 0-80.76221329 0v683.24832532l-146.38151184-146.38151184a40.38110706 40.38110706 0 0 0-59.15832166 55.01925824l2.01905502 2.01905503 177.37401161 177.27305822a93.98702554 93.98702554 0 0 0 133.15669958 0l177.27305823-177.27305822a40.38110706 40.38110706 0 0 0 1.81714993-57.03831327z" p-id="29513"></path></svg>