<?xml version="1.0" standalone="no"?><!DOCTYPE svg PUBLIC "-//W3C//DTD SVG 1.1//EN" "http://www.w3.org/Graphics/SVG/1.1/DTD/svg11.dtd"><svg t="1656989993111" class="icon" viewBox="0 0 1024 1024" version="1.1" xmlns="http://www.w3.org/2000/svg" p-id="2227" width="128" height="128" xmlns:xlink="http://www.w3.org/1999/xlink"><defs><style type="text/css">@font-face { font-family: feedback-iconfont; src: url("//at.alicdn.com/t/font_1031158_u69w8yhxdu.woff2?t=1630033759944") format("woff2"), url("//at.alicdn.com/t/font_1031158_u69w8yhxdu.woff?t=1630033759944") format("woff"), url("//at.alicdn.com/t/font_1031158_u69w8yhxdu.ttf?t=1630033759944") format("truetype"); }
</style></defs><path d="M511.998 511.994m-511.994 0a511.994 511.994 0 1 0 1023.988 0 511.994 511.994 0 1 0-1023.988 0Z" fill="#FC4747" p-id="2228"></path><path d="M1023.998 512c0 282.766-229.234 512-512 512-184.166 0-345.622-97.242-435.822-243.194 83.94 60.202 186.862 95.656 298.042 95.656 282.786 0 512-229.234 512-512 0-98.58-27.856-190.672-76.158-268.786C939.604 188.572 1023.998 340.434 1023.998 512z" fill="#E03636" p-id="2229"></path><path d="M511.998 511.994m-394.696 0a394.696 394.696 0 1 0 789.392 0 394.696 394.696 0 1 0-789.392 0Z" fill="#EFEFEF" p-id="2230"></path><path d="M906.688 512.002c0 217.972-176.712 394.684-394.684 394.684-150.646 0-281.592-84.414-348.092-208.522 66.214 50.278 148.814 80.112 238.376 80.112 217.972 0 394.684-176.712 394.684-394.684 0-67.326-16.862-130.716-46.592-186.184 94.974 72.082 156.308 186.164 156.308 314.594z" fill="#E0E0E0" p-id="2231"></path><path d="M396.34 483.346c55.828 0 98.908 24.618 98.908 92.314v8.352c0 70.334-43.958 96.708-98.466 96.708-63.74 0-98.908-36.926-98.908-77.806 0-16.704 8.794-21.54 22.86-21.54 19.34 0 23.736 7.912 23.736 18.464 0 25.054 22.858 39.562 51.432 39.562 32.968 0 52.75-17.584 52.75-55.388v-8.352c0-37.366-19.782-55.388-52.312-55.388H332.6c-15.384 0-19.782-7.034-19.782-18.022 0-3.08 0.442-7.474 0.88-10.552l10.112-119.564c0.88-9.672 3.956-15.388 10.55-15.388h130.554c9.672 0 14.508 10.552 14.508 20.66 0 10.552-4.834 20.66-14.508 20.66h-101.542l-6.152 85.28h39.12zM529.512 582.69v-127.916c0-71.212 42.642-98.028 98.466-98.028 55.388 0 98.908 26.816 98.908 98.028v127.916c0 71.212-43.52 98.028-98.908 98.028-55.826 0-98.466-26.816-98.466-98.028z m150.776-127.916c0-38.682-19.782-56.708-52.312-56.708-32.968 0-51.87 18.026-51.87 56.708v127.916c0 38.686 18.902 56.708 51.87 56.708 32.53 0 52.312-18.022 52.312-56.708v-127.916z" fill="#3F414C" p-id="2232"></path></svg>