<?xml version="1.0" standalone="no"?><!DOCTYPE svg PUBLIC "-//W3C//DTD SVG 1.1//EN" "http://www.w3.org/Graphics/SVG/1.1/DTD/svg11.dtd"><svg t="1657092466270" class="icon" viewBox="0 0 1024 1024" version="1.1" xmlns="http://www.w3.org/2000/svg" p-id="27422" width="128" height="128" xmlns:xlink="http://www.w3.org/1999/xlink"><defs><style type="text/css">@font-face { font-family: feedback-iconfont; src: url("//at.alicdn.com/t/font_1031158_u69w8yhxdu.woff2?t=1630033759944") format("woff2"), url("//at.alicdn.com/t/font_1031158_u69w8yhxdu.woff?t=1630033759944") format("woff"), url("//at.alicdn.com/t/font_1031158_u69w8yhxdu.ttf?t=1630033759944") format("truetype"); }
</style></defs><path d="M512 192c195.2 0 352 156.8 352 352 0 96-38.4 182.4-102.4 249.6-12.8 12.8-32 12.8-44.8 0s-12.8-32 0-44.8l12.8-12.8c-6.4-6.4-6.4-12.8-3.2-19.2v-3.2l19.2-25.6c6.4-6.4 12.8-6.4 19.2-3.2 16-28.8 25.6-60.8 32-92.8-6.4 0-12.8-6.4-12.8-16v-3.2l3.2-32c0-6.4 6.4-12.8 12.8-12.8h3.2c-3.2-32-9.6-64-22.4-92.8-6.4 3.2-16 0-19.2-6.4v-3.2l-12.8-28.8c-3.2-6.4 0-16 3.2-19.2-19.2-25.6-41.6-51.2-70.4-67.2-3.2 6.4-12.8 9.6-19.2 6.4h-3.2l-25.6-16c-6.4-3.2-9.6-12.8-6.4-19.2-28.8-12.8-60.8-19.2-92.8-19.2 0 6.4-6.4 12.8-12.8 16h-35.2c-6.4 0-12.8-3.2-16-12.8-32 6.4-64 16-92.8 32 3.2 6.4 3.2 12.8-3.2 19.2l-3.2 3.2-25.6 16c-6.4 3.2-12.8 3.2-19.2 0-25.6 22.4-44.8 48-60.8 76.8 6.4 3.2 9.6 9.6 6.4 16v3.2l-12.8 28.8c-3.2 6.4-9.6 9.6-16 9.6-12.8 19.2-19.2 44.8-19.2 73.6v16c6.4 0 12.8 3.2 16 12.8v3.2l3.2 32c0 6.4-3.2 12.8-9.6 16 9.6 32 22.4 60.8 41.6 89.6 6.4-3.2 12.8-3.2 19.2 0l3.2 3.2 19.2 25.6c6.4 6.4 3.2 16 0 19.2 3.2 12.8 0 25.6-6.4 32-12.8 12.8-32 12.8-44.8 0C198.4 726.4 160 640 160 544c0-195.2 160-352 352-352z" fill="#221814" p-id="27423"></path><path d="M512 416c16 0 28.8 12.8 32 28.8v108.8c19.2 9.6 32 32 32 54.4 0 35.2-28.8 64-64 64s-64-28.8-64-64c0-22.4 12.8-44.8 32-54.4v-108.8c3.2-16 16-28.8 32-28.8z" fill="#C70019" p-id="27424"></path></svg>