<?xml version="1.0" standalone="no"?><!DOCTYPE svg PUBLIC "-//W3C//DTD SVG 1.1//EN" "http://www.w3.org/Graphics/SVG/1.1/DTD/svg11.dtd"><svg t="1657090418178" class="icon" viewBox="0 0 1024 1024" version="1.1" xmlns="http://www.w3.org/2000/svg" p-id="7046" width="128" height="128" xmlns:xlink="http://www.w3.org/1999/xlink"><defs><style type="text/css">@font-face { font-family: feedback-iconfont; src: url("//at.alicdn.com/t/font_1031158_u69w8yhxdu.woff2?t=1630033759944") format("woff2"), url("//at.alicdn.com/t/font_1031158_u69w8yhxdu.woff?t=1630033759944") format("woff"), url("//at.alicdn.com/t/font_1031158_u69w8yhxdu.ttf?t=1630033759944") format("truetype"); }
</style></defs><path d="M169.57 928.29h684.4L687 703.46l-26.5-293.04-95.66-96.05-109.41 1.44-94.77 88.71-18.23 306.33-172.86 217.44z" fill="#279ACC" p-id="7047"></path><path d="M854 928.21L638.44 702.86V465.25a126.59 126.59 0 1 0-253.17 0v237.61L169.68 928.21V405.54c0-188.67 153.5-342.17 342.17-342.17S854 216.87 854 405.54z m-154.2-250l92.81 97V405.54c0-154.82-126-280.78-280.79-280.78s-280.78 126-280.78 280.78v369.7l92.81-97v-213c0-103.65 84.32-188 188-188s188 84.33 188 188z m-345.23 12.34z" fill="#303030" p-id="7048"></path><path d="M511.85 706.86a30.7 30.7 0 0 1-30.69-30.7v-89.73a30.7 30.7 0 1 1 61.39 0v89.73a30.7 30.7 0 0 1-30.7 30.7zM511.85 888.17a30.69 30.69 0 0 1-30.69-30.69v-89.74a30.7 30.7 0 0 1 61.39 0v89.74a30.69 30.69 0 0 1-30.7 30.69z" fill="#303030" p-id="7049"></path></svg>