<?xml version="1.0" standalone="no"?><!DOCTYPE svg PUBLIC "-//W3C//DTD SVG 1.1//EN" "http://www.w3.org/Graphics/SVG/1.1/DTD/svg11.dtd"><svg t="1657090294817" class="icon" viewBox="0 0 1024 1024" version="1.1" xmlns="http://www.w3.org/2000/svg" p-id="6891" xmlns:xlink="http://www.w3.org/1999/xlink" width="128" height="128"><defs><style type="text/css">@font-face { font-family: feedback-iconfont; src: url("//at.alicdn.com/t/font_1031158_u69w8yhxdu.woff2?t=1630033759944") format("woff2"), url("//at.alicdn.com/t/font_1031158_u69w8yhxdu.woff?t=1630033759944") format("woff"), url("//at.alicdn.com/t/font_1031158_u69w8yhxdu.ttf?t=1630033759944") format("truetype"); }
</style></defs><path d="M477.866667 884.053333h68.266666V819.2h-68.266666v64.853333z m0 102.4h68.266666V921.6h-68.266666v64.853333z m0-204.8h68.266666V716.8h-68.266666v64.853333zM515.413333 34.133333c-262.826667 0-477.866667 215.04-477.866666 477.866667v443.733333c0 13.653333 10.24 27.306667 23.893333 34.133334h10.24c10.24 0 20.48-6.826667 27.306667-17.066667L290.133333 682.666667h440.32l197.973334 293.546666c6.826667 13.653333 23.893333 17.066667 37.546666 13.653334 13.653333-3.413333 23.893333-17.066667 23.893334-34.133334V512c3.413333-262.826667-211.626667-477.866667-474.453334-477.866667zM716.8 614.4H307.2v-102.4c0-112.64 92.16-204.8 204.8-204.8s204.8 92.16 204.8 204.8v102.4z m208.213333 228.693333l-139.946666-204.8V512c0-150.186667-122.88-273.066667-273.066667-273.066667s-273.066667 122.88-273.066667 273.066667v126.293333l-133.12 201.386667V512c0-225.28 184.32-409.6 409.6-409.6s409.6 184.32 409.6 409.6v331.093333z" p-id="6892"></path></svg>