<?xml version="1.0" standalone="no"?><!DOCTYPE svg PUBLIC "-//W3C//DTD SVG 1.1//EN" "http://www.w3.org/Graphics/SVG/1.1/DTD/svg11.dtd"><svg t="1657090496060" class="icon" viewBox="0 0 1024 1024" version="1.1" xmlns="http://www.w3.org/2000/svg" p-id="8333" width="128" height="128" xmlns:xlink="http://www.w3.org/1999/xlink"><defs><style type="text/css">@font-face { font-family: feedback-iconfont; src: url("//at.alicdn.com/t/font_1031158_u69w8yhxdu.woff2?t=1630033759944") format("woff2"), url("//at.alicdn.com/t/font_1031158_u69w8yhxdu.woff?t=1630033759944") format("woff"), url("//at.alicdn.com/t/font_1031158_u69w8yhxdu.ttf?t=1630033759944") format("truetype"); }
</style></defs><path d="M512 375.466667c-95.573333 0-197.973333 20.48-307.2 64.853333-58.026667-23.893333-116.053333-40.96-170.666667-51.2v68.266667c23.893333 3.413333 44.373333 10.24 68.266667 17.066666v375.466667h68.266667V501.76c6.826667 3.413333 13.653333 6.826667 20.48 6.826667l13.653333 6.826666 13.653333-6.826666c6.826667-3.413333 13.653333-6.826667 20.48-6.826667V853.333333h68.266667V477.866667c71.68-23.893333 139.946667-34.133333 204.8-34.133334 61.44 0 129.706667 10.24 204.8 34.133334v375.466666h68.266667V501.76c6.826667 3.413333 13.653333 6.826667 20.48 6.826667l13.653333 6.826666 13.653333-6.826666c6.826667-3.413333 13.653333-6.826667 20.48-6.826667V853.333333h68.266667V474.453333c20.48-6.826667 44.373333-13.653333 68.266667-17.066666v-68.266667c-64.853333 13.653333-122.88 34.133333-170.666667 51.2-112.64-44.373333-218.453333-64.853333-307.2-64.853333zM34.133333 204.8v68.266667h955.733334V204.8H34.133333z" p-id="8334"></path></svg>