<?xml version="1.0" encoding="UTF-8"?>
<svg width="17px" height="30px" viewBox="0 0 17 30" version="1.1" xmlns="http://www.w3.org/2000/svg" xmlns:xlink="http://www.w3.org/1999/xlink">
    <!-- Generator: Sketch 54.1 (76490) - https://sketchapp.com -->
    <title>提示前方可自行或右后方掉头复制</title>
    <desc>Created with Sketch.</desc>
    <g id="页面" stroke="none" stroke-width="1" fill="none" fill-rule="evenodd">
        <g id="C9_6_icon-汇总说明-" transform="translate(-907.000000, -995.000000)" fill="#2271FF" fill-rule="nonzero">
            <g id="编组-10" transform="translate(263.000000, 995.000000)">
                <g id="编组-9" transform="translate(644.000000, 0.000000)">
                    <g id="提示前方可自行或右后方掉头复制">
                        <polygon id="path2214_3_" points="5.909 29.208 5.895 4.113 9.36 6.968 9.422 4.391 4.918 0.792 0.308 4.386 0.377 7.13 4.054 4.003 4.071 29.167"></polygon>
                        <path d="M5.81049598,17.9079384 C5.85034368,16.2473596 7.13426,15.6994045 8.5,15.6994045 C9.07539294,15.6994045 9.80562871,15.7847047 10.2613819,16 C10.7525194,16.2320107 10.8901241,16.4966721 10.934,16.7558093 C11.0055545,17.1784204 11.0055545,19.7678173 10.934,24.524 L7.437,21.441 L7.37,23.496 L11.991,27.383 L16.404,23.523 L16.409,21.268 L12.924,24.432 L12.943,17.005 C11.991,12.0824629 3.929,13.555 4.117,16.911 L5.81049598,17.9079384 Z" id="path22940_9_"></path>
                    </g>
                </g>
            </g>
        </g>
    </g>
</svg>