<?xml version="1.0" encoding="UTF-8"?>
<svg width="26px" height="30px" viewBox="0 0 26 30" version="1.1" xmlns="http://www.w3.org/2000/svg" xmlns:xlink="http://www.w3.org/1999/xlink">
    <!-- Generator: Sketch 54.1 (76490) - https://sketchapp.com -->
    <title>1301_0_h</title>
    <desc>Created with Sketch.</desc>
    <g id="页面" stroke="none" stroke-width="1" fill="none" fill-rule="evenodd">
        <g id="C9_6_icon-汇总说明-" transform="translate(-414.000000, -1060.000000)" fill="#2271FF" fill-rule="nonzero">
            <g id="编组-10" transform="translate(263.000000, 995.000000)">
                <g id="1301_0_h" transform="translate(151.000000, 65.000000)">
                    <path d="M12.653,16.041 C12.51,15.631 11.395,14.759 10.348,14.273 C9.302,13.787 7.094,13.84 7.094,13.84 L4.084,13.852 L6.942,10.387 L4.362,10.325 L0.761,14.831 L4.357,19.444 L7.103,19.375 L3.974,15.696 L7.294,15.68 C7.294,15.68 9.158,15.43 10.285,16.222 C11.412,17.014 12.669,18.363 12.676,18.749 C12.689,19.521 12.94,16.859 12.653,16.041 Z" id="path2214"></path>
                    <polygon id="path2263" points="14.058 29.084 14.032 4.659 17.879 7.779 17.948 4.915 12.946 0.916 7.824 4.91 7.902 7.959 11.986 4.484 12 29.084"></polygon>
                    <path d="M13.348,16.041 C13.492,15.631 14.606,14.759 15.653,14.273 C16.699,13.787 18.906,13.84 18.906,13.84 L21.915,13.852 L19.058,10.387 L21.637,10.325 L25.239,14.831 L21.643,19.444 L18.897,19.375 L22.026,15.696 L18.705,15.68 C18.705,15.68 16.843,15.43 15.714,16.222 C14.587,17.014 13.33,18.363 13.324,18.749 C13.312,19.521 13.061,16.859 13.348,16.041 Z" id="path2198"></path>
                </g>
            </g>
        </g>
    </g>
</svg>