<?xml version="1.0" encoding="UTF-8"?>
<svg width="30px" height="24px" viewBox="0 0 24 30" version="1.1" xmlns="http://www.w3.org/2000/svg" xmlns:xlink="http://www.w3.org/1999/xlink">
    <!-- Generator: Sketch 54.1 (76490) - https://sketchapp.com -->
    <title>1301_0_v</title>
    <desc>Created with Sketch.</desc>
    <g id="页面" stroke="none" stroke-width="1" fill="none" fill-rule="evenodd" transform="rotate(90, 12, 15)">
        <g id="C9_6_icon-汇总说明-" transform="translate(-709.000000, -1060.000000)" fill="#2271FF" fill-rule="nonzero">
            <g id="编组-10" transform="translate(263.000000, 995.000000)">
                <g id="1301_0_v" transform="translate(446.000000, 65.000000)">
                    <polygon id="path2200_13_" points="10.836 29.262 10.868 10.361 12.916 9.523 12.882 29.278"></polygon>
                    <polygon id="path2214_19_" points="12.917 9.521 3.382 3.704 7.979 2.228 5.682 0.722 0.199 2.745 0.883 8.469 3.106 9.774 2.505 5.326 12.606 11.552"></polygon>
                    <path d="M12.036,16.871 C12.18,16.462 13.536,15.347 14.581,14.862 C15.629,14.376 17.471,14.428 17.471,14.428 L20.478,14.44 L17.623,10.977 L20.201,10.915 L23.801,15.419 L20.205,20.03 L17.463,19.96 L20.591,16.283 L17.272,16.268 C17.272,16.268 15.352,16.132 14.225,16.924 C13.098,17.715 12.842,19.161 12.866,19.578 C12.886,19.977 11.751,17.688 12.036,16.871 Z" id="path2249_7_"></path>
                </g>
            </g>
        </g>
    </g>
</svg>