<?xml version="1.0" encoding="UTF-8"?>
<svg width="30px" height="18px" viewBox="0 0 18 30" version="1.1" xmlns="http://www.w3.org/2000/svg" xmlns:xlink="http://www.w3.org/1999/xlink">
    <!-- Generator: Sketch 54.1 (76490) - https://sketchapp.com -->
    <title>1301_0_f</title>
    <desc>Created with Sketch.</desc>
    <g id="页面" stroke="none" stroke-width="1" fill="none" fill-rule="evenodd" transform="rotate(90, 9, 15)">
        <g id="C9_6_icon-汇总说明-" fill="#2271FF" fill-rule="nonzero">
            <g id="编组-10">
                <g id="1301_0_f">
                    <polygon id="path2214_6_" points="6.439 29.208 6.425 4.113 9.89 6.968 9.953 4.391 5.449 0.792 0.839 4.386 0.908 7.13 4.585 4.003 4.602 29.167"></polygon>
                    <path d="M5.398,15.129 C5.541,14.72 6.898,13.605 7.943,13.12 C8.99,12.634 10.832,12.686 10.832,12.686 L13.838,12.698 L10.984,9.235 L13.562,9.173 L17.161,13.677 L13.566,18.288 L10.823,18.218 L13.951,14.541 L10.63,14.525 C10.63,14.525 8.71,14.389 7.584,15.181 C6.457,15.972 6.2,17.418 6.226,17.835 C6.245,18.236 5.111,15.946 5.398,15.129 Z" id="path2249_2_"></path>
                </g>
            </g>
        </g>
    </g>
</svg>