<?xml version="1.0" encoding="UTF-8"?>
<svg width="30px" height="24px" viewBox="0 0 24 30" version="1.1" xmlns="http://www.w3.org/2000/svg" xmlns:xlink="http://www.w3.org/1999/xlink">
    <!-- Generator: Sketch 54.1 (76490) - https://sketchapp.com -->
    <title>1301_0_n</title>
    <desc>Created with Sketch.</desc>
    <g id="页面" stroke="none" stroke-width="1" fill="none" fill-rule="evenodd" transform="rotate(90, 12, 15)">
        <g id="C9_6_icon-汇总说明-" transform="translate(-661.000000, -1060.000000)" fill="#2271FF" fill-rule="nonzero">
            <g id="编组-10" transform="translate(263.000000, 995.000000)">
                <g id="1301_0_n" transform="translate(398.000000, 65.000000)">
                    <polygon id="path2200_2_" points="10.938 29.033 10.965 8.346 13.002 8.21 12.986 29.04"></polygon>
                    <path d="M14.223,4.92 C15.325,4.562 17.12,4.485 17.12,4.485 L20.138,4.497 L17.274,1.022 L19.861,0.96 L23.471,5.48 L19.867,10.106 L17.113,10.037 L20.251,6.347 L16.921,6.331 C16.921,6.331 15.296,6.324 14.165,7.119 C13.035,7.913 12.992,9.509 12.986,9.896 C12.981,10.284 10.68,8.767 11.057,8.081 C11.711,6.524 12.646,5.428 14.223,4.92 Z" id="path2214_2_"></path>
                    <path d="M12.931,18.041 C12.664,12.687 3.981,12.678 4.079,18.158 L4.105,26.107 L0.594,23.013 L0.529,25.076 L5.166,28.975 L9.594,25.101 L9.6,22.837 L6.104,26.012 L6.122,18.558 C6.205,14.964 10.883,15.097 11.07,18.464 L12.931,18.041 Z" id="path22940_7_"></path>
                </g>
            </g>
        </g>
    </g>
</svg>