<?xml version="1.0" encoding="UTF-8"?>
<svg width="30px" height="14px" viewBox="0 0 14 30" version="1.1" xmlns="http://www.w3.org/2000/svg" xmlns:xlink="http://www.w3.org/1999/xlink">
    <!-- Generator: Sketch 54.1 (76490) - https://sketchapp.com -->
    <title>1301_0_z</title>
    <desc>Created with Sketch.</desc>
    <g id="页面" stroke="none" stroke-width="1" fill="none" fill-rule="evenodd" transform="rotate(90, 7, 15)">
        <g id="C9_6_icon-汇总说明-" transform="translate(-826.000000, -995.000000)" fill="#2271FF" fill-rule="nonzero">
            <g id="编组-10" transform="translate(263.000000, 995.000000)">
                <g id="1301_0_z" transform="translate(563.000000, 0.000000)">
                    <polygon id="path2200_12_" points="0.523 29.278 0.49 9.523 2.538 10.361 2.57 29.262"></polygon>
                    <polygon id="path2214_18_" points="0.801 11.553 10.901 5.326 10.3 9.774 12.523 8.469 13.207 2.745 7.724 0.722 5.427 2.228 10.024 3.704 0.49 9.521"></polygon>
                    <path d="M1.745,16.809 C1.889,16.4 3.245,15.285 4.29,14.8 C5.338,14.314 7.18,14.366 7.18,14.366 L10.187,14.378 L7.332,10.915 L9.91,10.853 L13.51,15.357 L9.914,19.968 L7.172,19.898 L10.3,16.221 L6.981,16.206 C6.981,16.206 5.061,16.07 3.935,16.862 C2.808,17.653 2.552,19.099 2.575,19.516 C2.597,19.915 1.463,17.626 1.745,16.809 Z" id="path2249_6_"></path>
                </g>
            </g>
        </g>
    </g>
</svg>