<?xml version="1.0" encoding="UTF-8"?>
<svg width="18px" height="30px" viewBox="0 0 18 30" version="1.1" xmlns="http://www.w3.org/2000/svg" xmlns:xlink="http://www.w3.org/1999/xlink">
    <!-- Generator: Sketch 54.1 (76490) - https://sketchapp.com -->
    <title>1301_0_5</title>
    <desc>Created with Sketch.</desc>
    <g id="页面" stroke="none" stroke-width="1" fill="none" fill-rule="evenodd">
        <g id="C9_6_icon-汇总说明-" transform="translate(-263.000000, -995.000000)" fill="#2271FF" fill-rule="nonzero">
            <g id="编组-10" transform="translate(263.000000, 995.000000)">
                <g id="1301_0_5">
                    <polygon id="path2214_39_" points="5.796 29.208 5.784 4.113 9.247 6.968 9.31 4.391 4.806 0.792 0.197 4.387 0.265 7.131 3.943 4.004 3.958 29.168"></polygon>
                    <path d="M4.754,20.131 C4.899,19.722 6.254,18.607 7.299,18.122 C8.347,17.636 10.19,17.688 10.19,17.688 L13.196,17.7 L10.341,14.237 L12.919,14.175 L16.519,18.679 L12.923,23.29 L10.181,23.22 L13.309,19.543 L9.99,19.528 C9.99,19.528 8.07,19.392 6.944,20.184 C5.817,20.975 5.56,22.421 5.584,22.838 C5.604,23.236 4.469,20.946 4.754,20.131 Z" id="path2249_16_"></path>
                    <polygon id="path2214_38_" points="4.674 16.121 15.497 9.44 14.897 13.888 17.119 12.583 17.803 6.859 12.32 4.835 10.024 6.341 14.62 7.817 4.078 14.333"></polygon>
                </g>
            </g>
        </g>
    </g>
</svg>