<?xml version="1.0" encoding="UTF-8"?>
<svg width="30px" height="26px" viewBox="0 0 26 30" version="1.1" xmlns="http://www.w3.org/2000/svg" xmlns:xlink="http://www.w3.org/1999/xlink">
    <!-- Generator: Sketch 54.1 (76490) - https://sketchapp.com -->
    <title>1301_0_k</title>
    <desc>Created with Sketch.</desc>
    <g id="页面" stroke="none" stroke-width="1" fill="none" fill-rule="evenodd" transform="rotate(90, 13, 15)">
        <g id="C9_6_icon-汇总说明-" transform="translate(-464.000000, -1060.000000)" fill="#2271FF" fill-rule="nonzero">
            <g id="编组-10" transform="translate(263.000000, 995.000000)">
                <g id="1301_0_k" transform="translate(201.000000, 65.000000)">
                    <polygon id="path2200_9_" points="11.82 29.099 11.847 7.259 14.201 7.119 14.183 29.106"></polygon>
                    <path d="M13.017,7.058 C12.87,6.634 11.462,5.48 10.38,4.978 C9.298,4.476 7.391,4.53 7.391,4.53 L4.282,4.542 L7.237,0.958 L4.569,0.894 L0.842,5.556 L4.563,10.329 L7.405,10.257 L4.169,6.451 L7.605,6.434 C7.605,6.434 9.283,6.428 10.449,7.247 C11.615,8.067 11.91,9.713 11.917,10.112 C11.923,10.91 13.312,7.904 13.017,7.058 Z" id="path2214_10_"></path>
                    <path d="M12.985,7.058 C13.131,6.634 14.538,5.48 15.62,4.978 C16.702,4.476 18.609,4.53 18.609,4.53 L21.719,4.542 L18.763,0.958 L21.431,0.894 L25.159,5.556 L21.439,10.329 L18.596,10.257 L21.833,6.451 L18.397,6.434 C18.397,6.434 16.719,6.428 15.552,7.247 C14.386,8.067 14.091,9.713 14.085,10.112 C14.077,10.91 12.685,7.904 12.985,7.058 Z" id="path2249_4_"></path>
                </g>
            </g>
        </g>
    </g>
</svg>