<?xml version="1.0" encoding="UTF-8"?>
<svg width="18px" height="28px" viewBox="0 0 18 28" version="1.1" xmlns="http://www.w3.org/2000/svg" xmlns:xlink="http://www.w3.org/1999/xlink">
    <!-- Generator: Sketch 54.1 (76490) - https://sketchapp.com -->
    <title>提示右后方掉头复制</title>
    <desc>Created with Sketch.</desc>
    <g id="页面" stroke="none" stroke-width="1" fill="none" fill-rule="evenodd">
        <g id="C9_6_icon-汇总说明-" transform="translate(-951.000000, -997.000000)" fill="#2271FF" fill-rule="nonzero">
            <g id="编组-10" transform="translate(263.000000, 995.000000)">
                <g id="编组-9" transform="translate(644.000000, 0.000000)">
                    <g id="提示右后方掉头复制" transform="translate(44.000000, 1.000000)">
                        <path d="M2.676,11.3454063 C2.67063205,9.22749842 2.44138369,7.99921639 2.676,6.87640626 C3.35922843,3.60665998 5.25238344,3.57798983 6.62671411,3.54689146 C7.63293806,3.52412262 9.04920727,3.68963843 9.70627148,4.800781 C10.3137327,5.82804132 10.201,7.72888847 10.201,9.49140626 L10.233,13.3034063 L5.551,9.44440626 L5.468,12.9274063 L11.556,17.7914063 L17.79,12.9344063 L17.694,9.22640626 L12.723,13.1864063 L12.744,6.99340626 C12.723,1.84469919 9.40506239,0.91289911 6.15097677,1 C2.98605771,1.0847142 0,2.80476579 0.045,6.87640626 L0,28.9614063 L2.655,28.9744063 L2.676,11.3454063 Z" id="path22940"></path>
                    </g>
                </g>
            </g>
        </g>
    </g>
</svg>