<?xml version="1.0" encoding="UTF-8"?>
<svg id="b" xmlns="http://www.w3.org/2000/svg" width="46.4" height="125.2"
    xmlns:xlink="http://www.w3.org/1999/xlink" viewBox="0 0 46.4 125.2">
    <defs>
        <linearGradient id="f" x1="21" y1="77.6" x2="25.8" y2="77.6"
            gradientTransform="translate(0 128) scale(1 -1)" gradientUnits="userSpaceOnUse">
            <stop offset="0" stop-color="#989898" />
            <stop offset="0" stop-color="#a3a3a3" />
            <stop offset="0" stop-color="#c4c5c5" />
            <stop offset=".2" stop-color="#d8d9d9" />
            <stop offset=".3" stop-color="#e0e1e1" />
            <stop offset=".4" stop-color="#dbdcdc" />
            <stop offset=".5" stop-color="#cccece" />
            <stop offset=".6" stop-color="#b5b6b7" />
            <stop offset=".7" stop-color="#949697" />
            <stop offset=".8" stop-color="#6a6c6f" />
            <stop offset=".8" stop-color="#3f4246" />
            <stop offset="1" stop-color="#404247" />
            <stop offset="1" stop-color="#43434a" />
        </linearGradient>
        <linearGradient id="g" x1="1" y1="104.2" x2="45.5" y2="104.2"
            gradientTransform="translate(0 128) scale(1 -1)" gradientUnits="userSpaceOnUse">
            <stop offset="0" stop-color="#afbacb" />
            <stop offset="0" stop-color="#c1ccda" />
            <stop offset=".4" stop-color="#d9e6f0" />
            <stop offset=".5" stop-color="#e3f0f8" />
            <stop offset=".6" stop-color="#dde9f2" />
            <stop offset=".8" stop-color="#ccd8e4" />
            <stop offset="1" stop-color="#b1bbcc" />
            <stop offset="1" stop-color="#aeb8c9" />
        </linearGradient>
        <linearGradient id="h" x1="1.5" y1="103.4" x2="45" y2="103.4"
            gradientTransform="translate(0 128) scale(1 -1)" gradientUnits="userSpaceOnUse">
            <stop offset="0" stop-color="#403c42" />
            <stop offset="0" stop-color="#3c4353" />
            <stop offset=".3" stop-color="#3a475d" />
            <stop offset=".5" stop-color="#344256" />
            <stop offset=".7" stop-color="#233445" />
            <stop offset="1" stop-color="#0d212d" />
        </linearGradient>
        <linearGradient id="j" x1="19" y1="99.8" x2="24.5" y2="99.8"
            gradientTransform="translate(0 128) scale(1 -1)" gradientUnits="userSpaceOnUse">
            <stop offset="0" stop-color="#657879" />
            <stop offset=".6" stop-color="#94a4a4" />
            <stop offset="1" stop-color="#c0cccc" />
        </linearGradient>
        <linearGradient id="k" x1="9.7" y1="94.3" x2="22" y2="94.3"
            gradientTransform="translate(0 128) scale(1 -1)" gradientUnits="userSpaceOnUse">
            <stop offset="0" stop-color="#657879" />
            <stop offset="0" stop-color="#6a7c7d" />
            <stop offset="0" stop-color="#849595" />
            <stop offset=".2" stop-color="#9aa9a9" />
            <stop offset=".3" stop-color="#abb9b9" />
            <stop offset=".4" stop-color="#b7c4c4" />
            <stop offset=".6" stop-color="#becaca" />
            <stop offset="1" stop-color="#c0cccc" />
        </linearGradient>
        <linearGradient id="l" x1="11.8" y1="89.7" x2="25" y2="98.3" xlink:href="#k" />
        <linearGradient id="m" x1="30.9" y1="104.8" x2="34.4" y2="98.1"
            gradientTransform="translate(0 128) scale(1 -1)" gradientUnits="userSpaceOnUse">
            <stop offset="0" stop-color="#657879" />
            <stop offset="0" stop-color="#708283" />
            <stop offset=".3" stop-color="#8d9d9d" />
            <stop offset=".4" stop-color="#a3b1b2" />
            <stop offset=".6" stop-color="#b3c0c0" />
            <stop offset=".8" stop-color="#bdc9c9" />
            <stop offset="1" stop-color="#c0cccc" />
        </linearGradient>
    </defs>
    <g id="c">
        <ellipse id="d" cx="23.3" cy="61.8" rx="14.4" ry="3.7"
            style="fill:#262d34; isolation:isolate; opacity:.2; stroke-width:0px;" />
        <ellipse id="e" cx="23.3" cy="61.8" rx="7.5" ry="3"
            style="fill:#3c444c; stroke-width:0px;" />
        <path
            d="m23.3,38.3h0c1.4,0,2.6,1.2,2.6,2.6v19.2c0,1.4-1.1,2.5-2.5,2.5h-.3c-1.4,0-2.5-1.1-2.5-2.5v-19.3c0-1.4,1.2-2.6,2.6-2.6h.1Z"
            style="fill:url(#f); stroke-width:0px;" />
        <rect x="1" y=".5" width="44.5" height="46.6" rx="14.4" ry="14.4"
            style="fill:url(#g); stroke:#8b9fae; stroke-miterlimit:10;" />
        <rect x="1.5" y="2.6" width="43.5" height="44" rx="14.1" ry="14.1"
            style="fill:url(#h); stroke:#161b20; stroke-miterlimit:10;" />
        <path id="i"
            d="m6.9,11.4c-.3,0-.6-.2-.7-.4s0-.6,0-.8c1.3-1.6,3-2.9,4.8-3.9.2,0,.4,0,.6,0,.2,0,.4.2.5.4.2.4,0,.9-.3,1.1-1.7.9-3.1,2.1-4.3,3.5-.2.2-.4.3-.6.3h0v-.2Zm-1.8,2.6c0,0-.3,0-.4-.1-.2-.1-.3-.3-.4-.5,0-.2,0-.4,0-.6l.3-.4c0-.2.3-.3.5-.4h.6c.2.1.3.3.4.5s0,.4,0,.6l-.3.4c0,.2-.4.4-.7.4h0Z"
            style="fill:#fff; stroke-width:0px;" />
        <path
            d="m25.7,24.9l-15.1-7.5c-.5-.3-.8-.8-.7-1.4l.7-3.2c0-.6.6-1,1.2-1l8.1.2h0l18.8,8.1c.2,0,0,.4,0,.4l-7.9-.4h-.2l-3.5,4.2c-.4.4-1,.6-1.5.3v.3Z"
            style="fill:#fcfdfd; stroke-width:0px;" />
        <path
            d="m10.6,19.5v1.2c0,.1,0,.3.2.3l2.7,1.4c.3.1.6,0,.6-.3v-1.4c0-.2,0-.3-.2-.4l-2.7-1.3c-.3-.1-.6,0-.6.4h0Z"
            style="fill:#99aaac; stroke-width:0px;" />
        <path
            d="m15.2,21.1l10.5,5.2c0,0,.2.2.2.4v1.3c0,.3-.3.5-.6.4l-10.5-5.1c0,0-.2-.2-.2-.4v-1.3c0-.3.3-.5.6-.3v-.2Z"
            style="fill:#99aaac; stroke-width:0px;" />
        <path
            d="m37.9,21.2h2.8c.3.1.5.5.3.8l-3.3,4.1c0,.1-.3.2-.4.1h0c-.2,0-.3-.3-.2-.6l.2-.5h0c0-.1.2-3.5.2-3.5,0-.2.2-.4.4-.4Z"
            style="fill:#8a9597; stroke-width:0px;" />
        <path d="m21.8,27.2l2.7,1.3v.7h-5.5v-.9s1.4,1,2.7-1h0Z"
            style="fill:url(#j); stroke-width:0px;" />
        <path
            d="m9.7,29.8v8.2c0,.2.2.4.4.4h0c.2,0,.3,0,.4-.3l.5-2.4c0,0,0-.2.2-.3l10.4-4.3c0,0,.2-.2.2-.4v-1.7h-3v1.5c0,.2,0,.3-.3.4l-7.2,2.5c-.2,0-.5,0-.5-.3l-.6-3.5c0-.2-.2-.3-.4-.3h0c-.2,0-.4.2-.4.4h.2Z"
            style="fill:url(#k); stroke-width:0px;" />
        <path
            d="m11.2,30l.5,2.4c0,.2.3.4.5.3l3.8-1.3c.2,0,.3-.3.2-.5l-.4-1.1c0-.2-.2-.3-.4-.3h-3.9c-.3,0-.4.2-.4.4h.1Z"
            style="fill:#8a9597; stroke-width:0px;" />
        <path
            d="m22.6,29h1.9v2.1c0,.2,0,.5-.4.6l-7.2,3.8c-.2,0-.3.2-.3.4l-.5,1.9c0,.3-.3.5-.6.5h-3.3c-.4,0-.8-.4-.7-.8l.3-1.6c0-.2.2-.4.4-.5l9.9-4c.2-.1.4-.3.4-.6v-1.9h0Z"
            style="fill:url(#l); stroke-width:0px;" />
        <path d="m18.1,25.3l3.2,1.6s-.4,1.4-1.8,1.1c0,0-1.2-.3-1.4-2.7Z"
            style="fill:#99aaac; stroke-width:0px;" />
        <path
            d="m36.6,21.1l-5.2-.2h0c-.6,0-4.7,5.3-4.7,5.3v.2l-.2,2.3c0,.2,0,.3.3.3l6.8.3c.4,0,.7-.2.9-.5l2.2-3.7c0-.1,0-.3,0-.5l.2-3.3c0-.2,0-.3-.3-.3h-.1Zm-2.4,3l-.6,2.1c0,.4-.5.7-.9.6h-2.5c-.6-.1-1-.7-.8-1.2l.6-2.1c0-.4.5-.7.9-.7h2.6c.6,0,1,.7.8,1.2h0Z"
            style="fill:url(#m); stroke-width:0px;" />
        <path
            d="m30.7,20.3l-3.5,4.3c-.4.4-1,.6-1.5.2l-15.1-7.5c-.5-.2-.8-.7-.7-1.3l.7-3.2c0-.6.6-1,1.2-1"
            style="fill:#d6e1e2; stroke-width:0px;" />
        <rect y=".5" width="46.4" height="124.7" style="fill:rgba(83,90,96,0); stroke-width:0px;" />
    </g>
</svg>