<?xml version="1.0" encoding="UTF-8"?>
<svg width="31px" height="28px" viewBox="0 0 31 28" version="1.1" xmlns="http://www.w3.org/2000/svg" xmlns:xlink="http://www.w3.org/1999/xlink">
    <!-- Generator: Sketch 54.1 (76490) - https://sketchapp.com -->
    <title>zhongjianchedaohebing_icon</title>
    <desc>Created with Sketch.</desc>
    <defs>
        <polygon id="path-1" points="0.000169437369 0.510776 30.9998306 0.510776 30.9998306 28 0.000169437369 28"></polygon>
    </defs>
    <g id="页面" stroke="none" stroke-width="1" fill="none" fill-rule="evenodd">
        <g id="C9_1_icon-汇总说明" transform="translate(-1440.000000, -2589.000000)">
            <g id="zhongjianchedaohebing_icon-2" transform="translate(1440.000000, 2589.000000)">
                <g id="zhongjianchedaohebing_icon">
                    <g id="编组复制-7">
                        <g id="编组">
                            <mask id="mask-2" fill="white">
                                <use xlink:href="#path-1"></use>
                            </mask>
                            <g id="Clip-2"></g>
                            <path d="M29.6874821,28.000336 C30.856625,28.000336 31.3349107,27.161456 30.7503393,26.137776 L16.5634107,1.279376 C15.9788393,0.254576 15.0211607,0.254576 14.4365893,1.279376 L0.249660714,26.137776 C-0.334910714,27.161456 0.143375,28.000336 1.31251786,28.000336 L29.6874821,28.000336 Z" id="Fill-1" fill="#D02E1D" mask="url(#mask-2)"></path>
                        </g>
                        <polygon id="Fill-3" fill="#FEFEFE" points="2 26 29 26 15.5 3"></polygon>
                    </g>
                    <g id="24gl-merge" transform="translate(11.000000, 12.000000)" fill="#5C5C66" fill-rule="nonzero" stroke="#000000">
                        <path d="M8.69994582,11.9999658 C8.62035625,12.000082 8.54400339,11.9684678 8.48779173,11.9121226 L4.28783442,7.71215154 C4.23157703,7.65588112 4.19997872,7.57956608 4.19999156,7.49999676 L4.19999156,1.02426013 L2.31216699,2.91218462 C2.19499752,3.02935447 2.00502828,3.02935447 1.88785881,2.91218462 C1.77068934,2.79501476 1.77068934,2.6050449 1.88785881,2.48787505 L4.28783442,0.0878915781 C4.34409673,0.0316162374 4.42041251,0 4.49998851,0 C4.57956452,0 4.65588029,0.0316162374 4.7121426,0.0878915781 L7.11211822,2.48787505 C7.18791357,2.56367065 7.21751503,2.67414516 7.189772,2.77768388 C7.16202897,2.8812226 7.08115629,2.96209555 6.9776179,2.98983867 C6.87407952,3.01758178 6.76360538,2.98798023 6.68781002,2.91218462 L4.79998547,1.02426013 L4.79998547,7.37577886 L8.91209992,11.487813 C8.99791889,11.5736127 9.02359484,11.7026643 8.9771526,11.8147786 C8.93071036,11.926893 8.82129832,11.9999854 8.69994582,11.9999658 L8.69994582,11.9999658 Z M0.512185285,11.9121226 L3.5121548,8.91214328 C3.62932428,8.79497343 3.62932428,8.60500356 3.5121548,8.4878337 C3.39498533,8.37066384 3.20501608,8.37066384 3.08784661,8.4878337 L0.087877102,11.487813 C-0.0292923673,11.6049829 -0.0292923673,11.7949528 0.087877102,11.9121226 C0.205046571,12.0292925 0.395015816,12.0292925 0.512185285,11.9121226 L0.512185285,11.9121226 Z" id="形状"></path>
                    </g>
                </g>
            </g>
        </g>
    </g>
</svg>