<?xml version="1.0" encoding="UTF-8"?>
<svg width="55px" height="73px" viewBox="0 0 55 73" version="1.1" xmlns="http://www.w3.org/2000/svg" xmlns:xlink="http://www.w3.org/1999/xlink">
    <!-- Generator: Sketch 54.1 (76490) - https://sketchapp.com -->
    <title>zuocechedaojieshu_icon</title>
    <desc>Created with Sketch.</desc>
    <g id="页面" stroke="none" stroke-width="1" fill="none" fill-rule="evenodd">
        <g id="C9_1_icon-汇总说明" transform="translate(-712.000000, -774.000000)">
            <g id="zuocechedaojieshu_icon-2" transform="translate(712.000000, 774.000000)">
                <g id="zuocechedaojieshu_icon" transform="translate(1.000000, 0.000000)">
                    <g id="1">
                        <path d="M23.4765,34.1751 C24.5735,34.1751 25.4705,33.2781 25.4705,32.1811 L25.4705,2.1681 C25.4705,1.0721 24.5735,0.1751 23.4765,0.1751 L2.1685,0.1751 C1.0725,0.1751 0.1745,1.0721 0.1745,2.1681 L0.1745,32.1811 C0.1745,33.2781 1.0725,34.1751 2.1685,34.1751 L23.4765,34.1751 Z" id="Fill-1" fill="#FEFEFE"></path>
                        <path d="M23.4765,34.1751 C24.5735,34.1751 25.4705,33.2781 25.4705,32.1811 L25.4705,2.1681 C25.4705,1.0721 24.5735,0.1751 23.4765,0.1751 L2.1685,0.1751 C1.0725,0.1751 0.1745,1.0721 0.1745,2.1681 L0.1745,32.1811 C0.1745,33.2781 1.0725,34.1751 2.1685,34.1751 L23.4765,34.1751 Z" id="Stroke-3" stroke="#353535" stroke-width="0.35"></path>
                        <path d="M15.7587,7.0076 C15.6327,7.0076 15.5307,6.8716 15.5307,6.7036 C15.5307,6.6386 15.5707,6.5276 15.5707,6.5276 L17.5307,2.7936 C17.5727,2.7356 17.6317,2.6976 17.6957,2.6976 C17.7617,2.6976 17.8197,2.7356 17.8617,2.7936 L17.8657,2.7936 L19.8247,6.5296 C19.8517,6.5786 19.8657,6.6386 19.8657,6.7036 C19.8657,6.8716 19.7647,7.0076 19.6387,7.0076 C19.6057,7.0076 18.5687,6.6276 18.5687,6.6276 L18.5687,31.3846 C18.5687,31.8686 18.1767,32.2606 17.6927,32.2606 C17.2087,32.2606 16.8167,31.8686 16.8167,31.3846 L16.8167,6.6276 C16.8167,6.6276 15.7917,7.0076 15.7587,7.0076" id="Fill-5" fill="#2C2B2B"></path>
                        <path d="M6.1249,18.825 L8.8849,16.636 L8.8629,16.601 C8.8629,16.601 8.0409,15.97 8.0239,15.944 C7.9609,15.843 8.0189,15.692 8.1529,15.607 C8.2049,15.575 8.3149,15.55 8.3149,15.55 L12.3039,15.239 C12.3709,15.243 12.4309,15.271 12.4629,15.324 C12.4959,15.376 12.4959,15.441 12.4699,15.504 L12.4729,15.508 L10.4619,18.968 C10.4349,19.013 10.3949,19.056 10.3429,19.089 C10.2079,19.174 10.0479,19.16 9.9829,19.059 C9.9699,19.037 9.8129,18.306 9.7639,18.08 L7.7829,19.744 C7.6079,19.901 7.5099,20.125 7.5099,20.36 L7.5099,31.43 C7.5099,31.889 7.1379,32.261 6.6789,32.261 C6.2199,32.261 5.8479,31.889 5.8479,31.43 L5.8479,19.445 C5.8479,19.208 5.9479,18.983 6.1249,18.825" id="Fill-7" fill="#2C2B2B"></path>
                    </g>
                    <g id="2" transform="translate(28.000000, 0.000000)">
                        <path d="M23.4765,34.1751 C24.5735,34.1751 25.4705,33.2781 25.4705,32.1811 L25.4705,2.1681 C25.4705,1.0721 24.5735,0.1751 23.4765,0.1751 L2.1685,0.1751 C1.0725,0.1751 0.1745,1.0721 0.1745,2.1681 L0.1745,32.1811 C0.1745,33.2781 1.0725,34.1751 2.1685,34.1751 L23.4765,34.1751 Z" id="Fill-1" fill="#FEFEFE"></path>
                        <path d="M23.4765,34.1751 C24.5735,34.1751 25.4705,33.2781 25.4705,32.1811 L25.4705,2.1681 C25.4705,1.0721 24.5735,0.1751 23.4765,0.1751 L2.1685,0.1751 C1.0725,0.1751 0.1745,1.0721 0.1745,2.1681 L0.1745,32.1811 C0.1745,33.2781 1.0725,34.1751 2.1685,34.1751 L23.4765,34.1751 Z" id="Stroke-3" stroke="#353535" stroke-width="0.35"></path>
                        <path d="M18.1737,7.0076 C18.0477,7.0076 17.9457,6.8716 17.9457,6.7036 C17.9457,6.6386 17.9857,6.5276 17.9857,6.5276 L19.9457,2.7936 C19.9877,2.7356 20.0467,2.6976 20.1107,2.6976 C20.1767,2.6976 20.2347,2.7356 20.2767,2.7936 L20.2807,2.7936 L22.2397,6.5296 C22.2667,6.5786 22.2807,6.6386 22.2807,6.7036 C22.2807,6.8716 22.1797,7.0076 22.0537,7.0076 C22.0207,7.0076 20.9847,6.6276 20.9847,6.6276 L20.9847,31.3846 C20.9847,31.8686 20.5917,32.2606 20.1077,32.2606 C19.6237,32.2606 19.2317,31.8686 19.2317,31.3846 L19.2317,6.6276 C19.2317,6.6276 18.2067,7.0076 18.1737,7.0076" id="Fill-5" fill="#2C2B2B"></path>
                        <path d="M10.4755,7.0076 C10.3495,7.0076 10.2475,6.8716 10.2475,6.7036 C10.2475,6.6386 10.2885,6.5276 10.2885,6.5276 L12.2485,2.7936 C12.2895,2.7356 12.3485,2.6976 12.4125,2.6976 C12.4785,2.6976 12.5375,2.7356 12.5785,2.7936 L12.5825,2.7936 L14.5415,6.5296 C14.5685,6.5786 14.5825,6.6386 14.5825,6.7036 C14.5825,6.8716 14.4815,7.0076 14.3555,7.0076 C14.3235,7.0076 13.2865,6.6276 13.2865,6.6276 L13.2865,31.3846 C13.2865,31.8686 12.8935,32.2606 12.4105,32.2606 C11.9255,32.2606 11.5335,31.8686 11.5335,31.3846 L11.5335,6.6276 C11.5335,6.6276 10.5085,7.0076 10.4755,7.0076" id="Fill-7" fill="#2C2B2B"></path>
                        <path d="M4.4647,18.825 L7.2247,16.636 L7.2027,16.601 C7.2027,16.601 6.3807,15.97 6.3637,15.944 C6.3007,15.843 6.3587,15.692 6.4927,15.607 C6.5447,15.575 6.6537,15.55 6.6537,15.55 L10.6437,15.239 C10.7107,15.243 10.7707,15.271 10.8027,15.324 C10.8357,15.376 10.8357,15.441 10.8097,15.504 L10.8127,15.508 L8.8007,18.968 C8.7747,19.013 8.7347,19.056 8.6827,19.089 C8.5477,19.174 8.3867,19.16 8.3227,19.059 C8.3097,19.037 8.1527,18.306 8.1037,18.08 L6.1217,19.744 C5.9477,19.901 5.8487,20.125 5.8487,20.36 L5.8487,31.43 C5.8487,31.889 5.4767,32.261 5.0177,32.261 C4.5587,32.261 4.1867,31.889 4.1867,31.43 L4.1867,19.445 C4.1867,19.208 4.2877,18.983 4.4647,18.825" id="Fill-9" fill="#2C2B2B"></path>
                    </g>
                    <g id="3" transform="translate(0.000000, 38.000000)">
                        <path d="M23.4771,34.1749 C24.5741,34.1749 25.4701,33.2779 25.4701,32.1819 L25.4701,2.1689 C25.4701,1.0719 24.5741,0.1749 23.4771,0.1749 L2.1681,0.1749 C1.0721,0.1749 0.1751,1.0719 0.1751,2.1689 L0.1751,32.1819 C0.1751,33.2779 1.0721,34.1749 2.1681,34.1749 L23.4771,34.1749 Z" id="Fill-1" fill="#FEFEFE"></path>
                        <path d="M23.4771,34.1749 C24.5741,34.1749 25.4701,33.2779 25.4701,32.1819 L25.4701,2.1689 C25.4701,1.0719 24.5741,0.1749 23.4771,0.1749 L2.1681,0.1749 C1.0721,0.1749 0.1751,1.0719 0.1751,2.1689 L0.1751,32.1819 C0.1751,33.2779 1.0721,34.1749 2.1681,34.1749 L23.4771,34.1749 Z" id="Stroke-3" stroke="#353535" stroke-width="0.35"></path>
                        <path d="M20.1871,7.0074 C20.0611,7.0074 19.9581,6.8714 19.9581,6.7034 C19.9581,6.6384 19.9991,6.5274 19.9991,6.5274 L21.9591,2.7934 C22.0011,2.7354 22.0591,2.6984 22.1241,2.6984 C22.1901,2.6984 22.2481,2.7354 22.2901,2.7934 L22.2941,2.7934 L24.2531,6.5294 C24.2791,6.5794 24.2941,6.6384 24.2941,6.7034 C24.2941,6.8714 24.1931,7.0074 24.0671,7.0074 C24.0341,7.0074 22.9971,6.6284 22.9971,6.6284 L22.9971,31.3844 C22.9971,31.8684 22.6051,32.2604 22.1211,32.2604 C21.6371,32.2604 21.2451,31.8684 21.2451,31.3844 L21.2451,6.6284 C21.2451,6.6284 20.2191,7.0074 20.1871,7.0074" id="Fill-5" fill="#2C2B2B"></path>
                        <path d="M13.6871,7.0074 C13.5611,7.0074 13.4581,6.8714 13.4581,6.7034 C13.4581,6.6384 13.4991,6.5274 13.4991,6.5274 L15.4591,2.7934 C15.5011,2.7354 15.5591,2.6984 15.6241,2.6984 C15.6891,2.6984 15.7481,2.7354 15.7901,2.7934 L15.7941,2.7934 L17.7531,6.5294 C17.7791,6.5794 17.7941,6.6384 17.7941,6.7034 C17.7941,6.8714 17.6931,7.0074 17.5671,7.0074 C17.5341,7.0074 16.4971,6.6284 16.4971,6.6284 L16.4971,31.3844 C16.4971,31.8684 16.1051,32.2604 15.6211,32.2604 C15.1371,32.2604 14.7451,31.8684 14.7451,31.3844 L14.7451,6.6284 C14.7451,6.6284 13.7191,7.0074 13.6871,7.0074" id="Fill-7" fill="#2C2B2B"></path>
                        <path d="M7.1871,7.0074 C7.0611,7.0074 6.9581,6.8714 6.9581,6.7034 C6.9581,6.6384 6.9991,6.5274 6.9991,6.5274 L8.9591,2.7934 C9.0011,2.7354 9.0591,2.6984 9.1241,2.6984 C9.1891,2.6984 9.2481,2.7354 9.2901,2.7934 L9.2941,2.7934 L11.2531,6.5294 C11.2791,6.5794 11.2941,6.6384 11.2941,6.7034 C11.2941,6.8714 11.1921,7.0074 11.0671,7.0074 C11.0341,7.0074 9.9971,6.6284 9.9971,6.6284 L9.9971,31.3844 C9.9971,31.8684 9.6041,32.2604 9.1211,32.2604 C8.6371,32.2604 8.2451,31.8684 8.2451,31.3844 L8.2451,6.6284 C8.2451,6.6284 7.2191,7.0074 7.1871,7.0074" id="Fill-9" fill="#2C2B2B"></path>
                        <path d="M1.6285,18.8248 L4.3885,16.6358 L4.3665,16.6018 C4.3665,16.6018 3.5445,15.9698 3.5275,15.9438 C3.4645,15.8428 3.5225,15.6918 3.6565,15.6068 C3.7085,15.5748 3.8185,15.5508 3.8185,15.5508 L7.8075,15.2388 C7.8745,15.2428 7.9345,15.2708 7.9665,15.3238 C7.9995,15.3758 7.9995,15.4408 7.9735,15.5038 L7.9765,15.5078 L5.9655,18.9678 C5.9385,19.0128 5.8985,19.0558 5.8465,19.0888 C5.7115,19.1738 5.5515,19.1598 5.4865,19.0588 C5.4735,19.0368 5.3165,18.3058 5.2675,18.0798 L3.2865,19.7438 C3.1115,19.9018 3.0135,20.1248 3.0135,20.3598 L3.0135,31.4298 C3.0135,31.8888 2.6415,32.2608 2.1825,32.2608 C1.7235,32.2608 1.3515,31.8888 1.3515,31.4298 L1.3515,19.4448 C1.3515,19.2078 1.4515,18.9828 1.6285,18.8248" id="Fill-11" fill="#2C2B2B"></path>
                    </g>
                    <g id="4" transform="translate(28.000000, 38.000000)">
                        <path d="M23.4768,34.1749 C24.5738,34.1749 25.4698,33.2779 25.4698,32.1819 L25.4698,2.1689 C25.4698,1.0719 24.5738,0.1749 23.4768,0.1749 L2.1678,0.1749 C1.0728,0.1749 0.1748,1.0719 0.1748,2.1689 L0.1748,32.1819 C0.1748,33.2779 1.0728,34.1749 2.1678,34.1749 L23.4768,34.1749 Z" id="Fill-1" fill="#FEFEFE"></path>
                        <path d="M23.4768,34.1749 C24.5738,34.1749 25.4698,33.2779 25.4698,32.1819 L25.4698,2.1689 C25.4698,1.0719 24.5738,0.1749 23.4768,0.1749 L2.1678,0.1749 C1.0728,0.1749 0.1748,1.0719 0.1748,2.1689 L0.1748,32.1819 C0.1748,33.2779 1.0728,34.1749 2.1678,34.1749 L23.4768,34.1749 Z" id="Stroke-3" stroke="#353535" stroke-width="0.35"></path>
                        <path d="M20.2541,6.9552 C20.1281,6.9552 20.0251,6.8192 20.0251,6.6512 C20.0251,6.5862 20.0661,6.4752 20.0661,6.4752 L22.0261,2.7412 C22.0681,2.6832 22.1261,2.6462 22.1911,2.6462 C22.2561,2.6462 22.3151,2.6832 22.3571,2.7412 L22.3611,2.7412 L24.3201,6.4772 C24.3461,6.5272 24.3611,6.5862 24.3611,6.6512 C24.3611,6.8192 24.2601,6.9552 24.1341,6.9552 C24.1011,6.9552 23.0641,6.5762 23.0641,6.5762 L23.0641,31.3322 C23.0641,31.8162 22.6721,32.2082 22.1881,32.2082 C21.7041,32.2082 21.3121,31.8162 21.3121,31.3322 L21.3121,6.5762 C21.3121,6.5762 20.2861,6.9552 20.2541,6.9552" id="Fill-5" fill="#2C2B2B"></path>
                        <path d="M15.3938,6.9552 C15.2678,6.9552 15.1658,6.8192 15.1658,6.6512 C15.1658,6.5862 15.2068,6.4752 15.2068,6.4752 L17.1668,2.7412 C17.2078,2.6832 17.2668,2.6462 17.3318,2.6462 C17.3968,2.6462 17.4558,2.6832 17.4968,2.7412 L17.5018,2.7412 L19.4608,6.4772 C19.4868,6.5272 19.5018,6.5862 19.5018,6.6512 C19.5018,6.8192 19.3998,6.9552 19.2738,6.9552 C19.2418,6.9552 18.2048,6.5762 18.2048,6.5762 L18.2048,31.3322 C18.2048,31.8162 17.8118,32.2082 17.3288,32.2082 C16.8438,32.2082 16.4528,31.8162 16.4528,31.3322 L16.4528,6.5762 C16.4528,6.5762 15.4268,6.9552 15.3938,6.9552" id="Fill-7" fill="#2C2B2B"></path>
                        <path d="M10.5344,6.9552 C10.4084,6.9552 10.3064,6.8192 10.3064,6.6512 C10.3064,6.5862 10.3464,6.4752 10.3464,6.4752 L12.3064,2.7412 C12.3484,2.6832 12.4074,2.6462 12.4714,2.6462 C12.5374,2.6462 12.5954,2.6832 12.6374,2.7412 L12.6414,2.7412 L14.6004,6.4772 C14.6274,6.5272 14.6414,6.5862 14.6414,6.6512 C14.6414,6.8192 14.5404,6.9552 14.4144,6.9552 C14.3814,6.9552 13.3454,6.5762 13.3454,6.5762 L13.3454,31.3322 C13.3454,31.8162 12.9524,32.2082 12.4684,32.2082 C11.9844,32.2082 11.5924,31.8162 11.5924,31.3322 L11.5924,6.5762 C11.5924,6.5762 10.5674,6.9552 10.5344,6.9552" id="Fill-9" fill="#2C2B2B"></path>
                        <path d="M5.675,6.9552 C5.549,6.9552 5.446,6.8192 5.446,6.6512 C5.446,6.5862 5.487,6.4752 5.487,6.4752 L7.447,2.7412 C7.489,2.6832 7.547,2.6462 7.612,2.6462 C7.677,2.6462 7.736,2.6832 7.778,2.7412 L7.782,2.7412 L9.741,6.4772 C9.767,6.5272 9.782,6.5862 9.782,6.6512 C9.782,6.8192 9.68,6.9552 9.555,6.9552 C9.522,6.9552 8.485,6.5762 8.485,6.5762 L8.485,31.3322 C8.485,31.8162 8.092,32.2082 7.609,32.2082 C7.125,32.2082 6.733,31.8162 6.733,31.3322 L6.733,6.5762 C6.733,6.5762 5.707,6.9552 5.675,6.9552" id="Fill-11" fill="#2C2B2B"></path>
                        <path d="M1.6916,18.8228 L2.9906,16.4788 L2.9686,16.4448 C2.9686,16.4448 2.1466,15.8128 2.1296,15.7868 C2.0666,15.6858 2.1246,15.5348 2.2586,15.4498 C2.3116,15.4178 2.4206,15.3938 2.4206,15.3938 L6.4096,15.0818 C6.4776,15.0858 6.5366,15.1148 6.5696,15.1668 C6.6016,15.2188 6.6016,15.2838 6.5766,15.3468 L6.5786,15.3508 L4.5676,18.8108 C4.5416,18.8568 4.5016,18.8988 4.4486,18.9318 C4.3136,19.0168 4.1536,19.0038 4.0896,18.9028 C4.0756,18.8798 3.9186,18.1498 3.8696,17.9228 L3.1916,19.4648 C3.1116,19.6738 3.1636,20.1768 3.1636,20.4118 L3.1636,31.4818 C3.1636,31.9408 2.7916,32.3128 2.3326,32.3128 C1.8736,32.3128 1.5016,31.9408 1.5016,31.4818 L1.5016,19.4968 C1.5016,19.2598 1.5366,19.1068 1.6916,18.8228" id="Fill-13" fill="#2C2B2B"></path>
                    </g>
                </g>
            </g>
        </g>
    </g>
</svg>