<?xml version="1.0" encoding="UTF-8"?>
<svg width="29px" height="29px" viewBox="0 0 29 29" version="1.1" xmlns="http://www.w3.org/2000/svg" xmlns:xlink="http://www.w3.org/1999/xlink">
    <!-- Generator: Sketch 54.1 (76490) - https://sketchapp.com -->
    <title>1105_06802_0复制 2</title>
    <desc>Created with Sketch.</desc>
    <defs>
        <polygon id="path-1" points="0 28.541 28.544 28.541 28.544 0 0 0"></polygon>
        <polygon id="path-3" points="0 28.541 28.544 28.541 28.544 0 0 0"></polygon>
    </defs>
    <g id="页面" stroke="none" stroke-width="1" fill="none" fill-rule="evenodd">
        <g id="C9_1_icon-汇总说明" transform="translate(-235.000000, -338.000000)">
            <g id="01203" transform="translate(235.000000, 338.000000)">
                <g id="1105_06802_0复制-2">
                    <path d="M1.083333,14.271 C1.083333,21.725 7.149333,27.791 14.605333,27.791 C22.061333,27.791 28.127333,21.727 28.127333,14.271 C28.127333,6.815 22.064333,0.75 14.605333,0.75 C7.150333,0.75 1.083333,6.816 1.083333,14.271" id="Fill-1" fill="#FEFEFE" fill-rule="nonzero"></path>
                    <path d="M1.083333,14.271 C1.083333,21.725 7.149333,27.791 14.605333,27.791 C22.061333,27.791 28.127333,21.727 28.127333,14.271 C28.127333,6.815 22.064333,0.75 14.605333,0.75 C7.150333,0.75 1.083333,6.816 1.083333,14.271 Z" id="Stroke-3" stroke="#D91C0F" stroke-width="1.5" stroke-linecap="round" stroke-linejoin="round"></path>
                    <g id="Fill-3复制-Clipped" transform="translate(0.333333, 0.000000)">
                        <mask id="mask-2" fill="white">
                            <use xlink:href="#path-1"></use>
                        </mask>
                        <g id="path-1"></g>
                    </g>
                    <g id="Fill-13-Clipped" transform="translate(0.333333, 0.000000)">
                        <g id="机动车" transform="translate(4.666667, 6.000000)" fill-rule="nonzero">
                            <polygon id="路径" fill="#FFFFFF" opacity="0.01" points="0 0 17 0 17 17 0 17"></polygon>
                            <path d="M7.28111388,2.12949546 C8.41505387,1.95683485 9.56800421,1.95683485 10.7019442,2.12949546 C11.4992846,2.29199328 12.2968917,2.42199153 13.0464983,2.6332387 C13.6049172,2.77861464 14.0506551,3.20512342 14.2267754,3.76259856 C14.551045,4.69398191 14.8913146,5.6175112 15.2475845,6.53264476 C15.3113184,6.68701769 15.5027867,6.91451464 15.6142544,6.89826486 C16.2477418,6.78999504 16.8501961,7.21603027 16.9699997,7.85700201 C17.0100001,8.02220813 17.0100001,8.19526831 16.9699997,8.36074525 L16.0606583,8.61261688 C16.1171922,8.93490422 16.1545258,9.26044153 16.1726593,9.58733298 L16.1726593,14.087981 C16.1624468,14.3600183 16.0674878,14.6217451 15.9014569,14.835471 C15.0598495,15.0006771 14.1966418,15.0169269 13.3494343,14.8842203 C12.7595624,14.5023504 13.1262323,13.860484 12.9350306,13.340491 L5.18376197,13.340491 C5.03229396,13.8929836 4.94455985,14.8192212 4.76909162,14.8842203 C3.90375062,15.0385932 3.01867611,15.0385932 2.15333511,14.8842203 C1.96968812,14.635572 1.86914624,14.3337954 1.86639924,14.0229818 C1.81839881,13.3729906 1.81839881,12.7554988 1.81839881,12.1217573 C1.81839881,10.943919 1.81839881,9.76608058 1.86639924,8.57984648 L1.02105841,8.35234953 C0.992980529,8.22117486 0.992980529,8.08540455 1.02105841,7.95422987 C1.26026053,7.30423858 1.57919669,6.80076617 2.4005373,6.87389019 C2.49653815,6.87389019 2.67973978,6.6788928 2.73547361,6.53264476 C3.04030447,5.80845957 3.30647086,5.06811039 3.532814,4.31482033 C3.83793755,3.20313881 4.79281472,2.40230656 5.92536854,2.30824306 C6.36403909,2.22699415 6.81870979,2.17011991 7.25711367,2.09699589 L7.28111388,2.12949546 L7.28111388,2.12949546 Z M3.75628265,7.15013648 C7.19480443,7.89143996 10.7482533,7.89143996 14.1867751,7.15013648 C13.8918391,6.24827357 13.5969032,5.44390936 13.3894347,4.63169108 C13.2634451,3.99383759 12.7061439,3.53889685 12.0656896,3.55108056 C10.4150083,3.47795654 8.75632695,3.42108231 7.10564566,3.40483253 C6.56624436,3.42638549 6.03107596,3.51089845 5.5106982,3.65670415 C5.27069607,3.70680764 5.06109421,3.85332651 4.9285597,4.0629487 C4.48188908,5.04606052 4.14721945,6.06167191 3.75628265,7.15013648 L3.75628265,7.15013648 Z M4.43415532,10.9845434 C4.71949119,11.0002515 5.00562705,10.9840018 5.28749622,10.9357941 C5.50801396,10.8837806 5.69637972,10.7390468 5.80563414,10.5376744 C5.8456345,10.415801 5.6621662,10.1151801 5.50269812,10.042056 C4.85412318,9.73245275 4.18847446,9.46117088 3.50908046,9.22956694 C3.17414416,9.11581847 2.7914741,9.14019314 2.71174006,9.61956171 C2.55227198,10.3264272 2.71174006,10.716422 3.22987799,10.8301705 C3.63654826,10.9114194 4.02721838,10.9276692 4.47388901,10.9682936 L4.43388865,10.9845434 L4.43415532,10.9845434 Z M13.6289035,10.9845434 C14.0487967,10.9540029 14.466691,10.899753 14.8806479,10.8220456 C15.4787865,10.6839224 15.3510521,10.1883041 15.3353186,9.75768486 C15.3193184,9.32706563 15.0961165,9.12394336 14.7689136,9.22144205 C13.9500918,9.46961195 13.1505518,9.77920955 12.3768924,10.1476796 C12.0256893,10.3183023 12.1534237,10.789546 12.5520939,10.8789198 C12.9086304,10.9333566 13.2683669,10.9658562 13.6286368,10.9764185 L13.6286368,10.9845434 L13.6289035,10.9845434 Z" id="形状" fill="#1E1E28"></path>
                        </g>
                        <mask id="mask-4" fill="white">
                            <use xlink:href="#path-3"></use>
                        </mask>
                        <g id="path-1"></g>
                        <polygon id="Fill-13" fill="#D91C0F" fill-rule="nonzero" mask="url(#mask-4)" transform="translate(14.270000, 14.269500) rotate(-45.000000) translate(-14.270000, -14.269500) " points="13.344 27.428 15.196 27.428 15.196 1.111 13.344 1.111"></polygon>
                    </g>
                </g>
            </g>
        </g>
    </g>
</svg>