<?xml version="1.0" encoding="UTF-8"?>
<svg width="28px" height="25px" viewBox="0 0 28 25" version="1.1" xmlns="http://www.w3.org/2000/svg" xmlns:xlink="http://www.w3.org/1999/xlink">
    <!-- Generator: Sketch 54.1 (76490) - https://sketchapp.com -->
    <title>1</title>
    <desc>Created with Sketch.</desc>
    <g id="页面" stroke="none" stroke-width="1" fill="none" fill-rule="evenodd">
        <g id="C9_1_icon-汇总说明" transform="translate(-785.000000, -425.000000)">
            <g id="编组-43" transform="translate(784.133457, 424.136423)">
                <g id="1" transform="translate(2.000000, 2.000000)">
                    <path d="M24.4567239,23.2461453 L0.776914379,23.2461453 C-0.23213324,23.0503558 -0.190038002,22.0271979 0.513200094,20.7615137 L11.6808191,0.677303158 C12.1030096,0.00530315804 13.1566287,-0.430486316 13.7756763,0.677303158 L24.7328191,20.3358295 C25.4781525,21.5408821 26.160343,23.2676189 24.4567239,23.2461453" id="Fill-1" fill="#F7BD42"></path>
                    <path d="M12.7280001,2.52302947 L2.18809533,21.3301874 L23.2666668,21.3301874 L12.7280001,2.52302947 Z M24.4564763,23.2463979 L0.77666676,23.2463979 C-0.232380859,23.0493453 -0.190285621,22.0261874 0.512952474,20.7617663 L11.6805715,0.67755579 C12.102762,0.00429263172 13.156381,-0.430233684 13.7754287,0.67755579 L24.7325715,20.3360821 C25.4779049,21.5411347 26.1600953,23.2666084 24.4564763,23.2463979 L24.4564763,23.2463979 Z" id="Fill-3" fill="#100808"></path>
                    <path d="M12.7280001,2.52302947 L2.18809533,21.3301874 L23.2666668,21.3301874 L12.7280001,2.52302947 Z M24.4564763,23.2463979 L0.77666676,23.2463979 C-0.232380859,23.0493453 -0.190285621,22.0261874 0.512952474,20.7617663 L11.6805715,0.67755579 C12.102762,0.00429263172 13.156381,-0.430233684 13.7754287,0.67755579 L24.7325715,20.3360821 C25.4779049,21.5411347 26.1600953,23.2666084 24.4564763,23.2463979 Z" id="Stroke-5" stroke="#100808" fill="#100808"></path>
                    <polygon id="Fill-7" fill="#231916" points="16.1935906 11.1473663 13.222162 11.1473663 13.222162 8.86357684 10.831781 8.86357684 10.831781 15.3890505 7.86654295 15.3890505 7.86654295 16.80884 10.8367334 16.80884 10.8367334 19.0926295 13.2271144 19.0926295 13.2271144 12.5658926 16.1935906 12.5658926"></polygon>
                </g>
            </g>
        </g>
    </g>
</svg>