<?xml version="1.0" encoding="UTF-8"?>
<svg width="57px" height="36px" viewBox="0 0 57 36" version="1.1" xmlns="http://www.w3.org/2000/svg" xmlns:xlink="http://www.w3.org/1999/xlink">
    <!-- Generator: Sketch 54.1 (76490) - https://sketchapp.com -->
    <title>zuocechedaozengjia_icon</title>
    <desc>Created with Sketch.</desc>
    <g id="页面" stroke="none" stroke-width="1" fill="none" fill-rule="evenodd">
        <g id="C9_1_icon-汇总说明" transform="translate(-487.000000, -809.000000)">
            <g id="zuocechedaozengjia_icon-2" transform="translate(487.000000, 809.000000)">
                <g id="zuocechedaozengjia_icon" transform="translate(0.000000, 1.000000)">
                    <g id="1">
                        <path d="M23.477,34.1753 C24.574,34.1753 25.47,33.2783 25.47,32.1813 L25.47,2.1683 C25.47,1.0713 24.574,0.1753 23.477,0.1753 L2.168,0.1753 C1.072,0.1753 0.175,1.0713 0.175,2.1683 L0.175,32.1813 C0.175,33.2783 1.072,34.1753 2.168,34.1753 L23.477,34.1753 Z" id="Fill-1" fill="#FEFEFE"></path>
                        <path d="M23.477,34.1753 C24.574,34.1753 25.47,33.2783 25.47,32.1813 L25.47,2.1683 C25.47,1.0713 24.574,0.1753 23.477,0.1753 L2.168,0.1753 C1.072,0.1753 0.175,1.0713 0.175,2.1683 L0.175,32.1813 C0.175,33.2783 1.072,34.1753 2.168,34.1753 L23.477,34.1753 Z" id="Stroke-3" stroke="#353535" stroke-width="0.35"></path>
                        <path d="M14.5854,6.6284 L14.5854,31.3854 C14.5854,31.8684 14.9784,32.2614 15.4614,32.2614 C15.9454,32.2614 16.3374,31.8684 16.3374,31.3854 L16.3374,6.6284 C16.3374,6.6284 17.3744,7.0074 17.4074,7.0074 C17.5334,7.0074 17.6354,6.8714 17.6354,6.7034 C17.6354,6.6394 17.6194,6.5784 17.5944,6.5294 L15.6354,2.7934 L15.6304,2.7934 C15.5884,2.7344 15.5294,2.6974 15.4654,2.6974 C15.3994,2.6974 15.3424,2.7344 15.3004,2.7934 L13.3394,6.5264 C13.3394,6.5264 13.2994,6.6394 13.2994,6.7034 C13.2994,6.8714 13.4014,7.0074 13.5274,7.0074 C13.5604,7.0074 14.5854,6.6284 14.5854,6.6284" id="Fill-5" fill="#2C2B2B"></path>
                        <path d="M5.1098,7.2446 L7.0698,3.5126 C7.1118,3.4536 7.1708,3.4166 7.2348,3.4166 C7.2998,3.4166 7.3578,3.4536 7.3998,3.5126 L7.4048,3.5126 L9.3628,7.2476 C9.3888,7.2966 9.4038,7.3556 9.4038,7.4206 C9.4038,7.5886 9.3018,7.7236 9.1758,7.7236 C9.1438,7.7236 8.1068,7.3456 8.1068,7.3456 L8.1068,14.2236 C8.1068,14.4936 8.2188,14.7516 8.4168,14.9346 L10.9758,17.3176 C11.1728,17.5016 11.2858,17.7596 11.2858,18.0286 C11.2858,18.8806 10.2688,19.3206 9.6488,18.7376 L6.6618,15.9346 C6.4658,15.7516 6.3548,15.4946 6.3548,15.2256 L6.3548,7.3456 C6.3548,7.3456 5.3308,7.7236 5.2968,7.7236 C5.1718,7.7236 5.0698,7.5886 5.0698,7.4206 C5.0698,7.3556 5.1098,7.2446 5.1098,7.2446" id="Fill-7" fill="#2C2B2B"></path>
                    </g>
                    <g id="2" transform="translate(31.000000, 0.000000)">
                        <path d="M23.477,34.1747 C24.574,34.1747 25.47,33.2787 25.47,32.1817 L25.47,2.1687 C25.47,1.0717 24.574,0.1747 23.477,0.1747 L2.168,0.1747 C1.072,0.1747 0.175,1.0717 0.175,2.1687 L0.175,32.1817 C0.175,33.2787 1.072,34.1747 2.168,34.1747 L23.477,34.1747 Z" id="Fill-1" fill="#FEFEFE"></path>
                        <path d="M23.477,34.1747 C24.574,34.1747 25.47,33.2787 25.47,32.1817 L25.47,2.1687 C25.47,1.0717 24.574,0.1747 23.477,0.1747 L2.168,0.1747 C1.072,0.1747 0.175,1.0717 0.175,2.1687 L0.175,32.1817 C0.175,33.2787 1.072,34.1747 2.168,34.1747 L23.477,34.1747 Z" id="Stroke-3" stroke="#353535" stroke-width="0.35"></path>
                        <path d="M19.2319,6.6278 L19.2319,31.3848 C19.2319,31.8688 19.6239,32.2608 20.1079,32.2608 C20.5909,32.2608 20.9839,31.8688 20.9839,31.3848 L20.9839,6.6278 C20.9839,6.6278 22.0209,7.0078 22.0529,7.0078 C22.1789,7.0078 22.2819,6.8708 22.2819,6.7028 C22.2819,6.6388 22.2659,6.5788 22.2409,6.5298 L20.2819,2.7928 L20.2759,2.7928 C20.2349,2.7348 20.1759,2.6978 20.1119,2.6978 C20.0459,2.6978 19.9879,2.7348 19.9469,2.7928 L17.9859,6.5268 C17.9859,6.5268 17.9459,6.6388 17.9459,6.7028 C17.9459,6.8708 18.0469,7.0078 18.1729,7.0078 C18.2069,7.0078 19.2319,6.6278 19.2319,6.6278" id="Fill-5" fill="#2C2B2B"></path>
                        <path d="M11.9409,6.6278 L11.9409,31.3848 C11.9409,31.8688 12.3329,32.2608 12.8169,32.2608 C13.2999,32.2608 13.6929,31.8688 13.6929,31.3848 L13.6929,6.6278 C13.6929,6.6278 14.7299,7.0078 14.7629,7.0078 C14.8879,7.0078 14.9909,6.8708 14.9909,6.7028 C14.9909,6.6388 14.9749,6.5788 14.9499,6.5298 L12.9909,2.7928 L12.9849,2.7928 C12.9439,2.7348 12.8849,2.6978 12.8209,2.6978 C12.7549,2.6978 12.6969,2.7348 12.6559,2.7928 L10.6949,6.5268 C10.6949,6.5268 10.6549,6.6388 10.6549,6.7028 C10.6549,6.8708 10.7569,7.0078 10.8819,7.0078 C10.9159,7.0078 11.9409,6.6278 11.9409,6.6278" id="Fill-7" fill="#2C2B2B"></path>
                        <path d="M3.6108,6.5262 L5.5708,2.7932 C5.6128,2.7352 5.6708,2.6982 5.7358,2.6982 C5.7998,2.6982 5.8588,2.7352 5.8998,2.7932 L5.9058,2.7932 L7.8638,6.5282 C7.8888,6.5782 7.9048,6.6372 7.9048,6.7022 C7.9048,6.8702 7.8028,7.0052 7.6768,7.0052 C7.6438,7.0052 6.6078,6.6272 6.6078,6.6272 L6.6078,13.5052 C6.6078,13.7752 6.7198,14.0332 6.9178,14.2162 L9.4768,16.5992 C9.6738,16.7832 9.7868,17.0412 9.7868,17.3102 C9.7868,18.1622 8.7698,18.6012 8.1498,18.0192 L5.1628,15.2162 C4.9668,15.0332 4.8558,14.7762 4.8558,14.5072 L4.8558,6.6272 C4.8558,6.6272 3.8318,7.0052 3.7978,7.0052 C3.6728,7.0052 3.5708,6.8702 3.5708,6.7022 C3.5708,6.6372 3.6108,6.5262 3.6108,6.5262" id="Fill-9" fill="#2C2B2B"></path>
                    </g>
                </g>
            </g>
        </g>
    </g>
</svg>