<?xml version="1.0" encoding="UTF-8"?>
<svg width="31px" height="28px" viewBox="0 0 31 28" version="1.1" xmlns="http://www.w3.org/2000/svg" xmlns:xlink="http://www.w3.org/1999/xlink">
    <!-- Generator: Sketch 54.1 (76490) - https://sketchapp.com -->
    <title>qitajingshipai_1</title>
    <desc>Created with Sketch.</desc>
    <defs>
        <polygon id="path-1" points="0.000169437369 0.510776 30.9998306 0.510776 30.9998306 28 0.000169437369 28"></polygon>
    </defs>
    <g id="页面" stroke="none" stroke-width="1" fill="none" fill-rule="evenodd">
        <g id="C9_1_icon-汇总说明" transform="translate(-1489.000000, -2374.000000)">
            <g id="编组-34" transform="translate(1439.000000, 2374.000000)">
                <g id="qitajingshipai_1" transform="translate(50.000000, 0.000000)">
                    <g id="qitajingshipai_2">
                        <g id="编组">
                            <mask id="mask-2" fill="white">
                                <use xlink:href="#path-1"></use>
                            </mask>
                            <g id="Clip-2"></g>
                            <path d="M29.6874821,28.000336 C30.856625,28.000336 31.3349107,27.161456 30.7503393,26.137776 L16.5634107,1.279376 C15.9788393,0.254576 15.0211607,0.254576 14.4365893,1.279376 L0.249660714,26.137776 C-0.334910714,27.161456 0.143375,28.000336 1.31251786,28.000336 L29.6874821,28.000336 Z" id="Fill-1" fill="#D02E1D" mask="url(#mask-2)"></path>
                        </g>
                        <polygon id="Fill-3" fill="#FEFEFE" points="2 26 29 26 15.5 3"></polygon>
                    </g>
                    <path d="M18.6045874,21.484 C18.6655874,21.393 18.4155874,21.115 18.4155874,21.115 L19.2015874,19.939 L19.0145874,19.814 C18.9285874,19.756 18.8425874,19.824 18.8425874,19.824 L17.7415874,20.416 C17.0865874,19.875 15.9205874,19.012 15.9205874,19.012 L16.8505874,17.621 L18.5635874,16.422 L17.9335874,16 L14.1755874,17.742 C14.1755874,17.742 13.6355874,17.402 12.5015874,16.769 C11.3695874,16.136 11.1395874,16.294 11.0465874,16.432 C10.9545874,16.571 10.8965874,16.843 11.9145874,17.649 C12.9325874,18.454 13.4535874,18.823 13.4535874,18.823 L13.2815874,22.961 L13.9125874,23.382 L14.3645874,21.34 L15.2935874,19.949 C15.2935874,19.949 16.5375874,20.697 17.2875874,21.094 L17.1625874,22.338 C17.1625874,22.338 17.1335874,22.444 17.2195874,22.501 L17.4055874,22.626 L18.1915874,21.45 C18.1915874,21.45 18.5435874,21.575 18.6045874,21.484" id="Fill-5" fill="#231916"></path>
                </g>
            </g>
        </g>
    </g>
</svg>