<?xml version="1.0" encoding="UTF-8"?>
<svg width="28px" height="25px" viewBox="0 0 28 25" version="1.1" xmlns="http://www.w3.org/2000/svg" xmlns:xlink="http://www.w3.org/1999/xlink">
    <!-- Generator: Sketch 54.1 (76490) - https://sketchapp.com -->
    <title>3</title>
    <desc>Created with Sketch.</desc>
    <g id="页面" stroke="none" stroke-width="1" fill="none" fill-rule="evenodd">
        <g id="C9_1_icon-汇总说明" transform="translate(-861.000000, -425.000000)">
            <g id="19" transform="translate(860.133644, 424.136626)">
                <g id="3" transform="translate(2.000000, 2.000000)">
                    <path d="M24.4569086,23.2458165 L0.777099037,23.2458165 C-0.233186678,23.0500271 -0.189853344,22.0268692 0.513384751,20.7624481 L11.6810038,0.67823758 C12.1031943,0.00497442181 13.1568133,-0.430815052 13.7746228,0.67823758 L24.7330038,20.3355007 C25.4783371,21.5405534 26.1592895,23.2672902 24.4569086,23.2458165" id="Fill-1" fill="#F7BD42"></path>
                    <path d="M12.7276895,2.52270074 L2.18902285,21.3298586 L23.2663562,21.3298586 L12.7276895,2.52270074 Z M24.4574038,23.2460692 L0.777594275,23.2460692 C-0.23269144,23.0490165 -0.190596201,22.0258586 0.513879989,20.7614376 L11.6802609,0.678490211 C12.1036895,0.0039638955 13.1560705,-0.43056242 13.7751181,0.678490211 L24.7322609,20.3357534 C25.4775943,21.540806 26.1597848,23.2662797 24.4574038,23.2460692 L24.4574038,23.2460692 Z" id="Fill-3" fill="#100808"></path>
                    <path d="M12.7276895,2.52270074 L2.18902285,21.3298586 L23.2663562,21.3298586 L12.7276895,2.52270074 Z M24.4574038,23.2460692 L0.777594275,23.2460692 C-0.23269144,23.0490165 -0.190596201,22.0258586 0.513879989,20.7614376 L11.6802609,0.678490211 C12.1036895,0.0039638955 13.1560705,-0.43056242 13.7751181,0.678490211 L24.7322609,20.3357534 C25.4775943,21.540806 26.1597848,23.2662797 24.4574038,23.2460692 Z" id="Stroke-5" stroke="#100808" fill="#100808"></path>
                    <polygon id="Fill-7" fill="#231916" points="15.70988 8.86337442 12.8663562 8.86337442 12.8663562 19.0911639 15.70988 19.0911639"></polygon>
                    <polygon id="Fill-7" fill="#231916" transform="translate(10.990447, 12.515315) rotate(-180.000000) translate(-10.990447, -12.515315) " points="9.11453803 9.88811214 9.11453803 12.6185886 11.6882445 15.1425178 12.8663562 13.677103"></polygon>
                </g>
            </g>
        </g>
    </g>
</svg>