<?xml version="1.0" encoding="UTF-8"?><svg id="b" xmlns="http://www.w3.org/2000/svg" width="84.6" height="40.5" xmlns:xlink="http://www.w3.org/1999/xlink" viewBox="0 0 84.6 40.5"><defs><style>.e{fill:#fad950;}.f{fill:#0a0a0a;}.g{fill:url(#d);stroke:#8b9fae;stroke-miterlimit:10;stroke-width:1.2px;}</style><linearGradient id="d" x1=".6" y1="20.3" x2="84" y2="20.3" gradientUnits="userSpaceOnUse"><stop offset="0" stop-color="#afbacb"/><stop offset=".1" stop-color="#c1ccda"/><stop offset=".4" stop-color="#d9e6f0"/><stop offset=".5" stop-color="#e3f0f8"/><stop offset=".6" stop-color="#dde9f2"/><stop offset=".8" stop-color="#ccd8e4"/><stop offset="1" stop-color="#b1bbcc"/><stop offset="1" stop-color="#aeb8c9"/></linearGradient></defs><g id="c"><g><rect class="g" x=".6" y=".6" width="83.4" height="39.3" rx="4.6" ry="4.6"/><g><rect class="e" x="3.2" y="4.4" width="78.1" height="33.9" rx="2.6" ry="2.6"/><path class="f" d="M78.8,6.5c.3,0,.5,.2,.5,.5v28.8c0,.3-.2,.5-.5,.5H5.8c-.3,0-.5-.2-.5-.5V7c0-.3,.2-.5,.5-.5H78.8m0-4.1H5.8C3.3,2.4,1.2,4.4,1.2,7v28.8c0,2.6,2.1,4.6,4.6,4.6H78.8c2.6,0,4.6-2.1,4.6-4.6V7c0-2.6-2.1-4.6-4.6-4.6h0Z"/></g><path d="M42.3,27.6c.7,0,1.3,.2,1.7,.7,.5,.5,.7,1,.7,1.7s-.2,1.2-.7,1.7c-.5,.5-1.1,.7-1.7,.7s-1.2-.2-1.7-.7c-.5-.5-.7-1-.7-1.7s.2-1.2,.7-1.7c.5-.5,1-.7,1.7-.7Zm2.1-17.3l-.5,15h-3.3l-.5-15h4.3Z"/></g></g></svg>