<?xml version="1.0" encoding="UTF-8"?>
<svg id="b" xmlns="http://www.w3.org/2000/svg" width="124.7" height="124.8"
    xmlns:xlink="http://www.w3.org/1999/xlink" viewBox="0 0 124.7 124.8">
    <defs>
        <style>
            .h{fill:url(#f);}.i{fill:#fad950;}.j{fill:#0a0a0a;}.k,.l{fill:#535a60;}.m{fill:#262d34;isolation:isolate;opacity:.2;}.n{fill:url(#g);stroke:#8b9fae;stroke-miterlimit:10;stroke-width:1px;}.l{opacity:0;}
        </style>
        <linearGradient id="f" x1="60.1" y1="50" x2="64.9" y2="50" gradientUnits="userSpaceOnUse">
            <stop offset="0" stop-color="#989898" />
            <stop offset="0" stop-color="#a3a3a3" />
            <stop offset=".1" stop-color="#c4c5c5" />
            <stop offset=".2" stop-color="#d8d9d9" />
            <stop offset=".3" stop-color="#e0e1e1" />
            <stop offset=".4" stop-color="#dbdcdc" />
            <stop offset=".5" stop-color="#cccece" />
            <stop offset=".6" stop-color="#b5b6b7" />
            <stop offset=".7" stop-color="#949697" />
            <stop offset=".8" stop-color="#6a6c6f" />
            <stop offset=".8" stop-color="#3f4246" />
            <stop offset="1" stop-color="#404247" />
            <stop offset="1" stop-color="#43434a" />
        </linearGradient>
        <linearGradient id="g" x1="-422.2" y1="-703.9" x2="-375.8" y2="-703.9"
            gradientTransform="translate(845.1 -193.1) rotate(-76.1)"
            gradientUnits="userSpaceOnUse">
            <stop offset="0" stop-color="#afbacb" />
            <stop offset=".1" stop-color="#c1ccda" />
            <stop offset=".4" stop-color="#d9e6f0" />
            <stop offset=".5" stop-color="#e3f0f8" />
            <stop offset=".6" stop-color="#dde9f2" />
            <stop offset=".8" stop-color="#ccd8e4" />
            <stop offset="1" stop-color="#b1bbcc" />
            <stop offset="1" stop-color="#aeb8c9" />
        </linearGradient>
    </defs>
    <g id="c">
        <g>
            <rect class="l" y="0" width="124.7" height="124.7" />
            <g>
                <ellipse id="d" class="m" cx="62.4" cy="61.4" rx="14.4" ry="3.7" />
                <ellipse id="e" class="k" cx="62.4" cy="61.4" rx="7.5" ry="3" />
                <path class="h"
                    d="M62.4,37.9h0c1.4,0,2.6,1.2,2.6,2.6v19.2c0,1.4-1.1,2.5-2.5,2.5h-.3c-1.4,0-2.5-1.1-2.5-2.5v-19.3c0-1.4,1.2-2.6,2.6-2.6Z" />
                <g>
                    <path class="n"
                        d="M64.8,1.9l22.1,36.4c1.1,1.9-.2,4.3-2.4,4.3H40.3c-2.2,0-3.6-2.4-2.4-4.3L59.9,1.9c1.1-1.8,3.7-1.8,4.8,0Z" />
                    <g>
                        <path class="i"
                            d="M40.4,41c-.3,0-.4-.2-.5-.3,0-.1-.1-.4,0-.6L61.8,5.2c.1-.2,.3-.3,.5-.3s.4,0,.5,.3l21.8,34.9c.2,.2,0,.5,0,.6,0,.1-.2,.3-.5,.3H40.4Z" />
                        <path class="j"
                            d="M62.3,8.7l18.8,30.1H43.4L62.3,8.7m0-6c-.9,0-1.8,.4-2.4,1.3l-21.8,34.9c-1.2,1.9,.2,4.3,2.4,4.3h43.7c2.2,0,3.6-2.4,2.4-4.3L64.7,4.1c-.6-.9-1.5-1.3-2.4-1.3h0Z" />
                    </g>
                </g>
            </g>
            <path
                d="M62.1,32.5c.6,0,1.1,.2,1.5,.6,.4,.4,.6,.9,.6,1.5s-.2,1-.6,1.4c-.4,.4-.9,.6-1.5,.6s-1.1-.2-1.5-.6c-.4-.4-.6-.9-.6-1.4s.2-1.1,.6-1.5c.4-.4,.9-.6,1.5-.6Zm1.8-14.8l-.4,12.8h-2.8l-.4-12.8h3.6Z" />
        </g>
    </g>
</svg>