<?xml version="1.0" encoding="utf-8"?>
<!-- Generator: Adobe Illustrator 17.0.0, SVG Export Plug-In . SVG Version: 6.00 Build 0)  -->
<!DOCTYPE svg PUBLIC "-//W3C//DTD SVG 1.1//EN" "http://www.w3.org/Graphics/SVG/1.1/DTD/svg11.dtd">
<svg version="1.1"
	 id="svg2203" xmlns:cc="http://web.resource.org/cc/" xmlns:svg="http://www.w3.org/2000/svg" xmlns:rdf="http://www.w3.org/1999/02/22-rdf-syntax-ns#" xmlns:sodipodi="http://sodipodi.sourceforge.net/DTD/sodipodi-0.dtd" xmlns:dc="http://purl.org/dc/elements/1.1/" xmlns:inkscape="http://www.inkscape.org/namespaces/inkscape" sodipodi:version="0.32" sodipodi:docname="闂傚倸鍊搁崐鎼佸磹瀹勬噴褰掑炊閺冨牊鍋愰柛娆忛崰鎰磽娴ｆ垝鍚柛瀣仧閹广垹鈹戠€ｏ紲濠电姴锕ら幊鎰版晬濠婂啠鏀介柍鈺佸暢绾偓缂傚倷鑳舵慨闈涚暆缁嬪灝煤缁犲綊鏌ｉ幇绲诲┑娲栭埞鎴︽晬閸曞摋濠碘€抽柟鍋撻幖杈剧悼閻撴捇鏌ｉ悩鍙夊窛闁稿鎸歌灋闁告劖妲梺閫炲嫮鍘甸梺鑹板吹濡" sodipodi:docbase="D:\SVG\闂傚倸鍊搁崐鎼佸磹閹间礁纾瑰瀣捣閻棗銆掑锝呬壕濡ょ姷鍋為悧鐘茬拠娴嬫婵炲棙鍔曢崝鍛存⒑闂堟稓绠冲┑鏀辩粋鎺楁嚃閳哄啰锛濇繛杈剧导缁瑩宕ú鐓欓柛娑橈攻閸婃劙鏌" inkscape:version="0.45.1" inkscape:output_extension="org.inkscape.output.svg.inkscape"
	 xmlns="http://www.w3.org/2000/svg" xmlns:xlink="http://www.w3.org/1999/xlink" x="0px" y="0px" width="30px" height="30px"
	 viewBox="0 0 30 30" enable-background="new 0 0 30 30" xml:space="preserve">
<sodipodi:namedview  inkscape:zoom="0.74999999" id="base" showguides="true" guidetolerance="10" pagecolor="#ffffff" inkscape:cx="126.79097" borderopacity="1.0" gridtolerance="10000" bordercolor="#666666" inkscape:cy="646.08493" objecttolerance="10" inkscape:window-height="968" inkscape:window-y="-4" inkscape:window-x="-4" inkscape:window-width="1280" inkscape:current-layer="layer1" inkscape:document-units="px" inkscape:pageshadow="2" inkscape:pageopacity="0.0" inkscape:guide-bbox="true">
	<sodipodi:guide  position="1116" id="guide22942" orientation="vertical"></sodipodi:guide>
	<sodipodi:guide  position="1147" id="guide22944" orientation="vertical"></sodipodi:guide>
</sodipodi:namedview>
<g>
	<path fill="#100808" d="M28.824,28.664c0.5,0,0.909-0.428,0.909-0.963c0-0.169-0.046-0.337-0.124-0.483L15.785,1.819
		c-0.161-0.298-0.461-0.483-0.787-0.483c-0.322,0-0.624,0.185-0.785,0.483L0.385,27.218c-0.074,0.146-0.119,0.315-0.119,0.483
		c0,0.53,0.406,0.963,0.911,0.963H28.824z"/>
	<polygon fill="#F7BD42" points="25.682,25.775 4.318,25.775 14.998,6.153 	"/>
	<polygon points="6.077,24.862 9.145,19.707 14.655,19.618 14.655,24.875 	"/>
	<path d="M22.885,21.316l0.265,0.691c-0.026,0.022-0.044,0.039-0.07,0.057c-0.183,0.152-0.343,0.289-0.574,0.289l0,0l0,0l0,0l0,0
		c-0.228,0-0.383-0.137-0.569-0.289c-0.198-0.167-0.424-0.348-0.734-0.348c-0.309,0-0.535,0.182-0.735,0.348
		c-0.187,0.152-0.341,0.285-0.569,0.285c-0.23,0-0.385-0.133-0.565-0.285c-0.196-0.167-0.424-0.348-0.734-0.348
		c-0.307,0-0.535,0.183-0.734,0.348c-0.189,0.152-0.352,0.285-0.58,0.285c-0.232,0-0.393-0.133-0.58-0.285
		c-0.2-0.167-0.432-0.348-0.739-0.348c-0.313,0-0.539,0.183-0.734,0.348c-0.183,0.152-0.345,0.289-0.574,0.289v-0.908
		c0.23,0,0.389-0.13,0.574-0.282c0.194-0.165,0.424-0.348,0.734-0.348c0.307,0,0.539,0.183,0.739,0.348
		c0.191,0.152,0.348,0.282,0.58,0.282c0.226,0,0.393-0.13,0.58-0.282c0.198-0.165,0.426-0.348,0.734-0.348
		c0.311,0,0.537,0.189,0.734,0.348c0.18,0.152,0.335,0.282,0.565,0.282c0.228,0,0.382-0.13,0.569-0.282
		c0.194-0.159,0.422-0.348,0.734-0.348c0.309,0,0.535,0.183,0.734,0.348c0.185,0.152,0.341,0.282,0.569,0.282
		C22.654,21.446,22.769,21.396,22.885,21.316z"/>
	<path d="M23.428,23.463l0.3,0.774c-0.269,0.026-0.463,0.193-0.652,0.333c-0.183,0.144-0.343,0.28-0.574,0.28
		c-0.23,0-0.387-0.135-0.572-0.28c-0.198-0.157-0.424-0.337-0.734-0.337c-0.309,0-0.535,0.18-0.734,0.337
		c-0.187,0.148-0.341,0.27-0.569,0.27c-0.23,0-0.385-0.12-0.565-0.27c-0.198-0.157-0.424-0.337-0.737-0.337
		c-0.307,0-0.532,0.18-0.734,0.337c-0.189,0.146-0.352,0.27-0.58,0.27c-0.232,0-0.391-0.122-0.58-0.27
		c-0.2-0.157-0.432-0.337-0.739-0.337c-0.313,0-0.539,0.18-0.734,0.337c-0.185,0.144-0.345,0.28-0.576,0.28v-0.876
		c0.232,0,0.389-0.124,0.576-0.272c0.194-0.161,0.424-0.339,0.734-0.339c0.307,0,0.539,0.178,0.739,0.337
		c0.191,0.15,0.348,0.274,0.58,0.274c0.228,0,0.395-0.124,0.58-0.274c0.198-0.159,0.424-0.337,0.734-0.337
		c0.315,0,0.539,0.178,0.737,0.339c0.18,0.148,0.335,0.272,0.565,0.272c0.228,0,0.382-0.124,0.569-0.272
		c0.194-0.161,0.422-0.339,0.734-0.339c0.309,0,0.535,0.178,0.734,0.339c0.185,0.148,0.343,0.272,0.572,0.272
		c0.232,0,0.391-0.124,0.574-0.272C23.185,23.621,23.298,23.534,23.428,23.463z"/>
	<path d="M15.545,12.712c-0.091-0.019-0.202,0.069-0.217,0.156l-0.069,0.372l-0.743-0.137c-0.38-0.069-0.615,0.087-0.774,0.337
		c-0.113,0.172-0.811,1.267-0.811,1.267c-0.32,0.026-0.595,0.269-0.654,0.6L11.966,17l0.55,0.102c0,0-0.087,0.433-0.117,0.58
		c-0.046,0.256,0.12,0.504,0.376,0.548c0.254,0.046,0.5-0.122,0.545-0.383l0.107-0.58l3.423,0.622l-0.107,0.582
		c-0.044,0.257,0.122,0.506,0.378,0.554c0.257,0.043,0.496-0.126,0.543-0.387c0.03-0.141,0.102-0.58,0.102-0.58l0.554,0.098
		l0.307-1.691c0.061-0.333-0.115-0.656-0.398-0.791c0,0-0.274-1.274-0.319-1.474c-0.061-0.289-0.224-0.517-0.6-0.585l-0.75-0.135
		l0.067-0.376c0.019-0.083-0.057-0.206-0.148-0.224L15.545,12.712z"/>
	<path fill="#F7BD42" d="M17.191,14.102c0.154,0.028,0.232,0.107,0.27,0.293c0.039,0.194,0.243,1.145,0.243,1.145l-4.251-0.774
		c0,0,0.528-0.815,0.637-0.985c0.104-0.159,0.202-0.206,0.354-0.18L17.191,14.102z"/>
</g>
</svg>
