<?xml version="1.0" encoding="UTF-8"?>
<svg width="28px" height="25px" viewBox="0 0 28 25" version="1.1" xmlns="http://www.w3.org/2000/svg" xmlns:xlink="http://www.w3.org/1999/xlink">
    <!-- Generator: Sketch 54.1 (76490) - https://sketchapp.com -->
    <title>2</title>
    <desc>Created with Sketch.</desc>
    <g id="页面" stroke="none" stroke-width="1" fill="none" fill-rule="evenodd">
        <g id="C9_1_icon-汇总说明" transform="translate(-824.000000, -425.000000)">
            <g id="编组-43" transform="translate(784.133457, 424.136423)">
                <g id="2" transform="translate(41.000187, 2.000000)">
                    <path d="M24.4569086,23.2461453 L0.777099037,23.2461453 C-0.233186678,23.0503558 -0.189853344,22.0271979 0.513384751,20.7615137 L11.6810038,0.677303158 C12.1031943,0.00530315804 13.1568133,-0.430486316 13.7746228,0.677303158 L24.7330038,20.3358295 C25.4783371,21.5408821 26.1592895,23.2676189 24.4569086,23.2461453" id="Fill-1" fill="#F7BD42"></path>
                    <path d="M12.7276895,2.52302947 L2.18902285,21.3301874 L23.2663562,21.3301874 L12.7276895,2.52302947 Z M24.4574038,23.2463979 L0.777594275,23.2463979 C-0.23269144,23.0493453 -0.190596201,22.0261874 0.513879989,20.7617663 L11.6802609,0.67755579 C12.1036895,0.00429263172 13.1560705,-0.430233684 13.7751181,0.67755579 L24.7322609,20.3360821 C25.4775943,21.5411347 26.1597848,23.2666084 24.4574038,23.2463979 L24.4574038,23.2463979 Z" id="Fill-3" fill="#100808"></path>
                    <path d="M12.7276895,2.52302947 L2.18902285,21.3301874 L23.2663562,21.3301874 L12.7276895,2.52302947 Z M24.4574038,23.2463979 L0.777594275,23.2463979 C-0.23269144,23.0493453 -0.190596201,22.0261874 0.513879989,20.7617663 L11.6802609,0.67755579 C12.1036895,0.00429263172 13.1560705,-0.430233684 13.7751181,0.67755579 L24.7322609,20.3360821 C25.4775943,21.5411347 26.1597848,23.2666084 24.4574038,23.2463979 Z" id="Stroke-5" stroke="#100808"></path>
                    <polygon id="Fill-7" fill="#231916" points="7.86635618 16.7317874 9.15645142 18.0479979 11.7056895 15.4484189 11.7056895 19.0926295 14.5492133 19.0926295 14.5492133 8.86357684 11.7056895 8.86357684 11.7056895 12.8147347"></polygon>
                </g>
            </g>
        </g>
    </g>
</svg>