<?xml version="1.0" encoding="UTF-8"?>
<svg width="29px" height="26px" viewBox="0 0 29 26" version="1.1" xmlns="http://www.w3.org/2000/svg" xmlns:xlink="http://www.w3.org/1999/xlink">
    <!-- Generator: Sketch 54.1 (76490) - https://sketchapp.com -->
    <title>04402</title>
    <desc>Created with Sketch.</desc>
    <g id="-" stroke="none" stroke-width="1" fill="none" fill-rule="evenodd">
        <g id="C9_1_icon-汇总说明(一)" transform="translate(-208.000000, -676.000000)">
            <g id="编组-29" transform="translate(208.000000, 676.000000)">
                <g id="04402">
                    <path d="M26.9425,25.1078 L0.9605,25.1078 C-0.1475,24.8968 -0.1005,23.7958 0.6715,22.4368 L12.9245,0.8368 C13.3875,0.1128 14.5435,-0.3552 15.2215,0.8368 L27.2455,21.9788 C28.0625,23.2738 28.8115,25.1298 26.9425,25.1078" id="Fill-1" fill="#E7D642"></path>
                    <path d="M14.0728,2.8217 L2.5098,23.0477 L25.6368,23.0477 L14.0728,2.8217 Z M26.9428,25.1077 L0.9608,25.1077 C-0.1482,24.8967 -0.1002,23.7967 0.6708,22.4367 L12.9248,0.8377 C13.3878,0.1127 14.5438,-0.3553 15.2218,0.8377 L27.2448,21.9787 C28.0628,23.2737 28.8108,25.1307 26.9428,25.1077 L26.9428,25.1077 Z" id="Fill-3" fill="#231916"></path>
                    <path d="M14.0728,2.8217 L2.5098,23.0477 L25.6368,23.0477 L14.0728,2.8217 Z M26.9428,25.1077 L0.9608,25.1077 C-0.1482,24.8967 -0.1002,23.7967 0.6708,22.4367 L12.9248,0.8377 C13.3878,0.1127 14.5438,-0.3553 15.2218,0.8377 L27.2448,21.9787 C28.0628,23.2737 28.8108,25.1307 26.9428,25.1077 Z" id="Stroke-5" stroke="#231916" stroke-width="0.216"></path>
                    <polygon id="Fill-7" fill="#231916" points="17.1217 21.8617 11.0947 21.8617 12.9547 18.1927 14.9867 18.1927"></polygon>
                    <path d="M18.5509,14.2328 L18.5509,21.9698 L17.5519,21.9698 L17.5579,14.2638 C16.4309,10.9778 12.1579,10.3138 10.5609,14.2698 L10.5609,21.9698 L9.6649,21.9698 L9.6649,14.1968 C11.3639,9.3298 17.0119,9.2938 18.5509,14.2328" id="Fill-9" fill="#231916"></path>
                    <path d="M17.3468,14.4613 L17.3468,21.8113 C16.6518,20.5853 15.9578,19.3583 15.2628,18.1333 C15.2658,17.1323 15.2678,16.1313 15.2708,15.1293 C14.7008,13.6843 13.2458,13.7923 12.8078,15.1583 L12.8078,18.1363 L10.8688,21.8113 L10.8688,14.3063 C12.1988,11.2113 15.8048,10.6813 17.3468,14.4613" id="Fill-11" fill="#231916"></path>
                </g>
            </g>
        </g>
    </g>
</svg>