<?xml version="1.0" encoding="UTF-8"?>
<svg width="21px" height="19px" viewBox="0 0 21 19" version="1.1" xmlns="http://www.w3.org/2000/svg" xmlns:xlink="http://www.w3.org/1999/xlink">
    <!-- Generator: Sketch 54.1 (76490) - https://sketchapp.com -->
    <title>03108</title>
    <desc>Created with Sketch.</desc>
    <g id="-" stroke="none" stroke-width="1" fill="none" fill-rule="evenodd">
        <g id="C9_1_icon-汇总说明(一)" transform="translate(-724.000000, -620.000000)">
            <g id="编组-28" transform="translate(335.000000, 613.000000)">
                <g id="03108" transform="translate(389.000000, 7.000000)">
                    <path d="M19.8617,18.5105 L0.7357,18.5105 C-0.0803,18.3555 -0.0453,17.5455 0.5227,16.5445 L9.5427,0.6445 C9.8827,0.1115 10.7347,-0.2335 11.2337,0.6445 L20.0847,16.2075 C20.6867,17.1605 21.2367,18.5285 19.8617,18.5105" id="Fill-1" fill="#E7D642"></path>
                    <path d="M10.388,2.1052 L1.875,16.9942 L18.9,16.9942 L10.388,2.1052 Z M19.862,18.5102 L0.736,18.5102 C-0.08,18.3552 -0.046,17.5452 0.523,16.5442 L9.542,0.6452 C9.883,0.1112 10.734,-0.2328 11.234,0.6452 L20.084,16.2082 C20.686,17.1612 21.237,18.5282 19.862,18.5102 L19.862,18.5102 Z" id="Fill-3" fill="#231916"></path>
                    <path d="M10.388,2.1052 L1.875,16.9942 L18.9,16.9942 L10.388,2.1052 Z M19.862,18.5102 L0.736,18.5102 C-0.08,18.3552 -0.046,17.5452 0.523,16.5442 L9.542,0.6452 C9.883,0.1112 10.734,-0.2328 11.234,0.6452 L20.084,16.2082 C20.686,17.1612 21.237,18.5282 19.862,18.5102 Z" id="Stroke-5" stroke="#231916" stroke-width="0.216"></path>
                    <polygon id="Fill-7" fill="#231916" points="11.1136 10.8338 13.7006 10.8338 13.7006 9.3818 7.0756 9.3818 7.0756 10.8338 9.6616 10.8338 9.6616 15.8618 11.1136 15.8618"></polygon>
                </g>
            </g>
        </g>
    </g>
</svg>