<?xml version="1.0" encoding="UTF-8"?>
<svg width="29px" height="26px" viewBox="0 0 29 26" version="1.1" xmlns="http://www.w3.org/2000/svg" xmlns:xlink="http://www.w3.org/1999/xlink">
    <!-- Generator: Sketch 54.1 (76490) - https://sketchapp.com -->
    <title>01403</title>
    <desc>Created with Sketch.</desc>
    <g id="-" stroke="none" stroke-width="1" fill="none" fill-rule="evenodd">
        <g id="C9_1_icon-汇总说明(一)" transform="translate(-438.000000, -613.000000)">
            <g id="编组-28" transform="translate(335.000000, 613.000000)">
                <g id="01403" transform="translate(103.000000, 0.000000)">
                    <path d="M1.6417,25.8916 L27.6237,25.8916 C28.7317,25.6816 28.6847,24.5806 27.9127,23.2206 L15.6607,1.6206 C15.1967,0.8966 14.0397,0.4286 13.3627,1.6206 L1.3387,22.7626 C0.5217,24.0586 -0.2273,25.9146 1.6417,25.8916" id="Fill-27" fill="#E7D642"></path>
                    <path d="M2.9474,23.831 L26.0754,23.831 L14.5104,3.605 L2.9474,23.831 Z M1.6414,25.892 C-0.2276,25.914 0.5214,24.058 1.3394,22.763 L13.3624,1.621 C14.0404,0.429 15.1964,0.897 15.6604,1.621 L27.9134,23.221 C28.6844,24.581 28.7314,25.681 27.6244,25.892 L1.6414,25.892 Z" id="Fill-29" fill="#231916"></path>
                    <path d="M2.9474,23.831 L26.0754,23.831 L14.5104,3.605 L2.9474,23.831 Z M1.6414,25.892 C-0.2276,25.914 0.5214,24.058 1.3394,22.763 L13.3624,1.621 C14.0404,0.429 15.1964,0.897 15.6604,1.621 L27.9134,23.221 C28.6844,24.581 28.7314,25.681 27.6244,25.892 L1.6414,25.892 Z" id="Stroke-31" stroke="#231916" stroke-width="0.216"></path>
                    <path d="M4.9122,22.3886 L23.9122,22.3886 L15.9122,8.3886 C15.5732,8.7726 15.2612,10.1836 15.5692,10.7846 C15.3202,11.0976 15.3522,11.4476 15.6672,11.8326 C15.6192,12.0326 15.7522,12.2596 15.5232,12.4326 C15.6282,12.9606 15.3692,13.5596 14.7492,14.2306 C14.7442,14.9696 14.5782,15.3846 14.2522,15.4756 C14.0352,15.6396 14.0192,16.1626 14.2052,17.0466 C14.0282,17.3066 13.9732,17.6026 14.0382,17.9346 C13.5162,19.1036 13.3822,20.1726 13.4232,21.1976 L5.7242,21.1976 L4.9122,22.3886 Z" id="Fill-33" fill="#231916"></path>
                    <path d="M4.9122,22.3886 L23.9122,22.3886 L15.9122,8.3886 C15.5732,8.7726 15.2612,10.1836 15.5692,10.7846 C15.3202,11.0976 15.3522,11.4476 15.6672,11.8326 C15.6192,12.0326 15.7522,12.2596 15.5232,12.4326 C15.6282,12.9606 15.3692,13.5596 14.7492,14.2306 C14.7442,14.9696 14.5782,15.3846 14.2522,15.4756 C14.0352,15.6396 14.0192,16.1626 14.2052,17.0466 C14.0282,17.3066 13.9732,17.6026 14.0382,17.9346 C13.5162,19.1036 13.3822,20.1726 13.4232,21.1976 L5.7242,21.1976 L4.9122,22.3886 Z" id="Stroke-35" stroke="#231916" stroke-width="0.216"></path>
                    <path d="M10.963,14.7695 C10.652,14.7695 10.401,15.0645 10.401,15.4285 C10.401,15.7925 10.652,16.0875 10.963,16.0875 C11.274,16.0875 11.525,15.7925 11.525,15.4285 C11.525,15.0645 11.274,14.7695 10.963,14.7695" id="Fill-37" fill="#231916"></path>
                    <path d="M10.963,14.7695 C10.652,14.7695 10.401,15.0645 10.401,15.4285 C10.401,15.7925 10.652,16.0875 10.963,16.0875 C11.274,16.0875 11.525,15.7925 11.525,15.4285 C11.525,15.0645 11.274,14.7695 10.963,14.7695 Z" id="Stroke-39" stroke="#231916" stroke-width="0.216"></path>
                    <path d="M10.3653,17.4233 C10.7283,17.7693 11.2673,17.6333 11.4553,18.4623 C11.4673,19.0923 11.1033,19.4753 10.3653,19.6113 L10.3653,17.4233 Z" id="Fill-41" fill="#231916"></path>
                    <path d="M10.3653,17.4233 C10.7283,17.7693 11.2673,17.6333 11.4553,18.4623 C11.4673,19.0923 11.1033,19.4753 10.3653,19.6113 L10.3653,17.4233 Z" id="Stroke-43" stroke="#231916" stroke-width="0.216"></path>
                    <path d="M13.548,12.0913 L13.07,11.7843 C12.912,11.6833 12.642,11.8453 12.469,12.1443 L11.818,13.2733 C11.645,13.5723 11.632,13.9003 11.789,14.0023 L12.267,14.3083 C12.425,14.4103 12.695,14.2483 12.868,13.9483 L13.521,12.8203 C13.694,12.5203 13.705,12.1933 13.548,12.0913" id="Fill-45" fill="#231916"></path>
                    <path d="M13.548,12.0913 L13.07,11.7843 C12.912,11.6833 12.642,11.8453 12.469,12.1443 L11.818,13.2733 C11.645,13.5723 11.632,13.9003 11.789,14.0023 L12.267,14.3083 C12.425,14.4103 12.695,14.2483 12.868,13.9483 L13.521,12.8203 C13.694,12.5203 13.705,12.1933 13.548,12.0913 Z" id="Stroke-47" stroke="#231916" stroke-width="0.216"></path>
                    <path d="M15.0724,9.1421 L14.7544,8.8451 C14.6494,8.7471 14.4264,8.8301 14.2604,9.0291 L13.6294,9.7791 C13.4624,9.9781 13.4104,10.2211 13.5154,10.3191 L13.8334,10.6161 C13.9374,10.7141 14.1604,10.6311 14.3274,10.4331 L14.9584,9.6821 C15.1264,9.4831 15.1764,9.2401 15.0724,9.1421" id="Fill-49" fill="#231916"></path>
                    <path d="M15.0724,9.1421 L14.7544,8.8451 C14.6494,8.7471 14.4264,8.8301 14.2604,9.0291 L13.6294,9.7791 C13.4624,9.9781 13.4104,10.2211 13.5154,10.3191 L13.8334,10.6161 C13.9374,10.7141 14.1604,10.6311 14.3274,10.4331 L14.9584,9.6821 C15.1264,9.4831 15.1764,9.2401 15.0724,9.1421 Z" id="Stroke-51" stroke="#231916" stroke-width="0.216"></path>
                </g>
            </g>
        </g>
    </g>
</svg>