<?xml version="1.0" encoding="UTF-8"?>
<svg width="29px" height="26px" viewBox="0 0 29 26" version="1.1" xmlns="http://www.w3.org/2000/svg" xmlns:xlink="http://www.w3.org/1999/xlink">
    <!-- Generator: Sketch 54.1 (76490) - https://sketchapp.com -->
    <title>06002</title>
    <desc>Created with Sketch.</desc>
    <g id="-" stroke="none" stroke-width="1" fill="none" fill-rule="evenodd">
        <g id="C9_1_icon-汇总说明(一)" transform="translate(-459.000000, -676.000000)">
            <g id="编组-29" transform="translate(208.000000, 676.000000)">
                <g id="06002" transform="translate(251.000000, 0.000000)">
                    <g id="编组复制-2">
                        <path d="M26.9425,25.8916 L0.9605,25.8916 C-0.1475,25.6816 -0.1005,24.5806 0.6715,23.2206 L12.9245,1.6206 C13.3875,0.8966 14.5435,0.4286 15.2215,1.6206 L27.2455,22.7626 C28.0625,24.0586 28.8115,25.9146 26.9425,25.8916" id="Fill-1" fill="#E7D642"></path>
                        <path d="M14.0729,3.6054 L2.5099,23.8314 L25.6369,23.8314 L14.0729,3.6054 Z M26.9429,25.8914 L0.9609,25.8914 C-0.1481,25.6814 -0.1001,24.5804 0.6709,23.2204 L12.9249,1.6214 C13.3869,0.8974 14.5439,0.4284 15.2219,1.6214 L27.2449,22.7624 C28.0629,24.0584 28.8109,25.9144 26.9429,25.8914 L26.9429,25.8914 Z" id="Fill-3" fill="#231916"></path>
                        <path d="M14.0729,3.6054 L2.5099,23.8314 L25.6369,23.8314 L14.0729,3.6054 Z M26.9429,25.8914 L0.9609,25.8914 C-0.1481,25.6814 -0.1001,24.5804 0.6709,23.2204 L12.9249,1.6214 C13.3869,0.8974 14.5439,0.4284 15.2219,1.6214 L27.2449,22.7624 C28.0629,24.0584 28.8109,25.9144 26.9429,25.8914 Z" id="Stroke-5" stroke="#231916" stroke-width="0.216"></path>
                    </g>
                    <g id="编组-30" transform="translate(11.000000, 11.000000)" fill-rule="nonzero" stroke="#231815" stroke-width="0.0037">
                        <path d="M5.76878464,3.74025009 L5.76337157,4.81534299 C5.76337157,4.91817796 5.67598917,5.00153661 5.57855394,4.99997851 L5.24371697,4.99997851 C5.14318856,4.9984204 5.06199252,4.91350364 5.06199252,4.81378488 L5.06740559,3.76050547 L1.04240237,3.74025009 L1.0377626,4.79508762 C1.0377626,4.89480638 0.955019977,4.97972313 0.854491558,4.97972313 L0.523521072,4.97426976 C0.421446063,4.97271166 0.340250032,4.88935301 0.338703441,4.79352951 L0.34411651,3.73713388 C0.150792628,3.72388999 0,3.59456722 0,3.43953571 L0.00695965975,1.95310292 C0.00850625081,1.79573425 0.167031834,1.66329527 0.36654208,1.65706285 L0.754736435,0.483809299 C0.840572239,0.229838079 0.903982472,-0.0023196616 1.0895734,1.74968644e-05 L4.99548911,0.0187147646 C5.17721356,0.0187147646 5.24449027,0.2493144 5.32336641,0.50328562 L5.67598917,1.68355064 C5.85616703,1.70692223 6,1.83079163 6,1.97959072 L5.99304034,3.4660235 C5.99458693,3.58677669 5.90024488,3.69506503 5.76878464,3.74025009 L5.76878464,3.74025009 Z" id="路径" fill="#000000"></path>
                        <path d="M4.57225022,0.346032155 C4.70314307,0.349151718 4.7115692,0.355060095 4.77040488,0.54691322 L4.99566177,1.45761582 C5.050531,1.65258851 4.56926838,1.80154764 4.43573123,1.79998786 L1.58517571,1.78516994 C1.45031641,1.78516994 0.945916165,1.62919179 1.00475184,1.43109954 L1.30760977,0.54691322 C1.37371727,0.352720422 1.36747697,0.322105594 1.50101412,0.322105594 L4.57225022,0.346032155 Z" id="路径" fill="#E7D642"></path>
                    </g>
                    <polygon id="路径-104" fill="#000000" points="7.27674411 23.8314 13.9031982 19 20.6064572 23.726579 18.1996924 23.8314 13.9031982 20.1838068 9.62067831 23.8314"></polygon>
                    <polygon id="路径-105" fill="#000000" points="12.2407535 19 11 18.7558117 14.1920865 17 17 19 15.8661792 19 14.1920865 17.6060754"></polygon>
                    <g id="编组-31" transform="translate(2.000000, 15.667518)" fill="#231916">
                        <polygon id="路径-106" points="-9.31699162e-13 8.25549299 3.3434594 5.27675801 3.80854722 5.74818187 0.620836201 8.9593274"></polygon>
                        <polygon id="路径-106复制" points="4.44541252 4.25153138 7.43715435 1.53193804 7.68305742 1.86780853 4.9035252 4.66235502"></polygon>
                        <polygon id="路径-106复制-2" points="8.14975482 0.95585458 9.24190941 1.25954802e-12 9.34237987 0.224996588 8.33255012 1.19654968"></polygon>
                    </g>
                    <g id="编组-31复制" transform="translate(21.500000, 20.000000) rotate(-93.000000) translate(-21.500000, -20.000000) translate(16.500000, 15.500000)" fill="#231916">
                        <polygon id="路径-106" points="-9.31699162e-13 8.25549299 3.3434594 5.27675801 3.80854722 5.74818187 0.620836201 8.9593274"></polygon>
                        <polygon id="路径-106复制" points="4.44541252 4.25153138 7.43715435 1.53193804 7.68305742 1.86780853 4.9035252 4.66235502"></polygon>
                        <polygon id="路径-106复制-2" points="8.14975482 0.95585458 9.24190941 1.25954802e-12 9.34237987 0.224996588 8.33255012 1.19654968"></polygon>
                    </g>
                </g>
            </g>
        </g>
    </g>
</svg>