<?xml version="1.0" encoding="UTF-8"?><svg id="b" xmlns="http://www.w3.org/2000/svg" width="197.9" height="198.5" xmlns:xlink="http://www.w3.org/1999/xlink" viewBox="0 0 197.9 198.5"><defs><style>.e{fill:#fad950;}.f{fill:#0a0a0a;}.g{fill:url(#d);stroke:#8b9fae;stroke-miterlimit:10;stroke-width:1.2px;}.h{fill:#535a60;opacity:0;}</style><linearGradient id="d" x1="57.2" y1="20.3" x2="140.7" y2="20.3" gradientUnits="userSpaceOnUse"><stop offset="0" stop-color="#afbacb"/><stop offset=".1" stop-color="#c1ccda"/><stop offset=".4" stop-color="#d9e6f0"/><stop offset=".5" stop-color="#e3f0f8"/><stop offset=".6" stop-color="#dde9f2"/><stop offset=".8" stop-color="#ccd8e4"/><stop offset="1" stop-color="#b1bbcc"/><stop offset="1" stop-color="#aeb8c9"/></linearGradient></defs><g id="c"><g><rect class="h" y=".6" width="197.9" height="197.9"/><g><rect class="g" x="57.2" y=".6" width="83.4" height="39.3" rx="4.6" ry="4.6"/><g><path class="e" d="M62.4,4.4h73c1.4,0,2.6,1.1,2.6,2.6v28.8c0,1.4-1.1,2.6-2.6,2.6H62.4c-1.4,0-2.6-1.1-2.6-2.6V7c0-1.4,1.1-2.6,2.6-2.6Z"/><path class="f" d="M135.4,6.5c.3,0,.5,.2,.5,.5v28.8c0,.3-.2,.5-.5,.5H62.4c-.3,0-.5-.2-.5-.5V7c0-.3,.2-.5,.5-.5h73m0-4.1H62.4c-2.6,0-4.6,2.1-4.6,4.6v28.8c0,2.6,2.1,4.6,4.6,4.6h73c2.6,0,4.6-2.1,4.6-4.6V7c0-2.6-2.1-4.6-4.6-4.6h0Z"/></g><path d="M98.9,27.6c.7,0,1.3,.2,1.7,.7,.5,.5,.7,1,.7,1.7s-.2,1.2-.7,1.7c-.5,.5-1.1,.7-1.7,.7s-1.2-.2-1.7-.7c-.5-.5-.7-1-.7-1.7s.2-1.2,.7-1.7c.5-.5,1-.7,1.7-.7Zm2.1-17.3l-.5,15h-3.3l-.5-15h4.3Z"/></g></g></g></svg>