<?xml version="1.0" encoding="UTF-8"?>
<svg width="21px" height="19px" viewBox="0 0 21 19" version="1.1" xmlns="http://www.w3.org/2000/svg" xmlns:xlink="http://www.w3.org/1999/xlink">
    <!-- Generator: Sketch 54.1 (76490) - https://sketchapp.com -->
    <title>03104</title>
    <desc>Created with Sketch.</desc>
    <g id="-" stroke="none" stroke-width="1" fill="none" fill-rule="evenodd">
        <g id="C9_1_icon-汇总说明(一)" transform="translate(-606.000000, -620.000000)">
            <g id="编组-28" transform="translate(335.000000, 613.000000)">
                <g id="03104" transform="translate(271.000000, 7.000000)">
                    <path d="M19.8616,18.5112 L0.7356,18.5112 C-0.0804,18.3562 -0.0454,17.5462 0.5226,16.5442 L9.5426,0.6442 C9.8836,0.1122 10.7346,-0.2328 11.2336,0.6442 L20.0846,16.2072 C20.6866,17.1612 21.2366,18.5282 19.8616,18.5112" id="Fill-1" fill="#E7D642"></path>
                    <path d="M10.388,2.1054 L1.876,16.9944 L18.9,16.9944 L10.388,2.1054 Z M19.862,18.5114 L0.736,18.5114 C-0.08,18.3554 -0.046,17.5454 0.523,16.5444 L9.542,0.6444 C9.884,0.1114 10.734,-0.2326 11.234,0.6444 L20.084,16.2074 C20.686,17.1614 21.237,18.5274 19.862,18.5114 L19.862,18.5114 Z" id="Fill-3" fill="#231916"></path>
                    <path d="M10.388,2.1054 L1.876,16.9944 L18.9,16.9944 L10.388,2.1054 Z M19.862,18.5114 L0.736,18.5114 C-0.08,18.3554 -0.046,17.5454 0.523,16.5444 L9.542,0.6444 C9.884,0.1114 10.734,-0.2326 11.234,0.6444 L20.084,16.2074 C20.686,17.1614 21.237,18.5274 19.862,18.5114 Z" id="Stroke-5" stroke="#231916" stroke-width="0.216"></path>
                    <polygon id="Fill-7" fill="#231916" points="7.179 13.9482 8.221 14.9902 10.28 12.9322 10.28 15.8172 11.769 15.8172 11.769 7.7192 10.28 7.7192 10.28 10.8472"></polygon>
                </g>
            </g>
        </g>
    </g>
</svg>