<?xml version="1.0" encoding="UTF-8"?>
<svg width="37px" height="24px" viewBox="0 0 37 24" version="1.1" xmlns="http://www.w3.org/2000/svg" xmlns:xlink="http://www.w3.org/1999/xlink">
    <!-- Generator: Sketch 54.1 (76490) - https://sketchapp.com -->
    <title>05605</title>
    <desc>Created with Sketch.</desc>
    <g id="-" stroke="none" stroke-width="1" fill="none" fill-rule="evenodd">
        <g id="C9_1_icon-汇总说明(一)" transform="translate(-707.000000, -679.000000)" fill="#FFFFFF" stroke="#D02E1D" stroke-width="1.4">
            <g id="05605" transform="translate(708.000000, 680.000000)">
                <g>
                    <path d="M17.6004786,4.9566391 L33.1072495,0.048563717 C34.1251288,0.573031563 34.7322742,1.17079242 34.9286857,1.8418463 C35.1250972,2.51290017 34.8965383,3.20860698 34.2430089,3.92896672 L22.9585677,7.02016128 L34.2430089,10.5702475 C34.9025664,11.464866 35.1311253,12.2861584 34.9286857,13.0341247 C34.7262461,13.782091 34.1191007,14.3595856 33.1072495,14.7666087 L17.7224272,10.035018 L3.57561741,14.7666087 C1.91792973,15.2212688 0.816814422,15.0116503 0.272271474,14.1377533 C-0.272271474,13.2638563 -7.61612995e-14,12.3423025 1.0890859,11.3730918 L12.9763534,7.40758621 L1.0890859,3.92896672 C0.183123946,3.21531669 -0.0891475279,2.34014381 0.272271474,1.3034481 C0.633690476,0.26675238 1.34567725,-0.151542413 2.40823179,0.048563717 L17.6004786,4.9566391 Z" id="路径-117复制"></path>
                    <path d="M17.7110229,13 L1.78628835,18.3262839 C1.0487638,19.0341091 0.830077979,19.7893418 1.13023088,20.5919821 C1.43038377,21.3946224 2.15526165,21.8637648 3.3048645,21.9994093 L17.7110229,16.6945415 L32.9449874,21.9994093 C33.8196725,22.0190298 34.4444028,21.5498875 34.8191783,20.5919821 C35.1939537,19.6340767 34.9861527,18.878844 34.1957752,18.3262839 L17.7110229,13 Z" id="路径-118复制"></path>
                </g>
            </g>
        </g>
    </g>
</svg>