<?xml version="1.0" encoding="UTF-8"?>
<svg width="28px" height="25px" viewBox="0 0 28 25" version="1.1" xmlns="http://www.w3.org/2000/svg" xmlns:xlink="http://www.w3.org/1999/xlink">
    <!-- Generator: Sketch 54.1 (76490) - https://sketchapp.com -->
    <title>06502</title>
    <desc>Created with Sketch.</desc>
    <defs>
        <polygon id="path-1" points="0 0.473117455 28 0.473117455 28 24.9996 0 24.9996"></polygon>
    </defs>
    <g id="-" stroke="none" stroke-width="1" fill="none" fill-rule="evenodd">
        <g id="C9_1_icon-汇总说明(一)" transform="translate(-631.000000, -677.000000)">
            <g id="编组-29" transform="translate(208.000000, 676.000000)">
                <g id="06502" transform="translate(423.000000, 0.000000)">
                    <g id="编组" transform="translate(0.000000, 0.527500)">
                        <mask id="mask-2" fill="white">
                            <use xlink:href="#path-1"></use>
                        </mask>
                        <g id="Clip-2"></g>
                        <path d="M13.9922,24.9996 L1.1732,24.9996 C0.5952,24.9996 0.1102,24.5746 0.0152,24.0056 C-0.0428,23.6546 0.0692,23.3586 0.2422,23.0676 C0.5392,22.5656 0.8262,22.0576 1.1192,21.5526 C1.4782,20.9326 1.8382,20.3136 2.1972,19.6936 C2.5552,19.0736 2.9112,18.4526 3.2702,17.8326 C3.6042,17.2556 3.9412,16.6796 4.2752,16.1016 C4.6032,15.5356 4.9282,14.9686 5.2552,14.4016 C5.5332,13.9226 5.8122,13.4436 6.0902,12.9646 C6.2912,12.6156 6.4892,12.2656 6.6902,11.9166 C6.8792,11.5886 7.0702,11.2626 7.2602,10.9356 C7.5622,10.4126 7.8642,9.8916 8.1652,9.3686 C8.4212,8.9246 8.6772,8.4786 8.9332,8.0346 C9.2522,7.4846 9.5732,6.9376 9.8902,6.3886 C10.2902,5.6956 10.6872,5.0016 11.0882,4.3096 C11.3962,3.7756 11.7092,3.2446 12.0172,2.7126 C12.3252,2.1816 12.6312,1.6496 12.9342,1.1166 C13.1062,0.8146 13.3502,0.6076 13.6862,0.5156 C14.1532,0.3856 14.7062,0.5576 14.9702,0.9816 C15.2552,1.4436 15.5202,1.9186 15.7932,2.3886 C16.0342,2.8046 16.2752,3.2216 16.5152,3.6376 C16.9092,4.3206 17.3022,5.0056 17.6962,5.6876 C17.9382,6.1066 18.1842,6.5236 18.4262,6.9426 C18.8582,7.6886 19.2882,8.4366 19.7202,9.1836 C20.0872,9.8196 20.4552,10.4556 20.8242,11.0926 C21.0632,11.5066 21.3042,11.9196 21.5432,12.3336 C21.9962,13.1166 22.4492,13.9006 22.9022,14.6856 C23.2452,15.2786 23.5902,15.8726 23.9332,16.4676 C24.2852,17.0786 24.6352,17.6906 24.9882,18.3026 C25.3552,18.9376 25.7262,19.5726 26.0942,20.2086 C26.4852,20.8846 26.8732,21.5616 27.2642,22.2376 C27.4612,22.5796 27.6662,22.9166 27.8572,23.2626 C28.0062,23.5306 28.0382,23.8206 27.9552,24.1186 C27.8312,24.5576 27.5442,24.8376 27.1082,24.9636 C27.0262,24.9866 26.9372,24.9986 26.8512,24.9986 C22.5652,24.9996 18.2792,24.9996 13.9922,24.9996" id="Fill-1" fill="#E7D642" mask="url(#mask-2)"></path>
                    </g>
                    <path d="M25.1504,23.5271 C21.4304,17.0951 17.7184,10.6771 13.9954,4.2401 C10.2724,10.6801 6.5614,17.0981 2.8454,23.5271 L25.1504,23.5271 Z" id="Fill-3" fill="#231916"></path>
                    <path d="M14.0747,15.7771 C13.2617,15.7881 12.2787,15.7781 12.2787,15.7781 L12.5377,15.0751 C12.7547,15.0441 13.3877,14.9571 14.0747,14.9561 C14.7617,14.9551 15.3947,15.0441 15.6117,15.0751 L15.8707,15.7771 C15.8707,15.7771 14.8767,15.7661 14.0747,15.7771 L14.0747,15.7771 Z M12.0607,17.0241 C12.0607,17.0441 12.0447,17.0581 12.0257,17.0581 L11.9287,17.0581 C11.9097,17.0581 11.8937,17.0431 11.8937,17.0241 L11.8947,16.4481 C11.8947,16.4291 11.9107,16.4141 11.9297,16.4141 L12.0267,16.4141 C12.0457,16.4141 12.0617,16.4291 12.0607,16.4481 L12.0607,17.0241 Z M16.6557,16.2231 L16.3697,15.9361 L15.8987,14.7771 C15.8897,14.7751 14.9077,14.6201 14.0807,14.6191 C13.2547,14.6171 12.2727,14.7701 12.2627,14.7711 L11.7977,15.9291 L11.5137,16.2151 L11.5137,17.3511 L11.8217,17.6601 L11.8967,17.6601 L11.8967,18.3941 C11.8967,18.4671 11.9577,18.5271 12.0307,18.5271 L12.4127,18.5281 C12.4857,18.5281 12.5447,18.4671 12.5447,18.3951 L12.5437,17.6611 L13.4167,17.6621 L13.8987,16.4641 L14.0177,16.4461 C14.0677,16.4381 15.2617,16.2541 16.2837,16.2561 C16.4067,16.2561 16.5307,16.2581 16.6557,16.2631 L16.6557,16.2231 Z M10.7467,14.0191 L10.9607,13.4381 C11.1407,13.4121 11.6647,13.3391 12.2337,13.3391 C12.8027,13.3381 13.3257,13.4121 13.5057,13.4371 L13.7207,14.0181 C13.7207,14.0181 12.8977,14.0091 12.2337,14.0181 C11.5597,14.0281 10.7467,14.0191 10.7467,14.0191 L10.7467,14.0191 Z M10.5667,15.0511 C10.5667,15.0671 10.5537,15.0801 10.5377,15.0801 L10.4567,15.0801 C10.4417,15.0801 10.4287,15.0661 10.4287,15.0501 L10.4287,14.5741 C10.4287,14.5581 10.4427,14.5461 10.4577,14.5461 L10.5387,14.5461 C10.5537,14.5461 10.5667,14.5581 10.5667,14.5741 L10.5667,15.0511 Z M12.1527,14.6321 L12.2397,14.6191 C12.2807,14.6131 13.2517,14.4631 14.0807,14.4651 C14.1767,14.4651 14.2727,14.4661 14.3697,14.4701 L14.3697,14.3881 L14.1327,14.1501 L13.7437,13.1911 C13.7367,13.1891 12.9237,13.0611 12.2387,13.0591 C11.5537,13.0581 10.7417,13.1851 10.7347,13.1861 L10.3487,14.1451 L10.1137,14.3811 L10.1137,15.3221 L10.3687,15.5771 L10.4307,15.5771 L10.4307,16.1841 C10.4307,16.2451 10.4807,16.2951 10.5407,16.2951 L10.8577,16.2961 C10.9177,16.2961 10.9677,16.2461 10.9677,16.1851 L10.9667,15.5781 L11.7717,15.5791 L12.1197,14.7141 L12.1527,14.6321 Z M17.0797,19.4291 L15.5307,19.4291 C15.5067,19.4291 15.4877,19.4111 15.4877,19.3871 L15.4877,19.0771 C15.4877,19.0541 15.5067,19.0351 15.5297,19.0351 L17.0797,19.0351 C17.1027,19.0351 17.1217,19.0531 17.1217,19.0771 L17.1217,19.3861 C17.1217,19.4101 17.1027,19.4291 17.0797,19.4291 L17.0797,19.4291 Z M18.8997,19.4411 L18.7797,19.4401 C18.7567,19.4401 18.7377,19.4221 18.7377,19.3981 L18.7387,18.6901 C18.7387,18.6671 18.7577,18.6481 18.7807,18.6481 L18.9007,18.6481 C18.9237,18.6481 18.9427,18.6681 18.9427,18.6901 L18.9417,19.3981 C18.9417,19.4221 18.9227,19.4411 18.8997,19.4411 L18.8997,19.4411 Z M13.7587,19.4411 L13.6387,19.4401 C13.6157,19.4401 13.5967,19.4221 13.5967,19.3981 L13.5977,18.6901 C13.5977,18.6671 13.6167,18.6481 13.6397,18.6481 L13.7597,18.6481 C13.7827,18.6481 13.8027,18.6681 13.8017,18.6901 L13.8007,19.3981 C13.8007,19.4221 13.7817,19.4411 13.7587,19.4411 L13.7587,19.4411 Z M16.2767,17.8661 C15.2767,17.8801 14.0687,17.8671 14.0687,17.8671 L14.3867,17.0041 C14.6537,16.9641 15.4307,16.8581 16.2767,16.8561 C17.1207,16.8551 17.8987,16.9641 18.1657,17.0031 L18.4837,17.8661 C18.4837,17.8661 17.2627,17.8521 16.2767,17.8661 L16.2767,17.8661 Z M19.4477,18.4151 L19.0967,18.0611 L18.5187,16.6361 C18.5077,16.6341 17.3007,16.4431 16.2837,16.4421 C15.2677,16.4401 14.0617,16.6291 14.0507,16.6301 L13.4777,18.0531 L13.1287,18.4051 L13.1287,19.8001 L13.5077,20.1791 L13.5997,20.1791 L13.5997,21.0821 C13.5997,21.1721 13.6747,21.2451 13.7637,21.2451 L14.2337,21.2461 C14.3237,21.2461 14.3967,21.1731 14.3967,21.0831 L14.3947,20.1801 L18.1877,20.1861 L18.1897,21.0891 C18.1897,21.1781 18.2627,21.2521 18.3527,21.2521 L18.8227,21.2531 C18.9117,21.2531 18.9857,21.1791 18.9847,21.0891 L18.9837,20.1871 L19.0747,20.1871 L19.4507,19.8101 L19.4477,18.4151 Z" id="Fill-5" fill="#E7D642"></path>
                </g>
            </g>
        </g>
    </g>
</svg>