<?xml version="1.0" encoding="UTF-8"?>
<svg width="30px" height="28px" viewBox="0 0 30 28" version="1.1" xmlns="http://www.w3.org/2000/svg" xmlns:xlink="http://www.w3.org/1999/xlink">
    <!-- Generator: Sketch 54.1 (76490) - https://sketchapp.com -->
    <title>1</title>
    <desc>Created with Sketch.</desc>
    <g id="页面" stroke="none" stroke-width="1" fill="none" fill-rule="evenodd">
        <g id="C9_1_icon-汇总说明" transform="translate(-957.000000, -337.000000)">
            <g id="1" transform="translate(957.000000, 337.000000)">
                <g>
                    <g id="编组-17" fill-rule="nonzero">
                        <g id="zhuyidiandonzixingche_icon">
                            <g id="1105_02004_0复制-2">
                                <g id="编组">
                                    <path d="M28.825,27.664 C29.325,27.664 29.733,27.236 29.733,26.701 C29.733,26.532 29.69,26.364 29.611,26.218 L15.787,0.819 C15.628,0.521 15.326,0.336 15,0.336 C14.676,0.336 14.374,0.521 14.215,0.819 L0.387,26.218 C0.311,26.364 0.268,26.533 0.268,26.701 C0.268,27.231 0.676,27.664 1.179,27.664 L28.825,27.664 Z" id="路径" fill="#100808"></path>
                                    <polygon id="路径" fill="#F7BD42" points="25.682 24.775 4.323 24.775 15.001 5.153"></polygon>
                                </g>
                            </g>
                        </g>
                    </g>
                    <rect id="矩形" fill="#110B0F" x="10" y="18" width="1" height="1"></rect>
                    <rect id="矩形" fill="#110B0F" x="16" y="20" width="3.4" height="1"></rect>
                    <rect id="矩形" fill="#110B0F" x="13" y="15" width="2.3" height="1" rx="0.5"></rect>
                    <path d="M13.0238772,15.1189433 L13.0238772,15.1189433 C13.2181457,15.1870631 13.3204095,15.3997709 13.2522897,15.5940394 C13.2511057,15.5974161 13.2498731,15.6007756 13.2485923,15.6041168 L11.2075047,20.9287997 C11.1310348,21.1282903 10.9097637,21.2307752 10.7081539,21.1600813 L10.7081539,21.1600813 C10.5138854,21.0919615 10.4116216,20.8792537 10.4797414,20.6849852 C10.4809254,20.6816085 10.482158,20.678249 10.4834388,20.6749078 L12.5245264,15.3502249 C12.6009963,15.1507343 12.8222674,15.0482493 13.0238772,15.1189433 Z" id="矩形" fill="#110B0F" transform="translate(11.866016, 18.139512) rotate(9.000000) translate(-11.866016, -18.139512) "></path>
                    <circle id="椭圆形" stroke="#110B0F" stroke-width="0.8" cx="10.5" cy="20.5" r="1.9"></circle>
                    <circle id="椭圆形复制-3" stroke="#110B0F" stroke-width="0.8" cx="19.5" cy="20.5" r="1.9"></circle>
                    <circle id="椭圆形复制-4" stroke="#110B0F" stroke-width="0.6" cx="15.5" cy="20.5" r="1"></circle>
                    <polygon id="路径-145" fill="#110B0F" points="17 17 21.1136169 17 21.1136169 17.8326762 18.6327829 17.8326762 17.8003435 18.19581"></polygon>
                    <polygon id="路径-146" fill="#110B0F" points="12.2986551 17.1039947 14.2659174 17 15.0724915 18.3514154 14.5014856 19.5944275 14.8045289 20.4383745 14.5014856 21 12.5496403 17.844446 12 17.844446"></polygon>
                    <polygon id="路径-147" fill="#110B0F" points="16.4636512 18.9915836 16.8697427 19.4355014 16.24435 19.8794191 16.1494196 19.697609"></polygon>
                    <path d="M14.1449829,21.7674162 L14.8783207,22.1736639 L15,21.4310481 C14.9953433,21.2102726 14.9115994,21.1504314 14.7487683,21.2515243 C14.5859372,21.3526173 14.3846754,21.5245812 14.1449829,21.7674162 Z" id="路径-148" fill="#110B0F"></path>
                </g>
            </g>
        </g>
    </g>
</svg>