<?xml version="1.0" encoding="UTF-8"?>
<svg width="21px" height="19px" viewBox="0 0 21 19" version="1.1" xmlns="http://www.w3.org/2000/svg" xmlns:xlink="http://www.w3.org/1999/xlink">
    <!-- Generator: Sketch 54.1 (76490) - https://sketchapp.com -->
    <title>03106</title>
    <desc>Created with Sketch.</desc>
    <g id="-" stroke="none" stroke-width="1" fill="none" fill-rule="evenodd">
        <g id="C9_1_icon-汇总说明(一)" transform="translate(-666.000000, -620.000000)">
            <g id="编组-28" transform="translate(335.000000, 613.000000)">
                <g id="03106" transform="translate(331.000000, 7.000000)">
                    <path d="M19.8613,18.5111 L0.7353,18.5111 C-0.0797,18.3561 -0.0457,17.5461 0.5223,16.5451 L9.5423,0.6451 C9.8833,0.1121 10.7343,-0.2329 11.2343,0.6451 L20.0843,16.2071 C20.6863,17.1611 21.2373,18.5281 19.8613,18.5111" id="Fill-1" fill="#E7D642"></path>
                    <path d="M10.3881,2.1053 L1.8751,16.9943 L18.9001,16.9943 L10.3881,2.1053 Z M19.8611,18.5113 L0.7351,18.5113 C-0.0799,18.3553 -0.0459,17.5453 0.5221,16.5443 L9.5421,0.6453 C9.8831,0.1113 10.7341,-0.2327 11.2341,0.6453 L20.0841,16.2073 C20.6861,17.1613 21.2371,18.5273 19.8611,18.5113 L19.8611,18.5113 Z" id="Fill-3" fill="#231916"></path>
                    <path d="M10.3881,2.1053 L1.8751,16.9943 L18.9001,16.9943 L10.3881,2.1053 Z M19.8611,18.5113 L0.7351,18.5113 C-0.0799,18.3553 -0.0459,17.5453 0.5221,16.5443 L9.5421,0.6453 C9.8831,0.1113 10.7341,-0.2327 11.2341,0.6453 L20.0841,16.2073 C20.6861,17.1613 21.2371,18.5273 19.8611,18.5113 Z" id="Stroke-5" stroke="#231916" stroke-width="0.216"></path>
                    <polygon id="Fill-7" fill="#231916" points="10.6562 12.7875 10.6562 15.9155 12.1452 15.9155 12.1452 7.8185 10.6562 7.8185 10.6562 10.7025 8.5982 8.6435 7.5552 9.6865"></polygon>
                </g>
            </g>
        </g>
    </g>
</svg>