<?xml version="1.0" encoding="UTF-8"?>
<svg width="21px" height="19px" viewBox="0 0 21 19" version="1.1" xmlns="http://www.w3.org/2000/svg" xmlns:xlink="http://www.w3.org/1999/xlink">
    <!-- Generator: Sketch 54.1 (76490) - https://sketchapp.com -->
    <title>03109</title>
    <desc>Created with Sketch.</desc>
    <g id="-" stroke="none" stroke-width="1" fill="none" fill-rule="evenodd">
        <g id="C9_1_icon-汇总说明(一)" transform="translate(-753.000000, -620.000000)">
            <g id="编组-28" transform="translate(335.000000, 613.000000)">
                <g id="03109" transform="translate(418.000000, 7.000000)">
                    <path d="M19.8613,18.5105 L0.7353,18.5105 C-0.0797,18.3555 -0.0457,17.5455 0.5223,16.5445 L9.5423,0.6445 C9.8833,0.1115 10.7343,-0.2335 11.2343,0.6445 L20.0843,16.2075 C20.6863,17.1605 21.2373,18.5285 19.8613,18.5105" id="Fill-1" fill="#E7D642"></path>
                    <path d="M10.3881,2.1052 L1.8751,16.9942 L18.9001,16.9942 L10.3881,2.1052 Z M19.8611,18.5102 L0.7351,18.5102 C-0.0799,18.3552 -0.0459,17.5452 0.5221,16.5442 L9.5421,0.6452 C9.8831,0.1112 10.7341,-0.2328 11.2341,0.6452 L20.0841,16.2082 C20.6861,17.1612 21.2371,18.5282 19.8611,18.5102 L19.8611,18.5102 Z" id="Fill-3" fill="#231916"></path>
                    <path d="M10.3881,2.1052 L1.8751,16.9942 L18.9001,16.9942 L10.3881,2.1052 Z M19.8611,18.5102 L0.7351,18.5102 C-0.0799,18.3552 -0.0459,17.5452 0.5221,16.5442 L9.5421,0.6452 C9.8831,0.1112 10.7341,-0.2328 11.2341,0.6452 L20.0841,16.2082 C20.6861,17.1612 21.2371,18.5282 19.8611,18.5102 Z" id="Stroke-5" stroke="#231916" stroke-width="0.216"></path>
                    <polygon id="Fill-7" fill="#231916" points="10.538 12.6111 10.538 15.5941 11.934 15.5941 11.934 8.2331 10.538 8.2331 10.538 11.2151 7.555 11.2151 7.555 12.6111"></polygon>
                </g>
            </g>
        </g>
    </g>
</svg>