<?xml version="1.0" encoding="UTF-8"?>
<svg width="28px" height="25px" viewBox="0 0 28 25" version="1.1" xmlns="http://www.w3.org/2000/svg" xmlns:xlink="http://www.w3.org/1999/xlink">
    <!-- Generator: Sketch 54.1 (76490) - https://sketchapp.com -->
    <title>zhuyibaohudonwu_icon</title>
    <desc>Created with Sketch.</desc>
    <defs>
        <polygon id="path-1" points="0 0.473 27.9999347 0.473 27.9999347 25 0 25"></polygon>
    </defs>
    <g id="-" stroke="none" stroke-width="1" fill="none" fill-rule="evenodd">
        <g id="C9_1_icon-汇总说明(一)" transform="translate(-268.000000, -613.000000)">
            <g id="zhuyibaohudonwu_icon-2" transform="translate(268.000000, 612.000000)">
                <g id="zhuyibaohudonwu_icon">
                    <g id="编组" transform="translate(0.000000, 0.527500)">
                        <mask id="mask-2" fill="white">
                            <use xlink:href="#path-1"></use>
                        </mask>
                        <g id="Clip-2"></g>
                        <path d="M13.9921,25.0001 L1.1741,25.0001 C0.5951,25.0001 0.1101,24.5751 0.0151,24.0051 C-0.0429,23.6551 0.0691,23.3591 0.2421,23.0681 C0.5391,22.5651 0.8271,22.0581 1.1191,21.5521 C1.4771,20.9331 1.8381,20.3131 2.1971,19.6941 C2.5551,19.0741 2.9121,18.4531 3.2701,17.8331 C3.6041,17.2551 3.9411,16.6791 4.2751,16.1011 C4.6031,15.5351 4.9291,14.9681 5.2561,14.4021 C5.5331,13.9221 5.8121,13.4441 6.0901,12.9641 C6.2911,12.6161 6.4891,12.2651 6.6901,11.9161 C6.8791,11.5881 7.0701,11.2621 7.2601,10.9351 C7.5621,10.4131 7.8631,9.8911 8.1651,9.3691 C8.4221,8.9241 8.6771,8.4791 8.9331,8.0351 C9.2521,7.4851 9.5721,6.9381 9.8901,6.3881 C10.2911,5.6951 10.6871,5.0011 11.0881,4.3091 C11.3961,3.7761 11.7091,3.2451 12.0171,2.7121 C12.3251,2.1811 12.6321,1.6501 12.9341,1.1171 C13.1061,0.8151 13.3501,0.6081 13.6851,0.5151 C14.1521,0.3851 14.7061,0.5571 14.9701,0.9821 C15.2561,1.4431 15.5201,1.9181 15.7931,2.3881 C16.0341,2.8041 16.2751,3.2211 16.5151,3.6381 C16.9091,4.3211 17.3021,5.0051 17.6961,5.6881 C17.9381,6.1071 18.1831,6.5241 18.4261,6.9421 C18.8581,7.6891 19.2881,8.4361 19.7201,9.1831 C20.0881,9.8191 20.4561,10.4561 20.8241,11.0921 C21.0631,11.5061 21.3041,11.9191 21.5431,12.3331 C21.9961,13.1171 22.4491,13.9011 22.9021,14.6851 C23.2461,15.2791 23.5901,15.8731 23.9321,16.4671 C24.2851,17.0791 24.6351,17.6911 24.9871,18.3021 C25.3551,18.9381 25.7261,19.5721 26.0941,20.2081 C26.4851,20.8841 26.8741,21.5621 27.2631,22.2381 C27.4611,22.5801 27.6661,22.9171 27.8571,23.2621 C28.0061,23.5311 28.0381,23.8211 27.9551,24.1181 C27.8321,24.5581 27.5441,24.8381 27.1071,24.9641 C27.0251,24.9871 26.9371,24.9991 26.8511,24.9991 C22.5651,25.0001 18.2781,25.0001 13.9921,25.0001" id="Fill-1" fill="#231916" mask="url(#mask-2)"></path>
                    </g>
                    <path d="M25.2753,23.5276 C21.5553,17.0956 17.8433,10.6776 14.1203,4.2406 C10.3973,10.6806 6.6873,17.0986 2.9703,23.5276 L25.2753,23.5276 Z" id="Fill-3" fill="#E7D642"></path>
                    <path d="M9.9159,17.0559 C9.6429,16.4649 9.7639,15.7629 9.8919,15.3289 C9.8359,15.3549 9.7809,15.3829 9.7269,15.4099 C8.6349,15.9839 7.8499,16.8589 7.5209,17.8669 C7.4999,17.9279 7.4779,17.9879 7.4589,18.0489 C7.2909,18.6139 7.1799,19.1879 7.1269,19.7669 C7.0739,20.1789 7.1149,20.5949 7.2479,20.9939 C7.3959,21.5089 7.9179,21.9009 8.5709,21.9899 C10.4309,22.2389 10.0919,21.5909 9.9439,21.1379 C9.8219,20.7709 10.2849,20.2579 10.4699,20.0699 C10.4719,20.0679 10.4719,20.0679 10.4719,20.0659 C10.8149,18.7499 10.3179,17.9239 9.9159,17.0559" id="Fill-5" fill="#1A1210"></path>
                    <path d="M16.3788,13.7576 C15.5398,13.6646 14.1998,13.8096 12.6568,14.2586 C12.0668,15.0686 10.7368,17.1856 11.4078,19.0206 C11.5558,19.4206 11.6708,19.7746 11.7768,20.0886 L11.7768,20.0906 C12.2788,21.6086 12.4828,22.1886 14.3278,22.4666 C16.5548,22.8006 16.1618,21.6566 15.6448,21.2886 C15.1278,20.9196 14.9928,19.6686 14.9928,19.6686 C15.1748,19.5496 15.3428,19.4206 15.4968,19.2786 C15.4968,19.2786 16.0528,19.9376 15.8618,20.5656 C15.6708,21.1936 16.0948,21.5166 17.3158,21.4836 C18.4538,21.4526 19.3178,20.0866 18.5708,18.3756" id="Fill-7" fill="#1A1210"></path>
                    <path d="M12.6572,14.259 C11.6932,14.542 10.7672,14.9 9.8912,15.329 C9.7632,15.763 9.6422,16.465 9.9162,17.056 C10.3182,17.924 10.8152,18.75 10.4712,20.066 L10.4742,20.066 C10.5132,20.073 10.5542,20.08 10.6022,20.085 C10.9922,20.131 11.3872,20.133 11.7772,20.09 L11.7772,20.089 C11.6712,19.774 11.5552,19.421 11.4082,19.02 C10.7372,17.186 12.0662,15.068 12.6572,14.259" id="Fill-9" fill="#EAEDED"></path>
                    <path d="M18.2773,14.7078 C18.2893,14.8628 18.3923,15.0058 18.5603,15.1028 C18.7283,15.1998 18.9463,15.2398 19.1583,15.2138 C19.2073,15.2108 19.2563,15.2028 19.3023,15.1908 C19.9383,15.0238 19.5933,14.1078 18.8723,14.0408 C18.7133,14.0148 18.5463,14.0488 18.4293,14.1308 C18.4213,14.1368 18.4143,14.1448 18.4063,14.1508 C18.1903,14.3428 18.2773,14.7078 18.2773,14.7078" id="Fill-11" fill="#1A1210"></path>
                    <path d="M16.995,16.9553 C17.204,16.7403 17.289,16.4323 17.04,16.2093 C16.999,16.1723 16.958,16.1433 16.918,16.1213 C16.528,15.9053 16.17,16.3003 16.099,16.3733 C15.791,16.6983 15.917,17.1743 16.405,17.2103 C16.614,17.2263 16.84,17.1163 16.995,16.9553" id="Fill-13" fill="#1A1210"></path>
                    <path d="M18.5195,17.1946 C18.5285,17.2156 18.5655,17.3016 18.5715,17.3156 C18.6275,17.3976 18.7755,17.3246 18.9155,17.2136 C19.0265,17.1266 19.1205,17.0266 19.1925,16.9166 C19.3535,16.6266 18.9955,15.9746 18.5175,16.2156 C18.3825,16.3096 18.2645,16.4166 18.1655,16.5346 C18.1825,16.5626 18.2025,16.5896 18.2175,16.6156 C18.3265,16.8056 18.4305,16.9976 18.5195,17.1946" id="Fill-15" fill="#1A1210"></path>
                    <path d="M16.0995,16.3738 C16.1695,16.2998 16.5285,15.9058 16.9175,16.1218 C16.9575,16.1438 16.9985,16.1728 17.0395,16.2088 C17.2885,16.4328 17.2035,16.7398 16.9955,16.9558 C16.8395,17.1168 16.6145,17.2258 16.4055,17.2098 C15.9165,17.1738 15.7905,16.6988 16.0995,16.3738 M15.3695,15.3468 C15.3185,15.3238 15.2075,15.2488 15.2005,15.2408 C14.9455,15.0508 14.7625,14.7888 14.8955,14.5098 C15.0285,14.2268 15.3885,13.9068 15.7945,13.8928 C15.8195,13.8928 15.8445,13.8928 15.8695,13.8948 C15.9525,13.8988 16.0345,13.9118 16.1125,13.9348 C16.4535,14.0278 16.7445,14.2768 16.6725,14.5648 C16.5955,14.8248 16.4035,15.0528 16.1315,15.2078 C15.9815,15.2958 15.8055,15.3518 15.6205,15.3708 C15.5365,15.3838 15.4485,15.3758 15.3695,15.3468 M17.5045,17.8518 L18.0795,17.8838 C18.2005,17.8878 18.2935,17.9678 18.2895,18.0628 C18.2865,18.1588 18.1855,18.2328 18.0655,18.2298 L18.0655,18.2288 L18.0495,18.2288 L17.4745,18.1968 C17.3545,18.1898 17.2645,18.1068 17.2725,18.0118 C17.2815,17.9168 17.3855,17.8448 17.5045,17.8518 M18.5175,16.2158 C18.9955,15.9748 19.3535,16.6258 19.1925,16.9158 C19.1205,17.0258 19.0265,17.1268 18.9145,17.2138 C18.7755,17.3248 18.6275,17.3968 18.5715,17.3158 C18.5655,17.3018 18.3265,16.8058 18.2175,16.6158 C18.2025,16.5898 18.1825,16.5618 18.1645,16.5348 C18.2645,16.4158 18.3825,16.3098 18.5175,16.2158 M18.4295,14.1308 C18.5455,14.0488 18.7125,14.0148 18.8715,14.0408 C19.5935,14.1078 19.9385,15.0238 19.3025,15.1908 C19.2555,15.2028 19.2065,15.2108 19.1585,15.2138 C18.9465,15.2398 18.7285,15.1998 18.5605,15.1028 C18.3925,15.0058 18.2885,14.8628 18.2775,14.7078 C18.2775,14.7078 18.1905,14.3428 18.4065,14.1508 C18.4135,14.1448 18.4205,14.1368 18.4295,14.1308 M16.6905,18.3278 L16.6905,18.3288 C16.6995,18.3788 16.7165,18.4268 16.7445,18.4728 C16.8465,18.6488 17.1025,18.7918 17.6455,18.8098 C17.9235,18.8338 18.2025,18.7698 18.4215,18.6318 C18.6445,18.4518 18.6955,18.0828 18.6955,18.0828 C18.6955,18.0828 18.6985,18.0558 18.6975,18.0558 C18.7125,18.0508 18.9825,17.9298 19.0925,17.8638 C19.6405,17.5408 20.0965,16.9718 19.7685,15.9488 C19.6995,15.7278 19.6035,15.5128 19.4815,15.3068 C20.2265,15.0908 19.8235,13.9048 18.9775,13.8168 C18.7905,13.7838 18.5955,13.8278 18.4575,13.9348 C17.9365,13.6738 17.6075,13.5918 16.9955,13.5298 C16.8385,13.5218 16.1505,13.5218 16.0515,13.7158 C15.9785,13.6918 15.7615,13.6918 15.7615,13.6918 C15.2605,13.7358 14.8375,14.0048 14.6715,14.3838 C14.5225,14.7278 14.6565,15.1098 15.0075,15.3438 C15.0075,15.3438 15.1095,15.4138 15.1495,15.4368 C14.2895,17.4058 15.2935,18.0868 16.3035,18.2768 C16.4305,18.2998 16.5595,18.3168 16.6905,18.3278" id="Fill-17" fill="#EAEDED"></path>
                </g>
            </g>
        </g>
    </g>
</svg>