<?xml version="1.0" encoding="UTF-8"?>
<svg id="b" xmlns="http://www.w3.org/2000/svg" width="86" height="205"
    xmlns:xlink="http://www.w3.org/1999/xlink" viewBox="0 0 86 205">
    <defs>
        <linearGradient id="f" x1="39.3" y1="72.2" x2="47.1" y2="72.2"
            gradientUnits="userSpaceOnUse">
            <stop offset="0" stop-color="#989898" />
            <stop offset="0" stop-color="#a3a3a3" />
            <stop offset=".1" stop-color="#c4c5c5" />
            <stop offset=".2" stop-color="#d8d9d9" />
            <stop offset=".3" stop-color="#e0e1e1" />
            <stop offset=".4" stop-color="#dbdcdc" />
            <stop offset=".5" stop-color="#cccece" />
            <stop offset=".6" stop-color="#b5b6b7" />
            <stop offset=".7" stop-color="#949697" />
            <stop offset=".8" stop-color="#6a6c6f" />
            <stop offset=".8" stop-color="#3f4246" />
            <stop offset="1" stop-color="#404247" />
            <stop offset="1" stop-color="#43434a" />
        </linearGradient>
        <linearGradient id="g" x1="1.4" y1="21.6" x2="84.2" y2="21.6"
            gradientUnits="userSpaceOnUse">
            <stop offset="0" stop-color="#afbacb" />
            <stop offset=".1" stop-color="#c1ccda" />
            <stop offset=".4" stop-color="#d9e6f0" />
            <stop offset=".5" stop-color="#e3f0f8" />
            <stop offset=".6" stop-color="#dde9f2" />
            <stop offset=".8" stop-color="#ccd8e4" />
            <stop offset="1" stop-color="#b1bbcc" />
            <stop offset="1" stop-color="#aeb8c9" />
        </linearGradient>
    </defs>
    <g id="c">
        <rect width="86" height="205" style="fill:#535a60; opacity:0; stroke-width:0px;" />
        <ellipse id="d" cx="43" cy="102.5" rx="14.4" ry="3.7"
            style="fill:#262d34; isolation:isolate; opacity:.2; stroke-width:0px;" />
        <ellipse id="e" cx="43" cy="102.5" rx="7.5" ry="3"
            style="fill:#535a60; stroke-width:0px;" />
        <path
            d="m40,41.2h6c.7,0,1.3.6,1.3,1.3v57.4c0,1.9-1.5,3.4-3.4,3.4h-1.8c-1.9,0-3.4-1.5-3.4-3.4v-57.4c0-.7.6-1.3,1.3-1.3Z"
            style="fill:url(#f); opacity:.5; stroke-width:0px;" />
        <rect x="1.4" y="1.9" width="82.8" height="39.3" rx="4.6" ry="4.6"
            style="fill:url(#g); stroke:#8b9fae; stroke-miterlimit:10; stroke-width:1.2px;" />
        <rect x="4" y="5.7" width="77.5" height="34" rx="2.6" ry="2.6"
            style="fill:#fad950; stroke-width:0px;" />
        <path
            d="m79,7.7c.3,0,.5.2.5.5v28.8c0,.3-.2.5-.5.5H6.6c-.3,0-.5-.2-.5-.5V8.3c0-.3.2-.5.5-.5h72.4m0-4.1H6.6c-2.6,0-4.6,2.1-4.6,4.6v28.8c0,2.6,2.1,4.6,4.6,4.6h72.4c2.6,0,4.6-2.1,4.6-4.6V8.3c0-2.6-2.1-4.6-4.6-4.6h0Z"
            style="fill:#0a0a0a; stroke-width:0px;" />
        <path
            d="m24.3,25c-.4-.6-.9-1.3-1.3-1.9v9.3h-2.1v-8.8c-.6,1.5-1.4,3-2.1,4.1l-1.3-1.8c1.1-1.7,2.5-4.3,3.3-6.6h-2.2v-2h2.4v-3.7h2.1v3.7h2v2h-2v1.9l.3-.3c.6.6,1.7,2,2.3,2.8l-1.3,1.3Zm4.3-1.1c-.6,2.1-1.9,5.2-2.9,7l-1.9-1c1.1-1.9,2.3-4.7,2.9-6.8l1.9.8Zm3.1-1.9v8.2c0,1.8-.7,2.1-2.4,2.2h-1.1c0,.1-.7-2.1-.7-2.1h1.1c.9-.1,1-.2,1-1.1v-7.2h-4.5v-2.2h11.5v2.2h-4.9Zm3.9-5.2h-9.6v-2.1h9.6v2.1Zm-1.5,6.4c.7,1.6,2.2,4.9,2.8,6.7l-1.9.9c-.6-1.7-2-5.2-2.7-6.8l1.7-.8Z"
            style="fill:#1e1e1e; stroke-width:0px;" />
        <path
            d="m52.7,23.5h3.3v8.8h-1.7v-6.8h-1.6c-.2,3.1-.7,4.9-1.7,7.1l-1.8-.9c1.2-2.9,1.7-4.3,1.7-9.4v-8.1h1.8v5.2h1.5v-5.6h1.7v5.6h1.3v2h-4.5v2.1Zm15.3,5.5h-4.3v3.4h-2v-3.4h-5.3v-1.9h1.7l-.5-.7c1-.6,1.7-1.1,2.3-1.8h-2.5v-9.4h3c.3-.8.6-1.7.8-2.2l2,.5c-.1.4-.4,1.1-.6,1.7h4.3v9.4h-4.9c-.6,1-1.3,1.8-2.3,2.5h2v-2.1h2v2.1h4.3v1.9Zm-8.8-11.9v2h2.1v-2h-2.1Zm1.7,5.7c.2-.5.3-1.2.3-2h-2v2h1.7Zm4.2,0v-2h-2.1c0,.7-.2,1.4-.3,2h2.4Zm0-5.7h-2.1v2h2.1v-2Z"
            style="fill:#1e1e1e; stroke-width:0px;" />
    </g>
</svg>