<?xml version="1.0" encoding="UTF-8"?>
<svg width="28px" height="25px" viewBox="0 0 28 25" version="1.1" xmlns="http://www.w3.org/2000/svg" xmlns:xlink="http://www.w3.org/1999/xlink">
    <!-- Generator: Sketch 54.1 (76490) - https://sketchapp.com -->
    <title>01602</title>
    <desc>Created with Sketch.</desc>
    <defs>
        <polygon id="path-1" points="0 0.473 28 0.473 28 25 0 25"></polygon>
    </defs>
    <g id="-" stroke="none" stroke-width="1" fill="none" fill-rule="evenodd">
        <g id="C9_1_icon-汇总说明(一)" transform="translate(-335.000000, -614.000000)">
            <g id="编组-28" transform="translate(335.000000, 613.000000)">
                <g id="01602">
                    <g id="编组" transform="translate(0.000000, 0.527500)">
                        <mask id="mask-2" fill="white">
                            <use xlink:href="#path-1"></use>
                        </mask>
                        <g id="Clip-2"></g>
                        <path d="M13.9918,25 L1.1738,25 C0.5958,25 0.1108,24.575 0.0148,24.005 C-0.0422,23.655 0.0688,23.359 0.2418,23.068 C0.5398,22.565 0.8268,22.058 1.1188,21.552 C1.4778,20.933 1.8388,20.313 2.1968,19.694 C2.5548,19.074 2.9118,18.453 3.2698,17.833 C3.6048,17.255 3.9408,16.679 4.2758,16.102 C4.6028,15.536 4.9288,14.968 5.2558,14.402 C5.5328,13.922 5.8128,13.444 6.0898,12.964 C6.2918,12.616 6.4888,12.265 6.6898,11.916 C6.8798,11.588 7.0708,11.262 7.2608,10.935 C7.5618,10.413 7.8638,9.891 8.1648,9.369 C8.4218,8.924 8.6768,8.479 8.9338,8.035 C9.2518,7.485 9.5728,6.938 9.8898,6.388 C10.2908,5.695 10.6878,5.001 11.0888,4.309 C11.3958,3.776 11.7088,3.245 12.0168,2.712 C12.3248,2.181 12.6318,1.65 12.9348,1.117 C13.1058,0.815 13.3498,0.608 13.6858,0.515 C14.1528,0.385 14.7068,0.557 14.9698,0.982 C15.2558,1.443 15.5198,1.918 15.7928,2.389 C16.0348,2.805 16.2748,3.221 16.5148,3.638 C16.9088,4.321 17.3018,5.005 17.6958,5.688 C17.9378,6.107 18.1838,6.524 18.4268,6.942 C18.8578,7.689 19.2888,8.436 19.7198,9.183 C20.0878,9.82 20.4558,10.456 20.8238,11.092 C21.0628,11.506 21.3038,11.919 21.5428,12.333 C21.9968,13.117 22.4488,13.901 22.9018,14.685 C23.2458,15.279 23.5908,15.873 23.9328,16.468 C24.2848,17.079 24.6348,17.691 24.9878,18.302 C25.3548,18.938 25.7258,19.573 26.0948,20.208 C26.4848,20.885 26.8738,21.562 27.2638,22.238 C27.4618,22.58 27.6668,22.917 27.8568,23.262 C28.0068,23.531 28.0388,23.821 27.9548,24.119 C27.8318,24.558 27.5448,24.838 27.1078,24.964 C27.0258,24.987 26.9368,24.999 26.8508,24.999 C22.5648,25 18.2788,25 13.9918,25" id="Fill-1" fill="#E7D642" mask="url(#mask-2)"></path>
                    </g>
                    <path d="M25.15,23.5275 C21.43,17.0955 17.718,10.6775 13.995,4.2405 C10.272,10.6805 6.562,17.0985 2.845,23.5275 L25.15,23.5275 Z" id="Fill-3" fill="#231916"></path>
                    <polygon id="Fill-5" fill="#E7D642" points="18.0269 20.0158 18.0309 19.5138 17.1319 18.9888 18.0399 18.4718 18.0439 17.9568 17.5979 17.6968 16.2439 18.4698 14.5959 17.5068 16.2529 16.5618 17.5899 17.3328 18.0379 17.0768 18.0409 16.5638 17.1449 16.0528 18.0399 15.5418 18.0429 15.0158 17.6089 14.7608 16.7059 15.2768 16.7119 14.2328 16.2679 13.9718 15.8189 14.2278 15.8109 15.7868 14.1539 16.7328 14.1639 14.8248 15.5069 14.0638 15.5089 13.5478 15.0659 13.2888 14.1699 13.7968 14.1739 12.7668 13.7209 12.5018 13.2829 12.7508 13.2769 13.7888 12.3779 13.2638 11.9289 13.5168 11.9259 14.0338 13.2719 14.8188 13.2619 16.7278 11.6159 15.7658 11.6279 14.2218 11.1819 13.9618 10.7359 14.2168 10.7279 15.2478 9.8389 14.7278 9.3819 14.9878 9.3789 15.4928 10.2739 16.0158 9.3699 16.5318 9.3659 17.0478 9.8109 17.3078 11.1639 16.5348 12.8129 17.4978 11.1579 18.4428 9.8199 17.6718 9.3719 17.9278 9.3689 18.4408 10.2639 18.9528 9.3699 19.4628 9.3669 19.9878 9.8009 20.2438 10.7019 19.7288 10.6969 20.7708 11.1409 21.0328 11.5889 20.7768 11.5959 19.2188 13.2549 18.2728 13.2449 20.1778 11.9029 20.9388 11.8999 21.4558 12.3419 21.7148 13.2399 21.2058 13.2349 22.2368 13.6889 22.5018 14.1269 22.2538 14.1309 21.2148 15.0319 21.7408 15.4799 21.4868 15.4829 20.9718 14.1369 20.1848 14.1459 18.2778 15.7929 19.2388 15.7799 20.7808 16.2269 21.0418 16.6719 20.7878 16.6799 19.7568 17.5699 20.2768"></polygon>
                </g>
            </g>
        </g>
    </g>
</svg>