<?xml version="1.0" encoding="UTF-8"?>
<svg width="29px" height="26px" viewBox="0 0 29 26" version="1.1" xmlns="http://www.w3.org/2000/svg" xmlns:xlink="http://www.w3.org/1999/xlink">
    <!-- Generator: Sketch 54.1 (76490) - https://sketchapp.com -->
    <title>01402</title>
    <desc>Created with Sketch.</desc>
    <g id="-" stroke="none" stroke-width="1" fill="none" fill-rule="evenodd">
        <g id="C9_1_icon-汇总说明(一)" transform="translate(-393.000000, -614.000000)">
            <g id="编组-28" transform="translate(335.000000, 613.000000)">
                <g id="01402" transform="translate(58.000000, 0.216000)">
                    <path d="M26.9425,25.8916 L0.9605,25.8916 C-0.1475,25.6816 -0.1005,24.5806 0.6715,23.2206 L12.9245,1.6206 C13.3875,0.8966 14.5435,0.4286 15.2215,1.6206 L27.2455,22.7626 C28.0625,24.0586 28.8115,25.9146 26.9425,25.8916" id="Fill-1" fill="#E7D642"></path>
                    <path d="M14.0729,3.6054 L2.5099,23.8314 L25.6369,23.8314 L14.0729,3.6054 Z M26.9429,25.8914 L0.9609,25.8914 C-0.1481,25.6814 -0.1001,24.5804 0.6709,23.2204 L12.9249,1.6214 C13.3869,0.8974 14.5439,0.4284 15.2219,1.6214 L27.2449,22.7624 C28.0629,24.0584 28.8109,25.9144 26.9429,25.8914 L26.9429,25.8914 Z" id="Fill-3" fill="#231916"></path>
                    <path d="M14.0729,3.6054 L2.5099,23.8314 L25.6369,23.8314 L14.0729,3.6054 Z M26.9429,25.8914 L0.9609,25.8914 C-0.1481,25.6814 -0.1001,24.5804 0.6709,23.2204 L12.9249,1.6214 C13.3869,0.8974 14.5439,0.4284 15.2219,1.6214 L27.2449,22.7624 C28.0629,24.0584 28.8109,25.9144 26.9429,25.8914 Z" id="Stroke-5" stroke="#231916" stroke-width="0.216"></path>
                    <path d="M23.672,22.3886 L4.672,22.3886 L12.672,8.3886 C13.01,8.7726 13.323,10.1836 13.015,10.7846 C13.264,11.0976 13.232,11.4476 12.917,11.8326 C12.965,12.0326 12.832,12.2596 13.061,12.4326 C12.957,12.9606 13.214,13.5596 13.835,14.2306 C13.839,14.9696 14.005,15.3846 14.333,15.4756 C14.549,15.6396 14.565,16.1626 14.379,17.0466 C14.555,17.3066 14.611,17.6026 14.546,17.9346 C15.068,19.1036 15.203,20.1726 15.161,21.1976 L22.861,21.1976 L23.672,22.3886 Z" id="Fill-7" fill="#231916"></path>
                    <path d="M23.672,22.3886 L4.672,22.3886 L12.672,8.3886 C13.01,8.7726 13.323,10.1836 13.015,10.7846 C13.264,11.0976 13.232,11.4476 12.917,11.8326 C12.965,12.0326 12.832,12.2596 13.061,12.4326 C12.957,12.9606 13.214,13.5596 13.835,14.2306 C13.839,14.9696 14.005,15.3846 14.333,15.4756 C14.549,15.6396 14.565,16.1626 14.379,17.0466 C14.555,17.3066 14.611,17.6026 14.546,17.9346 C15.068,19.1036 15.203,20.1726 15.161,21.1976 L22.861,21.1976 L23.672,22.3886 Z" id="Stroke-9" stroke="#231916" stroke-width="0.216"></path>
                    <path d="M17.6212,14.7695 C17.9322,14.7695 18.1832,15.0645 18.1832,15.4285 C18.1832,15.7925 17.9322,16.0875 17.6212,16.0875 C17.3102,16.0875 17.0592,15.7925 17.0592,15.4285 C17.0592,15.0645 17.3102,14.7695 17.6212,14.7695" id="Fill-11" fill="#231916"></path>
                    <path d="M17.6212,14.7695 C17.9322,14.7695 18.1832,15.0645 18.1832,15.4285 C18.1832,15.7925 17.9322,16.0875 17.6212,16.0875 C17.3102,16.0875 17.0592,15.7925 17.0592,15.4285 C17.0592,15.0645 17.3102,14.7695 17.6212,14.7695 Z" id="Stroke-13" stroke="#231916" stroke-width="0.216"></path>
                    <path d="M18.2189,17.4233 C17.8559,17.7693 17.3169,17.6333 17.1289,18.4623 C17.1169,19.0923 17.4809,19.4753 18.2189,19.6113 L18.2189,17.4233 Z" id="Fill-15" fill="#231916"></path>
                    <path d="M18.2189,17.4233 C17.8559,17.7693 17.3169,17.6333 17.1289,18.4623 C17.1169,19.0923 17.4809,19.4753 18.2189,19.6113 L18.2189,17.4233 Z" id="Stroke-17" stroke="#231916" stroke-width="0.216"></path>
                    <path d="M15.0362,12.0913 L15.5142,11.7843 C15.6712,11.6833 15.9422,11.8453 16.1152,12.1443 L16.7672,13.2733 C16.9402,13.5723 16.9532,13.9003 16.7952,14.0023 L16.3172,14.3083 C16.1592,14.4103 15.8892,14.2483 15.7162,13.9483 L15.0642,12.8203 C14.8912,12.5203 14.8782,12.1933 15.0362,12.0913" id="Fill-19" fill="#231916"></path>
                    <path d="M15.0362,12.0913 L15.5142,11.7843 C15.6712,11.6833 15.9422,11.8453 16.1152,12.1443 L16.7672,13.2733 C16.9402,13.5723 16.9532,13.9003 16.7952,14.0023 L16.3172,14.3083 C16.1592,14.4103 15.8892,14.2483 15.7162,13.9483 L15.0642,12.8203 C14.8912,12.5203 14.8782,12.1933 15.0362,12.0913 Z" id="Stroke-21" stroke="#231916" stroke-width="0.216"></path>
                    <path d="M13.5123,9.1421 L13.8293,8.8451 C13.9343,8.7471 14.1573,8.8301 14.3243,9.0291 L14.9553,9.7791 C15.1223,9.9781 15.1733,10.2211 15.0693,10.3191 L14.7513,10.6161 C14.6463,10.7141 14.4243,10.6311 14.2563,10.4331 L13.6253,9.6821 C13.4583,9.4831 13.4073,9.2401 13.5123,9.1421" id="Fill-23" fill="#231916"></path>
                    <path d="M13.5123,9.1421 L13.8293,8.8451 C13.9343,8.7471 14.1573,8.8301 14.3243,9.0291 L14.9553,9.7791 C15.1223,9.9781 15.1733,10.2211 15.0693,10.3191 L14.7513,10.6161 C14.6463,10.7141 14.4243,10.6311 14.2563,10.4331 L13.6253,9.6821 C13.4583,9.4831 13.4073,9.2401 13.5123,9.1421 Z" id="Stroke-25" stroke="#231916" stroke-width="0.216"></path>
                </g>
            </g>
        </g>
    </g>
</svg>