<?xml version="1.0" encoding="utf-8"?>
<!-- Generator: Adobe Illustrator 17.0.0, SVG Export Plug-In . SVG Version: 6.00 Build 0)  -->
<!DOCTYPE svg PUBLIC "-//W3C//DTD SVG 1.1//EN" "http://www.w3.org/Graphics/SVG/1.1/DTD/svg11.dtd">
<svg version="1.1"
	 id="svg2203" xmlns:cc="http://web.resource.org/cc/" xmlns:svg="http://www.w3.org/2000/svg" xmlns:rdf="http://www.w3.org/1999/02/22-rdf-syntax-ns#" xmlns:sodipodi="http://sodipodi.sourceforge.net/DTD/sodipodi-0.dtd" xmlns:dc="http://purl.org/dc/elements/1.1/" xmlns:inkscape="http://www.inkscape.org/namespaces/inkscape" sodipodi:version="0.32" sodipodi:docname="闂傚倸鍊搁崐鎼佸磹瀹勬噴褰掑炊閺冨牊鍋愰柛娆忛崰鎰磽娴ｆ垝鍚柛瀣仧閹广垹鈹戠€ｏ紲濠电姴锕ら幊鎰版晬濠婂啠鏀介柍鈺佸暢绾偓缂傚倷鑳舵慨闈涚暆缁嬪灝煤缁犲綊鏌ｉ幇绲诲┑娲栭埞鎴︽晬閸曞摋濠碘€抽柟鍋撻幖杈剧悼閻撴捇鏌ｉ悩鍙夊窛闁稿鎸歌灋闁告劖妲梺閫炲嫮鍘甸梺鑹板吹濡" sodipodi:docbase="D:\SVG\闂傚倸鍊搁崐鎼佸磹閹间礁纾瑰瀣捣閻棗銆掑锝呬壕濡ょ姷鍋為悧鐘茬拠娴嬫婵炲棙鍔曢崝鍛存⒑闂堟稓绠冲┑鏀辩粋鎺楁嚃閳哄啰锛濇繛杈剧导缁瑩宕ú鐓欓柛娑橈攻閸婃劙鏌" inkscape:version="0.45.1" inkscape:output_extension="org.inkscape.output.svg.inkscape"
	 xmlns="http://www.w3.org/2000/svg" xmlns:xlink="http://www.w3.org/1999/xlink" x="0px" y="0px" width="30px" height="30px"
	 viewBox="0 0 30 30" enable-background="new 0 0 30 30" xml:space="preserve">
<sodipodi:namedview  inkscape:zoom="0.74999999" id="base" showguides="true" guidetolerance="10" pagecolor="#ffffff" inkscape:cx="126.79097" borderopacity="1.0" gridtolerance="10000" bordercolor="#666666" inkscape:cy="646.08493" objecttolerance="10" inkscape:window-height="968" inkscape:window-y="-4" inkscape:window-x="-4" inkscape:window-width="1280" inkscape:current-layer="layer1" inkscape:document-units="px" inkscape:pageshadow="2" inkscape:pageopacity="0.0" inkscape:guide-bbox="true">
	<sodipodi:guide  position="1116" id="guide22942" orientation="vertical"></sodipodi:guide>
	<sodipodi:guide  position="1147" id="guide22944" orientation="vertical"></sodipodi:guide>
</sodipodi:namedview>
<g>
	<g>
		<path fill="#100808" d="M1.176,28.664c-0.502,0-0.909-0.428-0.909-0.963c0-0.169,0.044-0.337,0.124-0.483L14.215,1.819
			C14.374,1.521,14.676,1.336,15,1.336s0.626,0.185,0.785,0.483l13.827,25.399c0.076,0.146,0.12,0.315,0.12,0.483
			c0,0.53-0.409,0.963-0.913,0.963H1.176z"/>
		<polygon fill="#F7BD42" points="4.32,25.775 25.68,25.775 15,6.153 		"/>
	</g>
	<polygon points="12.288,12.159 13.514,12.159 13.514,14.626 14.272,16.239 14.272,21.014 13.29,22.937 13.29,25.249 12.188,25.249 
		12.188,22.863 13.131,20.82 13.101,16.395 12.322,14.626 	"/>
	<polygon points="17.788,12.159 16.563,12.159 16.563,14.62 15.808,16.239 15.808,21.013 16.786,22.937 16.786,25.249 17.89,25.249 
		17.89,22.863 16.945,20.82 16.975,16.395 17.754,14.62 	"/>
</g>
</svg>
