<?xml version="1.0" encoding="UTF-8"?>
<svg width="28px" height="25px" viewBox="0 0 28 25" version="1.1" xmlns="http://www.w3.org/2000/svg" xmlns:xlink="http://www.w3.org/1999/xlink">
    <!-- Generator: Sketch 54.1 (76490) - https://sketchapp.com -->
    <title>zhuyiyeshengdonwu_icon</title>
    <desc>Created with Sketch.</desc>
    <defs>
        <polygon id="path-1" points="0 0.473 28 0.473 28 25 0 25"></polygon>
    </defs>
    <g id="-" stroke="none" stroke-width="1" fill="none" fill-rule="evenodd">
        <g id="C9_1_icon-汇总说明(一)" transform="translate(-208.000000, -614.000000)">
            <g id="zhuyiyeshengdonwu_icon-2" transform="translate(208.000000, 613.000000)">
                <g id="zhuyiyeshengdonwu_icon">
                    <g id="编组" transform="translate(0.000000, 0.527500)">
                        <mask id="mask-2" fill="white">
                            <use xlink:href="#path-1"></use>
                        </mask>
                        <g id="Clip-2"></g>
                        <path d="M13.9918,25.0001 L1.1738,25.0001 C0.5958,25.0001 0.1108,24.5751 0.0148,24.0051 C-0.0422,23.6551 0.0688,23.3591 0.2418,23.0681 C0.5398,22.5651 0.8268,22.0581 1.1188,21.5521 C1.4778,20.9331 1.8388,20.3131 2.1968,19.6941 C2.5548,19.0741 2.9118,18.4531 3.2698,17.8331 C3.6048,17.2551 3.9408,16.6791 4.2758,16.1011 C4.6028,15.5361 4.9288,14.9681 5.2558,14.4021 C5.5328,13.9221 5.8128,13.4441 6.0898,12.9641 C6.2918,12.6161 6.4888,12.2651 6.6898,11.9161 C6.8798,11.5881 7.0708,11.2621 7.2608,10.9351 C7.5618,10.4131 7.8638,9.8911 8.1648,9.3691 C8.4218,8.9241 8.6768,8.4791 8.9338,8.0351 C9.2518,7.4851 9.5728,6.9381 9.8898,6.3881 C10.2908,5.6951 10.6878,5.0011 11.0888,4.3091 C11.3958,3.7761 11.7088,3.2451 12.0168,2.7121 C12.3248,2.1811 12.6318,1.6501 12.9348,1.1171 C13.1058,0.8151 13.3498,0.6081 13.6858,0.5151 C14.1528,0.3851 14.7068,0.5571 14.9698,0.9821 C15.2558,1.4431 15.5198,1.9181 15.7928,2.3881 C16.0348,2.8041 16.2748,3.2211 16.5148,3.6381 C16.9088,4.3211 17.3018,5.0051 17.6958,5.6881 C17.9378,6.1071 18.1838,6.5241 18.4268,6.9421 C18.8578,7.6891 19.2888,8.4361 19.7198,9.1831 C20.0878,9.8191 20.4558,10.4561 20.8238,11.0921 C21.0628,11.5061 21.3038,11.9191 21.5428,12.3331 C21.9968,13.1171 22.4488,13.9011 22.9018,14.6851 C23.2458,15.2791 23.5908,15.8731 23.9328,16.4671 C24.2848,17.0791 24.6348,17.6911 24.9878,18.3021 C25.3548,18.9381 25.7258,19.5721 26.0948,20.2081 C26.4848,20.8841 26.8738,21.5621 27.2638,22.2381 C27.4618,22.5801 27.6668,22.9171 27.8568,23.2621 C28.0058,23.5311 28.0388,23.8211 27.9548,24.1181 C27.8318,24.5581 27.5448,24.8381 27.1078,24.9641 C27.0258,24.9871 26.9368,24.9991 26.8508,24.9991 C22.5648,25.0001 18.2788,25.0001 13.9918,25.0001" id="Fill-1" fill="#231916" mask="url(#mask-2)"></path>
                    </g>
                    <path d="M25.276,23.5276 C21.555,17.0956 17.843,10.6776 14.121,4.2406 C10.397,10.6806 6.687,17.0986 2.97,23.5276 L25.276,23.5276 Z" id="Fill-3" fill="#E7D642"></path>
                    <path d="M18.522,16.7512 C18.619,16.6572 18.787,16.7712 19.148,16.6162 C19.423,16.4992 19.46,16.3592 19.514,16.1052 C19.578,15.8082 19.251,15.4792 19.182,15.4872 C19.115,15.4962 19.184,15.7542 19.103,15.9422 C18.949,16.3012 18.918,16.2962 18.67,16.4342 C18.299,16.6392 18.197,16.5042 18.197,16.5042 C17.874,16.1232 17.482,16.0302 16.835,15.9702 C16.457,15.9352 15.974,15.4192 15.457,15.2242 C14.952,15.0342 14.391,14.3252 14.294,13.9192 C14.119,13.2062 14.213,12.6732 14.218,12.1702 C14.22,11.9942 14.226,11.6862 14.203,11.5352 C14.203,11.5352 14.425,11.5472 14.48,11.5382 C14.534,11.5282 14.784,11.0912 14.714,11.0602 C14.645,11.0282 14.442,11.0742 14.262,11.1192 C14.099,11.1592 14.488,10.6352 14.546,10.3102 C14.568,10.1872 14.745,10.0442 14.764,9.7472 C14.776,9.5712 14.744,9.4062 14.668,9.4032 C14.563,9.3982 14.646,9.5752 14.616,9.7312 C14.511,10.2672 14.253,10.3882 13.999,9.3852 C13.944,9.1732 14.081,8.8782 13.98,8.8822 C13.879,8.8862 13.791,9.2172 13.796,9.3932 C13.803,9.5692 13.799,9.4682 13.782,9.6702 C13.625,9.5002 13.503,9.3392 13.432,9.0792 C13.35,8.7782 13.494,8.5222 13.369,8.5272 C13.267,8.5312 13.205,8.8862 13.231,9.0862 C13.253,9.2592 13.293,9.3862 13.377,9.6352 C13.198,9.5662 13.071,9.4872 12.975,9.3342 C12.869,9.1642 12.924,8.9312 12.824,8.9352 C12.723,8.9392 12.753,9.0882 12.756,9.1642 C12.786,9.9442 14.107,9.7582 14.097,10.6652 C14.089,11.4202 13.419,11.1002 12.99,11.1962 C12.762,11.2442 12.769,11.4062 12.189,11.3992 C12.064,11.3982 11.883,11.3572 11.836,11.4462 C11.769,11.5742 12.009,11.7142 12.006,11.9772 C12.005,12.0902 12.145,12.0742 12.24,12.1062 C12.334,12.1392 12.866,12.1842 12.877,12.4102 C12.883,12.5282 12.842,13.1672 12.892,13.6742 C12.923,14.0002 12.36,14.5442 12.35,15.4412 C12.35,15.4412 12.171,15.3812 11.654,15.1862 C11.157,14.9992 10.673,15.0122 10.575,15.0682 C10.49,15.1172 10.466,15.4792 10.513,15.5272 C10.56,15.5752 10.734,15.7542 10.826,16.0392 C10.904,16.2832 10.872,16.9792 10.872,16.9792 C10.872,16.9792 11.035,17.1482 11.082,17.1642 C11.128,17.1812 11.141,17.1712 11.201,17.2572 C11.256,17.3392 11.262,17.3852 11.262,17.3852 L11.57,17.7282 C11.57,17.7282 11.652,17.3402 11.625,17.2552 C11.606,17.1982 11.431,17.0762 11.366,17.0052 C11.226,16.8552 11.242,16.6022 11.238,16.3422 C11.235,16.0792 11.134,15.7552 11.186,15.7472 C11.238,15.7392 11.536,15.8912 11.848,16.0992 C12.162,16.3072 12.31,16.4352 12.529,16.5022 C12.98,16.6412 13.159,16.8932 13.584,17.0012 C13.986,17.1042 16.207,17.4692 16.503,17.9512 C16.627,18.1542 16.708,18.5132 17.006,18.7692 C17.649,19.2802 18.374,19.5792 18.791,20.3242 C18.919,20.5532 18.959,21.3842 19.006,21.6872 C19.031,21.7622 19.158,21.9342 19.385,22.1002 C19.596,22.2522 19.577,22.5242 19.878,22.5272 L19.884,22.0232 C19.737,21.9342 19.536,21.9112 19.466,21.4542 C19.432,21.2232 19.411,20.7782 19.416,20.3632 C19.423,19.6102 18.465,19.5292 18.418,18.4662 C18.398,17.9932 18.616,17.9072 18.621,17.4092 C18.625,17.0652 18.345,16.9252 18.522,16.7512" id="Fill-5" fill="#231916"></path>
                </g>
            </g>
        </g>
    </g>
</svg>