<?xml version="1.0" encoding="utf-8"?>
<!-- Generator: Adobe Illustrator 17.0.0, SVG Export Plug-In . SVG Version: 6.00 Build 0)  -->
<!DOCTYPE svg PUBLIC "-//W3C//DTD SVG 1.1//EN" "http://www.w3.org/Graphics/SVG/1.1/DTD/svg11.dtd">
<svg version="1.1"
	 id="svg2203" xmlns:cc="http://web.resource.org/cc/" xmlns:svg="http://www.w3.org/2000/svg" xmlns:rdf="http://www.w3.org/1999/02/22-rdf-syntax-ns#" xmlns:sodipodi="http://sodipodi.sourceforge.net/DTD/sodipodi-0.dtd" xmlns:dc="http://purl.org/dc/elements/1.1/" xmlns:inkscape="http://www.inkscape.org/namespaces/inkscape" sodipodi:version="0.32" sodipodi:docname="闂傚倸鍊搁崐鎼佸磹閹间礁纾归柟闂寸绾惧綊鏌熼梻瀵哥痪鎯ф贡閳ф嚀鐎氬闯绾惧浜归柟鐑樺灩閸婄偤姊洪崫鍕殭闁绘锕畷鎴﹀箛閻楀牏鍘卞┑鐐叉缁绘ê鐣锋导鏉戠疀缁炬崘妫勯湁闁挎繂妫楅悘濠囨煕濮樺幈闁诲函绲奸幋鐑芥⒑閻熸壆鐣柛銊ョ秺閸╃偤骞嬮悩浜鹃柨婵嗙箳鎼村﹤鈹戦悩鍨毄濠垫尦閺佸啴濡舵径濠勭枃闂佽澹嗘晶妤呭疾缁绘繃绻濋崒姘疁闂佽　鍋撳ù鐘查悡鍐煃鏉炴壆闁哄棎鍨婚惀宕戦幘鍓佺＝闁稿本鑹鹃埀鍏橀幊妤呮嚋閸ㄥ伎闂傚倸鐗婄粙鎾诲汲閸℃瑧纾奸悗锝勮檸闁绘挶鍊楃槐鎺楁偐閼夹ㄩ梺鍝勭焿缂嶄線鐛崶鈺佺筏閻犲洦绁撮弨鑺ョ箾閸欏澧甸柛鈺冨仱楠炲鏁傞懞銉︾彨闂備礁鎲″ú鏍箺鐎ｇ瘈缁剧増菤閸嬫捇骞庨懞銉у幍闂佺閹瑰洭鐛弽銊︾秶闁告挆鍕还闂備胶绮幐濠氬箲閸ヨ摕闁挎繂閸嬫劙鏌涘▎蹇曠玻濞戙垺鈷戠紒瀣健楠炴劕瀹€鈧禍閬嶆⒒娴ｅ憡鍟為柛鏃€鐗曞嵄婵﹥妞介弻鍛存倷閹绘帡鏌涘Ο鍏兼毈婵﹥妞介幊婵嬪级閸ㄥ劒婵" sodipodi:docbase="D:\SVG\闂傚倸鍊搁崐鎼佸磹閹间礁纾归柟闂寸绾惧綊鏌熼梻瀵哥痪鎯х秺閺岀喖姊荤€靛摜鐥崜褎鍤€闁诲函绲惧畷鎶芥⒑缂佹﹢鏌曢崱妯虹瑨闂佹寧绻傞幊宥嗙珶閺囩喍绻嗛柕鍫濇搐鍟搁梺绋块崑銈夊箖瑜旈幃鈺呮嚑鐎氭碍绻涢弶鎴炵節閻㈤潧浠滄俊鐟╁畷婵嬪即閵忕姷闂佸憡绋戦悺銊╁煕閹达附鈷掗柛鍠撻妴鎺旂磼閻樻彃鏆遍柍瑙勫灴瀵劍娼忛埡鍐効闂佸湱鍎ら柛銈呭暣閺屽秹宕崟娈堕梺鎸庣⊕缁诲啰鎹㈠☉娆愮秶闁告挆鍐磽娴ｇ儤鍣伴悗瑙勬瘽濞插亗婵炲棙鎸婚悡鏇熺箾閹寸儑鍏柡鈧繝姘厱濠电姴鍟慨宥夋煛" inkscape:version="0.45.1" inkscape:output_extension="org.inkscape.output.svg.inkscape"
	 xmlns="http://www.w3.org/2000/svg" xmlns:xlink="http://www.w3.org/1999/xlink" x="0px" y="0px" width="30px" height="30px"
	 viewBox="0 0 30 30" enable-background="new 0 0 30 30" xml:space="preserve">
<sodipodi:namedview  inkscape:zoom="0.74999999" id="base" showguides="true" guidetolerance="10" pagecolor="#ffffff" inkscape:cx="126.79097" borderopacity="1.0" gridtolerance="10000" bordercolor="#666666" inkscape:cy="646.08493" objecttolerance="10" inkscape:window-height="968" inkscape:window-y="-4" inkscape:window-x="-4" inkscape:window-width="1280" inkscape:current-layer="layer1" inkscape:document-units="px" inkscape:pageshadow="2" inkscape:pageopacity="0.0" inkscape:guide-bbox="true">
	<sodipodi:guide  position="1116" id="guide22942" orientation="vertical"></sodipodi:guide>
	<sodipodi:guide  position="1147" id="guide22944" orientation="vertical"></sodipodi:guide>
</sodipodi:namedview>
<g>
	<path fill="#100808" d="M1.173,28.667c-0.5,0-0.909-0.424-0.909-0.963c0-0.169,0.046-0.337,0.124-0.483L14.211,1.821
		c0.161-0.298,0.463-0.489,0.787-0.489c0.322,0,0.624,0.191,0.785,0.489L29.619,27.22c0.074,0.146,0.117,0.315,0.117,0.483
		c0,0.53-0.406,0.963-0.913,0.963H1.173z"/>
	<polygon fill="#F7BD42" points="4.316,25.779 25.677,25.779 14.999,6.158 	"/>
	<g>
		<path d="M13.522,25.368v-6.255c0,0,0.522-2.319,2.61-2.786c2.089-0.469,2.584,0,2.584,0s2.006,0.798,2.338,2.473
			c0.33,1.676,0,6.57,0,6.57h-7.531V25.368z"/>
		<path fill="#F18D1A" d="M14.419,25.368v-6.057c0,0,0.404-1.799,2.025-2.16c1.621-0.363,2.004,0,2.004,0s1.693,0.878,1.812,2.199
			c0.102,1.132,0,6.018,0,6.018H14.419z"/>
		<path d="M14.758,25.368v-5.77c0,0,0.357-1.591,1.791-1.912c1.432-0.32,1.773,0,1.773,0s1.499,0.778,1.602,1.947
			c0.089,1,0,5.737,0,5.737h-5.166C14.758,25.37,14.758,25.368,14.758,25.368z"/>
		<path fill="#F39B29" d="M16.269,22.534v-2.545c0,0,0.467-0.871,1.113-0.882c0.646-0.009,1.071,0.876,1.071,0.876v2.551H16.269z"/>
		<polygon fill="#F39718" points="14.778,25.368 16.29,22.508 18.472,22.508 19.942,25.368 		"/>
		<polygon points="15.188,25.368 16.63,22.513 18.12,22.513 19.533,25.368 		"/>
	</g>
	<polygon fill="none" points="13.094,24.34 19.907,21.859 19.907,25.281 	"/>
	<polygon points="5.622,24.621 5.937,23.567 6.878,23.567 7.632,22.956 9.86,22.956 10.811,23.641 12.089,23.79 12.748,23.964 
		12.874,24.832 6.532,24.873 6.282,24.59 	"/>
	<polygon fill="#F5AB28" points="7.38,23.712 7.882,23.115 8.699,23.115 8.699,23.712 	"/>
	<polygon fill="#F5AB28" points="8.982,23.712 8.982,23.115 9.703,23.115 10.299,23.712 	"/>
	<circle cx="7.024" cy="24.853" r="0.571"/>
	<circle fill="#F5AB28" cx="7.023" cy="24.853" r="0.382"/>
	<circle cx="11.664" cy="24.853" r="0.571"/>
	<circle fill="#F5AB28" cx="11.664" cy="24.853" r="0.382"/>
	<polygon fill="#F5A429" points="13.167,24.34 19.978,21.859 19.978,25.421 	"/>
</g>
</svg>
