<?xml version="1.0" encoding="UTF-8"?>
<svg width="21px" height="19px" viewBox="0 0 21 19" version="1.1" xmlns="http://www.w3.org/2000/svg" xmlns:xlink="http://www.w3.org/1999/xlink">
    <!-- Generator: Sketch 54.1 (76490) - https://sketchapp.com -->
    <title>编组</title>
    <desc>Created with Sketch.</desc>
    <g id="-" stroke="none" stroke-width="1" fill="none" fill-rule="evenodd">
        <g id="C9_1_icon-汇总说明(一)" transform="translate(-782.000000, -621.000000)">
            <g id="编组-28" transform="translate(335.000000, 613.000000)">
                <g id="编组" transform="translate(447.000000, 8.000000)">
                    <path d="M19.8616,18.5105 L0.7356,18.5105 C-0.0804,18.3555 -0.0454,17.5455 0.5226,16.5445 L9.5426,0.6445 C9.8836,0.1115 10.7346,-0.2335 11.2336,0.6445 L20.0846,16.2075 C20.6866,17.1605 21.2366,18.5285 19.8616,18.5105" id="Fill-1" fill="#E7D642"></path>
                    <path d="M10.388,2.1052 L1.876,16.9942 L18.9,16.9942 L10.388,2.1052 Z M19.862,18.5102 L0.736,18.5102 C-0.08,18.3552 -0.046,17.5452 0.523,16.5442 L9.542,0.6452 C9.884,0.1112 10.734,-0.2328 11.234,0.6452 L20.084,16.2082 C20.686,17.1612 21.237,18.5282 19.862,18.5102 L19.862,18.5102 Z" id="Fill-3" fill="#231916"></path>
                    <path d="M10.388,2.1052 L1.876,16.9942 L18.9,16.9942 L10.388,2.1052 Z M19.862,18.5102 L0.736,18.5102 C-0.08,18.3552 -0.046,17.5452 0.523,16.5442 L9.542,0.6452 C9.884,0.1112 10.734,-0.2328 11.234,0.6452 L20.084,16.2082 C20.686,17.1612 21.237,18.5282 19.862,18.5102 Z" id="Stroke-5" stroke="#231916" stroke-width="0.216"></path>
                    <polygon id="Fill-7" fill="#231916" points="10.3714 12.6111 13.3534 12.6111 13.3534 11.2151 10.3714 11.2151 10.3714 8.2331 8.9754 8.2331 8.9754 15.5941 10.3714 15.5941"></polygon>
                </g>
            </g>
        </g>
    </g>
</svg>