<?xml version="1.0" encoding="UTF-8"?>
<svg width="29px" height="26px" viewBox="0 0 29 26" version="1.1" xmlns="http://www.w3.org/2000/svg" xmlns:xlink="http://www.w3.org/1999/xlink">
    <!-- Generator: Sketch 54.1 (76490) - https://sketchapp.com -->
    <title>huandao_icon</title>
    <desc>Created with Sketch.</desc>
    <g id="页面" stroke="none" stroke-width="1" fill="none" fill-rule="evenodd">
        <g id="C9_1_icon-汇总说明" transform="translate(-868.000000, -670.000000)">
            <g id="huandao_icon-2" transform="translate(868.000000, 670.000000)">
                <g id="huandao_icon">
                    <path d="M26.9427,25.108 L0.9607,25.108 C-0.1473,24.897 -0.1003,23.796 0.6717,22.436 L12.9237,0.837 C13.3877,0.113 14.5437,-0.355 15.2217,0.837 L27.2447,21.979 C28.0627,23.274 28.8117,25.13 26.9427,25.108" id="Fill-1" fill="#E7D642"></path>
                    <path d="M14.0731,2.8218 L2.5091,23.0478 L25.6371,23.0478 L14.0731,2.8218 Z M26.9431,25.1078 L0.9601,25.1078 C-0.1479,24.8968 -0.0999,23.7968 0.6711,22.4358 L12.9241,0.8378 C13.3871,0.1128 14.5441,-0.3552 15.2221,0.8378 L27.2451,21.9788 C28.0631,23.2738 28.8111,25.1308 26.9431,25.1078 L26.9431,25.1078 Z" id="Fill-3" fill="#231916"></path>
                    <path d="M14.0731,2.8218 L2.5091,23.0478 L25.6371,23.0478 L14.0731,2.8218 Z M26.9431,25.1078 L0.9601,25.1078 C-0.1479,24.8968 -0.0999,23.7968 0.6711,22.4358 L12.9241,0.8378 C13.3871,0.1128 14.5441,-0.3552 15.2221,0.8378 L27.2451,21.9788 C28.0631,23.2738 28.8111,25.1308 26.9431,25.1078 Z" id="Stroke-5" stroke="#231916" stroke-width="0.216"></path>
                    <path d="M10.1766,20.274 C9.0756,19.215 8.4176,17.706 8.4906,16.06 C8.5046,15.751 8.5436,15.449 8.6056,15.156 L10.2366,15.511 C10.1946,15.713 10.1666,15.921 10.1566,16.133 C10.1096,17.212 10.5116,18.206 11.1976,18.934 L11.7236,18.077 C11.8116,17.931 11.9316,17.943 11.9886,18.103 L13.0906,21.144 C13.1476,21.304 13.0566,21.427 12.8856,21.418 L9.6146,21.228 C9.4436,21.218 9.4006,21.11 9.5186,20.987 L10.1766,20.274 Z" id="Fill-7" fill="#231916"></path>
                    <path d="M10.1766,20.274 C9.0756,19.215 8.4176,17.706 8.4906,16.06 C8.5046,15.751 8.5436,15.449 8.6056,15.156 L10.2366,15.511 C10.1946,15.713 10.1666,15.921 10.1566,16.133 C10.1096,17.212 10.5116,18.206 11.1976,18.934 L11.7236,18.077 C11.8116,17.931 11.9316,17.943 11.9886,18.103 L13.0906,21.144 C13.1476,21.304 13.0566,21.427 12.8856,21.418 L9.6146,21.228 C9.4436,21.218 9.4006,21.11 9.5186,20.987 L10.1766,20.274 Z" id="Stroke-9" stroke="#231916" stroke-width="0.216"></path>
                    <path d="M12.5159,11.0367 C13.9829,10.6117 15.6189,10.7967 17.0089,11.6827 C17.2689,11.8487 17.5109,12.0327 17.7339,12.2327 L16.6109,13.4687 C16.4569,13.3307 16.2909,13.2027 16.1119,13.0887 C15.2019,12.5087 14.1399,12.3597 13.1659,12.5907 L13.6459,13.4747 C13.7279,13.6237 13.6579,13.7217 13.4909,13.6907 L10.3069,13.1257 C10.1389,13.0957 10.0779,12.9547 10.1719,12.8117 L11.9699,10.0717 C12.0639,9.9307 12.1799,9.9467 12.2269,10.1097 L12.5159,11.0367 Z" id="Fill-11" fill="#231916"></path>
                    <path d="M12.5159,11.0367 C13.9829,10.6117 15.6189,10.7967 17.0089,11.6827 C17.2689,11.8487 17.5109,12.0327 17.7339,12.2327 L16.6109,13.4687 C16.4569,13.3307 16.2909,13.2027 16.1119,13.0887 C15.2019,12.5087 14.1399,12.3597 13.1659,12.5907 L13.6459,13.4747 C13.7279,13.6237 13.6579,13.7217 13.4909,13.6907 L10.3069,13.1257 C10.1389,13.0957 10.0779,12.9547 10.1719,12.8117 L11.9699,10.0717 C12.0639,9.9307 12.1799,9.9467 12.2269,10.1097 L12.5159,11.0367 Z" id="Stroke-13" stroke="#231916" stroke-width="0.216"></path>
                    <path d="M19.347,17.6851 C18.98,19.1671 18.001,20.4911 16.539,21.2501 C16.264,21.3931 15.983,21.5091 15.699,21.6021 L15.192,20.0121 C15.388,19.9481 15.581,19.8681 15.77,19.7701 C16.728,19.2731 17.389,18.4271 17.677,17.4691 L16.671,17.4421 C16.501,17.4391 16.451,17.3301 16.561,17.1991 L18.645,14.7261 C18.755,14.5961 18.907,14.6141 18.983,14.7661 L20.455,17.6951 C20.532,17.8471 20.459,17.9391 20.293,17.8991 L19.347,17.6851 Z" id="Fill-15" fill="#231916"></path>
                    <path d="M19.347,17.6851 C18.98,19.1671 18.001,20.4911 16.539,21.2501 C16.264,21.3931 15.983,21.5091 15.699,21.6021 L15.192,20.0121 C15.388,19.9481 15.581,19.8681 15.77,19.7701 C16.728,19.2731 17.389,18.4271 17.677,17.4691 L16.671,17.4421 C16.501,17.4391 16.451,17.3301 16.561,17.1991 L18.645,14.7261 C18.755,14.5961 18.907,14.6141 18.983,14.7661 L20.455,17.6951 C20.532,17.8471 20.459,17.9391 20.293,17.8991 L19.347,17.6851 Z" id="Stroke-17" stroke="#231916" stroke-width="0.216"></path>
                </g>
            </g>
        </g>
    </g>
</svg>