<?xml version="1.0" encoding="UTF-8"?>
<svg width="93px" height="32px" viewBox="0 0 93 32" version="1.1" xmlns="http://www.w3.org/2000/svg" xmlns:xlink="http://www.w3.org/1999/xlink">
    <!-- Generator: Sketch 54.1 (76490) - https://sketchapp.com -->
    <title>1</title>
    <desc>Created with Sketch.</desc>
    <g id="页面" stroke="none" stroke-width="1" fill="none" fill-rule="evenodd">
        <g id="C9_1_icon-汇总说明" transform="translate(-346.000000, -886.000000)">
            <g id="编组-47" transform="translate(346.000000, 886.000000)">
                <g id="1">
                    <g transform="translate(1.000000, 1.125000)">
                        <path d="M24.8716882,30.693 C26.0410773,30.693 27,29.883 27,28.893 L27,1.799 C27,0.81 26.0410773,-3.49942297e-13 24.8716882,-3.49942297e-13 L2.12712941,-3.49942297e-13 C0.956557915,-3.49942297e-13 0,0.81 0,1.799 L0,28.893 C0,29.883 0.956557915,30.693 2.12712941,30.693 L24.8716882,30.693 Z" id="Fill-1" fill="#FEFEFE"></path>
                        <path d="M24.8716882,30.693 C26.0410773,30.693 27,29.883 27,28.893 L27,1.799 C27,0.81 26.0410773,-3.49942297e-13 24.8716882,-3.49942297e-13 L2.12712941,-3.49942297e-13 C0.956557915,-3.49942297e-13 0,0.81 0,1.799 L0,28.893 C0,29.883 0.956557915,30.693 2.12712941,30.693 L24.8716882,30.693 Z" id="Stroke-3" stroke="#344A9D" stroke-width="0.25"></path>
                        <path d="M23.6795,29.9254 C24.6415,29.9254 25.4285,29.1384 25.4285,28.1764 L25.4285,2.5164 C25.4285,1.5544 24.6415,0.7674 23.6795,0.7674 L5.4845,0.7674 C4.5225,0.7674 3.7355,1.5544 3.7355,2.5164 L3.7355,28.1764 C3.7355,29.1384 4.5225,29.9254 5.4845,29.9254 L23.6795,29.9254 Z" id="Fill-5" fill="#FEFEFE"></path>
                        <path d="M23.4128728,29.9254 C24.5215254,29.9254 25.4285,29.1384 25.4285,28.1764 L25.4285,2.5164 C25.4285,1.5544 24.5215254,0.7674 23.4128728,0.7674 L2.44412716,0.7674 C1.3354746,0.7674 0.4285,1.5544 0.4285,2.5164 L0.4285,28.1764 C0.4285,29.1384 1.3354746,29.9254 2.44412716,29.9254 L23.4128728,29.9254 Z" id="Stroke-7" stroke="#FEFEFE" stroke-width="0.25"></path>
                        <path d="M24.3322478,29.9254 C25.4852464,29.9254 26.4285,29.1384 26.4285,28.1764 L26.4285,2.5164 C26.4285,1.5544 25.4852464,0.7674 24.3322478,0.7674 L2.52475225,0.7674 C1.37175358,0.7674 0.4285,1.5544 0.4285,2.5164 L0.4285,28.1764 C0.4285,29.1384 1.37175358,29.9254 2.52475225,29.9254 L24.3322478,29.9254 Z" id="Fill-9" fill="#2C479B"></path>
                        <path d="M5.7925,6.19877525 L5.7925,27.1337803 C5.7925,27.5423414 5.4385,27.875 5.0015,27.875 C4.5645,27.875 4.2115,27.5423414 4.2115,27.1337803 L4.2115,6.19877525 C4.2115,6.19877525 3.2745,6.51925203 3.2455,6.51925203 C3.1325,6.51925203 3.0395,6.40492991 3.0395,6.26249578 C3.0395,6.20814592 3.0545,6.15754432 3.0765,6.11537633 L4.8455,2.95558773 L4.8495,2.95558773 C4.8875,2.9059232 4.9395,2.875 4.9985,2.875 C5.0575,2.875 5.1095,2.9059232 5.1465,2.95558773 L6.9165,6.11350219 C6.9165,6.11350219 6.9525,6.20814592 6.9525,6.26249578 C6.9525,6.40492991 6.8605,6.51925203 6.7465,6.51925203 C6.7175,6.51925203 5.7925,6.19877525 5.7925,6.19877525" id="Fill-11" fill="#FEFEFE"></path>
                        <path d="M12.7925,6.19877525 L12.7925,27.1337803 C12.7925,27.5423414 12.4385,27.875 12.0015,27.875 C11.5645,27.875 11.2115,27.5423414 11.2115,27.1337803 L11.2115,6.19877525 C11.2115,6.19877525 10.2745,6.51925203 10.2455,6.51925203 C10.1325,6.51925203 10.0395,6.40492991 10.0395,6.26249578 C10.0395,6.20814592 10.0545,6.15754432 10.0765,6.11537633 L11.8455,2.95558773 L11.8495,2.95558773 C11.8875,2.9059232 11.9395,2.875 11.9985,2.875 C12.0575,2.875 12.1095,2.9059232 12.1465,2.95558773 L13.9165,6.11350219 C13.9165,6.11350219 13.9525,6.20814592 13.9525,6.26249578 C13.9525,6.40492991 13.8605,6.51925203 13.7465,6.51925203 C13.7175,6.51925203 12.7925,6.19877525 12.7925,6.19877525" id="Fill-11复制" fill="#FEFEFE"></path>
                        <path d="M21.7925,6.19877525 L21.7925,27.1337803 C21.7925,27.5423414 21.4385,27.875 21.0015,27.875 C20.5645,27.875 20.2115,27.5423414 20.2115,27.1337803 L20.2115,6.19877525 C20.2115,6.19877525 19.2745,6.51925203 19.2455,6.51925203 C19.1325,6.51925203 19.0395,6.40492991 19.0395,6.26249578 C19.0395,6.20814592 19.0545,6.15754432 19.0765,6.11537633 L20.8455,2.95558773 L20.8495,2.95558773 C20.8875,2.9059232 20.9395,2.875 20.9985,2.875 C21.0575,2.875 21.1095,2.9059232 21.1465,2.95558773 L22.9165,6.11350219 C22.9165,6.11350219 22.9525,6.20814592 22.9525,6.26249578 C22.9525,6.40492991 22.8605,6.51925203 22.7465,6.51925203 C22.7175,6.51925203 21.7925,6.19877525 21.7925,6.19877525" id="Fill-11复制-2" fill="#FEFEFE"></path>
                        <rect id="矩形" fill="#FFFFFF" x="16.0395" y="1.875" width="1" height="27" rx="0.5"></rect>
                    </g>
                    <g id="3" transform="translate(65.039500, 1.000000)">
                        <path d="M24.8716882,30.693 C26.0410773,30.693 27,29.883 27,28.893 L27,1.799 C27,0.81 26.0410773,-3.49942297e-13 24.8716882,-3.49942297e-13 L2.12712941,-3.49942297e-13 C0.956557915,-3.49942297e-13 0,0.81 0,1.799 L0,28.893 C0,29.883 0.956557915,30.693 2.12712941,30.693 L24.8716882,30.693 Z" id="Fill-1复制-2" fill="#FEFEFE"></path>
                        <path d="M24.8716882,30.693 C26.0410773,30.693 27,29.883 27,28.893 L27,1.799 C27,0.81 26.0410773,-3.49942297e-13 24.8716882,-3.49942297e-13 L2.12712941,-3.49942297e-13 C0.956557915,-3.49942297e-13 0,0.81 0,1.799 L0,28.893 C0,29.883 0.956557915,30.693 2.12712941,30.693 L24.8716882,30.693 Z" id="Stroke-3复制-4" stroke="#344A9D" stroke-width="0.25"></path>
                        <path d="M23.6795,29.9254 C24.6415,29.9254 25.4285,29.1384 25.4285,28.1764 L25.4285,2.5164 C25.4285,1.5544 24.6415,0.7674 23.6795,0.7674 L5.4845,0.7674 C4.5225,0.7674 3.7355,1.5544 3.7355,2.5164 L3.7355,28.1764 C3.7355,29.1384 4.5225,29.9254 5.4845,29.9254 L23.6795,29.9254 Z" id="Fill-5复制-2" fill="#FEFEFE"></path>
                        <path d="M23.4128728,29.9254 C24.5215254,29.9254 25.4285,29.1384 25.4285,28.1764 L25.4285,2.5164 C25.4285,1.5544 24.5215254,0.7674 23.4128728,0.7674 L2.44412716,0.7674 C1.3354746,0.7674 0.4285,1.5544 0.4285,2.5164 L0.4285,28.1764 C0.4285,29.1384 1.3354746,29.9254 2.44412716,29.9254 L23.4128728,29.9254 Z" id="Stroke-7复制-6" stroke="#FEFEFE" stroke-width="0.25"></path>
                        <path d="M24.3322478,29.9254 C25.4852464,29.9254 26.4285,29.1384 26.4285,28.1764 L26.4285,2.5164 C26.4285,1.5544 25.4852464,0.7674 24.3322478,0.7674 L2.52475225,0.7674 C1.37175358,0.7674 0.4285,1.5544 0.4285,2.5164 L0.4285,28.1764 C0.4285,29.1384 1.37175358,29.9254 2.52475225,29.9254 L24.3322478,29.9254 Z" id="Fill-9复制-2" fill="#2C479B"></path>
                        <path d="M5.7925,6.19877525 L5.7925,27.1337803 C5.7925,27.5423414 5.4385,27.875 5.0015,27.875 C4.5645,27.875 4.2115,27.5423414 4.2115,27.1337803 L4.2115,6.19877525 C4.2115,6.19877525 3.2745,6.51925203 3.2455,6.51925203 C3.1325,6.51925203 3.0395,6.40492991 3.0395,6.26249578 C3.0395,6.20814592 3.0545,6.15754432 3.0765,6.11537633 L4.8455,2.95558773 L4.8495,2.95558773 C4.8875,2.9059232 4.9395,2.875 4.9985,2.875 C5.0575,2.875 5.1095,2.9059232 5.1465,2.95558773 L6.9165,6.11350219 C6.9165,6.11350219 6.9525,6.20814592 6.9525,6.26249578 C6.9525,6.40492991 6.8605,6.51925203 6.7465,6.51925203 C6.7175,6.51925203 5.7925,6.19877525 5.7925,6.19877525" id="Fill-11复制-5" fill="#FEFEFE"></path>
                        <path d="M12.7925,6.19877525 L12.7925,27.1337803 C12.7925,27.5423414 12.4385,27.875 12.0015,27.875 C11.5645,27.875 11.2115,27.5423414 11.2115,27.1337803 L11.2115,6.19877525 C11.2115,6.19877525 10.2745,6.51925203 10.2455,6.51925203 C10.1325,6.51925203 10.0395,6.40492991 10.0395,6.26249578 C10.0395,6.20814592 10.0545,6.15754432 10.0765,6.11537633 L11.8455,2.95558773 L11.8495,2.95558773 C11.8875,2.9059232 11.9395,2.875 11.9985,2.875 C12.0575,2.875 12.1095,2.9059232 12.1465,2.95558773 L13.9165,6.11350219 C13.9165,6.11350219 13.9525,6.20814592 13.9525,6.26249578 C13.9525,6.40492991 13.8605,6.51925203 13.7465,6.51925203 C13.7175,6.51925203 12.7925,6.19877525 12.7925,6.19877525" id="Fill-11复制-6" fill="#FEFEFE"></path>
                        <path d="M21.7925,6.19877525 L21.7925,27.1337803 C21.7925,27.5423414 21.4385,27.875 21.0015,27.875 C20.5645,27.875 20.2115,27.5423414 20.2115,27.1337803 L20.2115,6.19877525 C20.2115,6.19877525 19.2745,6.51925203 19.2455,6.51925203 C19.1325,6.51925203 19.0395,6.40492991 19.0395,6.26249578 C19.0395,6.20814592 19.0545,6.15754432 19.0765,6.11537633 L20.8455,2.95558773 L20.8495,2.95558773 C20.8875,2.9059232 20.9395,2.875 20.9985,2.875 C21.0575,2.875 21.1095,2.9059232 21.1465,2.95558773 L22.9165,6.11350219 C22.9165,6.11350219 22.9525,6.20814592 22.9525,6.26249578 C22.9525,6.40492991 22.8605,6.51925203 22.7465,6.51925203 C22.7175,6.51925203 21.7925,6.19877525 21.7925,6.19877525" id="Fill-11复制-7" fill="#FEFEFE"></path>
                        <rect id="矩形复制-70" fill="#FFFFFF" x="16.0395" y="1.875" width="1" height="27" rx="0.5"></rect>
                        <rect id="矩形复制-71" fill="#D22129" transform="translate(21.441181, 15.465926) rotate(-345.000000) translate(-21.441181, -15.465926) " x="20.741181" y="0.965925826" width="1.4" height="29"></rect>
                    </g>
                    <g id="2" transform="translate(33.039500, 1.000000)">
                        <path d="M24.8716882,30.693 C26.0410773,30.693 27,29.883 27,28.893 L27,1.799 C27,0.81 26.0410773,-3.49942297e-13 24.8716882,-3.49942297e-13 L2.12712941,-3.49942297e-13 C0.956557915,-3.49942297e-13 0,0.81 0,1.799 L0,28.893 C0,29.883 0.956557915,30.693 2.12712941,30.693 L24.8716882,30.693 Z" id="Fill-1复制" fill="#FEFEFE"></path>
                        <path d="M24.8716882,30.693 C26.0410773,30.693 27,29.883 27,28.893 L27,1.799 C27,0.81 26.0410773,-3.49942297e-13 24.8716882,-3.49942297e-13 L2.12712941,-3.49942297e-13 C0.956557915,-3.49942297e-13 0,0.81 0,1.799 L0,28.893 C0,29.883 0.956557915,30.693 2.12712941,30.693 L24.8716882,30.693 Z" id="Stroke-3复制-3" stroke="#344A9D" stroke-width="0.25"></path>
                        <path d="M23.6795,29.9254 C24.6415,29.9254 25.4285,29.1384 25.4285,28.1764 L25.4285,2.5164 C25.4285,1.5544 24.6415,0.7674 23.6795,0.7674 L5.4845,0.7674 C4.5225,0.7674 3.7355,1.5544 3.7355,2.5164 L3.7355,28.1764 C3.7355,29.1384 4.5225,29.9254 5.4845,29.9254 L23.6795,29.9254 Z" id="Fill-5复制" fill="#FEFEFE"></path>
                        <path d="M23.4128728,29.9254 C24.5215254,29.9254 25.4285,29.1384 25.4285,28.1764 L25.4285,2.5164 C25.4285,1.5544 24.5215254,0.7674 23.4128728,0.7674 L2.44412716,0.7674 C1.3354746,0.7674 0.4285,1.5544 0.4285,2.5164 L0.4285,28.1764 C0.4285,29.1384 1.3354746,29.9254 2.44412716,29.9254 L23.4128728,29.9254 Z" id="Stroke-7复制-5" stroke="#FEFEFE" stroke-width="0.25"></path>
                        <path d="M24.3322478,29.9254 C25.4852464,29.9254 26.4285,29.1384 26.4285,28.1764 L26.4285,2.5164 C26.4285,1.5544 25.4852464,0.7674 24.3322478,0.7674 L2.52475225,0.7674 C1.37175358,0.7674 0.4285,1.5544 0.4285,2.5164 L0.4285,28.1764 C0.4285,29.1384 1.37175358,29.9254 2.52475225,29.9254 L24.3322478,29.9254 Z" id="Fill-9复制" fill="#2C479B"></path>
                        <path d="M5.7925,6.19877525 L5.7925,27.1337803 C5.7925,27.5423414 5.4385,27.875 5.0015,27.875 C4.5645,27.875 4.2115,27.5423414 4.2115,27.1337803 L4.2115,6.19877525 C4.2115,6.19877525 3.2745,6.51925203 3.2455,6.51925203 C3.1325,6.51925203 3.0395,6.40492991 3.0395,6.26249578 C3.0395,6.20814592 3.0545,6.15754432 3.0765,6.11537633 L4.8455,2.95558773 L4.8495,2.95558773 C4.8875,2.9059232 4.9395,2.875 4.9985,2.875 C5.0575,2.875 5.1095,2.9059232 5.1465,2.95558773 L6.9165,6.11350219 C6.9165,6.11350219 6.9525,6.20814592 6.9525,6.26249578 C6.9525,6.40492991 6.8605,6.51925203 6.7465,6.51925203 C6.7175,6.51925203 5.7925,6.19877525 5.7925,6.19877525" id="Fill-11复制-3" fill="#FEFEFE"></path>
                        <path d="M12.7925,6.19877525 L12.7925,27.1337803 C12.7925,27.5423414 12.4385,27.875 12.0015,27.875 C11.5645,27.875 11.2115,27.5423414 11.2115,27.1337803 L11.2115,6.19877525 C11.2115,6.19877525 10.2745,6.51925203 10.2455,6.51925203 C10.1325,6.51925203 10.0395,6.40492991 10.0395,6.26249578 C10.0395,6.20814592 10.0545,6.15754432 10.0765,6.11537633 L11.8455,2.95558773 L11.8495,2.95558773 C11.8875,2.9059232 11.9395,2.875 11.9985,2.875 C12.0575,2.875 12.1095,2.9059232 12.1465,2.95558773 L13.9165,6.11350219 C13.9165,6.11350219 13.9525,6.20814592 13.9525,6.26249578 C13.9525,6.40492991 13.8605,6.51925203 13.7465,6.51925203 C13.7175,6.51925203 12.7925,6.19877525 12.7925,6.19877525" id="Fill-11复制-4" fill="#FEFEFE"></path>
                        <rect id="矩形复制-65" fill="#FFFFFF" x="16.0395" y="1.875" width="1" height="27" rx="0.5"></rect>
                        <path d="M24.3766648,14.563 L21.6086648,12.384 L21.6296648,12.35 C21.6296648,12.35 22.4496648,11.715 22.4666648,11.689 C22.5296648,11.587 22.4716648,11.437 22.3366648,11.353 C22.2836648,11.32 22.1746648,11.296 22.1746648,11.296 L18.1846648,11 C18.1166648,11.004 18.0586648,11.033 18.0246648,11.085 C17.9926648,11.138 17.9926648,11.203 18.0196648,11.266 L18.0166648,11.27 L20.0406648,14.722 C20.0666648,14.768 20.1076648,14.81 20.1596648,14.843 C20.2946648,14.927 20.4556648,14.913 20.5196648,14.812 C20.5326648,14.79 20.6876648,14.059 20.7346648,13.832 L22.7226648,15.488 C22.8976648,15.645 22.9966648,15.869 22.9976648,16.104 L23.0396648,27.173 C23.0406648,27.632 23.4146648,28.003 23.8736648,28.001 C24.3326648,28 24.7036648,27.626 24.7016648,27.167 L24.6566648,15.182 C24.6556648,14.945 24.5536648,14.72 24.3766648,14.563" id="Fill-32" fill="#FFFFFF"></path>
                    </g>
                </g>
            </g>
        </g>
    </g>
</svg>