<?xml version="1.0" encoding="UTF-8"?>
<svg width="31px" height="28px" viewBox="0 0 31 28" version="1.1" xmlns="http://www.w3.org/2000/svg" xmlns:xlink="http://www.w3.org/1999/xlink">
    <!-- Generator: Sketch 54.1 (76490) - https://sketchapp.com -->
    <title>qianfnaglukouyouchecheliangxianxing_icon</title>
    <desc>Created with Sketch.</desc>
    <defs>
        <polygon id="path-1" points="0.000169437369 0.510776 30.9998306 0.510776 30.9998306 28 0.000169437369 28"></polygon>
    </defs>
    <g id="页面" stroke="none" stroke-width="1" fill="none" fill-rule="evenodd">
        <g id="C9_1_icon-汇总说明" transform="translate(-1440.000000, -2157.000000)">
            <g id="qianfnaglukouyouchecheliangxianxing_icon-2" transform="translate(1440.000000, 2157.000000)">
                <g id="qianfnaglukouyouchecheliangxianxing_icon">
                    <g id="编组">
                        <mask id="mask-2" fill="white">
                            <use xlink:href="#path-1"></use>
                        </mask>
                        <g id="Clip-2"></g>
                        <path d="M29.6874821,28.000336 C30.856625,28.000336 31.3349107,27.161456 30.7503393,26.137776 L16.5634107,1.279376 C15.9788393,0.254576 15.0211607,0.254576 14.4365893,1.279376 L0.249660714,26.137776 C-0.334910714,27.161456 0.143375,28.000336 1.31251786,28.000336 L29.6874821,28.000336 Z" id="Fill-1" fill="#D02E1D" mask="url(#mask-2)"></path>
                    </g>
                    <polygon id="Fill-3" fill="#FEFEFE" points="2 26 29 26 15.5 3"></polygon>
                    <polygon id="Fill-5" fill="#231916" points="20 16.7447459 18.2543301 15 15.5 17.7546809 12.7456699 15 11 16.7447459 13.7543301 19.4994268 11 22.2552541 12.7456699 24 15.5 21.2453191 18.2543301 24 20 22.2552541 17.2456699 19.4994268"></polygon>
                </g>
            </g>
        </g>
    </g>
</svg>