<?xml version="1.0" encoding="UTF-8"?>
<svg width="27px" height="35px" viewBox="0 0 27 35" version="1.1" xmlns="http://www.w3.org/2000/svg" xmlns:xlink="http://www.w3.org/1999/xlink">
    <!-- Generator: Sketch 54.1 (76490) - https://sketchapp.com -->
    <title>01702</title>
    <desc>Created with Sketch.</desc>
    <g id="-" stroke="none" stroke-width="1" fill="none" fill-rule="evenodd">
        <g id="C9_1_icon-汇总说明(一)" transform="translate(-616.000000, -735.000000)">
            <g id="编组-35" transform="translate(616.000000, 734.000000)">
                <g id="01702" transform="translate(1.000000, 1.536100)">
                    <path d="M23.303,34 C24.399,34 25.296,33.103 25.296,32.007 L25.296,1.994 C25.296,0.897 24.399,0 23.303,0 L1.994,0 C0.898,0 1.04805054e-12,0.897 1.04805054e-12,1.994 L1.04805054e-12,32.007 C1.04805054e-12,33.103 0.898,34 1.994,34 L23.303,34 Z" id="Fill-2" fill="#FEFEFE"></path>
                    <path d="M23.303,34 C24.399,34 25.296,33.103 25.296,32.007 L25.296,1.994 C25.296,0.897 24.399,0 23.303,0 L1.994,0 C0.898,0 1.04805054e-12,0.897 1.04805054e-12,1.994 L1.04805054e-12,32.007 C1.04805054e-12,33.103 0.898,34 1.994,34 L23.303,34 Z" id="Stroke-4" stroke="#344A9D" stroke-width="0.25"></path>
                    <path d="M22.7259,33.1504 C23.7909,33.1504 24.6629,32.2784 24.6629,31.2134 L24.6629,2.7874 C24.6629,1.7224 23.7909,0.8504 22.7259,0.8504 L2.5709,0.8504 C1.5049,0.8504 0.6329,1.7224 0.6329,2.7874 L0.6329,31.2134 C0.6329,32.2784 1.5049,33.1504 2.5709,33.1504 L22.7259,33.1504 Z" id="Fill-6" fill="#FEFEFE"></path>
                    <path d="M22.7259,33.1504 C23.7909,33.1504 24.6629,32.2784 24.6629,31.2134 L24.6629,2.7874 C24.6629,1.7224 23.7909,0.8504 22.7259,0.8504 L2.5709,0.8504 C1.5049,0.8504 0.6329,1.7224 0.6329,2.7874 L0.6329,31.2134 C0.6329,32.2784 1.5049,33.1504 2.5709,33.1504 L22.7259,33.1504 Z" id="Stroke-8" stroke="#FEFEFE" stroke-width="0.25"></path>
                    <path d="M22.7259,33.1504 C23.7909,33.1504 24.6629,32.2784 24.6629,31.2134 L24.6629,2.7874 C24.6629,1.7224 23.7909,0.8504 22.7259,0.8504 L2.5709,0.8504 C1.5049,0.8504 0.6329,1.7224 0.6329,2.7874 L0.6329,31.2134 C0.6329,32.2784 1.5049,33.1504 2.5709,33.1504 L22.7259,33.1504 Z" id="Fill-10" fill="#FEFEFE"></path>
                    <path d="M14.1409,11.2408 L21.2519,17.5858 C21.4389,17.7518 21.5449,17.9898 21.5449,18.2388 L21.5449,30.8688 C21.5449,31.3528 21.1539,31.7448 20.6689,31.7448 C20.1859,31.7448 19.7939,31.3528 19.7939,30.8688 L19.7939,19.2028 C19.7939,18.9558 19.6889,18.7198 19.5059,18.5538 L15.3109,14.7588 C14.7479,14.2488 13.8479,14.6488 13.8479,15.4078 L13.8479,30.8688 C13.8479,31.3528 13.4549,31.7448 12.9719,31.7448 C12.4889,31.7448 12.0959,31.3528 12.0959,30.8688 L12.0959,6.1208 C12.0959,6.1208 11.0599,6.4998 11.0269,6.4998 C10.9009,6.4998 10.7989,6.3638 10.7989,6.1958 C10.7989,6.1318 10.8139,6.0718 10.8399,6.0228 L12.7979,2.2868 L12.8029,2.2868 C12.8449,2.2288 12.9039,2.1918 12.9679,2.1918 C13.0339,2.1918 13.0909,2.2288 13.1329,2.2868 L15.0929,6.0198 C15.0929,6.0198 15.1329,6.1318 15.1329,6.1958 C15.1329,6.3638 15.0319,6.4998 14.9059,6.4998 C14.8719,6.4998 13.8479,6.1208 13.8479,6.1208 L13.8479,10.5868 C13.8479,10.8368 13.9539,11.0748 14.1409,11.2408 M6.1499,6.1208 L6.1499,30.8688 C6.1499,31.3528 5.7579,31.7448 5.2739,31.7448 C4.7899,31.7448 4.3989,31.3528 4.3989,30.8688 L4.3989,6.1208 C4.3989,6.1208 3.3619,6.4998 3.3279,6.4998 C3.2029,6.4998 3.1009,6.3638 3.1009,6.1958 C3.1009,6.1318 3.1169,6.0718 3.1419,6.0228 L5.0999,2.2868 L5.1059,2.2868 C5.1469,2.2288 5.2049,2.1918 5.2709,2.1918 C5.3349,2.1918 5.3939,2.2288 5.4349,2.2868 L7.3959,6.0198 C7.3959,6.0198 7.4349,6.1318 7.4349,6.1958 C7.4349,6.3638 7.3329,6.4998 7.2069,6.4998 C7.1749,6.4998 6.1499,6.1208 6.1499,6.1208 M15.6479,1.0038 L1.8189,1.0038 C1.3349,1.0038 0.9439,1.3958 0.9439,1.8798 L0.9439,32.1208 C0.9439,32.6048 1.3349,32.9968 1.8189,32.9968 L23.2049,32.9968 C23.6889,32.9968 24.0799,32.6048 24.0799,32.1208 L24.0799,17.2968 C24.0799,17.0448 23.9719,16.8048 23.7839,16.6388 L16.8209,10.5188 C16.6319,10.3518 16.5239,10.1128 16.5239,9.8608 L16.5239,1.8798 C16.5239,1.3958 16.1309,1.0038 15.6479,1.0038" id="Fill-12" fill="#2C479B"></path>
                    <polygon id="Fill-14" fill="#FEFEFE" points="16.5405 21.6349 17.3905 21.6349 17.3905 17.9779 16.5405 17.9779"></polygon>
                    <polygon id="Fill-16" fill="#FEFEFE" points="16.5405 26.6949 17.3905 26.6949 17.3905 23.0389 16.5405 23.0389"></polygon>
                    <polygon id="Fill-17" fill="#FEFEFE" points="16.5405 31.7549 17.3905 31.7549 17.3905 28.0979 16.5405 28.0979"></polygon>
                </g>
            </g>
        </g>
    </g>
</svg>