<?xml version="1.0" encoding="UTF-8"?>
<svg width="21px" height="19px" viewBox="0 0 21 19" version="1.1" xmlns="http://www.w3.org/2000/svg" xmlns:xlink="http://www.w3.org/1999/xlink">
    <!-- Generator: Sketch 54.1 (76490) - https://sketchapp.com -->
    <title>编组</title>
    <desc>Created with Sketch.</desc>
    <g id="-" stroke="none" stroke-width="1" fill="none" fill-rule="evenodd">
        <g id="C9_1_icon-汇总说明(一)" transform="translate(-809.000000, -621.000000)">
            <g id="编组-28" transform="translate(335.000000, 613.000000)">
                <g id="编组" transform="translate(474.000000, 8.000000)">
                    <path d="M19.8613,18.5109 L0.7353,18.5109 C-0.0797,18.3559 -0.0457,17.5459 0.5223,16.5439 L9.5423,0.6449 C9.8833,0.1119 10.7343,-0.2331 11.2343,0.6449 L20.0843,16.2069 C20.6863,17.1609 21.2373,18.5279 19.8613,18.5109" id="Fill-1" fill="#E7D642"></path>
                    <path d="M10.3881,2.1056 L1.8751,16.9946 L18.9001,16.9946 L10.3881,2.1056 Z M19.8611,18.5106 L0.7351,18.5106 C-0.0799,18.3556 -0.0459,17.5456 0.5221,16.5436 L9.5421,0.6446 C9.8831,0.1116 10.7341,-0.2334 11.2341,0.6446 L20.0841,16.2076 C20.6861,17.1616 21.2371,18.5276 19.8611,18.5106 L19.8611,18.5106 Z" id="Fill-3" fill="#231916"></path>
                    <path d="M10.3881,2.1056 L1.8751,16.9946 L18.9001,16.9946 L10.3881,2.1056 Z M19.8611,18.5106 L0.7351,18.5106 C-0.0799,18.3556 -0.0459,17.5456 0.5221,16.5436 L9.5421,0.6446 C9.8831,0.1116 10.7341,-0.2334 11.2341,0.6446 L20.0841,16.2076 C20.6861,17.1616 21.2371,18.5276 19.8611,18.5106 Z" id="Stroke-5" stroke="#231916" stroke-width="0.216"></path>
                    <polygon id="Fill-7" fill="#231916" points="11.2441 12.7267 13.8471 10.1227 12.9441 9.2207 10.5871 11.6007 8.2301 9.2207 7.3271 10.1227 9.9311 12.7267 9.9311 15.8457 11.2441 15.8457"></polygon>
                </g>
            </g>
        </g>
    </g>
</svg>