<?xml version="1.0" encoding="UTF-8"?>
<svg width="29px" height="26px" viewBox="0 0 29 26" version="1.1" xmlns="http://www.w3.org/2000/svg" xmlns:xlink="http://www.w3.org/1999/xlink">
    <!-- Generator: Sketch 54.1 (76490) - https://sketchapp.com -->
    <title>05202</title>
    <desc>Created with Sketch.</desc>
    <g id="-" stroke="none" stroke-width="1" fill="none" fill-rule="evenodd">
        <g id="C9_1_icon-汇总说明(一)" transform="translate(-334.000000, -676.000000)">
            <g id="编组-29" transform="translate(208.000000, 676.000000)">
                <g id="05202" transform="translate(126.000000, 0.000000)">
                    <path d="M26.9425,25.1078 L0.9605,25.1078 C-0.1475,24.8968 -0.1005,23.7958 0.6715,22.4368 L12.9235,0.8368 C13.3875,0.1128 14.5445,-0.3552 15.2215,0.8368 L27.2455,21.9788 C28.0625,23.2738 28.8115,25.1298 26.9425,25.1078" id="Fill-1" fill="#E7D642"></path>
                    <path d="M14.0733,2.8217 L2.5093,23.0477 L25.6363,23.0477 L14.0733,2.8217 Z M26.9423,25.1077 L0.9603,25.1077 C-0.1477,24.8967 -0.1007,23.7967 0.6713,22.4367 L12.9243,0.8377 C13.3873,0.1127 14.5443,-0.3553 15.2213,0.8377 L27.2453,21.9787 C28.0623,23.2737 28.8113,25.1307 26.9423,25.1077 L26.9423,25.1077 Z" id="Fill-3" fill="#231916"></path>
                    <path d="M14.0733,2.8217 L2.5093,23.0477 L25.6363,23.0477 L14.0733,2.8217 Z M26.9423,25.1077 L0.9603,25.1077 C-0.1477,24.8967 -0.1007,23.7967 0.6713,22.4367 L12.9243,0.8377 C13.3873,0.1127 14.5443,-0.3553 15.2213,0.8377 L27.2453,21.9787 C28.0623,23.2737 28.8113,25.1307 26.9423,25.1077 Z" id="Stroke-5" stroke="#231916" stroke-width="0.216"></path>
                    <path d="M16.6974,18.2065 C16.5494,19.5965 15.2244,20.5435 13.7964,20.5435 C12.2654,20.5435 11.0254,19.3655 11.0254,17.8365 C11.0254,16.8205 11.5494,15.9335 12.3634,15.4505 L12.2914,14.4465 C10.9684,15.0125 10.0894,16.3055 10.0894,17.8365 C10.0894,19.8835 11.7484,21.4795 13.7964,21.4795 C15.3314,21.4795 16.6484,20.6085 17.2114,19.2785 L16.6974,18.2065 Z M12.9254,16.7525 L16.7264,16.7525 L18.1824,20.3365 L20.1454,19.4995 L19.8104,18.8525 L18.7094,19.2835 L17.2784,15.9665 L13.7314,15.8405 L13.6894,15.1815 L16.3234,15.1815 L16.3234,14.3315 L13.6464,14.3315 L13.5414,12.1655 C14.1144,12.1655 14.5014,11.6975 14.5014,11.1245 C14.5014,10.5515 14.0334,10.0835 13.4604,10.0835 C12.8864,10.0835 12.4274,10.5515 12.4274,11.1245 C12.4274,11.3155 12.4924,11.5065 12.5774,11.6765 L12.9254,16.7525 Z" id="Fill-7" fill="#231916"></path>
                </g>
            </g>
        </g>
    </g>
</svg>