<?xml version="1.0" encoding="UTF-8"?>
<svg width="31px" height="31px" viewBox="0 0 31 31" version="1.1" xmlns="http://www.w3.org/2000/svg" xmlns:xlink="http://www.w3.org/1999/xlink">
    <!-- Generator: Sketch 54.1 (76490) - https://sketchapp.com -->
    <title>renxinghengdao_icon</title>
    <desc>Created with Sketch.</desc>
    <g id="-" stroke="none" stroke-width="1" fill="none" fill-rule="evenodd">
        <g id="C9_1_icon-汇总说明(一)" transform="translate(-208.000000, -736.000000)">
            <g id="07602" transform="translate(208.000000, 736.000000)">
                <g id="renxinghengdao_icon">
                    <path d="M28.6227,30.0954 C29.3477,30.0954 29.9407,29.5014 29.9407,28.7764 L29.9407,1.4134 C29.9407,0.6884 29.3477,0.0954 28.6227,0.0954 L1.4137,0.0954 C0.6877,0.0954 0.0957,0.6884 0.0957,1.4134 L0.0957,28.7764 C0.0957,29.5014 0.6877,30.0954 1.4137,30.0954 L28.6227,30.0954 Z" id="Fill-1" fill="#FEFEFE"></path>
                    <path d="M28.6227,30.0954 C29.3477,30.0954 29.9407,29.5014 29.9407,28.7764 L29.9407,1.4134 C29.9407,0.6884 29.3477,0.0954 28.6227,0.0954 L1.4137,0.0954 C0.6877,0.0954 0.0957,0.6884 0.0957,1.4134 L0.0957,28.7764 C0.0957,29.5014 0.6877,30.0954 1.4137,30.0954 L28.6227,30.0954 Z" id="Stroke-3" stroke="#231916" stroke-width="0.19"></path>
                    <path d="M28.4577,29.2712 C28.8197,29.2712 29.1167,28.9742 29.1167,28.6122 L29.1167,1.5792 C29.1167,1.2162 28.8197,0.9192 28.4577,0.9192 L1.5787,0.9192 C1.2157,0.9192 0.9197,1.2162 0.9197,1.5792 L0.9197,28.6122 C0.9197,28.9742 1.2157,29.2712 1.5787,29.2712 L28.4577,29.2712 Z" id="Fill-5" fill="#29479B"></path>
                    <polygon id="Fill-7" fill="#FEFEFE" points="15.0182 3.7829 3.7312 24.6759 26.3052 24.6759"></polygon>
                    <path d="M15.0632,10.7594 C15.6652,10.7594 16.1522,11.2744 16.1522,11.9074 C16.1522,12.5414 15.6652,13.0554 15.0632,13.0554 C14.4622,13.0554 13.9752,12.5414 13.9752,11.9074 C13.9752,11.2744 14.4622,10.7594 15.0632,10.7594" id="Fill-9" fill="#231916"></path>
                    <path d="M15.0632,10.7594 C15.6652,10.7594 16.1522,11.2744 16.1522,11.9074 C16.1522,12.5414 15.6652,13.0554 15.0632,13.0554 C14.4622,13.0554 13.9752,12.5414 13.9752,11.9074 C13.9752,11.2744 14.4622,10.7594 15.0632,10.7594 Z" id="Stroke-11" stroke="#231916" stroke-width="0.216"></path>
                    <path d="M11.7546,16.5163 C12.7036,15.9583 13.5256,15.1473 14.1496,14.0203 C14.6126,13.0523 15.6136,13.2833 16.2826,13.8823 L17.6116,16.0763 L17.6076,17.5103 C17.0196,18.3693 16.5756,18.3093 16.4526,16.2293 L16.0896,15.8263 L16.2096,20.0363 L17.2406,22.1023 C17.3376,23.1573 16.5196,23.3703 15.9626,22.3273 L14.9286,20.1443 L14.8946,18.8833 L14.0506,19.8413 C13.7456,20.2403 13.7886,20.8213 13.6576,21.3113 L13.3536,22.1783 C11.7146,24.2073 12.5966,19.7093 12.7546,19.5253 C12.8696,18.8993 13.5076,18.6413 13.7966,18.2003 L13.8016,16.4753 L13.4646,16.4893 C13.2236,16.4983 12.4346,17.1873 12.1926,17.1983 C11.8416,17.2133 11.3676,16.7793 11.6846,16.5603 C11.7046,16.5453 11.7286,16.5313 11.7546,16.5163" id="Fill-13" fill="#231916"></path>
                    <path d="M11.7546,16.5163 C12.7036,15.9583 13.5256,15.1473 14.1496,14.0203 C14.6126,13.0523 15.6136,13.2833 16.2826,13.8823 L17.6116,16.0763 L17.6076,17.5103 C17.0196,18.3693 16.5756,18.3093 16.4526,16.2293 L16.0896,15.8263 L16.2096,20.0363 L17.2406,22.1023 C17.3376,23.1573 16.5196,23.3703 15.9626,22.3273 L14.9286,20.1443 L14.8946,18.8833 L14.0506,19.8413 C13.7456,20.2403 13.7886,20.8213 13.6576,21.3113 L13.3536,22.1783 C11.7146,24.2073 12.5966,19.7093 12.7546,19.5253 C12.8696,18.8993 13.5076,18.6413 13.7966,18.2003 L13.8016,16.4753 L13.4646,16.4893 C13.2236,16.4983 12.4346,17.1873 12.1926,17.1983 C11.8416,17.2133 11.3676,16.7793 11.6846,16.5603 C11.7046,16.5453 11.7286,16.5313 11.7546,16.5163 Z" id="Stroke-15" stroke="#231916" stroke-width="0.216"></path>
                    <polygon id="Fill-17" fill="#231916" points="19.6823 19.5905 20.9523 19.5905 23.1873 24.2175 21.9163 24.2175"></polygon>
                    <polygon id="Stroke-19" stroke="#231916" stroke-width="0.216" points="19.6823 19.5905 20.9523 19.5905 23.1873 24.2175 21.9163 24.2175"></polygon>
                    <polygon id="Fill-21" fill="#231916" points="16.3053 19.5905 17.5753 19.5905 19.8103 24.2175 18.5393 24.2175"></polygon>
                    <polygon id="Stroke-23" stroke="#231916" stroke-width="0.216" points="16.3053 19.5905 17.5753 19.5905 19.8103 24.2175 18.5393 24.2175"></polygon>
                    <polygon id="Fill-25" fill="#231916" points="9.6481 19.5905 10.9181 19.5905 13.1531 24.2175 11.8831 24.2175"></polygon>
                    <polygon id="Stroke-27" stroke="#231916" stroke-width="0.216" points="9.6481 19.5905 10.9181 19.5905 13.1531 24.2175 11.8831 24.2175"></polygon>
                    <polygon id="Fill-29" fill="#231916" points="7.7731 20.2126 9.9181 24.2176 8.6471 24.2176 7.0471 21.2296"></polygon>
                    <polygon id="Stroke-31" stroke="#231916" stroke-width="0.216" points="7.7731 20.2126 9.9181 24.2176 8.6471 24.2176 7.0471 21.2296"></polygon>
                    <polygon id="Fill-33" fill="#231916" points="14.3717 19.5905 16.6057 24.2175 15.3367 24.2175 13.9217 21.2885"></polygon>
                    <polygon id="Stroke-35" stroke="#231916" stroke-width="0.216" points="14.3717 19.5905 16.6057 24.2175 15.3367 24.2175 13.9217 21.2885"></polygon>
                </g>
            </g>
        </g>
    </g>
</svg>