<?xml version="1.0" encoding="UTF-8"?>
<svg width="24px" height="31px" viewBox="0 0 24 31" version="1.1" xmlns="http://www.w3.org/2000/svg" xmlns:xlink="http://www.w3.org/1999/xlink">
    <!-- Generator: Sketch 54.1 (76490) - https://sketchapp.com -->
    <title>09102</title>
    <desc>Created with Sketch.</desc>
    <g id="-" stroke="none" stroke-width="1" fill="none" fill-rule="evenodd">
        <g id="C9_1_icon-汇总说明(一)" transform="translate(-385.000000, -735.000000)">
            <g id="编组-34" transform="translate(385.000000, 735.000000)">
                <g id="09102">
                    <path d="M21.1605,30.818 C22.1495,30.818 22.9605,30.008 22.9605,29.018 L22.9605,1.924 C22.9605,0.935 22.1495,0.125 21.1605,0.125 L1.9245,0.125 C0.9345,0.125 0.1255,0.935 0.1255,1.924 L0.1255,29.018 C0.1255,30.008 0.9345,30.818 1.9245,30.818 L21.1605,30.818 Z" id="Fill-1" fill="#FEFEFE"></path>
                    <path d="M21.1605,30.818 C22.1495,30.818 22.9605,30.008 22.9605,29.018 L22.9605,1.924 C22.9605,0.935 22.1495,0.125 21.1605,0.125 L1.9245,0.125 C0.9345,0.125 0.1255,0.935 0.1255,1.924 L0.1255,29.018 C0.1255,30.008 0.9345,30.818 1.9245,30.818 L21.1605,30.818 Z" id="Stroke-3" stroke="#344A9D" stroke-width="0.25"></path>
                    <path d="M20.64,30.0504 C21.602,30.0504 22.389,29.2634 22.389,28.3014 L22.389,2.6414 C22.389,1.6794 21.602,0.8924 20.64,0.8924 L2.445,0.8924 C1.483,0.8924 0.696,1.6794 0.696,2.6414 L0.696,28.3014 C0.696,29.2634 1.483,30.0504 2.445,30.0504 L20.64,30.0504 Z" id="Fill-5" fill="#FEFEFE"></path>
                    <path d="M20.64,30.0504 C21.602,30.0504 22.389,29.2634 22.389,28.3014 L22.389,2.6414 C22.389,1.6794 21.602,0.8924 20.64,0.8924 L2.445,0.8924 C1.483,0.8924 0.696,1.6794 0.696,2.6414 L0.696,28.3014 C0.696,29.2634 1.483,30.0504 2.445,30.0504 L20.64,30.0504 Z" id="Stroke-7" stroke="#FEFEFE" stroke-width="0.25"></path>
                    <path d="M20.64,30.0504 C21.602,30.0504 22.389,29.2634 22.389,28.3014 L22.389,2.6414 C22.389,1.6794 21.602,0.8924 20.64,0.8924 L2.445,0.8924 C1.483,0.8924 0.696,1.6794 0.696,2.6414 L0.696,28.3014 C0.696,29.2634 1.483,30.0504 2.445,30.0504 L20.64,30.0504 Z" id="Fill-9" fill="#2C479B"></path>
                    <path d="M5.0287,6.0397 L5.0287,28.3807 C5.0287,28.8167 4.6747,29.1717 4.2377,29.1717 C3.8007,29.1717 3.4477,28.8167 3.4477,28.3807 L3.4477,6.0397 C3.4477,6.0397 2.5107,6.3817 2.4817,6.3817 C2.3687,6.3817 2.2757,6.2597 2.2757,6.1077 C2.2757,6.0497 2.2907,5.9957 2.3127,5.9507 L4.0817,2.5787 L4.0857,2.5787 C4.1237,2.5257 4.1757,2.4927 4.2347,2.4927 C4.2937,2.4927 4.3457,2.5257 4.3827,2.5787 L6.1527,5.9487 C6.1527,5.9487 6.1887,6.0497 6.1887,6.1077 C6.1887,6.2597 6.0967,6.3817 5.9827,6.3817 C5.9537,6.3817 5.0287,6.0397 5.0287,6.0397" id="Fill-11" fill="#FEFEFE"></path>
                    <path d="M20.7728,5.9489 L19.0028,2.5789 C18.9648,2.5259 18.9138,2.4929 18.8538,2.4929 C18.7948,2.4929 18.7438,2.5259 18.7058,2.5789 L18.7008,2.5789 L16.9328,5.9509 C16.9098,5.9959 16.8958,6.0499 16.8958,6.1079 C16.8958,6.2599 16.9878,6.3819 17.1018,6.3819 C17.1308,6.3819 18.0668,6.0399 18.0668,6.0399 L18.0668,12.6319 L12.3378,17.9639 L12.3378,6.0399 C12.3378,6.0399 13.2628,6.3819 13.2938,6.3819 C13.4068,6.3819 13.4988,6.2599 13.4988,6.1079 C13.4988,6.0499 13.4628,5.9489 13.4628,5.9489 L11.6928,2.5789 C11.6558,2.5259 11.6028,2.4929 11.5438,2.4929 C11.4858,2.4929 11.4328,2.5259 11.3958,2.5789 L11.3908,2.5789 L9.6238,5.9509 C9.5998,5.9959 9.5858,6.0499 9.5858,6.1079 C9.5858,6.2599 9.6778,6.3819 9.7918,6.3819 C9.8218,6.3819 10.7568,6.0399 10.7568,6.0399 L10.7568,28.3809 C10.7568,28.8169 11.1108,29.1719 11.5478,29.1719 C11.9848,29.1719 12.3378,28.8169 12.3378,28.3809 L12.3378,20.3939 L19.6478,13.5339 L19.6478,6.0399 C19.6478,6.0399 20.5738,6.3819 20.6028,6.3819 C20.7158,6.3819 20.8088,6.2599 20.8088,6.1079 C20.8088,6.0499 20.7728,5.9489 20.7728,5.9489" id="Fill-13" fill="#FEFEFE"></path>
                </g>
            </g>
        </g>
    </g>
</svg>