<?xml version="1.0" encoding="UTF-8"?>
<svg width="21px" height="19px" viewBox="0 0 21 19" version="1.1" xmlns="http://www.w3.org/2000/svg" xmlns:xlink="http://www.w3.org/1999/xlink">
    <!-- Generator: Sketch 54.1 (76490) - https://sketchapp.com -->
    <title>03103</title>
    <desc>Created with Sketch.</desc>
    <g id="-" stroke="none" stroke-width="1" fill="none" fill-rule="evenodd">
        <g id="C9_1_icon-汇总说明(一)" transform="translate(-545.000000, -620.000000)">
            <g id="编组-28" transform="translate(335.000000, 613.000000)">
                <g id="03103" transform="translate(210.000000, 7.000000)">
                    <path d="M19.8617,18.5112 L0.7357,18.5112 C-0.0803,18.3562 -0.0453,17.5462 0.5227,16.5442 L9.5427,0.6442 C9.8827,0.1122 10.7347,-0.2328 11.2337,0.6442 L20.0847,16.2072 C20.6867,17.1612 21.2367,18.5282 19.8617,18.5112" id="Fill-1" fill="#E7D642"></path>
                    <path d="M10.388,2.1054 L1.875,16.9944 L18.9,16.9944 L10.388,2.1054 Z M19.862,18.5114 L0.736,18.5114 C-0.08,18.3554 -0.046,17.5454 0.523,16.5444 L9.542,0.6444 C9.883,0.1114 10.734,-0.2326 11.234,0.6444 L20.084,16.2074 C20.686,17.1614 21.237,18.5274 19.862,18.5114 L19.862,18.5114 Z" id="Fill-3" fill="#231916"></path>
                    <path d="M10.388,2.1054 L1.875,16.9944 L18.9,16.9944 L10.388,2.1054 Z M19.862,18.5114 L0.736,18.5114 C-0.08,18.3554 -0.046,17.5454 0.523,16.5444 L9.542,0.6444 C9.883,0.1114 10.734,-0.2326 11.234,0.6444 L20.084,16.2074 C20.686,17.1614 21.237,18.5274 19.862,18.5114 Z" id="Stroke-5" stroke="#231916" stroke-width="0.216"></path>
                    <polygon id="Fill-7" fill="#231916" points="11.1117 12.4663 14.0947 12.4663 14.0947 11.0703 11.1117 11.0703 11.1117 8.0873 9.7157 8.0873 9.7157 11.0703 6.7337 11.0703 6.7337 12.4663 9.7157 12.4663 9.7157 15.4483 11.1117 15.4483"></polygon>
                </g>
            </g>
        </g>
    </g>
</svg>