<?xml version="1.0" encoding="UTF-8"?>
<svg id="b" xmlns="http://www.w3.org/2000/svg" width="84.6" height="40.5"
    xmlns:xlink="http://www.w3.org/1999/xlink" viewBox="0 0 84.6 40.5">
    <defs>
        <style>
            .e{fill:#fad950;}.f{fill:#1e1e1e;}.g{fill:#0a0a0a;}.h{fill:url(#d);stroke:#8b9fae;stroke-miterlimit:10;stroke-width:1.2px;}
        </style>
        <linearGradient id="d" x1=".6" y1="20.3" x2="84" y2="20.3" gradientUnits="userSpaceOnUse">
            <stop offset="0" stop-color="#afbacb" />
            <stop offset=".1" stop-color="#c1ccda" />
            <stop offset=".4" stop-color="#d9e6f0" />
            <stop offset=".5" stop-color="#e3f0f8" />
            <stop offset=".6" stop-color="#dde9f2" />
            <stop offset=".8" stop-color="#ccd8e4" />
            <stop offset="1" stop-color="#b1bbcc" />
            <stop offset="1" stop-color="#aeb8c9" />
        </linearGradient>
    </defs>
    <g id="c">
        <g>
            <rect class="h" x=".6" y=".6" width="83.4" height="39.3" rx="4.6" ry="4.6" />
            <g>
                <path class="e"
                    d="M5.8,4.4H78.8c1.4,0,2.6,1.1,2.6,2.6v28.8c0,1.4-1.1,2.6-2.6,2.6H5.8c-1.4,0-2.6-1.1-2.6-2.6V7c0-1.4,1.1-2.6,2.6-2.6Z" />
                <path class="g"
                    d="M78.8,6.5c.3,0,.5,.2,.5,.5v28.8c0,.3-.2,.5-.5,.5H5.8c-.3,0-.5-.2-.5-.5V7c0-.3,.2-.5,.5-.5H78.8m0-4.1H5.8C3.3,2.4,1.2,4.4,1.2,7v28.8c0,2.6,2.1,4.6,4.6,4.6H78.8c2.6,0,4.6-2.1,4.6-4.6V7c0-2.6-2.1-4.6-4.6-4.6h0Z" />
            </g>
        </g>
        <g>
            <path class="f"
                d="M27.6,22.5c-.3-.5-.7-1-1-1.4v6.9h-1.5v-6.6c-.5,1.1-1.1,2.2-1.6,3.1l-1-1.3c.8-1.2,1.9-3.2,2.5-4.9h-1.7v-1.5h1.8v-2.8h1.5v2.8h1.5v1.5h-1.5v1.4l.2-.2c.5,.5,1.3,1.5,1.7,2.1l-1,1Zm3.2-.8c-.5,1.6-1.4,3.8-2.2,5.2l-1.4-.8c.8-1.4,1.7-3.5,2.2-5l1.4,.6Zm2.3-1.4v6.1c0,1.3-.5,1.5-1.8,1.7h-.8c0,0-.5-1.5-.5-1.5h.8c.7-.1,.8-.2,.8-.8v-5.4h-3.4v-1.6h8.6v1.6h-3.7Zm2.9-3.9h-7.2v-1.6h7.2v1.6Zm-1.1,4.8c.5,1.2,1.7,3.7,2.1,5l-1.4,.7c-.4-1.2-1.5-3.8-2-5.1l1.3-.6Z" />
            <path class="f"
                d="M48.9,21.4h2.5v6.5h-1.3v-5h-1.2c-.1,2.3-.5,3.7-1.2,5.3l-1.4-.7c.9-2.2,1.3-3.2,1.3-7v-6h1.4v3.9h1.1v-4.2h1.3v4.2h1v1.5h-3.3v1.5Zm11.5,4.1h-3.2v2.5h-1.5v-2.5h-4v-1.4h1.3l-.4-.5c.7-.5,1.3-.8,1.7-1.3h-1.9v-7h2.2c.2-.6,.5-1.3,.6-1.7l1.5,.4c-.1,.3-.3,.8-.5,1.3h3.2v7h-3.7c-.4,.7-1,1.3-1.7,1.9h1.5v-1.5h1.5v1.5h3.2v1.4Zm-6.6-8.9v1.5h1.6v-1.5h-1.6Zm1.3,4.3c.1-.4,.2-.9,.2-1.5h-1.5v1.5h1.3Zm3.1,0v-1.5h-1.6c0,.5-.1,1-.2,1.5h1.8Zm0-4.3h-1.5v1.5h1.5v-1.5Z" />
        </g>
    </g>
</svg>