<?xml version="1.0" encoding="UTF-8"?>
<svg width="28px" height="25px" viewBox="0 0 28 25" version="1.1" xmlns="http://www.w3.org/2000/svg" xmlns:xlink="http://www.w3.org/1999/xlink">
    <!-- Generator: Sketch 54.1 (76490) - https://sketchapp.com -->
    <title>zhuyifeijidonche_icon</title>
    <desc>Created with Sketch.</desc>
    <defs>
        <polygon id="path-1" points="0 0.473 28 0.473 28 25 0 25"></polygon>
    </defs>
    <g id="页面" stroke="none" stroke-width="1" fill="none" fill-rule="evenodd">
        <g id="C9_1_icon-汇总说明" transform="translate(-791.000000, -671.000000)">
            <g id="zhuyiyeshengdonwu_icon-2复制" transform="translate(791.000000, 670.000000)">
                <g id="zhuyifeijidonche_icon">
                    <g id="编组" transform="translate(0.000000, 0.527500)">
                        <mask id="mask-2" fill="white">
                            <use xlink:href="#path-1"></use>
                        </mask>
                        <g id="Clip-2"></g>
                        <path d="M13.9918,25.0001 L1.1738,25.0001 C0.5958,25.0001 0.1108,24.5751 0.0148,24.0051 C-0.0422,23.6551 0.0688,23.3591 0.2418,23.0681 C0.5398,22.5651 0.8268,22.0581 1.1188,21.5521 C1.4778,20.9331 1.8388,20.3131 2.1968,19.6941 C2.5548,19.0741 2.9118,18.4531 3.2698,17.8331 C3.6048,17.2551 3.9408,16.6791 4.2758,16.1011 C4.6028,15.5361 4.9288,14.9681 5.2558,14.4021 C5.5328,13.9221 5.8128,13.4441 6.0898,12.9641 C6.2918,12.6161 6.4888,12.2651 6.6898,11.9161 C6.8798,11.5881 7.0708,11.2621 7.2608,10.9351 C7.5618,10.4131 7.8638,9.8911 8.1648,9.3691 C8.4218,8.9241 8.6768,8.4791 8.9338,8.0351 C9.2518,7.4851 9.5728,6.9381 9.8898,6.3881 C10.2908,5.6951 10.6878,5.0011 11.0888,4.3091 C11.3958,3.7761 11.7088,3.2451 12.0168,2.7121 C12.3248,2.1811 12.6318,1.6501 12.9348,1.1171 C13.1058,0.8151 13.3498,0.6081 13.6858,0.5151 C14.1528,0.3851 14.7068,0.5571 14.9698,0.9821 C15.2558,1.4431 15.5198,1.9181 15.7928,2.3881 C16.0348,2.8041 16.2748,3.2211 16.5148,3.6381 C16.9088,4.3211 17.3018,5.0051 17.6958,5.6881 C17.9378,6.1071 18.1838,6.5241 18.4268,6.9421 C18.8578,7.6891 19.2888,8.4361 19.7198,9.1831 C20.0878,9.8191 20.4558,10.4561 20.8238,11.0921 C21.0628,11.5061 21.3038,11.9191 21.5428,12.3331 C21.9968,13.1171 22.4488,13.9011 22.9018,14.6851 C23.2458,15.2791 23.5908,15.8731 23.9328,16.4671 C24.2848,17.0791 24.6348,17.6911 24.9878,18.3021 C25.3548,18.9381 25.7258,19.5721 26.0948,20.2081 C26.4848,20.8841 26.8738,21.5621 27.2638,22.2381 C27.4618,22.5801 27.6668,22.9171 27.8568,23.2621 C28.0058,23.5311 28.0388,23.8211 27.9548,24.1181 C27.8318,24.5581 27.5448,24.8381 27.1078,24.9641 C27.0258,24.9871 26.9368,24.9991 26.8508,24.9991 C22.5648,25.0001 18.2788,25.0001 13.9918,25.0001" id="Fill-1" fill="#231916" mask="url(#mask-2)"></path>
                    </g>
                    <path d="M25.276,23.5276 C21.555,17.0956 17.843,10.6776 14.121,4.2406 C10.397,10.6806 6.687,17.0986 2.97,23.5276 L25.276,23.5276 Z" id="Fill-3" fill="#E7D642"></path>
                    <g id="自行车-(1)" transform="translate(8.000000, 14.000000)" fill="#000000" fill-rule="nonzero">
                        <path d="M9,3 C8.8772,3 8.7568,3.0096 8.638,3.024 L7.6708,0 L6,0 C5.7790861,0 5.6,0.1790861 5.6,0.4 C5.6,0.6209139 5.7790861,0.8 6,0.8 L7.0864,0.8 L7.352,1.6304 L3.2508,4.1108 L2.3672,2.7 L2.8,2.7 C3.0209139,2.7 3.2,2.5209139 3.2,2.3 C3.2,2.0790861 3.0209139,1.9 2.8,1.9 L0.8,1.9 C0.5790861,1.9 0.4,2.0790861 0.4,2.3 C0.4,2.5209139 0.5790861,2.7 0.8,2.7 L1.4232,2.7 L2.368,4.2084 C2.3124,4.2044 2.2568,4.2 2.2,4.2 C0.9868,4.2 0,5.1872 0,6.4 C0,7.6128 0.9868,8.6 2.2,8.6 C3.4132,8.6 4.4,7.6128 4.4,6.4 C4.39951658,5.78469956 4.14058768,5.19790049 3.6864,4.7828 L7.6028,2.4136 L7.8628,3.2256 C6.7708,3.6748 6,4.7484 6,6 C6,7.6544 7.3456,9 9,9 C10.6544,9 12,7.6544 12,6 C12,4.3456 10.6544,3 9,3 Z M2.2,7.8 C1.428,7.8 0.8,7.172 0.8,6.4 C0.8,5.628 1.428,5 2.2,5 C2.972,5 3.6,5.628 3.6,6.4 C3.6,7.172 2.972,7.8 2.2,7.8 Z M9,8.2 C7.78561311,8.19845736 6.80154264,7.21438689 6.8,6 C6.80133272,5.13105191 7.31355839,4.34414543 8.1076,3.9912 L8.8168,6.208 C8.8603864,6.34404674 8.97324197,6.44650605 9.1128551,6.47678249 C9.25246823,6.50705892 9.39762838,6.46055279 9.49365511,6.35478248 C9.58968184,6.24901218 9.62198641,6.10004674 9.5784,5.964 L8.888,3.8056 C8.9252,3.804 8.9624,3.8 9,3.8 C10.2128,3.8 11.2,4.7872 11.2,6 C11.2,7.2128 10.2128,8.2 9,8.2 Z" id="形状"></path>
                    </g>
                </g>
            </g>
        </g>
    </g>
</svg>