<?xml version="1.0" encoding="UTF-8"?>
<svg width="31px" height="28px" viewBox="0 0 31 28" version="1.1" xmlns="http://www.w3.org/2000/svg" xmlns:xlink="http://www.w3.org/1999/xlink">
    <!-- Generator: Sketch 54.1 (76490) - https://sketchapp.com -->
    <title>qitajingshipai_2</title>
    <desc>Created with Sketch.</desc>
    <defs>
        <polygon id="path-1" points="0.000169437369 0.510776 30.9998306 0.510776 30.9998306 28 0.000169437369 28"></polygon>
    </defs>
    <g id="页面" stroke="none" stroke-width="1" fill="none" fill-rule="evenodd">
        <g id="C9_1_icon-汇总说明" transform="translate(-1439.000000, -2374.000000)">
            <g id="编组-34" transform="translate(1439.000000, 2374.000000)">
                <g id="qitajingshipai_2">
                    <g id="编组">
                        <mask id="mask-2" fill="white">
                            <use xlink:href="#path-1"></use>
                        </mask>
                        <g id="Clip-2"></g>
                        <path d="M29.6874821,28.000336 C30.856625,28.000336 31.3349107,27.161456 30.7503393,26.137776 L16.5634107,1.279376 C15.9788393,0.254576 15.0211607,0.254576 14.4365893,1.279376 L0.249660714,26.137776 C-0.334910714,27.161456 0.143375,28.000336 1.31251786,28.000336 L29.6874821,28.000336 Z" id="Fill-1" fill="#D02E1D" mask="url(#mask-2)"></path>
                    </g>
                    <polygon id="Fill-3" fill="#FEFEFE" points="2 26 29 26 15.5 3"></polygon>
                    <polygon id="Fill-11" fill="#231916" points="16.2685 19.816 17.3705 19.816 17.6365 19.462 17.6365 19.15 17.9925 19.15 18.3025 18.662 18.3025 18.395 18.8795 18.129 18.8795 17.729 18.5245 17.419 18.3025 17.241 18.3025 16.797 18.2135 16.309 17.7755 15.904 17.4425 15.371 17.2095 15.17 16.9425 14.804 16.4935 14.738 16.1275 14.444 15.9945 14.222 15.4615 14 15.2395 14 14.7505 14.533 14.5285 14.666 14.2625 14.932 13.9515 15.199 13.5965 15.42 13.3305 15.643 12.8415 16.22 12.8415 16.664 12.8415 17.241 12.8415 17.507 12.5755 17.863 12.5755 18.395 12.9745 18.662 13.3305 18.928 13.7295 19.417 14.5285 19.55 15.0175 19.594 15.3285 19.816 15.3285 22.703 16.2605 22.703"></polygon>
                    <path d="M14.3734,22.7906 L11.4664,22.7906 L10.5544,22.7906 L10.5544,18.9076 C10.5544,18.4036 10.9634,17.9956 11.4664,17.9956 L13.4614,17.9956 C13.9644,17.9956 14.3734,18.4036 14.3734,18.9076 L14.3734,22.7026 L14.3734,22.7906 Z" id="Fill-13" fill="#231916"></path>
                    <polygon id="Fill-17" fill="#231916" points="10 23.113 18.258 23.113 18.258 22.581 10 22.581"></polygon>
                </g>
            </g>
        </g>
    </g>
</svg>