<?xml version="1.0" encoding="UTF-8"?>
<svg width="21px" height="19px" viewBox="0 0 21 19" version="1.1" xmlns="http://www.w3.org/2000/svg" xmlns:xlink="http://www.w3.org/1999/xlink">
    <!-- Generator: Sketch 54.1 (76490) - https://sketchapp.com -->
    <title>03103</title>
    <desc>Created with Sketch.</desc>
    <g id="-" stroke="none" stroke-width="1" fill="none" fill-rule="evenodd">
        <g id="C9_1_icon-汇总说明(一)" transform="translate(-575.000000, -620.000000)">
            <g id="编组-28" transform="translate(335.000000, 613.000000)">
                <g id="03103" transform="translate(240.000000, 7.000000)">
                    <path d="M19.8613,18.5112 L0.7353,18.5112 C-0.0797,18.3562 -0.0457,17.5462 0.5223,16.5442 L9.5423,0.6442 C9.8833,0.1122 10.7343,-0.2328 11.2343,0.6442 L20.0843,16.2072 C20.6863,17.1612 21.2373,18.5282 19.8613,18.5112" id="Fill-1" fill="#E7D642"></path>
                    <path d="M10.3881,2.1054 L1.8751,16.9944 L18.9001,16.9944 L10.3881,2.1054 Z M19.8611,18.5114 L0.7351,18.5114 C-0.0799,18.3554 -0.0459,17.5454 0.5221,16.5444 L9.5421,0.6444 C9.8831,0.1114 10.7341,-0.2326 11.2341,0.6444 L20.0841,16.2074 C20.6861,17.1614 21.2371,18.5274 19.8611,18.5114 L19.8611,18.5114 Z" id="Fill-3" fill="#231916"></path>
                    <path d="M10.3881,2.1054 L1.8751,16.9944 L18.9001,16.9944 L10.3881,2.1054 Z M19.8611,18.5114 L0.7351,18.5114 C-0.0799,18.3554 -0.0459,17.5454 0.5221,16.5444 L9.5421,0.6444 C9.8831,0.1114 10.7341,-0.2326 11.2341,0.6444 L20.0841,16.2074 C20.6861,17.1614 21.2371,18.5274 19.8611,18.5114 Z" id="Stroke-5" stroke="#231916" stroke-width="0.216"></path>
                    <polygon id="Fill-7" fill="#231916" points="13.373 9.5273 10.973 9.5273 10.973 7.7193 9.85 7.7193 9.85 12.8853 7.455 12.8853 7.455 14.0093 9.854 14.0093 9.854 15.8173 10.977 15.8173 10.977 10.6503 13.373 10.6503"></polygon>
                </g>
            </g>
        </g>
    </g>
</svg>