<?xml version="1.0" encoding="UTF-8"?>
<svg width="30px" height="28px" viewBox="0 0 30 28" version="1.1" xmlns="http://www.w3.org/2000/svg" xmlns:xlink="http://www.w3.org/1999/xlink">
    <!-- Generator: Sketch 54.1 (76490) - https://sketchapp.com -->
    <title>1105_03203_0复制</title>
    <desc>Created with Sketch.</desc>
    <g id="-" stroke="none" stroke-width="1" fill="none" fill-rule="evenodd">
        <g id="C9_1_icon-汇总说明(一)" transform="translate(-702.000000, -511.000000)" fill-rule="nonzero">
            <g id="右" transform="translate(702.000000, 511.000000)">
                <g id="1105_03203_0复制">
                    <path d="M1.174,27.666 C0.674,27.666 0.265,27.242 0.265,26.703 C0.265,26.534 0.311,26.366 0.389,26.22 L14.213,0.821 C14.374,0.523 14.676,0.334 15,0.334 C15.322,0.334 15.624,0.523 15.785,0.821 L29.618,26.22 C29.692,26.366 29.735,26.535 29.735,26.703 C29.735,27.233 29.329,27.666 28.822,27.666 L1.174,27.666 Z" id="路径" fill="#100808"></path>
                    <polygon id="路径" fill="#F7BD42" points="4.318 24.777 25.678 24.777 15 5.157"></polygon>
                    <polygon id="路径" fill="#000000" points="13.859 14.508 15.632 12.963 20.357 18.407 19.734 19.803 13.859 19.803 16.113 22.585 14.411 24.145 9.639 18.57 10.693 17.358 16.402 17.405"></polygon>
                </g>
            </g>
        </g>
    </g>
</svg>