<?xml version="1.0" encoding="UTF-8"?>
<svg width="31px" height="31px" viewBox="0 0 31 31" version="1.1" xmlns="http://www.w3.org/2000/svg" xmlns:xlink="http://www.w3.org/1999/xlink">
    <!-- Generator: Sketch 54.1 (76490) - https://sketchapp.com -->
    <title>07502</title>
    <desc>Created with Sketch.</desc>
    <g id="-" stroke="none" stroke-width="1" fill="none" fill-rule="evenodd">
        <g id="C9_1_icon-汇总说明(一)" transform="translate(-269.000000, -736.000000)">
            <g id="7503" transform="translate(269.000000, 736.000000)">
                <g id="07502">
                    <path d="M28.6222,30.0954 C29.3482,30.0954 29.9412,29.5014 29.9412,28.7764 L29.9412,1.4134 C29.9412,0.6884 29.3482,0.0954 28.6222,0.0954 L1.4142,0.0954 C0.6882,0.0954 0.0952,0.6884 0.0952,1.4134 L0.0952,28.7764 C0.0952,29.5014 0.6882,30.0954 1.4142,30.0954 L28.6222,30.0954 Z" id="Fill-1" fill="#FEFEFE"></path>
                    <path d="M28.6222,30.0954 C29.3482,30.0954 29.9412,29.5014 29.9412,28.7764 L29.9412,1.4134 C29.9412,0.6884 29.3482,0.0954 28.6222,0.0954 L1.4142,0.0954 C0.6882,0.0954 0.0952,0.6884 0.0952,1.4134 L0.0952,28.7764 C0.0952,29.5014 0.6882,30.0954 1.4142,30.0954 L28.6222,30.0954 Z" id="Stroke-3" stroke="#231916" stroke-width="0.19"></path>
                    <path d="M28.4576,29.2712 C28.8196,29.2712 29.1166,28.9742 29.1166,28.6122 L29.1166,1.5792 C29.1166,1.2162 28.8196,0.9192 28.4576,0.9192 L1.5786,0.9192 C1.2156,0.9192 0.9186,1.2162 0.9186,1.5792 L0.9186,28.6122 C0.9186,28.9742 1.2156,29.2712 1.5786,29.2712 L28.4576,29.2712 Z" id="Fill-5" fill="#29479B"></path>
                    <polygon id="Fill-7" fill="#FEFEFE" points="18.4718 24.0612 18.5018 11.9002 15.5778 15.0192 15.5938 10.2932 20.5678 5.2952 25.1408 10.3482 25.1408 14.9102 21.8508 11.9122 21.8398 24.1002"></polygon>
                    <polygon id="Fill-9" fill="#D02E1D" points="10.2433 5.321 10.2243 20.01 12.3403 17.998 12.3293 21.046 9.2293 24.271 6.3783 21.011 6.3783 18.068 8.3123 20.003 8.3193 5.296"></polygon>
                </g>
            </g>
        </g>
    </g>
</svg>