<?xml version="1.0" encoding="UTF-8"?>
<svg width="28px" height="25px" viewBox="0 0 28 25" version="1.1" xmlns="http://www.w3.org/2000/svg" xmlns:xlink="http://www.w3.org/1999/xlink">
    <!-- Generator: Sketch 54.1 (76490) - https://sketchapp.com -->
    <title>05702</title>
    <desc>Created with Sketch.</desc>
    <defs>
        <polygon id="path-1" points="0 0.473 28 0.473 28 25 0 25"></polygon>
    </defs>
    <g id="-" stroke="none" stroke-width="1" fill="none" fill-rule="evenodd">
        <g id="C9_1_icon-汇总说明(一)" transform="translate(-398.000000, -677.000000)">
            <g id="编组-29" transform="translate(208.000000, 676.000000)">
                <g id="05702" transform="translate(190.000000, 0.000000)">
                    <g id="编组" transform="translate(0.000000, 0.527500)">
                        <mask id="mask-2" fill="white">
                            <use xlink:href="#path-1"></use>
                        </mask>
                        <g id="Clip-2"></g>
                        <path d="M13.9923,25.0002 L1.1733,25.0002 C0.5953,25.0002 0.1103,24.5752 0.0153,24.0052 C-0.0427,23.6552 0.0693,23.3592 0.2413,23.0672 C0.5393,22.5652 0.8263,22.0582 1.1193,21.5522 C1.4773,20.9332 1.8383,20.3132 2.1963,19.6932 C2.5543,19.0732 2.9123,18.4522 3.2703,17.8332 C3.6043,17.2552 3.9413,16.6792 4.2753,16.1022 C4.6023,15.5352 4.9283,14.9682 5.2563,14.4022 C5.5333,13.9222 5.8123,13.4442 6.0903,12.9642 C6.2913,12.6152 6.4893,12.2652 6.6903,11.9162 C6.8793,11.5882 7.0703,11.2622 7.2603,10.9352 C7.5613,10.4132 7.8633,9.8912 8.1653,9.3682 C8.4213,8.9242 8.6773,8.4792 8.9333,8.0342 C9.2523,7.4852 9.5723,6.9382 9.8893,6.3882 C10.2903,5.6952 10.6873,5.0012 11.0883,4.3092 C11.3963,3.7752 11.7093,3.2452 12.0173,2.7122 C12.3253,2.1812 12.6323,1.6492 12.9343,1.1162 C13.1063,0.8142 13.3503,0.6082 13.6853,0.5152 C14.1523,0.3852 14.7063,0.5572 14.9703,0.9812 C15.2563,1.4432 15.5193,1.9182 15.7933,2.3892 C16.0343,2.8042 16.2743,3.2212 16.5143,3.6382 C16.9093,4.3212 17.3023,5.0052 17.6963,5.6882 C17.9383,6.1072 18.1833,6.5232 18.4263,6.9422 C18.8573,7.6882 19.2883,8.4362 19.7203,9.1832 C20.0873,9.8192 20.4563,10.4562 20.8243,11.0922 C21.0633,11.5062 21.3043,11.9192 21.5433,12.3332 C21.9963,13.1172 22.4493,13.9012 22.9023,14.6852 C23.2463,15.2792 23.5903,15.8732 23.9323,16.4682 C24.2853,17.0782 24.6353,17.6912 24.9873,18.3022 C25.3553,18.9382 25.7253,19.5722 26.0943,20.2082 C26.4843,20.8852 26.8733,21.5622 27.2633,22.2372 C27.4613,22.5792 27.6663,22.9172 27.8573,23.2622 C28.0063,23.5302 28.0383,23.8212 27.9553,24.1182 C27.8323,24.5582 27.5443,24.8382 27.1073,24.9642 C27.0253,24.9872 26.9363,24.9982 26.8513,24.9982 C22.5653,25.0002 18.2783,25.0002 13.9923,25.0002" id="Fill-1" fill="#231916" mask="url(#mask-2)"></path>
                    </g>
                    <polygon id="Fill-3" fill="#E7D642" points="25.2755 23.5277 14.1205 4.2407 2.9695 23.5277"></polygon>
                    <path d="M14.4728,11.308 C14.9648,11.308 15.3648,11.726 15.3648,12.242 C15.3648,12.756 14.9648,13.174 14.4728,13.174 C13.9818,13.174 13.5818,12.756 13.5818,12.242 C13.5818,11.726 13.9818,11.308 14.4728,11.308" id="Fill-5" fill="#231916"></path>
                    <path d="M14.4728,11.308 C14.9648,11.308 15.3648,11.726 15.3648,12.242 C15.3648,12.756 14.9648,13.174 14.4728,13.174 C13.9818,13.174 13.5818,12.756 13.5818,12.242 C13.5818,11.726 13.9818,11.308 14.4728,11.308 Z" id="Stroke-7" stroke="#231916" stroke-width="0.216"></path>
                    <path d="M13.7394,15.7172 L13.3024,16.4642 L14.1354,16.9212 L13.7394,15.7172 Z M12.1524,14.3252 L11.5774,14.3672 L11.7964,14.8652 L12.1524,14.3252 Z M12.6684,18.5822 L11.8754,17.7102 C11.1114,18.6502 10.5364,20.0172 10.0904,21.6762 L12.6684,21.6762 L12.6684,18.5822 Z M13.3594,17.1012 L13.9784,18.0832 L13.9784,21.6432 L14.4574,21.6432 C14.4414,21.2352 14.7504,20.9972 15.2064,20.8372 C14.8434,19.8412 15.7804,19.6282 17.3074,19.7702 L17.3074,19.4922 L16.3514,18.9362 L16.3024,18.5712 L13.3594,17.1012 Z M9.1954,21.7172 C9.2674,19.3772 10.0554,17.4542 11.1684,15.7202 C10.1354,14.6822 10.1414,14.0372 11.1884,13.6042 C12.7514,12.8422 13.7354,12.8962 14.1414,13.9472 L14.5124,14.9982 C14.5604,15.7232 14.8394,16.3262 15.3494,16.8092 L15.3194,17.4832 L16.5004,18.1082 C16.8374,17.7392 17.1304,17.7802 17.5094,18.0932 C16.9074,17.0042 17.2294,16.3392 18.4754,16.0972 C18.4004,14.9462 18.9314,15.1552 19.1604,14.6862 L23.8394,22.9422 L5.0364,22.9422 L5.5984,21.7622 L9.1954,21.7172 Z" id="Fill-9" fill="#231916"></path>
                    <path d="M13.7394,15.7172 L13.3024,16.4642 L14.1354,16.9212 L13.7394,15.7172 Z M12.1524,14.3252 L11.5774,14.3672 L11.7964,14.8652 L12.1524,14.3252 Z M12.6684,18.5822 L11.8754,17.7102 C11.1114,18.6502 10.5364,20.0172 10.0904,21.6762 L12.6684,21.6762 L12.6684,18.5822 Z M13.3594,17.1012 L13.9784,18.0832 L13.9784,21.6432 L14.4574,21.6432 C14.4414,21.2352 14.7504,20.9972 15.2064,20.8372 C14.8434,19.8412 15.7804,19.6282 17.3074,19.7702 L17.3074,19.4922 L16.3514,18.9362 L16.3024,18.5712 L13.3594,17.1012 Z M9.1954,21.7172 C9.2674,19.3772 10.0554,17.4542 11.1684,15.7202 C10.1354,14.6822 10.1414,14.0372 11.1884,13.6042 C12.7514,12.8422 13.7354,12.8962 14.1414,13.9472 L14.5124,14.9982 C14.5604,15.7232 14.8394,16.3262 15.3494,16.8092 L15.3194,17.4832 L16.5004,18.1082 C16.8374,17.7392 17.1304,17.7802 17.5094,18.0932 C16.9074,17.0042 17.2294,16.3392 18.4754,16.0972 C18.4004,14.9462 18.9314,15.1552 19.1604,14.6862 L23.8394,22.9422 L5.0364,22.9422 L5.5984,21.7622 L9.1954,21.7172 Z" id="Stroke-11" stroke="#231916" stroke-width="0.216"></path>
                </g>
            </g>
        </g>
    </g>
</svg>