<?xml version="1.0" encoding="UTF-8"?>
<svg width="29px" height="26px" viewBox="0 0 29 26" version="1.1" xmlns="http://www.w3.org/2000/svg" xmlns:xlink="http://www.w3.org/1999/xlink">
    <!-- Generator: Sketch 54.1 (76490) - https://sketchapp.com -->
    <title>04502</title>
    <desc>Created with Sketch.</desc>
    <defs>
        <polygon id="path-1" points="0 0 11 0 11 3 0 3"></polygon>
    </defs>
    <g id="-" stroke="none" stroke-width="1" fill="none" fill-rule="evenodd">
        <g id="C9_1_icon-汇总说明(一)" transform="translate(-270.000000, -676.000000)">
            <g id="编组-29" transform="translate(208.000000, 676.000000)">
                <g id="04502" transform="translate(62.000000, 0.000000)">
                    <g id="编组复制">
                        <path d="M26.9425,25.1078 L0.9605,25.1078 C-0.1475,24.8968 -0.1005,23.7958 0.6715,22.4368 L12.9245,0.8368 C13.3875,0.1128 14.5435,-0.3552 15.2215,0.8368 L27.2455,21.9788 C28.0625,23.2738 28.8115,25.1298 26.9425,25.1078" id="Fill-1" fill="#E7D642"></path>
                        <path d="M14.0728,2.8217 L2.5098,23.0477 L25.6368,23.0477 L14.0728,2.8217 Z M26.9428,25.1077 L0.9608,25.1077 C-0.1482,24.8967 -0.1002,23.7967 0.6708,22.4367 L12.9248,0.8377 C13.3878,0.1127 14.5438,-0.3553 15.2218,0.8377 L27.2448,21.9787 C28.0628,23.2737 28.8108,25.1307 26.9428,25.1077 L26.9428,25.1077 Z" id="Fill-3" fill="#231916"></path>
                        <path d="M14.0728,2.8217 L2.5098,23.0477 L25.6368,23.0477 L14.0728,2.8217 Z M26.9428,25.1077 L0.9608,25.1077 C-0.1482,24.8967 -0.1002,23.7967 0.6708,22.4367 L12.9248,0.8377 C13.3878,0.1127 14.5438,-0.3553 15.2218,0.8377 L27.2448,21.9787 C28.0628,23.2737 28.8108,25.1307 26.9428,25.1077 Z" id="Stroke-5" stroke="#231916" stroke-width="0.216"></path>
                    </g>
                    <g id="编组" transform="translate(8.000000, 11.000000)">
                        <path d="M2.44725801,2.88053355 C2.44725801,2.73491379 2.57922545,2.62686393 2.71897927,2.65866729 L3.80363146,2.89987185 C3.90651454,2.92264678 3.97922545,3.01479497 3.97922545,3.12173812 L3.97922545,3.28098788 C3.97922545,3.40610438 3.87972028,3.50850419 3.75559645,3.50850419 L2.67088701,3.50850419 C2.54790823,3.50850419 2.44725801,3.40726934 2.44725801,3.28098788 L2.44725801,2.88053355 Z M3.31944547,1.90668686 L4.13020079,0.788385368 L4.13020079,0.78722041 C4.16930438,0.721283784 4.23978244,0.681442218 4.31581401,0.681442218 L6.7121253,0.681442218 C6.78369116,0.681442218 6.85079131,0.716740447 6.89103995,0.775862069 C6.89550566,0.781570363 6.90111643,0.790657036 6.90558214,0.796365331 L7.70849385,1.90441519 C7.7118145,1.90785182 7.70849385,1.91350186 7.70397088,1.91350186 L3.32396843,1.91350186 C3.31944547,1.91583178 3.31721261,1.91012349 3.31944547,1.90668686 L3.31944547,1.90668686 Z M8.54152047,2.88053355 L8.54152047,3.28098788 C8.54152047,3.40610438 8.44201529,3.50850419 8.31789147,3.50850419 L7.23323928,3.50850419 C7.11020325,3.50850419 7.00961027,3.40726934 7.00961027,3.28098788 L7.00961027,3.12284483 C7.00961027,3.01590168 7.08226393,2.92375349 7.18514702,2.90103681 L8.26979921,2.65983225 C8.40961027,2.62797064 8.54152047,2.73607875 8.54152047,2.88053355 L8.54152047,2.88053355 Z M2.1118145,4.17975303 L8.8881855,4.17975303 C8.94967489,4.17975303 9,4.12855312 9,4.06599487 L9,2.2457479 C9,2.06372321 8.85463542,1.91583178 8.67572077,1.91583178 C8.67348792,1.91583178 8.67125506,1.91466682 8.67125506,1.91239515 C8.66787715,1.90330848 8.66341144,1.89532852 8.65785793,1.88624185 L7.35845091,0.105778192 C7.31934732,0.0397833178 7.24886926,0 7.17283769,0 L3.8662659,0 C3.78800147,0 3.71420276,0.0397833178 3.67057621,0.105778192 L2.37231424,1.88624185 C2.36676072,1.89416356 2.36229501,1.90330848 2.35891711,1.91239515 C2.35782931,1.91466682 2.3555392,1.91583178 2.3544514,1.91583178 C2.15984951,1.91583178 2.0010878,2.07618826 2.0010878,2.27527959 L2.0010878,4.06599487 C2,4.12855312 2.05026786,4.17975303 2.1118145,4.17975303 L2.1118145,4.17975303 Z M2.23370548,5.24912628 C2.35782931,5.25139795 2.45842228,5.35490447 2.45842228,5.48235089 L2.45842228,5.54490913 C2.45842228,5.79636533 2.65857768,6 2.90573754,6 L3.33066699,6 C3.5777696,6 3.777925,5.79636533 3.777925,5.54490913 L3.777925,5.48805918 C3.777925,5.35606943 3.88304094,5.24912628 4.01277553,5.24912628 L6.9760602,5.24912628 C7.10573754,5.24912628 7.21085347,5.35606943 7.21085347,5.48805918 L7.21085347,5.54490913 C7.21085347,5.79636533 7.41100887,6 7.65816873,6 L8.08304094,6 C8.33020079,6 8.53035619,5.79636533 8.53035619,5.54490913 L8.53035619,5.48805918 C8.53035619,5.35606943 8.63547213,5.24912628 8.76520672,5.24912628 C8.89488406,5.24912628 9,5.14218313 9,5.01025163 L9,4.54380242 C9,4.48118593 8.94967489,4.43004427 8.8881855,4.43004427 L2.1118145,4.43004427 C2.05026786,4.43004427 2,4.48118593 2,4.54380242 L2,5.0125233 C2,5.14334809 2.10505868,5.24685461 2.23370548,5.24912628 L2.23370548,5.24912628 Z" id="Fill-1" fill="#231916"></path>
                        <path d="M0.155752653,8.49578022 C0.761755078,8.73215287 1.55023731,8.95610498 2.05761715,8.95610498 C3.07368516,8.95610498 3.13573702,8.22087201 4.27223298,8.33405827 C5.09236416,8.4161613 5.19702994,8.89763284 6.02445033,8.93120018 C6.90420362,8.96725163 6.97479073,8.45597076 7.84968453,8.47087542 C8.84139283,8.48832789 9.05433785,9.06801733 9.89396926,8.99336663 C10.2541317,8.9610732 10.6155402,8.84533913 10.8430636,8.75826788 C10.9379481,8.72221643 11,8.62890306 11,8.52565324 L11,5.24879321 C11,5.11197605 10.890537,5 10.7566521,5 L10.0752653,5 C9.94138036,5 9.8318551,5.11197605 9.8318551,5.24879321 L9.8318551,7.92475331 C9.8318551,7.92972153 9.82699562,7.93220564 9.82338215,7.93099544 C9.45711421,7.73940046 9.1979418,7.27538139 8.66620224,7.24678227 C7.99328848,7.21194103 7.88376321,7.93347955 7.08431599,8.01558258 C6.32013117,8.09271739 6.17415979,7.46073424 5.30773892,7.44582958 C4.40125848,7.43086122 4.20532164,8.02303491 3.40955019,7.91851119 C2.70498748,7.82526151 2.60518118,7.35500031 1.92497819,7.22187747 C1.7315334,7.18455212 1.48450969,7.18206801 1.17668015,7.28659173 C1.17300438,7.28780194 1.1681449,7.28531783 1.1681449,7.28034961 L1.1681449,5.24879321 C1.1681449,5.11197605 1.05861964,5 0.924796955,5 L0.243347946,5 C0.109525266,5 0,5.11197605 0,5.24879321 L0,8.26437579 C0,8.3676256 0.0620518571,8.45972877 0.155752653,8.49578022" id="Fill-3" fill="#231916"></path>
                        <g transform="translate(0.000000, 9.000000)">
                            <mask id="mask-2" fill="white">
                                <use xlink:href="#path-1"></use>
                            </mask>
                            <g id="Clip-6"></g>
                            <path d="M10.7258995,0.65759869 C10.4100282,0.815815308 9.98932449,0.906075449 9.87837309,0.904332975 C8.81987046,0.897537328 8.71984562,0.240711841 7.85402507,0.223722722 C6.98695576,0.206646479 6.89429854,0.860074142 6.01261887,0.819213132 C5.19187817,0.780094596 4.90285507,0.0364939159 4.28091532,0.00242855376 C3.30414336,-0.0502812777 3.30045955,0.771643598 2.04927486,0.853278494 C2.04927486,0.853278494 1.35172332,0.899192678 0.311514883,0.308755442 C0.306644759,0.307100092 0.302960948,0.303702268 0.298090824,0.301959794 C0.0993523212,0.206646479 -0.073849252,0.518026541 0.0322320288,0.769901124 C0.101787383,0.935000514 0.224914096,1.18853045 0.351787058,1.25997187 C1.13469064,1.70238596 1.77611088,2.05297168 2.19437957,1.99337908 C3.28460043,1.83856029 3.78216472,0.997903817 4.65778796,1.38081243 C5.21872629,1.62580424 5.14430081,1.6547293 5.68213728,1.85729188 C6.61626444,2.20944583 6.95280246,1.14087379 8.09671956,1.1765945 C9.12962281,1.20891739 9.85152497,2.09888587 10.5356525,1.72111755 C10.8722529,1.53563122 10.9770854,1.25997187 10.9966284,1.0405073 L10.9990634,1.0405073 L10.9990634,0.999646291 C11.0003122,0.97411905 11.0003122,0.950247159 10.9990634,0.926462392 C10.9990634,0.729040115 10.8588289,0.59121044 10.7258995,0.65759869" id="Fill-5" fill="#231916" mask="url(#mask-2)"></path>
                        </g>
                    </g>
                </g>
            </g>
        </g>
    </g>
</svg>