<?xml version="1.0" encoding="UTF-8"?>
<svg width="30px" height="28px" viewBox="0 0 30 28" version="1.1" xmlns="http://www.w3.org/2000/svg" xmlns:xlink="http://www.w3.org/1999/xlink">
    <!-- Generator: Sketch 54.1 (76490) - https://sketchapp.com -->
    <title>zhuyixingren</title>
    <desc>Created with Sketch.</desc>
    <defs>
        <polygon id="path-1" points="0 0.672 29.466 0.672 29.466 27.9996 0 27.9996"></polygon>
        <polygon id="path-3" points="6 13 24 13 24 26 6 26"></polygon>
    </defs>
    <g id="待定" stroke="none" stroke-width="1" fill="none" fill-rule="evenodd">
        <g id="工具栏汇总复制" transform="translate(-677.000000, -1052.000000)">
            <g id="编组-9" transform="translate(677.000000, 1051.000000)">
                <g id="zhuyixingren">
                    <g id="编组复制-2">
                        <g id="编组" transform="translate(0.000000, 0.328000)">
                            <mask id="mask-2" fill="white">
                                <use xlink:href="#path-1"></use>
                            </mask>
                            <g id="Clip-2"></g>
                            <path d="M0.9078,27.9996 C0.4058,27.9996 -0.0002,27.5716 -0.0002,27.0366 C-0.0002,26.8676 0.0438,26.6996 0.1218,26.5546 L13.9468,1.1546 C14.1078,0.8566 14.4098,0.6716 14.7338,0.6716 C15.0578,0.6716 15.3578,0.8566 15.5188,1.1546 L29.3458,26.5546 C29.4198,26.6996 29.4668,26.8686 29.4668,27.0366 C29.4668,27.5666 29.0578,27.9996 28.5538,27.9996 L0.9078,27.9996 Z" id="Fill-1" fill="#100808" mask="url(#mask-2)"></path>
                        </g>
                        <polygon id="Fill-3" fill="#F7BD42" points="4.0519 25.4389 25.4139 25.4389 14.7339 5.8169"></polygon>
                    </g>
                    <mask id="mask-4" fill="white">
                        <use xlink:href="#path-3"></use>
                    </mask>
                    <g id="Clip-2"></g>
                    <path d="M14.9623185,13 C15.4894739,13 15.9414593,13.4588304 15.9414593,13.9940836 C15.9414593,14.5294348 15.4894739,14.9882653 14.9623185,14.9882653 C14.3597999,14.9882653 13.907911,14.5294348 13.9832741,13.9940836 C13.9832741,13.4588304 14.435163,13 14.9623185,13 L14.9623185,13 Z M13.9832741,15.6000392 C14.3597999,15.1412087 15.1882147,15.1412087 15.7907332,15.5235185 L17.5230222,17.2058968 C17.8242815,17.5117837 18.0501777,17.9706142 18.0501777,18.4294446 L18.0501777,19.500049 C17.9748146,20.1882457 17.221763,20.1118229 17.1463999,19.5764717 L17.1463999,18.3529239 L16.2426221,17.7412479 L16.2426221,22.0999902 L17.2970295,23.935312 C17.5982888,24.6236066 16.9958668,25.0059164 16.5438814,24.6236066 L14.9623185,22.2529337 L14.8116888,20.3411892 C14.435163,20.4941326 14.1339037,20.8000196 13.8326445,21.1824273 L16.5438814,25.7706338 L15.1882147,25.7706338 L13.3807556,22.7117641 L13.305489,24.0118327 C13.1548594,24.6236066 12.3263481,24.5470859 12.2509851,23.935312 L12.3263481,22.0235675 C12.4016147,21.7176805 12.4769778,21.4117935 12.5522443,21.1824273 L12.3263481,20.8000196 L12.778237,20.8000196 L13.6066518,19.805936 L13.6820148,17.9706142 C12.8535036,18.5823881 12.0250889,18.9646978 11.1966741,19.1176413 C10.5187925,19.194162 10.3682594,18.5058674 11.0460445,18.2765011 L11.9498223,17.9706142 C12.4016147,17.8176707 12.702874,17.5117837 12.9288667,17.2058968 L13.9832741,15.6000392 Z M21.138037,20.9529631 L24,25.9234793 L22.6443333,26 L19.7070072,21.0293858 L21.138037,20.9529631 Z M17.6736519,20.9529631 L20.5355184,25.9234793 L19.1799482,26 L16.2426221,21.0293858 L17.6736519,20.9529631 Z M6.60251854,22.2529337 L8.86196304,25.9234793 L7.58156291,26 L6,23.3235381 L6.60251854,22.2529337 Z M10.0670001,20.8765403 L13.0042297,25.8470565 L12.9288667,25.8470565 L13.0042297,25.9234793 L11.5732,26 L8.71133341,21.0293858 L8.71133341,20.9529631 L10.0670001,20.8765403 Z" id="Fill-1" fill="#000000" mask="url(#mask-4)"></path>
                </g>
            </g>
        </g>
    </g>
</svg>