<?xml version="1.0" encoding="UTF-8"?>
<svg width="28px" height="25px" viewBox="0 0 28 25" version="1.1" xmlns="http://www.w3.org/2000/svg" xmlns:xlink="http://www.w3.org/1999/xlink">
    <!-- Generator: Sketch 54.1 (76490) - https://sketchapp.com -->
    <title>06103</title>
    <desc>Created with Sketch.</desc>
    <defs>
        <polygon id="path-1" points="0 0.473 28 0.473 28 25 0 25"></polygon>
    </defs>
    <g id="-" stroke="none" stroke-width="1" fill="none" fill-rule="evenodd">
        <g id="C9_1_icon-汇总说明(一)" transform="translate(-568.000000, -677.000000)">
            <g id="编组-29" transform="translate(208.000000, 676.000000)">
                <g id="06103" transform="translate(360.000000, 0.000000)">
                    <g id="编组复制-5">
                        <g id="编组" transform="translate(0.000000, 0.527500)">
                            <mask id="mask-2" fill="white">
                                <use xlink:href="#path-1"></use>
                            </mask>
                            <g id="Clip-2"></g>
                            <path d="M13.9923,25.0002 L1.1733,25.0002 C0.5953,25.0002 0.1103,24.5752 0.0153,24.0052 C-0.0427,23.6552 0.0693,23.3592 0.2413,23.0672 C0.5393,22.5652 0.8263,22.0582 1.1193,21.5522 C1.4773,20.9332 1.8383,20.3132 2.1963,19.6932 C2.5543,19.0732 2.9123,18.4522 3.2703,17.8332 C3.6043,17.2552 3.9413,16.6792 4.2753,16.1022 C4.6023,15.5352 4.9283,14.9682 5.2563,14.4022 C5.5333,13.9222 5.8123,13.4442 6.0903,12.9642 C6.2913,12.6152 6.4893,12.2652 6.6903,11.9162 C6.8793,11.5882 7.0703,11.2622 7.2603,10.9352 C7.5613,10.4132 7.8633,9.8912 8.1653,9.3682 C8.4213,8.9242 8.6773,8.4792 8.9333,8.0342 C9.2523,7.4852 9.5723,6.9382 9.8893,6.3882 C10.2903,5.6952 10.6873,5.0012 11.0883,4.3092 C11.3963,3.7752 11.7093,3.2452 12.0173,2.7122 C12.3253,2.1812 12.6323,1.6492 12.9343,1.1162 C13.1063,0.8142 13.3503,0.6082 13.6853,0.5152 C14.1523,0.3852 14.7063,0.5572 14.9703,0.9812 C15.2563,1.4432 15.5193,1.9182 15.7933,2.3892 C16.0343,2.8042 16.2743,3.2212 16.5143,3.6382 C16.9093,4.3212 17.3023,5.0052 17.6963,5.6882 C17.9383,6.1072 18.1833,6.5232 18.4263,6.9422 C18.8573,7.6882 19.2883,8.4362 19.7203,9.1832 C20.0873,9.8192 20.4563,10.4562 20.8243,11.0922 C21.0633,11.5062 21.3043,11.9192 21.5433,12.3332 C21.9963,13.1172 22.4493,13.9012 22.9023,14.6852 C23.2463,15.2792 23.5903,15.8732 23.9323,16.4682 C24.2853,17.0782 24.6353,17.6912 24.9873,18.3022 C25.3553,18.9382 25.7253,19.5722 26.0943,20.2082 C26.4843,20.8852 26.8733,21.5622 27.2633,22.2372 C27.4613,22.5792 27.6663,22.9172 27.8573,23.2622 C28.0063,23.5302 28.0383,23.8212 27.9553,24.1182 C27.8323,24.5582 27.5443,24.8382 27.1073,24.9642 C27.0253,24.9872 26.9363,24.9982 26.8513,24.9982 C22.5653,25.0002 18.2783,25.0002 13.9923,25.0002" id="Fill-1" fill="#231916" mask="url(#mask-2)"></path>
                        </g>
                        <polygon id="Fill-3" fill="#E7D642" points="25.2755 23.5277 14.1205 4.2407 2.9695 23.5277"></polygon>
                    </g>
                    <path d="M14.5,17.1193167 L14.5,21.7972099" id="路径-114" stroke="#231916" stroke-width="1.5"></path>
                    <path d="M9,17.5 L20,17.5" id="路径-115" stroke="#231916"></path>
                    <path d="M10,20.5 L20,20.5" id="路径-115复制" stroke="#231916"></path>
                    <polygon id="路径-116" fill="#231916" points="7 17.5455061 9.16896424 16 10 16 10 19 9.16896424 19"></polygon>
                    <polygon id="路径-116复制" fill="#231916" transform="translate(21.500000, 20.500000) rotate(-180.000000) translate(-21.500000, -20.500000) " points="20 20.5455061 22.1689642 19 23 19 23 22 22.1689642 22"></polygon>
                </g>
            </g>
        </g>
    </g>
</svg>