<?xml version="1.0" encoding="UTF-8"?>
<svg width="28px" height="25px" viewBox="0 0 28 25" version="1.1" xmlns="http://www.w3.org/2000/svg" xmlns:xlink="http://www.w3.org/1999/xlink">
    <!-- Generator: Sketch 54.1 (76490) - https://sketchapp.com -->
    <title>02102</title>
    <desc>Created with Sketch.</desc>
    <defs>
        <polygon id="path-1" points="0 0.473 27.9999347 0.473 27.9999347 25 0 25"></polygon>
    </defs>
    <g id="-" stroke="none" stroke-width="1" fill="none" fill-rule="evenodd">
        <g id="C9_1_icon-汇总说明(一)" transform="translate(-489.000000, -614.000000)">
            <g id="编组-28" transform="translate(335.000000, 613.000000)">
                <g id="02102" transform="translate(154.000000, 0.000000)">
                    <g id="编组" transform="translate(0.000000, 0.527500)">
                        <mask id="mask-2" fill="white">
                            <use xlink:href="#path-1"></use>
                        </mask>
                        <g id="Clip-2"></g>
                        <path d="M13.9921,25.0001 L1.1731,25.0001 C0.5951,25.0001 0.1111,24.5751 0.0151,24.0051 C-0.0429,23.6551 0.0691,23.3591 0.2421,23.0681 C0.5391,22.5651 0.8261,22.0581 1.1191,21.5521 C1.4781,20.9331 1.8381,20.3131 2.1971,19.6931 C2.5551,19.0741 2.9111,18.4531 3.2701,17.8331 C3.6051,17.2551 3.9411,16.6791 4.2751,16.1011 C4.6031,15.5351 4.9281,14.9681 5.2551,14.4021 C5.5331,13.9221 5.8121,13.4441 6.0901,12.9641 C6.2911,12.6151 6.4891,12.2651 6.6901,11.9161 C6.8791,11.5881 7.0701,11.2621 7.2601,10.9351 C7.5621,10.4131 7.8641,9.8911 8.1651,9.3691 C8.4211,8.9241 8.6771,8.4791 8.9331,8.0351 C9.2521,7.4851 9.5731,6.9381 9.8901,6.3881 C10.2901,5.6951 10.6871,5.0011 11.0881,4.3091 C11.3961,3.7751 11.7091,3.2451 12.0171,2.7121 C12.3251,2.1811 12.6311,1.6501 12.9341,1.1171 C13.1061,0.8151 13.3501,0.6081 13.6861,0.5151 C14.1531,0.3851 14.7061,0.5571 14.9701,0.9821 C15.2551,1.4431 15.5201,1.9181 15.7931,2.3881 C16.0341,2.8041 16.2751,3.2211 16.5151,3.6381 C16.9091,4.3211 17.3021,5.0051 17.6961,5.6881 C17.9381,6.1071 18.1841,6.5241 18.4261,6.9421 C18.8581,7.6891 19.2881,8.4361 19.7201,9.1831 C20.0871,9.8191 20.4551,10.4561 20.8241,11.0921 C21.0631,11.5061 21.3041,11.9191 21.5431,12.3331 C21.9961,13.1171 22.4491,13.9011 22.9021,14.6851 C23.2451,15.2791 23.5901,15.8731 23.9331,16.4671 C24.2851,17.0791 24.6351,17.6911 24.9881,18.3021 C25.3551,18.9381 25.7261,19.5721 26.0941,20.2081 C26.4851,20.8841 26.8731,21.5621 27.2641,22.2381 C27.4611,22.5791 27.6661,22.9171 27.8571,23.2621 C28.0061,23.5311 28.0381,23.8211 27.9551,24.1181 C27.8321,24.5581 27.5441,24.8381 27.1081,24.9631 C27.0261,24.9871 26.9371,24.9981 26.8511,24.9981 C22.5651,25.0001 18.2791,25.0001 13.9921,25.0001" id="Fill-1" fill="#231916" mask="url(#mask-2)"></path>
                    </g>
                    <polygon id="Fill-3" fill="#E7D642" points="25.2758 23.5276 14.1208 4.2396 2.9698 23.5276"></polygon>
                    <path d="M12.0717,13.179 L12.0717,19.774 C12.0717,20.839 12.9347,21.702 13.9997,21.702 C15.0647,21.702 15.9287,20.839 15.9287,19.774 L15.9287,13.179 C15.9287,12.114 15.0647,11.25 13.9997,11.25 C12.9347,11.25 12.0717,12.114 12.0717,13.179" id="Fill-5" fill="#231916"></path>
                    <path d="M14,15.0774 C13.217,15.0774 12.582,15.7124 12.582,16.4954 C12.582,17.2794 13.217,17.9134 14,17.9134 C14.783,17.9134 15.418,17.2794 15.418,16.4954 C15.418,15.7124 14.783,15.0774 14,15.0774" id="Fill-7" fill="#E6B61C"></path>
                    <path d="M14,18.3729 C13.217,18.3729 12.582,19.0079 12.582,19.7909 C12.582,20.5749 13.217,21.2089 14,21.2089 C14.783,21.2089 15.418,20.5749 15.418,19.7909 C15.418,19.0079 14.783,18.3729 14,18.3729" id="Fill-9" fill="#2F8958"></path>
                    <path d="M14,11.7518 C13.217,11.7518 12.582,12.3868 12.582,13.1698 C12.582,13.9528 13.217,14.5878 14,14.5878 C14.783,14.5878 15.418,13.9528 15.418,13.1698 C15.418,12.3868 14.783,11.7518 14,11.7518" id="Fill-11" fill="#D02E1D"></path>
                </g>
            </g>
        </g>
    </g>
</svg>