<?xml version="1.0" encoding="UTF-8"?>
<svg width="21px" height="19px" viewBox="0 0 21 19" version="1.1" xmlns="http://www.w3.org/2000/svg" xmlns:xlink="http://www.w3.org/1999/xlink">
    <!-- Generator: Sketch 54.1 (76490) - https://sketchapp.com -->
    <title>03105</title>
    <desc>Created with Sketch.</desc>
    <g id="-" stroke="none" stroke-width="1" fill="none" fill-rule="evenodd">
        <g id="C9_1_icon-汇总说明(一)" transform="translate(-636.000000, -620.000000)">
            <g id="编组-28" transform="translate(335.000000, 613.000000)">
                <g id="03105" transform="translate(301.000000, 7.000000)">
                    <path d="M19.8616,18.5111 L0.7356,18.5111 C-0.0804,18.3561 -0.0454,17.5461 0.5226,16.5451 L9.5426,0.6451 C9.8836,0.1121 10.7346,-0.2329 11.2336,0.6451 L20.0846,16.2071 C20.6866,17.1611 21.2366,18.5281 19.8616,18.5111" id="Fill-1" fill="#E7D642"></path>
                    <path d="M10.388,2.1053 L1.876,16.9943 L18.9,16.9943 L10.388,2.1053 Z M19.862,18.5113 L0.736,18.5113 C-0.08,18.3553 -0.046,17.5453 0.523,16.5443 L9.542,0.6453 C9.884,0.1113 10.734,-0.2327 11.234,0.6453 L20.084,16.2073 C20.686,17.1613 21.237,18.5273 19.862,18.5113 L19.862,18.5113 Z" id="Fill-3" fill="#231916"></path>
                    <path d="M10.388,2.1053 L1.876,16.9943 L18.9,16.9943 L10.388,2.1053 Z M19.862,18.5113 L0.736,18.5113 C-0.08,18.3553 -0.046,17.5453 0.523,16.5443 L9.542,0.6453 C9.884,0.1113 10.734,-0.2327 11.234,0.6453 L20.084,16.2073 C20.686,17.1613 21.237,18.5273 19.862,18.5113 Z" id="Stroke-5" stroke="#231916" stroke-width="0.216"></path>
                    <polygon id="Fill-7" fill="#231916" points="10.7137 10.9457 10.7137 7.8187 9.2247 7.8187 9.2247 15.9157 10.7137 15.9157 10.7137 13.0307 12.7717 15.0897 13.8147 14.0467"></polygon>
                </g>
            </g>
        </g>
    </g>
</svg>