<?xml version="1.0" encoding="UTF-8"?>
<svg id="b" xmlns="http://www.w3.org/2000/svg" width="28" height="20"
    xmlns:xlink="http://www.w3.org/1999/xlink" viewBox="0 0 28 20">
    <defs>
        <linearGradient id="d" x1="14" y1="18.6" x2="14" y2="9.8" gradientUnits="userSpaceOnUse">
            <stop offset="0" stop-color="#f5a823" />
            <stop offset=".3" stop-color="#f5c003" />
            <stop offset=".5" stop-color="#f6d11b" />
            <stop offset=".7" stop-color="#f8e93e" />
            <stop offset=".9" stop-color="#f9f956" />
            <stop offset="1" stop-color="#faff5f" />
        </linearGradient>
        <linearGradient id="e" x1="14" y1="17.8" x2="14" y2="10.1" gradientUnits="userSpaceOnUse">
            <stop offset="0" stop-color="#ff7e00" />
            <stop offset=".3" stop-color="#fe8000" />
            <stop offset=".5" stop-color="#fd8900" />
            <stop offset=".6" stop-color="#fa9901" />
            <stop offset=".8" stop-color="#f7ae02" />
            <stop offset=".9" stop-color="#f5c003" />
            <stop offset=".9" stop-color="#f6d11b" />
            <stop offset="1" stop-color="#f8e93e" />
            <stop offset="1" stop-color="#f9f956" />
            <stop offset="1" stop-color="#faff5f" />
        </linearGradient>
        <linearGradient id="f" x1=".4" y1="9.5" x2="7.3" y2="9.5" gradientUnits="userSpaceOnUse">
            <stop offset="0" stop-color="#ff9f0f" />
            <stop offset=".2" stop-color="#edb80f" />
            <stop offset=".5" stop-color="#f6d11b" />
            <stop offset=".7" stop-color="#f8e93e" />
            <stop offset=".9" stop-color="#f9f956" />
            <stop offset="1" stop-color="#faff5f" />
        </linearGradient>
        <linearGradient id="g" x1="278.2" y1="25.4" x2="285.1" y2="25.4"
            gradientTransform="translate(305.8 -15.9) rotate(-180) scale(1 -1)" xlink:href="#f" />
    </defs>
    <g id="c">
        <rect x="20.9" y=".5" width="7.1" height="19.3" rx="1" ry="1"
            style="fill:#684214; stroke-width:0px;" />
        <rect x="0" y="18.2" width="27.8" height="1.8" rx=".9" ry=".9"
            style="fill:#684214; stroke-width:0px;" />
        <rect width="27.8" height="19.1" rx="1" ry="1" style="fill:#e8b30a; stroke-width:0px;" />
        <rect x=".2" y=".5" width="27.6" height="18.6" rx="1" ry="1"
            style="fill:#fcd90b; stroke-width:0px;" />
        <path
            d="m21.5,9.8H6.6c-.5,0-.9.2-1.2.6l-4.2,6c-.7.9,0,2.2,1.2,2.2h23.2c1.1,0,1.8-1.3,1.2-2.2l-4.1-6c-.3-.4-.7-.6-1.2-.6Z"
            style="fill:url(#d); stroke-width:0px;" />
        <rect x="6.7" y="2.8" width="14.4" height="7.5" style="fill:#fffdab; stroke-width:0px;" />
        <path
            d="m20.2,10.1H7.9c-.5,0-.9.2-1.2.6l-3.3,4.8c-.6.9,0,2.2,1.2,2.2h18.8c1.1,0,1.8-1.3,1.2-2.2l-3.2-4.8c-.3-.4-.7-.6-1.2-.6Z"
            style="fill:url(#e); stroke-width:0px;" />
        <path d="m7.3,8.4V2.8L.4,1v17.1c0,0,6.4-8.1,6.4-8.1.4-.4.5-1,.5-1.6Z"
            style="fill:url(#f); stroke-width:0px;" />
        <path d="m20.6,8.4V2.8s6.9-1.8,6.9-1.8v17.1c0,0-6.4-8.1-6.4-8.1-.4-.4-.5-1-.5-1.6Z"
            style="fill:url(#g); stroke-width:0px;" />
    </g>
</svg>