<?xml version="1.0" encoding="UTF-8"?>
<svg width="31px" height="24px" viewBox="0 0 24 31" version="1.1" xmlns="http://www.w3.org/2000/svg" xmlns:xlink="http://www.w3.org/1999/xlink">
    <!-- Generator: Sketch 54.1 (76490) - https://sketchapp.com -->
    <title>1301_1_0</title>
    <desc>Created with Sketch.</desc>
    <g id="页面" stroke="none" stroke-width="1" fill="none" fill-rule="evenodd" transform="rotate(90, 12, 15)">
        <g id="C9_6_icon-汇总说明-" transform="translate(-564.000000, -647.000000)" fill="#FFB400" fill-rule="nonzero">
            <g id="编组-12" transform="translate(263.000000, 645.000000)">
                <g id="1301_1_0" transform="translate(301.000000, 2.207000)">
                    <polygon id="path2200_15_" points="10.947 29.277 10.913 9.522 12.961 10.36 12.993 29.261"></polygon>
                    <polygon id="path2214_21_" points="11.226 11.553 21.327 5.327 20.726 9.775 22.949 8.47 23.633 2.746 18.149 0.723 15.853 2.229 20.45 3.705 10.915 9.522"></polygon>
                    <path d="M12.769,18.262 C12.502,12.908 3.819,12.899 3.917,18.379 L3.943,26.328 L0.432,23.234 L0.367,25.297 L5.004,29.196 L9.432,25.322 L9.439,23.058 L5.942,26.233 L5.96,18.779 C6.043,15.185 10.721,15.318 10.908,18.685 L12.769,18.262 Z" id="path22940_15_"></path>
                </g>
            </g>
        </g>
    </g>
</svg>