<?xml version="1.0" encoding="UTF-8"?>
<svg width="31px" height="18px" viewBox="0 0 18 31" version="1.1" xmlns="http://www.w3.org/2000/svg" xmlns:xlink="http://www.w3.org/1999/xlink">
    <!-- Generator: Sketch 54.1 (76490) - https://sketchapp.com -->
    <title>1301_1_e</title>
    <desc>Created with Sketch.</desc>
    <g id="页面" stroke="none" stroke-width="1" fill="none" fill-rule="evenodd" transform="rotate(90, 9, 15)">
        <g id="C9_6_icon-汇总说明-" transform="translate(-305.000000, -712.000000)" fill="#FFB400" fill-rule="nonzero">
            <g id="编组-12" transform="translate(263.000000, 645.000000)">
                <g id="1301_1_e" transform="translate(42.000000, 67.207000)">
                    <path d="M13.663,17.172 C13.392,11.782 3.671,11.773 3.772,17.289 L3.796,22.839 L0.263,19.724 L0.198,21.8 L4.865,25.726 L9.322,21.826 L9.328,19.548 L5.807,22.744 L5.826,17.693 C5.909,14.076 11.597,14.209 11.788,17.598 L13.663,17.172 Z" id="path22940_8_"></path>
                    <polygon id="path2263_2_" points="13.875 29.218 13.849 4.561 17.734 7.711 17.801 4.819 12.751 0.782 7.581 4.813 7.659 7.891 11.783 4.383 11.797 29.216"></polygon>
                </g>
            </g>
        </g>
    </g>
</svg>