<?xml version="1.0" encoding="UTF-8"?>
<svg width="14px" height="31px" viewBox="0 0 14 31" version="1.1" xmlns="http://www.w3.org/2000/svg" xmlns:xlink="http://www.w3.org/1999/xlink">
    <!-- Generator: Sketch 54.1 (76490) - https://sketchapp.com -->
    <title>1301_1_u</title>
    <desc>Created with Sketch.</desc>
    <g id="页面" stroke="none" stroke-width="1" fill="none" fill-rule="evenodd">
        <g id="C9_6_icon-汇总说明-" transform="translate(-750.000000, -712.000000)" fill="#FFB400" fill-rule="nonzero">
            <g id="编组-12" transform="translate(263.000000, 645.000000)">
                <g id="1301_1_u" transform="translate(487.000000, 67.207000)">
                    <polygon id="path2200_12_" points="11.429 29.262 11.461 10.361 13.509 9.523 13.475 29.278"></polygon>
                    <polygon id="path2214_18_" points="13.51 9.521 3.975 3.704 8.572 2.228 6.275 0.722 0.792 2.745 1.476 8.469 3.699 9.774 3.098 5.326 13.199 11.552"></polygon>
                    <path d="M11.425,19.516 C11.447,19.099 11.192,17.653 10.065,16.862 C8.939,16.07 7.019,16.206 7.019,16.206 L3.7,16.221 L6.828,19.898 L4.086,19.968 L0.49,15.357 L4.09,10.853 L6.668,10.915 L3.813,14.378 L6.82,14.366 C6.82,14.366 8.662,14.314 9.71,14.8 C10.755,15.285 12.111,16.4 12.255,16.809 C12.536,17.626 11.401,19.915 11.425,19.516 Z" id="path2249_6_"></path>
                </g>
            </g>
        </g>
    </g>
</svg>