<?xml version="1.0" encoding="UTF-8"?>
<svg width="24px" height="31px" viewBox="0 0 24 31" version="1.1" xmlns="http://www.w3.org/2000/svg" xmlns:xlink="http://www.w3.org/1999/xlink">
    <!-- Generator: Sketch 54.1 (76490) - https://sketchapp.com -->
    <title>1301_1_i</title>
    <desc>Created with Sketch.</desc>
    <g id="页面" stroke="none" stroke-width="1" fill="none" fill-rule="evenodd">
        <g id="C9_6_icon-汇总说明-" transform="translate(-613.000000, -647.000000)" fill="#FFB400" fill-rule="nonzero">
            <g id="编组-12" transform="translate(263.000000, 645.000000)">
                <g id="1301_1_i" transform="translate(350.000000, 2.207000)">
                    <polygon id="path2214_3_" points="12.909 29.208 12.895 4.113 16.36 6.968 16.422 4.391 11.918 0.792 7.308 4.386 7.377 7.13 11.054 4.003 11.071 29.167"></polygon>
                    <path d="M11.867,15.131 C12.011,14.722 13.367,13.607 14.413,13.122 C15.459,12.636 17.301,12.688 17.301,12.688 L20.307,12.7 L17.453,9.237 L20.031,9.175 L23.63,13.679 L20.036,18.29 L17.292,18.22 L20.419,14.543 L17.1,14.528 C17.1,14.528 15.18,14.392 14.054,15.184 C12.927,15.975 12.67,17.421 12.696,17.838 C12.716,18.237 11.581,15.948 11.867,15.131 Z" id="path2249"></path>
                    <path d="M12.728,16.487 C12.462,11.151 3.809,11.142 3.909,16.603 L3.934,24.524 L0.437,21.441 L0.37,23.496 L4.991,27.383 L9.404,23.523 L9.409,21.268 L5.924,24.432 L5.943,17.005 C6.026,13.423 10.929,13.555 11.117,16.911 L12.728,16.487 Z" id="path22940_9_"></path>
                </g>
            </g>
        </g>
    </g>
</svg>