<?xml version="1.0" encoding="UTF-8"?>
<svg width="14px" height="31px" viewBox="0 0 14 31" version="1.1" xmlns="http://www.w3.org/2000/svg" xmlns:xlink="http://www.w3.org/1999/xlink">
    <!-- Generator: Sketch 54.1 (76490) - https://sketchapp.com -->
    <title>1301_1_w</title>
    <desc>Created with Sketch.</desc>
    <g id="页面" stroke="none" stroke-width="1" fill="none" fill-rule="evenodd">
        <g id="C9_6_icon-汇总说明-" transform="translate(-788.000000, -712.000000)" fill="#FFB400" fill-rule="nonzero">
            <g id="编组-12" transform="translate(263.000000, 645.000000)">
                <g id="1301_1_w" transform="translate(525.000000, 67.207000)">
                    <polygon id="path2200_14_" points="11.278 29.261 11.31 10.36 13.358 9.522 13.324 29.277"></polygon>
                    <polygon id="path2214_20_" points="13.359 9.52 3.824 3.703 8.421 2.227 6.124 0.721 0.641 2.744 1.325 8.468 3.548 9.773 2.947 5.325 13.048 11.551"></polygon>
                    <path d="M13.163,18.345 C12.896,12.991 4.213,12.982 4.311,18.462 L4.337,26.411 L0.826,23.317 L0.761,25.38 L5.398,29.279 L9.826,25.405 L9.832,23.141 L6.336,26.316 L6.354,18.862 C6.437,15.268 11.115,15.401 11.302,18.768 L13.163,18.345 Z" id="path22940_14_"></path>
                </g>
            </g>
        </g>
    </g>
</svg>