<?xml version="1.0" encoding="UTF-8"?>
<svg width="26px" height="37px" viewBox="0 0 26 37" version="1.1" xmlns="http://www.w3.org/2000/svg" xmlns:xlink="http://www.w3.org/1999/xlink">
    <!-- Generator: Sketch 54.1 (76490) - https://sketchapp.com -->
    <title>2</title>
    <desc>Created with Sketch.</desc>
    <g id="页面" stroke="none" stroke-width="1" fill="none" fill-rule="evenodd">
        <g id="C9_6_icon-汇总说明-" transform="translate(-885.000000, -881.000000)" fill="#00C800" fill-rule="nonzero">
            <g id="24" transform="translate(885.000000, 881.000000)">
                <g id="2">
                    <g id="1301_1_m复制" transform="translate(0.000000, 7.327028)">
                        <polygon id="path2200_4_" points="11.82 29.099 11.848 7.259 14.202 7.119 14.184 29.106"></polygon>
                        <path d="M13.017,7.058 C12.87,6.634 11.463,5.48 10.381,4.978 C9.299,4.476 7.392,4.53 7.392,4.53 L4.283,4.542 L7.238,0.958 L4.57,0.894 L0.842,5.556 L4.563,10.329 L7.405,10.257 L4.168,6.451 L7.604,6.434 C7.604,6.434 9.282,6.428 10.448,7.247 C11.614,8.067 11.908,9.713 11.915,10.112 C11.923,10.91 13.313,7.904 13.017,7.058 Z" id="path2214_5_"></path>
                        <path d="M12.984,7.058 C13.13,6.634 14.537,5.48 15.619,4.978 C16.701,4.476 18.608,4.53 18.608,4.53 L21.718,4.542 L18.762,0.958 L21.43,0.894 L25.158,5.556 L21.436,10.329 L18.595,10.258 L21.832,6.452 L18.395,6.434 C18.395,6.434 16.719,6.428 15.553,7.247 C14.387,8.067 14.092,9.713 14.086,10.112 C14.076,10.91 12.686,7.904 12.984,7.058 Z" id="path2249_1_"></path>
                        <path d="M13.875,17.759 C13.6,12.236 4.64,12.227 4.744,17.879 L4.768,26.079 L1.151,22.887 L1.082,25.014 L5.864,29.037 L10.429,25.041 L10.435,22.707 L6.83,25.982 L6.848,18.294 C6.933,14.587 11.759,14.724 11.952,18.197 L13.875,17.759 Z" id="path22940_11_"></path>
                    </g>
                    <polygon id="path2214_13_复制-3" points="14.202 26.7410277 13.9292793 3.211 17.6072793 6.338 17.6752793 3.594 13.0662793 -9.07718345e-13 8.3890131 3.761 8.4520131 6.338 12.0696922 3.211 11.82 26.7410277"></polygon>
                </g>
            </g>
        </g>
    </g>
</svg>