<?xml version="1.0" encoding="UTF-8"?>
<svg width="30px" height="26px" viewBox="0 0 26 30" version="1.1" xmlns="http://www.w3.org/2000/svg" xmlns:xlink="http://www.w3.org/1999/xlink">
    <!-- Generator: Sketch 54.1 (76490) - https://sketchapp.com -->
    <title>1301_2_4</title>
    <desc>Created with Sketch.</desc>
    <g id="页面" stroke="none" stroke-width="1" fill="none" fill-rule="evenodd" transform="rotate(90, 13, 15)">
        <g id="C9_6_icon-汇总说明-" transform="translate(-406.000000, -888.000000)" fill="#00C800" fill-rule="nonzero">
            <g id="编组-14" transform="translate(263.000000, 820.000000)">
                <g id="1301_2_4" transform="translate(143.000000, 68.000000)">
                    <polygon id="path2214_37_" points="14.467 29.168 14.483 4.004 18.16 7.131 18.229 4.387 13.619 0.793 9.115 4.392 9.178 6.969 12.641 4.114 12.628 29.208"></polygon>
                    <polygon id="path2214_36_" points="14.347 14.333 3.805 7.817 8.401 6.341 6.105 4.835 0.621 6.858 1.306 12.582 3.528 13.887 2.927 9.439 13.75 16.12"></polygon>
                    <path d="M13.615,14.256 C13.759,13.847 15.115,12.732 16.16,12.247 C17.208,11.761 19.05,11.813 19.05,11.813 L22.057,11.825 L19.202,8.362 L21.779,8.3 L25.379,12.804 L21.782,17.416 L19.04,17.346 L22.168,13.669 L18.849,13.654 C18.849,13.654 16.929,13.518 15.802,14.31 C14.675,15.101 14.419,16.547 14.443,16.964 C14.465,17.361 13.331,15.072 13.615,14.256 Z" id="path2249_15_"></path>
                </g>
            </g>
        </g>
    </g>
</svg>