<?xml version="1.0" encoding="UTF-8"?>
<svg width="30px" height="18px" viewBox="0 0 18 30" version="1.1" xmlns="http://www.w3.org/2000/svg" xmlns:xlink="http://www.w3.org/1999/xlink">
    <!-- Generator: Sketch 54.1 (76490) - https://sketchapp.com -->
    <title>1301_2_2</title>
    <desc>Created with Sketch.</desc>
    <g id="页面" stroke="none" stroke-width="1" fill="none" fill-rule="evenodd" transform="rotate(90, 9, 15)">
        <g id="C9_6_icon-汇总说明-" transform="translate(-844.000000, -889.000000)" fill="#00C800" fill-rule="nonzero">
            <g id="编组-14" transform="translate(263.000000, 820.000000)">
                <g id="1301_2_2" transform="translate(581.000000, 69.000000)">
                    <polygon id="path2214_13_" points="14.042 29.168 14.057 4.004 17.735 7.131 17.803 4.387 13.194 0.793 8.69 4.391 8.753 6.968 12.216 4.113 12.204 29.207"></polygon>
                    <path d="M12.42,22.839 C12.442,22.422 12.187,20.976 11.06,20.185 C9.934,19.393 8.014,19.529 8.014,19.529 L4.695,19.544 L7.823,23.221 L5.081,23.291 L1.485,18.68 L5.085,14.176 L7.663,14.238 L4.808,17.701 L7.815,17.689 C7.815,17.689 9.657,17.637 10.705,18.123 C11.75,18.608 13.105,19.723 13.25,20.132 C13.529,20.947 12.396,23.236 12.42,22.839 Z" id="path2249_5_"></path>
                    <polygon id="path2214_12_" points="13.922 14.333 3.38 7.817 7.976 6.341 5.68 4.835 0.197 6.858 0.881 12.582 3.103 13.887 2.503 9.439 13.326 16.12"></polygon>
                </g>
            </g>
        </g>
    </g>
</svg>