<?xml version="1.0" encoding="UTF-8"?>
<svg width="14px" height="30px" viewBox="0 0 14 30" version="1.1" xmlns="http://www.w3.org/2000/svg" xmlns:xlink="http://www.w3.org/1999/xlink">
    <!-- Generator: Sketch 54.1 (76490) - https://sketchapp.com -->
    <title>1301_2_b</title>
    <desc>Created with Sketch.</desc>
    <g id="页面" stroke="none" stroke-width="1" fill="none" fill-rule="evenodd">
        <g id="C9_6_icon-汇总说明-" transform="translate(-516.000000, -820.000000)" fill="#00C800" fill-rule="nonzero">
            <g id="编组-14" transform="translate(263.000000, 820.000000)">
                <g id="1301_2_b" transform="translate(253.000000, 0.000000)">
                    <polygon id="path2200_8_" points="11.215 29.041 11.2 8.212 13.237 8.348 13.266 29.035"></polygon>
                    <path d="M13.148,8.08 C13.525,8.766 11.227,10.283 11.222,9.895 C11.214,9.508 11.171,7.913 10.04,7.118 C8.909,6.323 7.285,6.33 7.285,6.33 L3.955,6.346 L7.094,10.036 L4.34,10.105 L0.734,5.479 L4.346,0.959 L6.933,1.021 L4.067,4.496 L7.085,4.484 C7.085,4.484 8.883,4.561 9.982,4.919 C11.559,5.428 12.494,6.524 13.148,8.08 Z" id="path2214_9_"></path>
                </g>
            </g>
        </g>
    </g>
</svg>