<?xml version="1.0" encoding="UTF-8"?>
<svg width="30px" height="26px" viewBox="0 0 26 30" version="1.1" xmlns="http://www.w3.org/2000/svg" xmlns:xlink="http://www.w3.org/1999/xlink">
    <!-- Generator: Sketch 54.1 (76490) - https://sketchapp.com -->
    <title>1301_2_3</title>
    <desc>Created with Sketch.</desc>
    <g id="页面" stroke="none" stroke-width="1" fill="none" fill-rule="evenodd" transform="rotate(90, 13, 15)">
        <g id="C9_6_icon-汇总说明-" transform="translate(-355.000000, -888.000000)" fill="#00C800" fill-rule="nonzero">
            <g id="编组-14" transform="translate(263.000000, 820.000000)">
                <g id="1301_2_3" transform="translate(92.000000, 68.000000)">
                    <polygon id="path2214_29_" points="13.37 29.208 13.358 4.113 16.821 6.968 16.884 4.391 12.38 0.792 7.771 4.387 7.839 7.131 11.517 4.004 11.532 29.168"></polygon>
                    <polygon id="path2214_28_" points="12.249 16.121 23.072 9.44 22.472 13.888 24.694 12.583 25.378 6.859 19.895 4.836 17.599 6.342 22.195 7.818 11.653 14.334"></polygon>
                    <path d="M11.558,16.964 C11.579,16.547 11.325,15.101 10.198,14.31 C9.072,13.518 7.152,13.654 7.152,13.654 L3.832,13.669 L6.96,17.346 L4.218,17.416 L0.622,12.805 L4.223,8.301 L6.8,8.363 L3.946,11.826 L6.952,11.814 C6.952,11.814 8.794,11.762 9.842,12.248 C10.887,12.733 12.243,13.848 12.387,14.257 C12.668,15.071 11.533,17.361 11.558,16.964 Z" id="path2249_14_"></path>
                </g>
            </g>
        </g>
    </g>
</svg>