<?xml version="1.0" encoding="UTF-8"?>
<svg width="18px" height="30px" viewBox="0 0 18 30" version="1.1" xmlns="http://www.w3.org/2000/svg" xmlns:xlink="http://www.w3.org/1999/xlink">
    <!-- Generator: Sketch 54.1 (76490) - https://sketchapp.com -->
    <title>1301_2_j</title>
    <desc>Created with Sketch.</desc>
    <g id="页面" stroke="none" stroke-width="1" fill="none" fill-rule="evenodd">
        <g id="C9_6_icon-汇总说明-" transform="translate(-432.000000, -823.000000)" fill="#00C800" fill-rule="nonzero">
            <g id="编组-14" transform="translate(263.000000, 820.000000)">
                <g id="1301_2_j" transform="translate(169.000000, 3.000000)">
                    <path d="M12.059,12.145 C11.915,11.735 10.799,10.862 9.752,10.375 C8.705,9.889 6.495,9.942 6.495,9.942 L3.484,9.953 L6.343,6.485 L3.762,6.422 L0.158,10.932 L3.758,15.55 L6.506,15.48 L3.374,11.797 L6.698,11.782 C6.698,11.782 8.563,11.532 9.691,12.324 C10.819,13.117 12.077,14.467 12.083,14.854 C12.095,15.629 12.346,12.965 12.059,12.145 Z" id="path2214_1_"></path>
                    <path d="M13.74,20.555 C13.472,15.211 3.833,15.203 3.932,20.672 L3.958,26.174 L0.455,23.086 L0.389,25.144 L5.016,29.037 L9.436,25.17 L9.442,22.912 L5.951,26.08 L5.968,21.073 C6.051,17.487 11.694,17.618 11.879,20.979 L13.74,20.555 Z" id="path22940_1_"></path>
                    <polygon id="path2263_1_" points="13.95 29.096 13.924 4.649 17.775 7.773 17.843 4.906 12.836 0.904 7.71 4.902 7.788 7.953 11.876 4.475 11.89 29.096"></polygon>
                </g>
            </g>
        </g>
    </g>
</svg>