<?xml version="1.0" encoding="UTF-8"?>
<svg width="30px" height="24px" viewBox="0 0 24 30" version="1.1" xmlns="http://www.w3.org/2000/svg" xmlns:xlink="http://www.w3.org/1999/xlink">
    <!-- Generator: Sketch 54.1 (76490) - https://sketchapp.com -->
    <title>1301_2_y</title>
    <desc>Created with Sketch.</desc>
    <g id="页面" stroke="none" stroke-width="1" fill="none" fill-rule="evenodd" transform="rotate(90, 12, 15)">
        <g id="C9_6_icon-汇总说明-" transform="translate(-820.000000, -823.000000)" fill="#00C800" fill-rule="nonzero">
            <g id="编组-14" transform="translate(263.000000, 820.000000)">
                <g id="1301_2_y" transform="translate(557.000000, 3.000000)">
                    <polygon id="path2200_13_" points="11.116 29.278 11.083 9.523 13.131 10.361 13.163 29.262"></polygon>
                    <polygon id="path2214_19_" points="11.393 11.553 21.494 5.327 20.893 9.775 23.116 8.47 23.8 2.746 18.317 0.723 16.02 2.228 20.617 3.704 11.082 9.521"></polygon>
                    <path d="M11.135,19.578 C11.158,19.161 10.903,17.715 9.776,16.924 C8.649,16.132 6.729,16.268 6.729,16.268 L3.41,16.283 L6.538,19.96 L3.796,20.03 L0.2,15.419 L3.8,10.915 L6.378,10.977 L3.523,14.44 L6.53,14.428 C6.53,14.428 8.372,14.376 9.42,14.862 C10.465,15.347 11.821,16.462 11.965,16.871 C12.248,17.688 11.112,19.976 11.135,19.578 Z" id="path2249_7_"></path>
                </g>
            </g>
        </g>
    </g>
</svg>