<?xml version="1.0" encoding="UTF-8"?>
<svg width="14px" height="30px" viewBox="0 0 14 30" version="1.1" xmlns="http://www.w3.org/2000/svg" xmlns:xlink="http://www.w3.org/1999/xlink">
    <!-- Generator: Sketch 54.1 (76490) - https://sketchapp.com -->
    <title>1301_2_l</title>
    <desc>Created with Sketch.</desc>
    <g id="页面" stroke="none" stroke-width="1" fill="none" fill-rule="evenodd">
        <g id="C9_6_icon-汇总说明-" transform="translate(-593.000000, -820.000000)" fill="#00C800" fill-rule="nonzero">
            <g id="编组-14" transform="translate(263.000000, 820.000000)">
                <g id="1301_2_l" transform="translate(330.000000, 0.000000)">
                    <polygon id="path2200_3_" points="11.217 29.181 11.246 8.277 13.304 8.14 13.289 29.187"></polygon>
                    <path d="M10.055,4.814 C8.943,4.452 7.126,4.376 7.126,4.376 L4.078,4.387 L6.974,0.876 L4.361,0.813 L0.713,5.38 L4.357,10.055 L7.14,9.985 L3.97,6.256 L7.334,6.24 C7.334,6.24 8.978,6.234 10.119,7.036 C11.262,7.839 11.305,9.452 11.308,9.843 C11.314,10.234 13.636,8.7 13.255,8.008 C12.593,6.434 11.645,5.329 10.055,4.814 Z" id="path2214_4_"></path>
                    <path d="M13.229,18.072 C12.96,12.661 4.183,12.653 4.286,18.19 L4.31,26.223 L0.765,23.096 L0.696,25.18 L5.384,29.121 L9.858,25.206 L9.864,22.918 L6.332,26.127 L6.349,18.595 C6.433,14.963 11.162,15.096 11.349,18.5 L13.229,18.072 Z" id="path22940_10_"></path>
                </g>
            </g>
        </g>
    </g>
</svg>