<?xml version="1.0" encoding="UTF-8"?>
<svg width="30px" height="14px" viewBox="0 0 14 30" version="1.1" xmlns="http://www.w3.org/2000/svg" xmlns:xlink="http://www.w3.org/1999/xlink">
    <!-- Generator: Sketch 54.1 (76490) - https://sketchapp.com -->
    <title>1301_2_c</title>
    <desc>Created with Sketch.</desc>
    <g id="页面" stroke="none" stroke-width="1" fill="none" fill-rule="evenodd" transform="rotate(90, 7, 15)">
        <g id="C9_6_icon-汇总说明-" transform="translate(-555.000000, -820.000000)" fill="#00C800" fill-rule="nonzero">
            <g id="编组-14" transform="translate(263.000000, 820.000000)">
                <g id="1301_2_c" transform="translate(292.000000, 0.000000)">
                    <polygon id="path2200_7_" points="0.734 29.033 0.762 8.347 2.798 8.211 2.782 29.04"></polygon>
                    <path d="M4.019,4.92 C5.119,4.562 6.915,4.485 6.915,4.485 L9.935,4.497 L7.069,1.022 L9.656,0.96 L13.267,5.48 L9.661,10.106 L6.907,10.037 L10.046,6.347 L6.716,6.331 C6.716,6.331 5.091,6.324 3.96,7.119 C2.829,7.914 2.786,9.509 2.78,9.896 C2.775,10.284 0.475,8.767 0.853,8.081 C1.505,6.524 2.443,5.428 4.019,4.92 Z" id="path2214_8_"></path>
                </g>
            </g>
        </g>
    </g>
</svg>